<?xml version="1.0" encoding="UTF-8" standalone="no"?>
<!-- Created with Inkscape (http://www.inkscape.org/) -->

<svg
   xmlns:dc="http://purl.org/dc/elements/1.1/"
   xmlns:cc="http://creativecommons.org/ns#"
   xmlns:rdf="http://www.w3.org/1999/02/22-rdf-syntax-ns#"
   xmlns:svg="http://www.w3.org/2000/svg"
   xmlns="http://www.w3.org/2000/svg"
   xmlns:sodipodi="http://sodipodi.sourceforge.net/DTD/sodipodi-0.dtd"
   xmlns:inkscape="http://www.inkscape.org/namespaces/inkscape"
   width="70"
   height="70"
   id="svg4744"
   version="1.1"
   inkscape:version="0.48.3.1 r9886"
   sodipodi:docname="New document 16">
  <defs
     id="defs4746" />
  <sodipodi:namedview
     id="base"
     pagecolor="#ffffff"
     bordercolor="#666666"
     borderopacity="1.0"
     inkscape:pageopacity="0.0"
     inkscape:pageshadow="2"
     inkscape:zoom="2.3240611"
     inkscape:cx="38.130347"
     inkscape:cy="9.6891472"
     inkscape:document-units="px"
     inkscape:current-layer="layer7"
     showgrid="false"
     inkscape:window-width="1280"
     inkscape:window-height="761"
     inkscape:window-x="0"
     inkscape:window-y="0"
     inkscape:window-maximized="1" />
  <metadata
     id="metadata4749">
    <rdf:RDF>
      <cc:Work
         rdf:about="">
        <dc:format>image/svg+xml</dc:format>
        <dc:type
           rdf:resource="http://purl.org/dc/dcmitype/StillImage" />
        <dc:title></dc:title>
      </cc:Work>
    </rdf:RDF>
  </metadata>
  <g
     inkscape:label="0"
     inkscape:groupmode="layer"
     id="layer1"
     transform="translate(0,-982.36218)"
     style="display:inline"
     sodipodi:insensitive="true">
    <path
       sodipodi:type="star"
       style="color:#000000;fill:#fff84a;fill-opacity:0.87573966;fill-rule:nonzero;stroke:#ffffff;stroke-width:0.93883401;stroke-linecap:round;stroke-linejoin:round;stroke-miterlimit:4;stroke-opacity:1;stroke-dasharray:none;stroke-dashoffset:0;marker:none;visibility:visible;display:inline;overflow:visible;enable-background:accumulate"
       id="path4711"
       sodipodi:sides="12"
       sodipodi:cx="26.636467"
       sodipodi:cy="27.383919"
       sodipodi:r1="33.922859"
       sodipodi:r2="16.96143"
       sodipodi:arg1="0.65471859"
       sodipodi:arg2="0.91651797"
       inkscape:flatsided="false"
       inkscape:rounded="0"
       inkscape:randomized="0.1"
       d="M 53.615992,50.923292 35.133325,43.485956 42.373018,60.654636 26.533916,46.933675 19.598916,57.791632 18.206257,42.526314 8.8197011,53.863952 12.247073,37.980894 -3.6856206,41.768657 8.1025643,32.758286 -6.171611,25.701517 10.376928,20.882419 1.745096,4.1258094 13.920667,17.287798 10.994766,-1.8344046 26.945591,7.6951285 30.707503,-3.2214423 30.847844,12.214089 44.555174,-0.49096557 41.493445,17.77238 59.524184,12.220525 42.695404,22.675419 58.948809,30.822196 42.625104,34.806304 z"
       inkscape:transform-center-x="-0.041821199"
       inkscape:transform-center-y="1.4395838"
       transform="matrix(1.0502955,0,0,1.0802166,6.9820164,986.34204)" />
  </g>
  <g
     inkscape:groupmode="layer"
     id="layer4"
     inkscape:label="1"
     style="display:inline"
     sodipodi:insensitive="true">
    <path
       sodipodi:type="star"
       style="color:#000000;fill:#fff84a;fill-opacity:0.87573966;fill-rule:nonzero;stroke:#ffffff;stroke-width:1.13615823;stroke-linecap:round;stroke-linejoin:round;stroke-miterlimit:4;stroke-opacity:1;stroke-dasharray:none;stroke-dashoffset:0;marker:none;visibility:visible;display:inline;overflow:visible;enable-background:accumulate"
       id="path4778"
       sodipodi:sides="12"
       sodipodi:cx="27.968283"
       sodipodi:cy="36.438061"
       sodipodi:r1="39.851574"
       sodipodi:r2="19.925787"
       sodipodi:arg1="0.78539816"
       sodipodi:arg2="1.0471976"
       inkscape:flatsided="false"
       inkscape:rounded="0"
       inkscape:randomized="0.1"
       d="M 54.778204,65.487782 38.014112,51.38063 37.985495,75.718037 31.325729,55.564577 15.549933,76.272004 15.422108,52.547304 2.969638,64.760146 9.0449202,46.928791 -12.289198,47.96003 4.3127725,36.729107 -12.319576,25.404263 9.0142876,23.310907 3.0261624,7.0437187 15.408138,17.484838 15.428681,1.3117155 31.256132,14.72807 37.864242,0.75774837 38.000143,16.318163 54.834729,7.7713551 46.12755,30.089008 69.035519,26.190641 50.720373,37.436314 69.065896,48.746408 46.158183,45.736578 z"
       inkscape:transform-center-x="-0.3432623"
       inkscape:transform-center-y="1.8976587"
       transform="matrix(0.84781717,0,0,0.91373476,10.944748,-0.1923812)" />
  </g>
  <g
     inkscape:groupmode="layer"
     id="layer5"
     inkscape:label="2"
     style="display:inline"
     sodipodi:insensitive="true">
    <path
       sodipodi:type="star"
       style="color:#000000;fill:#fff84a;fill-opacity:0.87573966;fill-rule:nonzero;stroke:#ffffff;stroke-width:1.05909395;stroke-linecap:round;stroke-linejoin:round;stroke-miterlimit:4;stroke-opacity:1;stroke-dasharray:none;stroke-dashoffset:0;marker:none;visibility:visible;display:inline;overflow:visible;enable-background:accumulate"
       id="path4781"
       sodipodi:sides="12"
       sodipodi:cx="21.944345"
       sodipodi:cy="29.123278"
       sodipodi:r1="36.664913"
       sodipodi:r2="18.332457"
       sodipodi:arg1="0.52359878"
       sodipodi:arg2="0.78539816"
       inkscape:flatsided="false"
       inkscape:rounded="0"
       inkscape:randomized="0.1"
       d="M 50.942556,48.650617 37.231139,39.572824 43.846783,64.374435 29.940861,45.748494 24.623526,66.27097 19.103091,49.025041 1.1317342,57.555822 7.7105861,40.773095 -6.680192,50.715144 2.8264204,34.151247 -15.856436,31.43989 2.8693449,26.889672 -6.712739,9.9433987 7.637119,14.982302 1.0139279,-3.1198102 19.07986,14.982271 24.543455,-8.3945611 29.91763,11.705724 43.728977,-3.6341795 37.157672,13.782032 50.910009,7.8788717 42.04172,26.924918 l 13.625055,1.438154 -13.66798,5.823421 z"
       inkscape:transform-center-x="1.9672372"
       inkscape:transform-center-y="-0.17102989"
       transform="matrix(0.96472179,0,0,0.9241212,15.797049,8.2575917)" />
  </g>
  <g
     inkscape:groupmode="layer"
     id="layer6"
     inkscape:label="3"
     style="display:inline"
     sodipodi:insensitive="true">
    <path
       sodipodi:type="star"
       style="color:#000000;fill:#fff84a;fill-opacity:0.87573966;fill-rule:nonzero;stroke:#ffffff;stroke-width:1.17668903;stroke-linecap:round;stroke-linejoin:round;stroke-miterlimit:4;stroke-opacity:1;stroke-dasharray:none;stroke-dashoffset:0;marker:none;visibility:visible;display:inline;overflow:visible;enable-background:accumulate"
       id="path4784"
       sodipodi:sides="12"
       sodipodi:cx="20.223221"
       sodipodi:cy="29.983841"
       sodipodi:r1="41.084541"
       sodipodi:r2="28.759178"
       sodipodi:arg1="0.78539816"
       sodipodi:arg2="1.0471976"
       inkscape:flatsided="false"
       inkscape:rounded="0"
       inkscape:randomized="0.1"
       d="M 50.690916,59.127287 31.862819,58.368824 32.058687,67.282158 20.290555,58.79944 9.6594564,68.474397 8.1992122,57.776653 -7.2616957,62.148697 -3.8102576,41.720185 -17.865972,38.184205 -8.2721917,31.12773 -17.912882,22.609053 -3.7842248,19.639618 -7.3440186,4.197896 8.1838865,1.0285777 9.5218992,-13.068492 20.207707,-2.2066643 31.92113,-6.043823 31.847493,1.6207492 50.608593,1.1764869 45.262312,17.355196 62.881929,22.188027 51.3113,30.635616 62.928838,37.763179 45.236279,47.652671 z"
       inkscape:transform-center-x="-1.9500855"
       inkscape:transform-center-y="-1.9300429"
       transform="matrix(0.85351969,0,0,0.84618047,15.788997,11.558303)" />
  </g>
  <g
     inkscape:groupmode="layer"
     id="layer7"
     inkscape:label="4"
     style="display:inline">
    <path
       sodipodi:type="star"
       style="color:#000000;fill:#fff84a;fill-opacity:0.87573966;fill-rule:nonzero;stroke:#ffffff;stroke-width:1.30967665;stroke-linecap:round;stroke-linejoin:round;stroke-miterlimit:4;stroke-opacity:1;stroke-dasharray:none;stroke-dashoffset:0;marker:none;visibility:visible;display:inline;overflow:visible;enable-background:accumulate"
       id="path4789"
       sodipodi:sides="12"
       sodipodi:cx="23.66547"
       sodipodi:cy="27.402153"
       sodipodi:r1="43.221321"
       sodipodi:r2="21.610661"
       sodipodi:arg1="0.78539816"
       sodipodi:arg2="1.0471976"
       inkscape:flatsided="false"
       inkscape:rounded="0"
       inkscape:randomized="0.15"
       d="M 56.520816,53.393582 32.733406,50.075295 40.992518,72.707897 25.313206,50.514822 9.7498328,62.931263 18.959841,42.312986 -1.1544151,63.078809 7.4001788,39.04984 -16.821006,38.461114 -3.21996,21.181898 -16.905664,16.680994 7.3284498,16.280803 -1.3427067,2.1554911 18.888739,8.0309531 9.476883,-19.772174 25.383062,8.4969571 40.719568,-9.9955397 32.662303,2.8268659 56.332524,-7.5297361 36.759878,21.376866 71.313243,10.787591 41.163145,28.383695 71.397901,32.567711 36.831607,44.145903 z"
       inkscape:transform-center-x="-2.7979021"
       inkscape:transform-center-y="-0.6970807"
       transform="matrix(0.78139541,0,0,0.74610669,13.710008,15.252151)" />
  </g>
</svg>
