<?xml version="1.0" encoding="UTF-8" standalone="no"?>
<!-- Created with Inkscape (http://www.inkscape.org/) -->

<svg
   xmlns:dc="http://purl.org/dc/elements/1.1/"
   xmlns:cc="http://creativecommons.org/ns#"
   xmlns:rdf="http://www.w3.org/1999/02/22-rdf-syntax-ns#"
   xmlns:svg="http://www.w3.org/2000/svg"
   xmlns="http://www.w3.org/2000/svg"
   xmlns:sodipodi="http://sodipodi.sourceforge.net/DTD/sodipodi-0.dtd"
   xmlns:inkscape="http://www.inkscape.org/namespaces/inkscape"
   width="135.28673"
   height="125.21839"
   id="svg3193"
   version="1.1"
   inkscape:version="0.48.3.1 r9886"
   sodipodi:docname="New document 12">
  <defs
     id="defs3195" />
  <sodipodi:namedview
     id="base"
     pagecolor="#ffffff"
     bordercolor="#666666"
     borderopacity="1.0"
     inkscape:pageopacity="0.0"
     inkscape:pageshadow="2"
     inkscape:zoom="1.5941406"
     inkscape:cx="145.84466"
     inkscape:cy="7.0032581"
     inkscape:document-units="px"
     inkscape:current-layer="layer1"
     showgrid="false"
     fit-margin-top="0"
     fit-margin-left="0"
     fit-margin-right="0"
     fit-margin-bottom="0"
     inkscape:window-width="1280"
     inkscape:window-height="761"
     inkscape:window-x="0"
     inkscape:window-y="0"
     inkscape:window-maximized="1" />
  <metadata
     id="metadata3198">
    <rdf:RDF>
      <cc:Work
         rdf:about="">
        <dc:format>image/svg+xml</dc:format>
        <dc:type
           rdf:resource="http://purl.org/dc/dcmitype/StillImage" />
        <dc:title></dc:title>
      </cc:Work>
    </rdf:RDF>
  </metadata>
  <g
     inkscape:label="Layer 1"
     inkscape:groupmode="layer"
     id="layer1"
     transform="translate(-6.3777069,-14.933092)">
    <g
       id="g3315"
       transform="translate(0.74741526,3.4e-6)">
      <g
         id="g3308">
        <path
           sodipodi:type="arc"
           style="color:#000000;fill:#000000;fill-opacity:1;fill-rule:nonzero;stroke:#000000;stroke-width:1.41700006;stroke-linecap:round;stroke-linejoin:round;stroke-miterlimit:4;stroke-opacity:1;stroke-dasharray:none;stroke-dashoffset:0;marker:none;visibility:visible;display:inline;overflow:visible;enable-background:accumulate"
           id="path2985"
           sodipodi:cx="78.836945"
           sodipodi:cy="104.06632"
           sodipodi:rx="20.272358"
           sodipodi:ry="20.272358"
           d="m 99.109303,104.06632 c 0,11.19612 -9.076244,20.27236 -20.272358,20.27236 -11.196115,0 -20.272358,-9.07624 -20.272358,-20.27236 0,-11.196112 9.076243,-20.272356 20.272358,-20.272356 11.196114,0 20.272358,9.076244 20.272358,20.272356 z"
           transform="translate(8.0792669,-61.867378)" />
        <path
           style="color:#000000;fill:#000000;fill-opacity:1;fill-rule:nonzero;stroke:none;stroke-width:1.41700006;marker:none;visibility:visible;display:inline;overflow:visible;enable-background:accumulate"
           d="m 92.820327,46.757452 c 26.812603,0 30.122803,64.548848 30.122803,64.548848 -11.91672,-4.9653 -47.997873,7.28243 -47.997873,7.28243 0,0 0.66204,-71.831278 17.87507,-71.831278 z"
           id="path3161"
           inkscape:connector-curvature="0"
           sodipodi:nodetypes="sccs" />
        <path
           style="color:#000000;fill:#000000;fill-opacity:1;fill-rule:nonzero;stroke:#000000;stroke-width:1.41700006;stroke-linecap:round;stroke-linejoin:round;stroke-miterlimit:4;stroke-opacity:1;stroke-dasharray:none;stroke-dashoffset:0;marker:none;visibility:visible;display:inline;overflow:visible;enable-background:accumulate"
           d="m 77.593417,118.25772 c -1.12362,6.17904 -2.42523,15.00623 -13.24079,21.18526 l 28.13668,-1.65509 c 0,0 -2.97918,-9.59958 8.606513,-9.9306 6.28938,-0.33102 5.62734,9.59958 5.62734,9.59958 l 23.83342,0.33102 c -6.03168,-3.01584 -2.85936,-29.06984 -7.94447,-26.15057 -8.34501,4.79072 -45.018693,6.6204 -45.018693,6.6204 z"
           id="path3171"
           inkscape:connector-curvature="0"
           sodipodi:nodetypes="ccccccsc" />
        <path
           style="color:#000000;fill:#000000;fill-opacity:1;fill-rule:nonzero;stroke:#000000;stroke-width:1.41700006;stroke-linecap:round;stroke-linejoin:round;stroke-miterlimit:4;stroke-opacity:1;stroke-dasharray:none;stroke-dashoffset:0;marker:none;visibility:visible;display:inline;overflow:visible;enable-background:accumulate"
           d="m 84.875857,65.294552 -36.7432,-36.08115 -4.30325,30.1228 44.68766,13.57181 z"
           id="path3177"
           inkscape:connector-curvature="0" />
        <path
           inkscape:connector-curvature="0"
           id="path3179"
           d="m 104.87479,52.522532 36.08115,36.74319 -30.1228,4.30326 -13.571803,-44.68767 z"
           style="color:#000000;fill:#000000;fill-opacity:1;fill-rule:nonzero;stroke:#000000;stroke-width:1.41700006;stroke-linecap:round;stroke-linejoin:round;stroke-miterlimit:4;stroke-opacity:1;stroke-dasharray:none;stroke-dashoffset:0;marker:none;visibility:visible;display:inline;overflow:visible;enable-background:accumulate" />
      </g>
      <g
         id="g3299">
        <g
           id="g3295">
          <path
             sodipodi:nodetypes="ccccc"
             inkscape:connector-curvature="0"
             id="rect3181"
             d="m 25.286987,25.017152 14.38468,-4.18197 c 1.63052,9.14765 2.82851,18.36447 7.84119,26.97127 l -14.38468,4.18197 c 1.45669,-9.14496 -4.25247,-18.01786 -7.84119,-26.97127 z"
             style="color:#000000;fill:#000000;fill-opacity:1;fill-rule:nonzero;stroke:none;stroke-width:1.41700006;marker:none;visibility:visible;display:inline;overflow:visible;enable-background:accumulate" />
          <path
             sodipodi:nodetypes="ccccc"
             inkscape:connector-curvature="0"
             id="rect3183"
             d="m 27.793167,17.707092 4.94474,-1.43755 1.05794,7.49267 -2.87865,0.83689 z"
             style="color:#000000;fill:#000000;fill-opacity:1;fill-rule:nonzero;stroke:none;stroke-width:1.41700006;marker:none;visibility:visible;display:inline;overflow:visible;enable-background:accumulate" />
        </g>
        <g
           id="g3290">
          <path
             inkscape:connector-curvature="0"
             id="path3187"
             d="M 27.278417,19.282812 7.0862069,15.641592"
             style="color:#000000;fill:#000000;fill-opacity:1;fill-rule:nonzero;stroke:#000000;stroke-width:1.41700006;marker:none;visibility:visible;display:inline;overflow:visible;enable-background:accumulate" />
          <path
             inkscape:connector-curvature="0"
             id="path3189"
             d="M 26.947397,21.599942 7.4172269,24.579122"
             style="color:#000000;fill:#000000;fill-opacity:1;fill-rule:nonzero;stroke:#000000;stroke-width:1.41700006;stroke-linecap:round;stroke-linejoin:round;stroke-miterlimit:4;stroke-opacity:1;stroke-dasharray:none;stroke-dashoffset:0;marker:none;visibility:visible;display:inline;overflow:visible;enable-background:accumulate" />
          <path
             inkscape:connector-curvature="0"
             id="path3191"
             d="m 27.940457,23.255042 -14.56487,10.26162"
             style="color:#000000;fill:#000000;fill-opacity:1;fill-rule:nonzero;stroke:#000000;stroke-width:1.41700006;stroke-linecap:round;stroke-linejoin:round;stroke-miterlimit:4;stroke-opacity:1;stroke-dasharray:none;stroke-dashoffset:0;marker:none;visibility:visible;display:inline;overflow:visible;enable-background:accumulate" />
        </g>
      </g>
    </g>
    <g
       id="g3331"
       transform="translate(0.74741526,3.4e-6)">
      <g
         id="g3333">
        <path
           transform="translate(8.0792669,-61.867378)"
           d="m 99.109303,104.06632 c 0,11.19612 -9.076244,20.27236 -20.272358,20.27236 -11.196115,0 -20.272358,-9.07624 -20.272358,-20.27236 0,-11.196112 9.076243,-20.272356 20.272358,-20.272356 11.196114,0 20.272358,9.076244 20.272358,20.272356 z"
           sodipodi:ry="20.272358"
           sodipodi:rx="20.272358"
           sodipodi:cy="104.06632"
           sodipodi:cx="78.836945"
           id="path3335"
           style="color:#000000;fill:#000000;fill-opacity:1;fill-rule:nonzero;stroke:#000000;stroke-width:1.41700006;stroke-linecap:round;stroke-linejoin:round;stroke-miterlimit:4;stroke-opacity:1;stroke-dasharray:none;stroke-dashoffset:0;marker:none;visibility:visible;display:inline;overflow:visible;enable-background:accumulate"
           sodipodi:type="arc" />
        <path
           sodipodi:nodetypes="sccs"
           inkscape:connector-curvature="0"
           id="path3337"
           d="m 92.820327,46.757452 c 26.812603,0 30.122803,64.548848 30.122803,64.548848 -11.91672,-4.9653 -47.997873,7.28243 -47.997873,7.28243 0,0 0.66204,-71.831278 17.87507,-71.831278 z"
           style="color:#000000;fill:#000000;fill-opacity:1;fill-rule:nonzero;stroke:none;stroke-width:1.41700006;marker:none;visibility:visible;display:inline;overflow:visible;enable-background:accumulate" />
        <path
           sodipodi:nodetypes="ccccccsc"
           inkscape:connector-curvature="0"
           id="path3339"
           d="m 77.593417,118.25772 c -1.12362,6.17904 -2.42523,15.00623 -13.24079,21.18526 l 28.13668,-1.65509 c 0,0 -2.97918,-9.59958 8.606513,-9.9306 6.28938,-0.33102 5.62734,9.59958 5.62734,9.59958 l 23.83342,0.33102 c -6.03168,-3.01584 -2.85936,-29.06984 -7.94447,-26.15057 -8.34501,4.79072 -45.018693,6.6204 -45.018693,6.6204 z"
           style="color:#000000;fill:#000000;fill-opacity:1;fill-rule:nonzero;stroke:#000000;stroke-width:1.41700006;stroke-linecap:round;stroke-linejoin:round;stroke-miterlimit:4;stroke-opacity:1;stroke-dasharray:none;stroke-dashoffset:0;marker:none;visibility:visible;display:inline;overflow:visible;enable-background:accumulate" />
        <path
           style="color:#000000;fill:#000000;fill-opacity:1;fill-rule:nonzero;stroke:#000000;stroke-width:1.41700006;stroke-linecap:round;stroke-linejoin:round;stroke-miterlimit:4;stroke-opacity:1;stroke-dasharray:none;stroke-dashoffset:0;marker:none;visibility:visible;display:inline;overflow:visible;enable-background:accumulate"
           d="m 104.87479,52.522532 36.08115,36.74319 -30.1228,4.30326 -13.571803,-44.68767 z"
           id="path3343"
           inkscape:connector-curvature="0" />
      </g>
      <g
         id="g3362"
         inkscape:transform-center-x="31.47324"
         inkscape:transform-center-y="-13.045699"
         transform="matrix(0.9511939,-0.30859386,0.30859386,0.9511939,-16.518196,29.35472)">
        <path
           style="color:#000000;fill:#000000;fill-opacity:1;fill-rule:nonzero;stroke:#000000;stroke-width:1.41700006;stroke-linecap:round;stroke-linejoin:round;stroke-miterlimit:4;stroke-opacity:1;stroke-dasharray:none;stroke-dashoffset:0;marker:none;visibility:visible;display:inline;overflow:visible;enable-background:accumulate"
           d="m 84.875857,65.294552 -36.7432,-36.08115 -4.30325,30.1228 44.68766,13.57181 z"
           id="path3341"
           inkscape:connector-curvature="0"
           transform="translate(-3.1e-6,0)" />
        <g
           id="g3345">
          <g
             id="g3347">
            <path
               sodipodi:nodetypes="ccccc"
               inkscape:connector-curvature="0"
               id="path3349"
               d="m 25.286987,25.017152 14.38468,-4.18197 c 1.63052,9.14765 2.82851,18.36447 7.84119,26.97127 l -14.38468,4.18197 c 1.45669,-9.14496 -4.25247,-18.01786 -7.84119,-26.97127 z"
               style="color:#000000;fill:#000000;fill-opacity:1;fill-rule:nonzero;stroke:none;stroke-width:1.41700006;marker:none;visibility:visible;display:inline;overflow:visible;enable-background:accumulate" />
            <path
               sodipodi:nodetypes="ccccc"
               inkscape:connector-curvature="0"
               id="path3351"
               d="m 27.793167,17.707092 4.94474,-1.43755 1.05794,7.49267 -2.87865,0.83689 z"
               style="color:#000000;fill:#000000;fill-opacity:1;fill-rule:nonzero;stroke:none;stroke-width:1.41700006;marker:none;visibility:visible;display:inline;overflow:visible;enable-background:accumulate" />
          </g>
        </g>
      </g>
    </g>
    <g
       transform="translate(0.74741526,3.4e-6)"
       id="g3369">
      <g
         id="g3371">
        <path
           sodipodi:type="arc"
           style="color:#000000;fill:#000000;fill-opacity:1;fill-rule:nonzero;stroke:#000000;stroke-width:1.41700006;stroke-linecap:round;stroke-linejoin:round;stroke-miterlimit:4;stroke-opacity:1;stroke-dasharray:none;stroke-dashoffset:0;marker:none;visibility:visible;display:inline;overflow:visible;enable-background:accumulate"
           id="path3373"
           sodipodi:cx="78.836945"
           sodipodi:cy="104.06632"
           sodipodi:rx="20.272358"
           sodipodi:ry="20.272358"
           d="m 99.109303,104.06632 c 0,11.19612 -9.076244,20.27236 -20.272358,20.27236 -11.196115,0 -20.272358,-9.07624 -20.272358,-20.27236 0,-11.196112 9.076243,-20.272356 20.272358,-20.272356 11.196114,0 20.272358,9.076244 20.272358,20.272356 z"
           transform="translate(8.0792669,-61.867378)" />
        <path
           style="color:#000000;fill:#000000;fill-opacity:1;fill-rule:nonzero;stroke:none;stroke-width:1.41700006;marker:none;visibility:visible;display:inline;overflow:visible;enable-background:accumulate"
           d="m 92.820327,46.757452 c 26.812603,0 30.122803,64.548848 30.122803,64.548848 -11.91672,-4.9653 -47.997873,7.28243 -47.997873,7.28243 0,0 0.66204,-71.831278 17.87507,-71.831278 z"
           id="path3375"
           inkscape:connector-curvature="0"
           sodipodi:nodetypes="sccs" />
        <path
           style="color:#000000;fill:#000000;fill-opacity:1;fill-rule:nonzero;stroke:#000000;stroke-width:1.41700006;stroke-linecap:round;stroke-linejoin:round;stroke-miterlimit:4;stroke-opacity:1;stroke-dasharray:none;stroke-dashoffset:0;marker:none;visibility:visible;display:inline;overflow:visible;enable-background:accumulate"
           d="m 77.593417,118.25772 c -1.12362,6.17904 -2.42523,15.00623 -13.24079,21.18526 l 28.13668,-1.65509 c 0,0 -2.97918,-9.59958 8.606513,-9.9306 6.28938,-0.33102 5.62734,9.59958 5.62734,9.59958 l 23.83342,0.33102 c -6.03168,-3.01584 -2.85936,-29.06984 -7.94447,-26.15057 -8.34501,4.79072 -45.018693,6.6204 -45.018693,6.6204 z"
           id="path3377"
           inkscape:connector-curvature="0"
           sodipodi:nodetypes="ccccccsc" />
        <path
           inkscape:connector-curvature="0"
           id="path3379"
           d="m 104.87479,52.522532 36.08115,36.74319 -30.1228,4.30326 -13.571803,-44.68767 z"
           style="color:#000000;fill:#000000;fill-opacity:1;fill-rule:nonzero;stroke:#000000;stroke-width:1.41700006;stroke-linecap:round;stroke-linejoin:round;stroke-miterlimit:4;stroke-opacity:1;stroke-dasharray:none;stroke-dashoffset:0;marker:none;visibility:visible;display:inline;overflow:visible;enable-background:accumulate" />
      </g>
      <g
         transform="matrix(0.35632648,-0.93436151,0.93436151,0.35632648,-7.775124,117.03675)"
         inkscape:transform-center-y="20.224087"
         inkscape:transform-center-x="29.222389"
         id="g3381">
        <path
           transform="translate(-3.1e-6,0)"
           inkscape:connector-curvature="0"
           id="path3383"
           d="m 84.875857,65.294552 -36.7432,-36.08115 -4.30325,30.1228 44.68766,13.57181 z"
           style="color:#000000;fill:#000000;fill-opacity:1;fill-rule:nonzero;stroke:#000000;stroke-width:1.41700006;stroke-linecap:round;stroke-linejoin:round;stroke-miterlimit:4;stroke-opacity:1;stroke-dasharray:none;stroke-dashoffset:0;marker:none;visibility:visible;display:inline;overflow:visible;enable-background:accumulate" />
        <g
           id="g3385">
          <g
             id="g3387">
            <path
               style="color:#000000;fill:#000000;fill-opacity:1;fill-rule:nonzero;stroke:none;stroke-width:1.41700006;marker:none;visibility:visible;display:inline;overflow:visible;enable-background:accumulate"
               d="m 25.286987,25.017152 14.38468,-4.18197 c 1.63052,9.14765 2.82851,18.36447 7.84119,26.97127 l -14.38468,4.18197 c 1.45669,-9.14496 -4.25247,-18.01786 -7.84119,-26.97127 z"
               id="path3389"
               inkscape:connector-curvature="0"
               sodipodi:nodetypes="ccccc" />
            <path
               style="color:#000000;fill:#000000;fill-opacity:1;fill-rule:nonzero;stroke:none;stroke-width:1.41700006;marker:none;visibility:visible;display:inline;overflow:visible;enable-background:accumulate"
               d="m 27.793167,17.707092 4.94474,-1.43755 1.05794,7.49267 -2.87865,0.83689 z"
               id="path3391"
               inkscape:connector-curvature="0"
               sodipodi:nodetypes="ccccc" />
          </g>
        </g>
      </g>
    </g>
    <g
       id="g3393"
       transform="translate(0.74741526,3.4e-6)">
      <g
         id="g3395">
        <path
           transform="translate(8.0792669,-61.867378)"
           d="m 99.109303,104.06632 c 0,11.19612 -9.076244,20.27236 -20.272358,20.27236 -11.196115,0 -20.272358,-9.07624 -20.272358,-20.27236 0,-11.196112 9.076243,-20.272356 20.272358,-20.272356 11.196114,0 20.272358,9.076244 20.272358,20.272356 z"
           sodipodi:ry="20.272358"
           sodipodi:rx="20.272358"
           sodipodi:cy="104.06632"
           sodipodi:cx="78.836945"
           id="path3397"
           style="color:#000000;fill:#000000;fill-opacity:1;fill-rule:nonzero;stroke:#000000;stroke-width:1.41700006;stroke-linecap:round;stroke-linejoin:round;stroke-miterlimit:4;stroke-opacity:1;stroke-dasharray:none;stroke-dashoffset:0;marker:none;visibility:visible;display:inline;overflow:visible;enable-background:accumulate"
           sodipodi:type="arc" />
        <path
           sodipodi:nodetypes="sccs"
           inkscape:connector-curvature="0"
           id="path3399"
           d="m 92.820327,46.757452 c 26.812603,0 30.122803,64.548848 30.122803,64.548848 -11.91672,-4.9653 -47.997873,7.28243 -47.997873,7.28243 0,0 0.66204,-71.831278 17.87507,-71.831278 z"
           style="color:#000000;fill:#000000;fill-opacity:1;fill-rule:nonzero;stroke:none;stroke-width:1.41700006;marker:none;visibility:visible;display:inline;overflow:visible;enable-background:accumulate" />
        <path
           sodipodi:nodetypes="ccccccsc"
           inkscape:connector-curvature="0"
           id="path3401"
           d="m 77.593417,118.25772 c -1.12362,6.17904 -2.42523,15.00623 -13.24079,21.18526 l 28.13668,-1.65509 c 0,0 -2.97918,-9.59958 8.606513,-9.9306 6.28938,-0.33102 5.62734,9.59958 5.62734,9.59958 l 23.83342,0.33102 c -6.03168,-3.01584 -2.85936,-29.06984 -7.94447,-26.15057 -8.34501,4.79072 -45.018693,6.6204 -45.018693,6.6204 z"
           style="color:#000000;fill:#000000;fill-opacity:1;fill-rule:nonzero;stroke:#000000;stroke-width:1.41700006;stroke-linecap:round;stroke-linejoin:round;stroke-miterlimit:4;stroke-opacity:1;stroke-dasharray:none;stroke-dashoffset:0;marker:none;visibility:visible;display:inline;overflow:visible;enable-background:accumulate" />
        <path
           style="color:#000000;fill:#000000;fill-opacity:1;fill-rule:nonzero;stroke:#000000;stroke-width:1.41700006;stroke-linecap:round;stroke-linejoin:round;stroke-miterlimit:4;stroke-opacity:1;stroke-dasharray:none;stroke-dashoffset:0;marker:none;visibility:visible;display:inline;overflow:visible;enable-background:accumulate"
           d="m 104.87479,52.522532 36.08115,36.74319 -30.1228,4.30326 -13.571803,-44.68767 z"
           id="path3403"
           inkscape:connector-curvature="0" />
      </g>
      <g
         id="g3405"
         inkscape:transform-center-x="15.146169"
         inkscape:transform-center-y="30.937624"
         transform="matrix(-0.25409584,-0.96717904,0.96717904,-0.25409584,41.636798,160.64756)">
        <path
           style="color:#000000;fill:#000000;fill-opacity:1;fill-rule:nonzero;stroke:#000000;stroke-width:1.41700006;stroke-linecap:round;stroke-linejoin:round;stroke-miterlimit:4;stroke-opacity:1;stroke-dasharray:none;stroke-dashoffset:0;marker:none;visibility:visible;display:inline;overflow:visible;enable-background:accumulate"
           d="m 84.875857,65.294552 -36.7432,-36.08115 -4.30325,30.1228 44.68766,13.57181 z"
           id="path3407"
           inkscape:connector-curvature="0"
           transform="translate(-3.1e-6,0)" />
        <g
           id="g3409">
          <g
             id="g3411">
            <path
               sodipodi:nodetypes="ccccc"
               inkscape:connector-curvature="0"
               id="path3413"
               d="m 25.286987,25.017152 14.38468,-4.18197 c 1.63052,9.14765 2.82851,18.36447 7.84119,26.97127 l -14.38468,4.18197 c 1.45669,-9.14496 -4.25247,-18.01786 -7.84119,-26.97127 z"
               style="color:#000000;fill:#000000;fill-opacity:1;fill-rule:nonzero;stroke:none;stroke-width:1.41700006;marker:none;visibility:visible;display:inline;overflow:visible;enable-background:accumulate" />
            <path
               sodipodi:nodetypes="ccccc"
               inkscape:connector-curvature="0"
               id="path3415"
               d="m 27.793167,17.707092 4.94474,-1.43755 1.05794,7.49267 -2.87865,0.83689 z"
               style="color:#000000;fill:#000000;fill-opacity:1;fill-rule:nonzero;stroke:none;stroke-width:1.41700006;marker:none;visibility:visible;display:inline;overflow:visible;enable-background:accumulate" />
          </g>
        </g>
      </g>
    </g>
    <g
       id="g3417"
       transform="translate(-0.16740272,-3.1049566)">
      <g
         id="g3419">
        <path
           transform="translate(8.0792669,-61.867378)"
           d="m 99.109303,104.06632 c 0,11.19612 -9.076244,20.27236 -20.272358,20.27236 -11.196115,0 -20.272358,-9.07624 -20.272358,-20.27236 0,-11.196112 9.076243,-20.272356 20.272358,-20.272356 11.196114,0 20.272358,9.076244 20.272358,20.272356 z"
           sodipodi:ry="20.272358"
           sodipodi:rx="20.272358"
           sodipodi:cy="104.06632"
           sodipodi:cx="78.836945"
           id="path3421"
           style="color:#000000;fill:#000000;fill-opacity:1;fill-rule:nonzero;stroke:#000000;stroke-width:1.41700006;stroke-linecap:round;stroke-linejoin:round;stroke-miterlimit:4;stroke-opacity:1;stroke-dasharray:none;stroke-dashoffset:0;marker:none;visibility:visible;display:inline;overflow:visible;enable-background:accumulate"
           sodipodi:type="arc" />
        <path
           sodipodi:nodetypes="sccs"
           inkscape:connector-curvature="0"
           id="path3423"
           d="m 92.820327,46.757452 c 26.812603,0 30.122803,64.548848 30.122803,64.548848 -11.91672,-4.9653 -47.997873,7.28243 -47.997873,7.28243 0,0 0.66204,-71.831278 17.87507,-71.831278 z"
           style="color:#000000;fill:#000000;fill-opacity:1;fill-rule:nonzero;stroke:none;stroke-width:1.41700006;marker:none;visibility:visible;display:inline;overflow:visible;enable-background:accumulate" />
        <path
           sodipodi:nodetypes="ccccccsc"
           inkscape:connector-curvature="0"
           id="path3425"
           d="m 77.593417,118.25772 c -1.12362,6.17904 -2.42523,18.11119 -13.24079,24.29022 l 28.13668,-4.76005 c 0,0 -2.97918,-9.59958 8.606513,-9.9306 6.28938,-0.33102 5.62734,10.7085 5.62734,10.7085 l 23.83342,0.33102 c -6.03168,-3.01584 -4.63362,-23.74705 -7.05734,-24.59809 -9.07895,-3.18791 -45.905823,3.959 -45.905823,3.959 z"
           style="color:#000000;fill:#000000;fill-opacity:1;fill-rule:nonzero;stroke:#000000;stroke-width:1.41700006;stroke-linecap:round;stroke-linejoin:round;stroke-miterlimit:4;stroke-opacity:1;stroke-dasharray:none;stroke-dashoffset:0;marker:none;visibility:visible;display:inline;overflow:visible;enable-background:accumulate" />
        <path
           style="color:#000000;fill:#000000;fill-opacity:1;fill-rule:nonzero;stroke:#000000;stroke-width:1.41700006;stroke-linecap:round;stroke-linejoin:round;stroke-miterlimit:4;stroke-opacity:1;stroke-dasharray:none;stroke-dashoffset:0;marker:none;visibility:visible;display:inline;overflow:visible;enable-background:accumulate"
           d="M 105.52633,53.108247 134.7737,95.493416 104.35914,94.568477 98.649883,48.215633 z"
           id="path3429"
           inkscape:connector-curvature="0"
           inkscape:transform-center-x="-14.902232"
           inkscape:transform-center-y="15.26706" />
      </g>
      <g
         id="g3448"
         inkscape:transform-center-x="31.816299"
         inkscape:transform-center-y="-30.256656"
         transform="matrix(0.9763933,0.2160003,-0.2160003,0.9763933,16.49515,-16.692986)">
        <path
           style="color:#000000;fill:#000000;fill-opacity:1;fill-rule:nonzero;stroke:#000000;stroke-width:1.41700006;stroke-linecap:round;stroke-linejoin:round;stroke-miterlimit:4;stroke-opacity:1;stroke-dasharray:none;stroke-dashoffset:0;marker:none;visibility:visible;display:inline;overflow:visible;enable-background:accumulate"
           d="m 84.875857,65.294552 -36.7432,-36.08115 -4.30325,30.1228 44.68766,13.57181 z"
           id="path3427"
           inkscape:connector-curvature="0"
           transform="translate(-3.1e-6,0)" />
        <g
           id="g3431"
           inkscape:transform-center-x="4.5906992"
           inkscape:transform-center-y="-11.080018"
           transform="matrix(0.94734169,0.32022448,-0.32022448,0.94734169,14.142152,-10.078288)">
          <g
             id="g3433">
            <path
               sodipodi:nodetypes="ccccc"
               inkscape:connector-curvature="0"
               id="path3435"
               d="m 25.286987,25.017152 14.38468,-4.18197 c 1.63052,9.14765 2.82851,18.36447 7.84119,26.97127 l -14.38468,4.18197 c 1.45669,-9.14496 -4.25247,-18.01786 -7.84119,-26.97127 z"
               style="color:#000000;fill:#000000;fill-opacity:1;fill-rule:nonzero;stroke:none;stroke-width:1.41700006;marker:none;visibility:visible;display:inline;overflow:visible;enable-background:accumulate" />
            <path
               sodipodi:nodetypes="ccccc"
               inkscape:connector-curvature="0"
               id="path3437"
               d="m 27.793167,17.707092 4.94474,-1.43755 1.05794,7.49267 -2.87865,0.83689 z"
               style="color:#000000;fill:#000000;fill-opacity:1;fill-rule:nonzero;stroke:none;stroke-width:1.41700006;marker:none;visibility:visible;display:inline;overflow:visible;enable-background:accumulate" />
          </g>
          <g
             id="g3439">
            <path
               inkscape:connector-curvature="0"
               id="path3441"
               d="M 27.278417,19.282812 7.0862069,15.641592"
               style="color:#000000;fill:#000000;fill-opacity:1;fill-rule:nonzero;stroke:#000000;stroke-width:1.41700006;marker:none;visibility:visible;display:inline;overflow:visible;enable-background:accumulate" />
            <path
               inkscape:connector-curvature="0"
               id="path3443"
               d="M 26.947397,21.599942 7.4172269,24.579122"
               style="color:#000000;fill:#000000;fill-opacity:1;fill-rule:nonzero;stroke:#000000;stroke-width:1.41700006;stroke-linecap:round;stroke-linejoin:round;stroke-miterlimit:4;stroke-opacity:1;stroke-dasharray:none;stroke-dashoffset:0;marker:none;visibility:visible;display:inline;overflow:visible;enable-background:accumulate" />
            <path
               inkscape:connector-curvature="0"
               id="path3445"
               d="m 27.940457,23.255042 -14.56487,10.26162"
               style="color:#000000;fill:#000000;fill-opacity:1;fill-rule:nonzero;stroke:#000000;stroke-width:1.41700006;stroke-linecap:round;stroke-linejoin:round;stroke-miterlimit:4;stroke-opacity:1;stroke-dasharray:none;stroke-dashoffset:0;marker:none;visibility:visible;display:inline;overflow:visible;enable-background:accumulate" />
          </g>
        </g>
      </g>
    </g>
    <g
       transform="translate(2.497238,-5.9881366)"
       id="g3459">
      <g
         id="g3461">
        <path
           sodipodi:type="arc"
           style="color:#000000;fill:#000000;fill-opacity:1;fill-rule:nonzero;stroke:#000000;stroke-width:1.41700006;stroke-linecap:round;stroke-linejoin:round;stroke-miterlimit:4;stroke-opacity:1;stroke-dasharray:none;stroke-dashoffset:0;marker:none;visibility:visible;display:inline;overflow:visible;enable-background:accumulate"
           id="path3463"
           sodipodi:cx="78.836945"
           sodipodi:cy="104.06632"
           sodipodi:rx="20.272358"
           sodipodi:ry="20.272358"
           d="m 99.109303,104.06632 c 0,11.19612 -9.076244,20.27236 -20.272358,20.27236 -11.196115,0 -20.272358,-9.07624 -20.272358,-20.27236 0,-11.196112 9.076243,-20.272356 20.272358,-20.272356 11.196114,0 20.272358,9.076244 20.272358,20.272356 z"
           transform="translate(8.0792669,-61.867378)" />
        <path
           style="color:#000000;fill:#000000;fill-opacity:1;fill-rule:nonzero;stroke:none;stroke-width:1.41700006;marker:none;visibility:visible;display:inline;overflow:visible;enable-background:accumulate"
           d="m 92.820327,46.757452 c 26.812603,0 30.122803,64.548848 30.122803,64.548848 -11.91672,-4.9653 -47.997873,7.28243 -47.997873,7.28243 0,0 0.66204,-71.831278 17.87507,-71.831278 z"
           id="path3465"
           inkscape:connector-curvature="0"
           sodipodi:nodetypes="sccs" />
        <path
           style="color:#000000;fill:#000000;fill-opacity:1;fill-rule:nonzero;stroke:#000000;stroke-width:1.41700006;stroke-linecap:round;stroke-linejoin:round;stroke-miterlimit:4;stroke-opacity:1;stroke-dasharray:none;stroke-dashoffset:0;marker:none;visibility:visible;display:inline;overflow:visible;enable-background:accumulate"
           d="m 77.593417,118.25772 c -1.12362,6.17904 -1.316315,17.22406 -9.026912,27.1734 l 23.922802,-7.64323 c 0,0 4.117878,-11.81741 8.606513,-12.14843 6.28938,-0.33102 5.62734,12.92633 5.62734,12.92633 l 21.83737,4.98846 c -3.81385,-4.7901 -2.63757,-28.40449 -5.06129,-29.25553 -9.07895,-3.18791 -45.905823,3.959 -45.905823,3.959 z"
           id="path3467"
           inkscape:connector-curvature="0"
           sodipodi:nodetypes="ccccccsc" />
        <path
           inkscape:transform-center-y="17.858753"
           inkscape:transform-center-x="-9.9942385"
           inkscape:connector-curvature="0"
           id="path3469"
           d="M 106.12854,53.891961 126.63515,101.12955 96.972446,94.345378 100.32702,47.762885 z"
           style="color:#000000;fill:#000000;fill-opacity:1;fill-rule:nonzero;stroke:#000000;stroke-width:1.41700006;stroke-linecap:round;stroke-linejoin:round;stroke-miterlimit:4;stroke-opacity:1;stroke-dasharray:none;stroke-dashoffset:0;marker:none;visibility:visible;display:inline;overflow:visible;enable-background:accumulate" />
      </g>
      <g
         transform="matrix(0.83554141,0.54942748,-0.54942748,0.83554141,49.881059,-37.035057)"
         inkscape:transform-center-y="-38.828139"
         inkscape:transform-center-x="22.314835"
         id="g3471">
        <path
           transform="translate(-3.1e-6,0)"
           inkscape:connector-curvature="0"
           id="path3473"
           d="m 84.875857,65.294552 -36.7432,-36.08115 -4.30325,30.1228 44.68766,13.57181 z"
           style="color:#000000;fill:#000000;fill-opacity:1;fill-rule:nonzero;stroke:#000000;stroke-width:1.41700006;stroke-linecap:round;stroke-linejoin:round;stroke-miterlimit:4;stroke-opacity:1;stroke-dasharray:none;stroke-dashoffset:0;marker:none;visibility:visible;display:inline;overflow:visible;enable-background:accumulate" />
        <g
           transform="matrix(0.80355178,0.59523486,-0.59523486,0.80355178,33.437455,-19.160554)"
           inkscape:transform-center-y="-12.555867"
           inkscape:transform-center-x="3.215416"
           id="g3475">
          <g
             id="g3477">
            <path
               style="color:#000000;fill:#000000;fill-opacity:1;fill-rule:nonzero;stroke:none;stroke-width:1.41700006;marker:none;visibility:visible;display:inline;overflow:visible;enable-background:accumulate"
               d="m 25.286987,25.017152 14.38468,-4.18197 c 1.63052,9.14765 2.82851,18.36447 7.84119,26.97127 l -14.38468,4.18197 c 1.45669,-9.14496 -4.25247,-18.01786 -7.84119,-26.97127 z"
               id="path3479"
               inkscape:connector-curvature="0"
               sodipodi:nodetypes="ccccc" />
            <path
               style="color:#000000;fill:#000000;fill-opacity:1;fill-rule:nonzero;stroke:none;stroke-width:1.41700006;marker:none;visibility:visible;display:inline;overflow:visible;enable-background:accumulate"
               d="m 27.793167,17.707092 4.94474,-1.43755 1.05794,7.49267 -2.87865,0.83689 z"
               id="path3481"
               inkscape:connector-curvature="0"
               sodipodi:nodetypes="ccccc" />
          </g>
          <g
             id="g3483">
            <path
               style="color:#000000;fill:#000000;fill-opacity:1;fill-rule:nonzero;stroke:#000000;stroke-width:1.41700006;marker:none;visibility:visible;display:inline;overflow:visible;enable-background:accumulate"
               d="M 27.278417,19.282812 7.0862069,15.641592"
               id="path3485"
               inkscape:connector-curvature="0" />
            <path
               style="color:#000000;fill:#000000;fill-opacity:1;fill-rule:nonzero;stroke:#000000;stroke-width:1.41700006;stroke-linecap:round;stroke-linejoin:round;stroke-miterlimit:4;stroke-opacity:1;stroke-dasharray:none;stroke-dashoffset:0;marker:none;visibility:visible;display:inline;overflow:visible;enable-background:accumulate"
               d="M 26.947397,21.599942 7.4172269,24.579122"
               id="path3487"
               inkscape:connector-curvature="0" />
            <path
               style="color:#000000;fill:#000000;fill-opacity:1;fill-rule:nonzero;stroke:#000000;stroke-width:1.41700006;stroke-linecap:round;stroke-linejoin:round;stroke-miterlimit:4;stroke-opacity:1;stroke-dasharray:none;stroke-dashoffset:0;marker:none;visibility:visible;display:inline;overflow:visible;enable-background:accumulate"
               d="m 27.940457,23.255042 -14.56487,10.26162"
               id="path3489"
               inkscape:connector-curvature="0" />
          </g>
        </g>
      </g>
    </g>
  </g>
</svg>
