<?xml version="1.0" encoding="UTF-8" standalone="no"?>
<!-- Created with Inkscape (http://www.inkscape.org/) -->

<svg
   xmlns:dc="http://purl.org/dc/elements/1.1/"
   xmlns:cc="http://creativecommons.org/ns#"
   xmlns:rdf="http://www.w3.org/1999/02/22-rdf-syntax-ns#"
   xmlns:svg="http://www.w3.org/2000/svg"
   xmlns="http://www.w3.org/2000/svg"
   xmlns:sodipodi="http://sodipodi.sourceforge.net/DTD/sodipodi-0.dtd"
   xmlns:inkscape="http://www.inkscape.org/namespaces/inkscape"
   width="100"
   height="100"
   id="svg2"
   version="1.1"
   inkscape:version="0.48.3.1 r9886"
   sodipodi:docname="water.svg">
  <defs
     id="defs4" />
  <sodipodi:namedview
     id="base"
     pagecolor="#ffffff"
     bordercolor="#666666"
     borderopacity="1.0"
     inkscape:pageopacity="0.0"
     inkscape:pageshadow="2"
     inkscape:zoom="4.6481222"
     inkscape:cx="14.892727"
     inkscape:cy="54.621218"
     inkscape:document-units="px"
     inkscape:current-layer="layer8"
     showgrid="false"
     inkscape:window-width="1280"
     inkscape:window-height="761"
     inkscape:window-x="0"
     inkscape:window-y="0"
     inkscape:window-maximized="1" />
  <metadata
     id="metadata7">
    <rdf:RDF>
      <cc:Work
         rdf:about="">
        <dc:format>image/svg+xml</dc:format>
        <dc:type
           rdf:resource="http://purl.org/dc/dcmitype/StillImage" />
      </cc:Work>
    </rdf:RDF>
  </metadata>
  <g
     inkscape:groupmode="layer"
     id="layer8"
     inkscape:label="-1"
     sodipodi:insensitive="true"
     style="display:inline">
    <path
       sodipodi:nodetypes="czc"
       inkscape:connector-curvature="0"
       id="path3997-2"
       d="m 5.1343352,23.63524 c 7.6198388,3.532373 13.8986888,0.01234 21.3046168,-3.136485 7.405929,-3.148825 20.79853,-2.453242 24.600902,3.136485"
       style="color:#000000;fill:none;stroke:#ffffff;stroke-width:5;stroke-linecap:round;stroke-linejoin:round;stroke-miterlimit:4;stroke-opacity:1;stroke-dasharray:none;marker:none;visibility:visible;display:inline;overflow:visible;enable-background:accumulate" />
    <path
       style="color:#000000;fill:none;stroke:#6666dd;stroke-width:5;stroke-linecap:round;stroke-linejoin:round;stroke-miterlimit:4;stroke-opacity:1;stroke-dasharray:none;marker:none;visibility:visible;display:inline;overflow:visible;enable-background:accumulate"
       d="m 5.633858,24.710943 c 7.619839,3.532373 13.898689,0.01234 21.304617,-3.136485 7.405928,-3.148825 20.79853,-2.453242 24.600902,3.136485"
       id="path3755-3-4-2-4"
       inkscape:connector-curvature="0"
       sodipodi:nodetypes="czc" />
    <path
       style="color:#000000;fill:none;stroke:#ffffff;stroke-width:5;stroke-linecap:round;stroke-linejoin:round;stroke-miterlimit:4;stroke-opacity:1;stroke-dasharray:none;marker:none;visibility:visible;display:inline;overflow:visible;enable-background:accumulate"
       d="M 7.1839601,55.92031 C 15.929303,60.169521 21.210037,59.559179 34.102663,55.733825 46.995289,51.90847 63.06928,51.574241 69.977388,59.352703"
       id="path3999-4"
       inkscape:connector-curvature="0"
       sodipodi:nodetypes="czc" />
    <path
       sodipodi:nodetypes="czc"
       inkscape:connector-curvature="0"
       id="path3766-5-5-6-2"
       d="M 7.6142411,56.996013 C 16.359584,61.245224 21.640318,60.634882 34.532944,56.809528 47.42557,52.984173 63.499561,52.649944 70.407669,60.428406"
       style="color:#000000;fill:none;stroke:#6666dd;stroke-width:5;stroke-linecap:round;stroke-linejoin:round;stroke-miterlimit:4;stroke-opacity:1;stroke-dasharray:none;marker:none;visibility:visible;display:inline;overflow:visible;enable-background:accumulate" />
    <path
       style="color:#000000;fill:none;stroke:#ffffff;stroke-width:5;stroke-linecap:round;stroke-linejoin:round;stroke-miterlimit:4;stroke-opacity:1;stroke-dasharray:none;marker:none;visibility:visible;display:inline;overflow:visible;enable-background:accumulate"
       d="m 6.5907401,94.631015 c 6.4985709,2.805486 11.8534809,0.0098 18.1696179,-2.491063 6.316138,-2.500864 17.738003,-1.948417 20.980851,2.491063"
       id="path4003-2"
       inkscape:connector-curvature="0"
       sodipodi:nodetypes="czc" />
    <path
       sodipodi:nodetypes="czc"
       inkscape:connector-curvature="0"
       id="path3879-9-6"
       d="m 6.7456713,95.276437 c 6.4985707,2.805486 11.8534807,0.0098 18.1696177,-2.491063 6.316138,-2.500864 17.738003,-1.948417 20.980851,2.491063"
       style="color:#000000;fill:none;stroke:#6666dd;stroke-width:5;stroke-linecap:round;stroke-linejoin:round;stroke-miterlimit:4;stroke-opacity:1;stroke-dasharray:none;marker:none;visibility:visible;display:inline;overflow:visible;enable-background:accumulate" />
  </g>
  <g
     inkscape:groupmode="layer"
     id="layer9"
     inkscape:label="-0"
     style="display:inline"
     sodipodi:insensitive="true">
    <path
       sodipodi:nodetypes="czc"
       inkscape:connector-curvature="0"
       id="path3871-9"
       d="M 4.1327327,21.635027 C 13.341107,26.56983 19.711482,19.439577 27.415262,12.775859 35.119041,6.1121395 50.259963,5.1870098 55.579551,14.312788"
       style="color:#000000;fill:none;stroke:#ffffff;stroke-width:5;stroke-linecap:round;stroke-linejoin:round;stroke-miterlimit:4;stroke-opacity:1;stroke-dasharray:none;marker:none;visibility:visible;display:inline;overflow:visible;enable-background:accumulate" />
    <path
       style="color:#000000;fill:none;stroke:#6666dd;stroke-width:5;stroke-linecap:round;stroke-linejoin:round;stroke-miterlimit:4;stroke-opacity:1;stroke-dasharray:none;marker:none;visibility:visible;display:inline;overflow:visible;enable-background:accumulate"
       d="M 3.3210143,22.976956 C 12.529389,27.911759 18.899763,20.781506 26.603543,14.117788 34.307322,7.4540687 49.448244,6.5289389 54.767832,15.654717 49.10756,10.898841 43.552481,18.033545 47.362404,21.522202"
       id="path3755-3-4-3"
       inkscape:connector-curvature="0"
       sodipodi:nodetypes="czcc" />
    <path
       style="color:#000000;fill:none;stroke:#ffffff;stroke-width:5;stroke-linecap:round;stroke-linejoin:round;stroke-miterlimit:4;stroke-opacity:1;stroke-dasharray:none;marker:none;visibility:visible;display:inline;overflow:visible;enable-background:accumulate"
       d="m 14.283601,50.77359 c 8.745343,7.533188 14.026077,6.451148 26.918703,-0.330609 12.892626,-6.781758 28.966617,-7.374294 35.874725,6.415706"
       id="path3961-0"
       inkscape:connector-curvature="0"
       sodipodi:nodetypes="czc" />
    <path
       sodipodi:nodetypes="czcc"
       inkscape:connector-curvature="0"
       id="path3766-5-5-5"
       d="m 14.283601,52.988731 c 8.745343,7.533188 14.026077,6.451148 26.918703,-0.330609 12.892626,-6.781758 28.966617,-7.374294 35.874725,6.415706 -3.178996,-7.495324 -16.892808,-7.926842 -19.609817,-2.829664"
       style="color:#000000;fill:none;stroke:#6666dd;stroke-width:5;stroke-linecap:round;stroke-linejoin:round;stroke-miterlimit:4;stroke-opacity:1;stroke-dasharray:none;marker:none;visibility:visible;display:inline;overflow:visible;enable-background:accumulate" />
    <path
       style="color:#000000;fill:none;stroke:#ffffff;stroke-width:5;stroke-linecap:round;stroke-linejoin:round;stroke-miterlimit:4;stroke-opacity:1;stroke-dasharray:none;marker:none;visibility:visible;display:inline;overflow:visible;enable-background:accumulate"
       d="m 11.358906,93.842568 c 8.248701,4.574164 12.686829,-2.690231 18.289564,-9.537595 5.602734,-6.847366 18.078395,-8.266595 23.598398,0.582193"
       id="path3877-1"
       inkscape:connector-curvature="0"
       sodipodi:nodetypes="czc" />
    <path
       sodipodi:nodetypes="czcc"
       inkscape:connector-curvature="0"
       id="path3879-3"
       d="m 10.845526,95.196848 c 8.248702,4.574164 12.686831,-2.690231 18.289566,-9.537596 5.602733,-6.847366 18.078394,-8.266594 23.598398,0.582193 -5.277572,-4.515347 -9.037396,2.726295 -5.450487,6.049907"
       style="color:#000000;fill:none;stroke:#6666dd;stroke-width:5;stroke-linecap:round;stroke-linejoin:round;stroke-miterlimit:4;stroke-opacity:1;stroke-dasharray:none;marker:none;visibility:visible;display:inline;overflow:visible;enable-background:accumulate" />
  </g>
  <g
     inkscape:label="0"
     inkscape:groupmode="layer"
     id="layer1"
     transform="translate(0,-952.36218)"
     style="display:inline"
     sodipodi:insensitive="true">
    <path
       sodipodi:nodetypes="czc"
       inkscape:connector-curvature="0"
       id="path3770"
       d="m 4.5638227,964.50694 c 3.268757,11.4885 21.3281923,11.0149 27.5272123,0.2779 6.19902,-10.73707 21.055992,-14.0679 27.9641,-0.2779"
       style="color:#000000;fill:none;stroke:#ffffff;stroke-width:5;stroke-linecap:round;stroke-linejoin:round;stroke-miterlimit:4;stroke-opacity:1;stroke-dasharray:none;marker:none;visibility:visible;display:inline;overflow:visible;enable-background:accumulate" />
    <path
       style="color:#000000;fill:none;stroke:#6666dd;stroke-width:5;stroke-linecap:round;stroke-linejoin:round;stroke-miterlimit:4;stroke-opacity:1;stroke-dasharray:none;marker:none;visibility:visible;display:inline;overflow:visible;enable-background:accumulate"
       d="m 5.4765868,965.59422 c 3.268757,11.48844 21.3281932,11.01483 27.5272132,0.27781 6.19902,-10.73702 21.055992,-14.06785 27.9641,-0.27781 -8.210515,-7.76018 -15.654504,11.01811 -5.309841,10.55752"
       id="path3755"
       inkscape:connector-curvature="0"
       sodipodi:nodetypes="czcc" />
    <path
       style="color:#000000;fill:none;stroke:#ffffff;stroke-width:5;stroke-linecap:round;stroke-linejoin:round;stroke-miterlimit:4;stroke-opacity:1;stroke-dasharray:none;marker:none;visibility:visible;display:inline;overflow:visible;enable-background:accumulate"
       d="m 5.780842,1036.6153 c 3.268757,11.4885 21.328192,11.0149 27.527212,0.2779 6.19902,-10.737 21.055992,-14.0679 27.9641,-0.2779"
       id="path3772"
       inkscape:connector-curvature="0"
       sodipodi:nodetypes="czc" />
    <path
       sodipodi:nodetypes="czcc"
       inkscape:connector-curvature="0"
       id="path3764"
       d="m 6.0850964,1037.7026 c 3.268757,11.4884 21.3281926,11.0148 27.5272126,0.2778 6.19902,-10.737 21.055992,-14.0678 27.9641,-0.2778 -8.210515,-7.7602 -15.045995,8.8884 -8.048134,9.6448"
       style="color:#000000;fill:none;stroke:#6666dd;stroke-width:5;stroke-linecap:round;stroke-linejoin:round;stroke-miterlimit:4;stroke-opacity:1;stroke-dasharray:none;marker:none;visibility:visible;display:inline;overflow:visible;enable-background:accumulate" />
    <path
       style="color:#000000;fill:none;stroke:#ffffff;stroke-width:5;stroke-linecap:round;stroke-linejoin:round;stroke-miterlimit:4;stroke-opacity:1;stroke-dasharray:none;marker:none;visibility:visible;display:inline;overflow:visible;enable-background:accumulate"
       d="m 28.599953,999.8005 c 3.268757,11.4885 21.328193,11.0149 27.527213,0.2779 6.19902,-10.73707 21.055992,-14.0679 27.9641,-0.2779"
       id="path3768-0"
       inkscape:connector-curvature="0"
       sodipodi:nodetypes="czc" />
    <path
       sodipodi:nodetypes="czcc"
       inkscape:connector-curvature="0"
       id="path3766-5"
       d="m 28.599953,1001.8005 c 3.268757,11.4885 21.328193,11.0149 27.527213,0.2779 6.19902,-10.73707 21.055992,-14.0679 27.9641,-0.2779 -8.210515,-7.76014 -14.133231,1.8905 -6.831115,7.515"
       style="color:#000000;fill:none;stroke:#6666dd;stroke-width:5;stroke-linecap:round;stroke-linejoin:round;stroke-miterlimit:4;stroke-opacity:1;stroke-dasharray:none;marker:none;visibility:visible;display:inline;overflow:visible;enable-background:accumulate" />
  </g>
  <g
     inkscape:groupmode="layer"
     id="layer2"
     inkscape:label="1"
     style="display:inline"
     sodipodi:insensitive="true">
    <path
       sodipodi:nodetypes="czc"
       inkscape:connector-curvature="0"
       id="path3869"
       d="M 14.604231,16.883098 C 23.349575,25.633245 33.80264,23.63836 43.956973,14.726869 54.111306,5.8153783 70.793806,2.7888026 77.701914,16.578843"
       style="color:#000000;fill:none;stroke:#ffffff;stroke-width:5;stroke-linecap:round;stroke-linejoin:round;stroke-miterlimit:4;stroke-opacity:1;stroke-dasharray:none;marker:none;visibility:visible;display:inline;overflow:visible;enable-background:accumulate" />
    <path
       style="color:#000000;fill:none;stroke:#6666dd;stroke-width:5;stroke-linecap:round;stroke-linejoin:round;stroke-miterlimit:4;stroke-opacity:1;stroke-dasharray:none;marker:none;visibility:visible;display:inline;overflow:visible;enable-background:accumulate"
       d="M 15.212741,17.491608 C 23.958085,26.241755 34.41115,24.24687 44.565483,15.335379 54.719816,6.4238879 71.402316,3.3973122 78.310424,17.187353 70.099909,9.4271722 56.570824,19.990583 62.04741,25.615089"
       id="path3755-3"
       inkscape:connector-curvature="0"
       sodipodi:nodetypes="czcc" />
    <path
       style="color:#000000;fill:none;stroke:#ffffff;stroke-width:5;stroke-linecap:round;stroke-linejoin:round;stroke-miterlimit:4;stroke-opacity:1;stroke-dasharray:none;marker:none;visibility:visible;display:inline;overflow:visible;enable-background:accumulate"
       d="m 15.516995,89.599998 c 16.04746,7.837383 23.153722,5.233988 33.308055,-3.677503 10.154333,-8.91149 26.836833,-11.938066 33.744941,1.851974"
       id="path3873"
       inkscape:connector-curvature="0"
       sodipodi:nodetypes="czc" />
    <path
       sodipodi:nodetypes="czcc"
       inkscape:connector-curvature="0"
       id="path3875"
       d="m 14.299977,90.512763 c 13.309166,6.316108 24.97925,4.929733 35.133583,-3.981758 10.154333,-8.911491 26.836833,-11.938066 33.744941,1.851974 -8.210515,-7.76018 -21.7396,2.80323 -16.263014,8.427736"
       style="color:#000000;fill:none;stroke:#6666dd;stroke-width:5;stroke-linecap:round;stroke-linejoin:round;stroke-miterlimit:4;stroke-opacity:1;stroke-dasharray:none;marker:none;visibility:visible;display:inline;overflow:visible;enable-background:accumulate" />
    <path
       style="color:#000000;fill:none;stroke:#ffffff;stroke-width:5;stroke-linecap:round;stroke-linejoin:round;stroke-miterlimit:4;stroke-opacity:1;stroke-dasharray:none;marker:none;visibility:visible;display:inline;overflow:visible;enable-background:accumulate"
       d="m 38.336107,47.43832 c 3.268757,11.4885 21.328193,11.0149 27.527213,0.2779 6.19902,-10.73707 21.055992,-14.0679 27.9641,-0.2779"
       id="path3768"
       inkscape:connector-curvature="0"
       sodipodi:nodetypes="czc" />
    <path
       sodipodi:nodetypes="czcc"
       inkscape:connector-curvature="0"
       id="path3766"
       d="m 38.336107,49.43832 c 3.268757,11.4885 21.328193,11.0149 27.527213,0.2779 6.19902,-10.73707 21.055992,-14.0679 27.9641,-0.2779 -8.210515,-7.76014 -21.739601,1.8905 -14.437485,7.515"
       style="color:#000000;fill:none;stroke:#6666dd;stroke-width:5;stroke-linecap:round;stroke-linejoin:round;stroke-miterlimit:4;stroke-opacity:1;stroke-dasharray:none;marker:none;visibility:visible;display:inline;overflow:visible;enable-background:accumulate" />
  </g>
  <g
     inkscape:groupmode="layer"
     id="layer4"
     inkscape:label="2"
     style="display:inline"
     sodipodi:insensitive="true">
    <path
       sodipodi:nodetypes="czc"
       inkscape:connector-curvature="0"
       id="path3871"
       d="m 28.165916,19.621392 c 9.845421,6.197626 17.958181,0.02165 27.527213,-5.503032 9.569032,-5.5246837 26.873309,-4.3042683 31.786267,5.503032"
       style="color:#000000;fill:none;stroke:#ffffff;stroke-width:5;stroke-linecap:round;stroke-linejoin:round;stroke-miterlimit:4;stroke-opacity:1;stroke-dasharray:none;marker:none;visibility:visible;display:inline;overflow:visible;enable-background:accumulate" />
    <path
       style="color:#000000;fill:none;stroke:#6666dd;stroke-width:5;stroke-linecap:round;stroke-linejoin:round;stroke-miterlimit:4;stroke-opacity:1;stroke-dasharray:none;marker:none;visibility:visible;display:inline;overflow:visible;enable-background:accumulate"
       d="m 27.07868,20.838411 c 9.845421,6.197626 17.958181,0.02165 27.527213,-5.503032 9.569032,-5.5246834 26.873309,-4.304268 31.786267,5.503032 -5.839213,-5.518941 -13.026886,0.776602 -9.132008,4.776678"
       id="path3755-3-4"
       inkscape:connector-curvature="0"
       sodipodi:nodetypes="czcc" />
    <path
       style="color:#000000;fill:none;stroke:#ffffff;stroke-width:5;stroke-linecap:round;stroke-linejoin:round;stroke-miterlimit:4;stroke-opacity:1;stroke-dasharray:none;marker:none;visibility:visible;display:inline;overflow:visible;enable-background:accumulate"
       d="m 34.07654,51.482746 c 8.745343,7.533188 14.026077,6.451148 26.918703,-0.330609 12.892626,-6.781758 28.966617,-7.374294 35.874725,6.415706"
       id="path3961"
       inkscape:connector-curvature="0"
       sodipodi:nodetypes="czc" />
    <path
       sodipodi:nodetypes="czcc"
       inkscape:connector-curvature="0"
       id="path3766-5-5"
       d="m 34.07654,53.697887 c 8.745343,7.533188 14.026077,6.451148 26.918703,-0.330609 C 73.887869,46.58552 89.96186,45.992984 96.869968,59.782984 93.690972,52.28766 79.97716,51.856142 77.260151,56.95332"
       style="color:#000000;fill:none;stroke:#6666dd;stroke-width:5;stroke-linecap:round;stroke-linejoin:round;stroke-miterlimit:4;stroke-opacity:1;stroke-dasharray:none;marker:none;visibility:visible;display:inline;overflow:visible;enable-background:accumulate" />
    <path
       style="color:#000000;fill:none;stroke:#ffffff;stroke-width:5;stroke-linecap:round;stroke-linejoin:round;stroke-miterlimit:4;stroke-opacity:1;stroke-dasharray:none;marker:none;visibility:visible;display:inline;overflow:visible;enable-background:accumulate"
       d="m 36.076541,92.338293 c 9.845421,6.197626 17.958181,0.02165 27.527213,-5.503032 9.569032,-5.524684 26.873309,-4.304269 31.786267,5.503032"
       id="path3877"
       inkscape:connector-curvature="0"
       sodipodi:nodetypes="czc" />
    <path
       sodipodi:nodetypes="czcc"
       inkscape:connector-curvature="0"
       id="path3879"
       d="m 34.989305,93.555312 c 9.845421,6.197626 17.958181,0.02165 27.527213,-5.503032 9.569032,-5.524684 26.873309,-4.304268 31.786267,5.503032 -5.839213,-5.518941 -13.026886,0.776602 -9.132008,4.776678"
       style="color:#000000;fill:none;stroke:#6666dd;stroke-width:5;stroke-linecap:round;stroke-linejoin:round;stroke-miterlimit:4;stroke-opacity:1;stroke-dasharray:none;marker:none;visibility:visible;display:inline;overflow:visible;enable-background:accumulate" />
  </g>
  <g
     inkscape:groupmode="layer"
     id="layer5"
     inkscape:label="3"
     style="display:inline">
    <path
       sodipodi:nodetypes="czc"
       inkscape:connector-curvature="0"
       id="path3997"
       d="m 36.329728,23.63524 c 9.845421,3.532373 17.958181,0.01234 27.527213,-3.136485 9.569032,-3.148825 26.873309,-2.453242 31.786267,3.136485"
       style="color:#000000;fill:none;stroke:#ffffff;stroke-width:5;stroke-linecap:round;stroke-linejoin:round;stroke-miterlimit:4;stroke-opacity:1;stroke-dasharray:none;marker:none;visibility:visible;display:inline;overflow:visible;enable-background:accumulate" />
    <path
       style="color:#000000;fill:none;stroke:#6666dd;stroke-width:5;stroke-linecap:round;stroke-linejoin:round;stroke-miterlimit:4;stroke-opacity:1;stroke-dasharray:none;marker:none;visibility:visible;display:inline;overflow:visible;enable-background:accumulate"
       d="m 36.97515,24.710943 c 9.845421,3.532373 17.958181,0.01234 27.527213,-3.136485 9.569032,-3.148825 26.873309,-2.453242 31.786267,3.136485"
       id="path3755-3-4-2"
       inkscape:connector-curvature="0"
       sodipodi:nodetypes="czc" />
    <path
       style="color:#000000;fill:none;stroke:#ffffff;stroke-width:5;stroke-linecap:round;stroke-linejoin:round;stroke-miterlimit:4;stroke-opacity:1;stroke-dasharray:none;marker:none;visibility:visible;display:inline;overflow:visible;enable-background:accumulate"
       d="m 25.901196,55.92031 c 8.745343,4.249211 14.026077,3.638869 26.918703,-0.186485 12.892626,-3.825355 28.966617,-4.159584 35.874725,3.618878"
       id="path3999"
       inkscape:connector-curvature="0"
       sodipodi:nodetypes="czc" />
    <path
       sodipodi:nodetypes="czc"
       inkscape:connector-curvature="0"
       id="path3766-5-5-6"
       d="m 26.331477,56.996013 c 8.745343,4.249211 14.026077,3.638869 26.918703,-0.186485 12.892626,-3.825355 28.966617,-4.159584 35.874725,3.618878"
       style="color:#000000;fill:none;stroke:#6666dd;stroke-width:5;stroke-linecap:round;stroke-linejoin:round;stroke-miterlimit:4;stroke-opacity:1;stroke-dasharray:none;marker:none;visibility:visible;display:inline;overflow:visible;enable-background:accumulate" />
    <path
       style="color:#000000;fill:none;stroke:#ffffff;stroke-width:5;stroke-linecap:round;stroke-linejoin:round;stroke-miterlimit:4;stroke-opacity:1;stroke-dasharray:none;marker:none;visibility:visible;display:inline;overflow:visible;enable-background:accumulate"
       d="m 43.164649,94.631015 c 9.024065,2.805486 16.460017,0.0098 25.230751,-2.491063 8.770735,-2.500864 24.6314,-1.948417 29.134494,2.491063"
       id="path4003"
       inkscape:connector-curvature="0"
       sodipodi:nodetypes="czc" />
    <path
       sodipodi:nodetypes="czc"
       inkscape:connector-curvature="0"
       id="path3879-9"
       d="m 43.37979,95.276437 c 9.024065,2.805486 16.460017,0.0098 25.230751,-2.491063 8.770735,-2.500864 24.6314,-1.948417 29.134494,2.491063"
       style="color:#000000;fill:none;stroke:#6666dd;stroke-width:5;stroke-linecap:round;stroke-linejoin:round;stroke-miterlimit:4;stroke-opacity:1;stroke-dasharray:none;marker:none;visibility:visible;display:inline;overflow:visible;enable-background:accumulate" />
  </g>
  <g
     inkscape:groupmode="layer"
     id="layer6"
     inkscape:label="4"
     sodipodi:insensitive="true"
     style="display:inline">
    <path
       sodipodi:nodetypes="czc"
       inkscape:connector-curvature="0"
       id="path4039"
       d="m 25.787837,23.571506 c 0,0 15.02744,-6.110573 27.527213,-3.136485 12.499773,2.974088 32.606476,2.912792 31.786267,3.136485"
       style="color:#000000;fill:none;stroke:#ffffff;stroke-width:5;stroke-linecap:round;stroke-linejoin:round;stroke-miterlimit:4;stroke-opacity:1;stroke-dasharray:none;marker:none;visibility:visible;display:inline;overflow:visible;enable-background:accumulate" />
    <path
       style="color:#000000;fill:none;stroke:#6666dd;stroke-width:5;stroke-linecap:round;stroke-linejoin:round;stroke-miterlimit:4;stroke-opacity:1;stroke-dasharray:none;marker:none;visibility:visible;display:inline;overflow:visible;enable-background:accumulate"
       d="m 27.508962,24.710943 c 0,0 15.02744,-6.110573 27.527213,-3.136485 12.499773,2.974088 32.606476,2.912792 31.786267,3.136485"
       id="path3755-3-4-2-0"
       inkscape:connector-curvature="0"
       sodipodi:nodetypes="czc" />
    <path
       style="color:#000000;fill:none;stroke:#ffffff;stroke-width:5;stroke-linecap:round;stroke-linejoin:round;stroke-miterlimit:4;stroke-opacity:1;stroke-dasharray:none;marker:none;visibility:visible;display:inline;overflow:visible;enable-background:accumulate"
       d="m 19.662117,55.92031 c 0,0 12.69871,-2.881693 24.371233,-0.186485 11.672524,2.695208 32.479697,3.800483 32.479697,3.618878"
       id="path4041"
       inkscape:connector-curvature="0"
       sodipodi:nodetypes="czc" />
    <path
       sodipodi:nodetypes="czc"
       inkscape:connector-curvature="0"
       id="path3766-5-5-6-7"
       d="m 20.44124,56.996013 c 0,0 12.69871,-2.881693 24.371233,-0.186485 11.672524,2.695208 32.479697,3.800483 32.479697,3.618878"
       style="color:#000000;fill:none;stroke:#6666dd;stroke-width:5;stroke-linecap:round;stroke-linejoin:round;stroke-miterlimit:4;stroke-opacity:1;stroke-dasharray:none;marker:none;visibility:visible;display:inline;overflow:visible;enable-background:accumulate" />
    <path
       style="color:#000000;fill:none;stroke:#ffffff;stroke-width:5;stroke-linecap:round;stroke-linejoin:round;stroke-miterlimit:4;stroke-opacity:1;stroke-dasharray:none;marker:none;visibility:visible;display:inline;overflow:visible;enable-background:accumulate"
       d="m 25.738258,94.200734 c 0,0 9.111465,-5.86904 25.230751,-2.491063 16.119286,3.377977 29.446693,2.740822 29.134494,2.491063"
       id="path4043"
       inkscape:connector-curvature="0"
       sodipodi:nodetypes="czc" />
    <path
       sodipodi:nodetypes="czc"
       inkscape:connector-curvature="0"
       id="path3879-9-8"
       d="m 27.459383,95.276437 c 0,0 9.111465,-5.86904 25.230751,-2.491063 16.119286,3.377977 29.446693,2.740822 29.134494,2.491063"
       style="color:#000000;fill:none;stroke:#6666dd;stroke-width:5;stroke-linecap:round;stroke-linejoin:round;stroke-miterlimit:4;stroke-opacity:1;stroke-dasharray:none;marker:none;visibility:visible;display:inline;overflow:visible;enable-background:accumulate" />
  </g>
  <g
     inkscape:groupmode="layer"
     id="layer7"
     inkscape:label="5"
     style="display:inline"
     sodipodi:insensitive="true">
    <path
       sodipodi:nodetypes="czc"
       inkscape:connector-curvature="0"
       id="path4095"
       d="m 17.182211,23.204958 c 0,0 18.960867,-16.4358173 27.527213,-3.136485 8.566346,13.299333 32.44954,3.32475 31.786267,3.136485"
       style="color:#000000;fill:none;stroke:#ffffff;stroke-width:5;stroke-linecap:round;stroke-linejoin:round;stroke-miterlimit:4;stroke-opacity:1;stroke-dasharray:none;marker:none;visibility:visible;display:inline;overflow:visible;enable-background:accumulate" />
    <path
       style="color:#000000;fill:none;stroke:#6666dd;stroke-width:5;stroke-linecap:round;stroke-linejoin:round;stroke-miterlimit:4;stroke-opacity:1;stroke-dasharray:none;marker:none;visibility:visible;display:inline;overflow:visible;enable-background:accumulate"
       d="m 16.75193,24.710943 c 0,0 18.960867,-16.4358178 27.527213,-3.136485 8.566346,13.299333 32.44954,3.32475 31.786267,3.136485"
       id="path3755-3-4-2-0-6"
       inkscape:connector-curvature="0"
       sodipodi:nodetypes="czc" />
    <path
       style="color:#000000;fill:none;stroke:#ffffff;stroke-width:5;stroke-linecap:round;stroke-linejoin:round;stroke-miterlimit:4;stroke-opacity:1;stroke-dasharray:none;marker:none;visibility:visible;display:inline;overflow:visible;enable-background:accumulate"
       d="m 10.114489,55.490028 c 0,0 14.314771,-9.345941 24.371233,-0.186485 10.056462,9.159456 32.469908,3.839637 32.479697,3.618878"
       id="path4097"
       inkscape:connector-curvature="0"
       sodipodi:nodetypes="czc" />
    <path
       sodipodi:nodetypes="czc"
       inkscape:connector-curvature="0"
       id="path3766-5-5-6-7-0"
       d="m 9.6842079,56.996013 c 0,0 14.3147711,-9.345941 24.3712331,-0.186485 10.056462,9.159456 32.469908,3.839637 32.479697,3.618878"
       style="color:#000000;fill:none;stroke:#6666dd;stroke-width:5;stroke-linecap:round;stroke-linejoin:round;stroke-miterlimit:4;stroke-opacity:1;stroke-dasharray:none;marker:none;visibility:visible;display:inline;overflow:visible;enable-background:accumulate" />
    <path
       style="color:#000000;fill:none;stroke:#ffffff;stroke-width:5;stroke-linecap:round;stroke-linejoin:round;stroke-miterlimit:4;stroke-opacity:1;stroke-dasharray:none;marker:none;visibility:visible;display:inline;overflow:visible;enable-background:accumulate"
       d="m 17.132632,93.770452 c 0,0 14.938395,-11.69597 25.230751,-2.491063 10.292356,9.204911 29.444387,2.743128 29.134494,2.491063"
       id="path4099"
       inkscape:connector-curvature="0"
       sodipodi:nodetypes="czc" />
    <path
       sodipodi:nodetypes="czc"
       inkscape:connector-curvature="0"
       id="path3879-9-8-8"
       d="m 16.702351,95.276437 c 0,0 14.938395,-11.69597 25.230751,-2.491063 10.292356,9.204906 29.444387,2.743128 29.134494,2.491063"
       style="color:#000000;fill:none;stroke:#6666dd;stroke-width:5;stroke-linecap:round;stroke-linejoin:round;stroke-miterlimit:4;stroke-opacity:1;stroke-dasharray:none;marker:none;visibility:visible;display:inline;overflow:visible;enable-background:accumulate" />
  </g>
</svg>
