<?xml version="1.0" encoding="UTF-8" standalone="no"?>
<!-- Created with Inkscape (http://www.inkscape.org/) -->

<svg
   xmlns:dc="http://purl.org/dc/elements/1.1/"
   xmlns:cc="http://creativecommons.org/ns#"
   xmlns:rdf="http://www.w3.org/1999/02/22-rdf-syntax-ns#"
   xmlns:svg="http://www.w3.org/2000/svg"
   xmlns="http://www.w3.org/2000/svg"
   xmlns:sodipodi="http://sodipodi.sourceforge.net/DTD/sodipodi-0.dtd"
   xmlns:inkscape="http://www.inkscape.org/namespaces/inkscape"
   width="40"
   height="58"
   id="svg3913"
   version="1.1"
   inkscape:version="0.48.5 r10040"
   sodipodi:docname="psychic.svg">
  <defs
     id="defs3915" />
  <sodipodi:namedview
     id="base"
     pagecolor="#ffffff"
     bordercolor="#666666"
     borderopacity="1.0"
     inkscape:pageopacity="0.0"
     inkscape:pageshadow="2"
     inkscape:zoom="5.6568542"
     inkscape:cx="38.304309"
     inkscape:cy="23.249479"
     inkscape:document-units="px"
     inkscape:current-layer="g4031"
     showgrid="false"
     fit-margin-top="0"
     fit-margin-left="0"
     fit-margin-right="0"
     fit-margin-bottom="0"
     inkscape:window-width="1366"
     inkscape:window-height="715"
     inkscape:window-x="0"
     inkscape:window-y="0"
     inkscape:window-maximized="1" />
  <metadata
     id="metadata3918">
    <rdf:RDF>
      <cc:Work
         rdf:about="">
        <dc:format>image/svg+xml</dc:format>
        <dc:type
           rdf:resource="http://purl.org/dc/dcmitype/StillImage" />
        <dc:title />
      </cc:Work>
    </rdf:RDF>
  </metadata>
  <g
     style="display:inline"
     inkscape:label="0"
     inkscape:groupmode="layer"
     id="g3961"
     transform="translate(-88.957431,-649.02433)"
     sodipodi:insensitive="true">
    <path
       sodipodi:type="arc"
       style="fill:#1a1a1a;fill-opacity:1;fill-rule:nonzero;stroke:#1a1a1a;stroke-width:1;stroke-linecap:round;stroke-linejoin:round;stroke-miterlimit:4;stroke-opacity:1;stroke-dasharray:none"
       id="path3963"
       sodipodi:cx="148"
       sodipodi:cy="-11"
       sodipodi:rx="8.5"
       sodipodi:ry="8.5"
       d="m 156.5,-11 a 8.5,8.5 0 1 1 -17,0 8.5,8.5 0 1 1 17,0 z"
       transform="translate(-35.00893,672.12196)" />
    <path
       style="fill:#1a1a1a;fill-opacity:1;fill-rule:nonzero;stroke:#1a1a1a;stroke-width:3;stroke-linecap:round;stroke-linejoin:round;stroke-miterlimit:4;stroke-opacity:1;stroke-dasharray:none"
       d="m 110.11607,666.44519 0,15.25"
       id="path3965"
       inkscape:connector-curvature="0" />
    <path
       style="fill:none;stroke:#1a1a1a;stroke-width:3;stroke-linecap:round;stroke-linejoin:round;stroke-miterlimit:4;stroke-opacity:1;stroke-dasharray:none"
       d="m 105.61607,702.44519 c 0.62271,-2.32399 2.25259,-7.40861 2.9981,-10.98751 0.74551,-3.5789 0.66786,-9.99427 1.59468,-9.62154 0.74537,0.29975 2.45262,6.61338 3.38511,9.97329 0.93249,3.3599 2.27211,6.57386 2.27211,10.63576"
       id="path3967"
       inkscape:connector-curvature="0"
       sodipodi:nodetypes="csssc" />
    <path
       sodipodi:nodetypes="cssc"
       inkscape:connector-curvature="0"
       id="path3969"
       d="m 103.36607,688.46296 c 1.40859,-7.11503 -0.6389,-14.58128 3.28732,-16.61246 2.4473,-1.26609 3.26629,-1.0102 5.97352,0.11153 4.00683,1.66023 1.9117,8.01725 3.6016,15.32415"
       style="fill:none;stroke:#1a1a1a;stroke-width:3;stroke-linecap:round;stroke-linejoin:round;stroke-miterlimit:4;stroke-opacity:1;stroke-dasharray:none" />
  </g>
  <g
     inkscape:label="1"
     inkscape:groupmode="layer"
     id="layer1"
     style="display:inline"
     transform="translate(-88.957431,-649.02433)"
     sodipodi:insensitive="true">
    <path
       sodipodi:type="arc"
       style="fill:#1a1a1a;fill-opacity:1;fill-rule:nonzero;stroke:#1a1a1a;stroke-width:1;stroke-linecap:round;stroke-linejoin:round;stroke-miterlimit:4;stroke-opacity:1;stroke-dasharray:none"
       id="path3905"
       sodipodi:cx="148"
       sodipodi:cy="-11"
       sodipodi:rx="8.5"
       sodipodi:ry="8.5"
       d="m 156.5,-11 c 0,4.6944204 -3.80558,8.5 -8.5,8.5 -4.69442,0 -8.5,-3.8055796 -8.5,-8.5 0,-4.69442 3.80558,-8.5 8.5,-8.5 4.69442,0 8.5,3.80558 8.5,8.5 z"
       transform="translate(-35.00893,670.95775)" />
    <path
       style="fill:#1a1a1a;fill-opacity:1;fill-rule:nonzero;stroke:#1a1a1a;stroke-width:3;stroke-linecap:round;stroke-linejoin:round;stroke-miterlimit:4;stroke-opacity:1;stroke-dasharray:none"
       d="m 110.11607,666.44519 0,15.25"
       id="path3907"
       inkscape:connector-curvature="0" />
    <path
       style="fill:none;stroke:#1a1a1a;stroke-width:3;stroke-linecap:round;stroke-linejoin:round;stroke-miterlimit:4;stroke-opacity:1;stroke-dasharray:none"
       d="m 105.61607,702.44519 c 1.36784,-13.33235 2.73914,-21.3545 4.59278,-20.60905 1.49074,0.59951 3.29345,6.86972 5.65722,20.60905"
       id="path3909"
       inkscape:connector-curvature="0"
       sodipodi:nodetypes="csc" />
    <path
       sodipodi:nodetypes="cssc"
       inkscape:connector-curvature="0"
       id="path3911"
       d="m 103.36607,687.44519 c 1.40859,-7.11503 -0.6389,-14.58128 3.28732,-16.61246 2.4473,-1.26609 3.26629,-1.0102 5.97352,0.11153 4.00683,1.66023 1.9117,8.01725 3.6016,15.32415"
       style="fill:none;stroke:#1a1a1a;stroke-width:3;stroke-linecap:round;stroke-linejoin:round;stroke-miterlimit:4;stroke-opacity:1;stroke-dasharray:none" />
  </g>
  <g
     id="g3948"
     inkscape:groupmode="layer"
     inkscape:label="2"
     style="display:inline"
     transform="translate(-88.957431,-649.02433)"
     sodipodi:insensitive="true">
    <path
       transform="translate(-35.00893,669.70775)"
       d="m 156.5,-11 c 0,4.6944204 -3.80558,8.5 -8.5,8.5 -4.69442,0 -8.5,-3.8055796 -8.5,-8.5 0,-4.69442 3.80558,-8.5 8.5,-8.5 4.69442,0 8.5,3.80558 8.5,8.5 z"
       sodipodi:ry="8.5"
       sodipodi:rx="8.5"
       sodipodi:cy="-11"
       sodipodi:cx="148"
       id="path3950"
       style="fill:#1a1a1a;fill-opacity:1;fill-rule:nonzero;stroke:#1a1a1a;stroke-width:1;stroke-linecap:round;stroke-linejoin:round;stroke-miterlimit:4;stroke-opacity:1;stroke-dasharray:none"
       sodipodi:type="arc" />
    <path
       inkscape:connector-curvature="0"
       id="path3952"
       d="m 110.11607,666.44519 0,15.25"
       style="fill:#1a1a1a;fill-opacity:1;fill-rule:nonzero;stroke:#1a1a1a;stroke-width:3;stroke-linecap:round;stroke-linejoin:round;stroke-miterlimit:4;stroke-opacity:1;stroke-dasharray:none" />
    <path
       sodipodi:nodetypes="csc"
       inkscape:connector-curvature="0"
       id="path3954"
       d="m 105.61607,702.44519 c 1.36784,-13.33235 2.73914,-21.3545 4.59278,-20.60905 1.49074,0.59951 3.29345,6.86972 5.65722,20.60905"
       style="fill:none;stroke:#1a1a1a;stroke-width:3;stroke-linecap:round;stroke-linejoin:round;stroke-miterlimit:4;stroke-opacity:1;stroke-dasharray:none" />
    <path
       style="fill:none;stroke:#1a1a1a;stroke-width:3;stroke-linecap:round;stroke-linejoin:round;stroke-miterlimit:4;stroke-opacity:1;stroke-dasharray:none"
       d="m 103.36607,685.69519 c 1.40859,-7.11503 -0.6389,-14.58128 3.28732,-16.61246 2.4473,-1.26609 3.26629,-1.0102 5.97352,0.11153 4.00683,1.66023 1.9117,8.01725 3.6016,15.32415"
       id="path3956"
       inkscape:connector-curvature="0"
       sodipodi:nodetypes="cssc" />
  </g>
  <g
     style="display:inline"
     inkscape:label="run0"
     inkscape:groupmode="layer"
     id="g3971"
     transform="translate(-88.957431,-649.02433)"
     sodipodi:insensitive="true">
    <path
       sodipodi:type="arc"
       style="fill:#1a1a1a;fill-opacity:1;fill-rule:nonzero;stroke:#1a1a1a;stroke-width:1;stroke-linecap:round;stroke-linejoin:round;stroke-miterlimit:4;stroke-opacity:1;stroke-dasharray:none"
       id="path3973"
       sodipodi:cx="148"
       sodipodi:cy="-11"
       sodipodi:rx="8.5"
       sodipodi:ry="8.5"
       d="m 156.5,-11 c 0,4.6944204 -3.80558,8.5 -8.5,8.5 -4.69442,0 -8.5,-3.8055796 -8.5,-8.5 0,-4.69442 3.80558,-8.5 8.5,-8.5 4.69442,0 8.5,3.80558 8.5,8.5 z"
       transform="translate(-35.00893,669.70775)" />
    <path
       style="fill:none;stroke:#1a1a1a;stroke-width:3;stroke-linecap:round;stroke-linejoin:round;stroke-miterlimit:4;stroke-opacity:1;stroke-dasharray:none"
       d="m 110.11607,666.44519 c 0,0 0.45005,11.44119 -3.88909,15.78033"
       id="path3975"
       inkscape:connector-curvature="0"
       sodipodi:nodetypes="cc" />
    <path
       style="fill:none;stroke:#1a1a1a;stroke-width:3;stroke-linecap:round;stroke-linejoin:round;stroke-miterlimit:4;stroke-opacity:1;stroke-dasharray:none"
       d="m 91.787643,686.08643 c 2.605127,4.28857 7.74208,7.34744 8.660257,4.79814 2.36219,-6.5586 2.41424,-8.89323 6.93253,-8.34132 1.17271,0.14325 7.54179,1.1943 8.59233,4.42821 0.82832,2.54982 4.15138,3.29987 7.39191,4.95611"
       id="path3977"
       inkscape:connector-curvature="0"
       sodipodi:nodetypes="csssc" />
    <path
       sodipodi:nodetypes="cssssc"
       inkscape:connector-curvature="0"
       id="path3979"
       d="m 101.42152,677.68609 c -1.39961,0 -1.901545,-4.85192 -1.843308,-6.78475 0.0901,-2.99031 4.864278,-2.73059 7.605508,-2.73059 2.62853,0 2.73596,-0.0582 5.44319,0.79161 2.74301,0.86099 2.62348,5.55946 5.47362,7.20499 3.00053,1.73235 3.95892,-2.96675 3.60806,-6.30958"
       style="fill:none;stroke:#1a1a1a;stroke-width:3;stroke-linecap:round;stroke-linejoin:round;stroke-miterlimit:4;stroke-opacity:1;stroke-dasharray:none" />
  </g>
  <g
     id="g3981"
     inkscape:groupmode="layer"
     inkscape:label="run1"
     style="display:inline"
     transform="translate(-88.957431,-649.02433)"
     sodipodi:insensitive="true">
    <path
       transform="translate(-35.00893,672.70775)"
       d="m 156.5,-11 c 0,4.6944204 -3.80558,8.5 -8.5,8.5 -4.69442,0 -8.5,-3.8055796 -8.5,-8.5 0,-4.69442 3.80558,-8.5 8.5,-8.5 4.69442,0 8.5,3.80558 8.5,8.5 z"
       sodipodi:ry="8.5"
       sodipodi:rx="8.5"
       sodipodi:cy="-11"
       sodipodi:cx="148"
       id="path3983"
       style="fill:#1a1a1a;fill-opacity:1;fill-rule:nonzero;stroke:#1a1a1a;stroke-width:1;stroke-linecap:round;stroke-linejoin:round;stroke-miterlimit:4;stroke-opacity:1;stroke-dasharray:none"
       sodipodi:type="arc" />
    <path
       sodipodi:nodetypes="cc"
       inkscape:connector-curvature="0"
       id="path3985"
       d="m 110.11607,669.44519 c 0,0 0.45005,11.44119 -3.88909,15.78033"
       style="fill:none;stroke:#1a1a1a;stroke-width:3;stroke-linecap:round;stroke-linejoin:round;stroke-miterlimit:4;stroke-opacity:1;stroke-dasharray:none" />
    <path
       sodipodi:nodetypes="csssc"
       inkscape:connector-curvature="0"
       id="path3987"
       d="m 102.53764,692.08643 c 2.60513,4.28857 7.74208,7.34744 8.66026,4.79814 2.36219,-6.5586 -8.33576,-11.89323 -3.81747,-11.34132 1.17271,0.14325 0.14714,7.78528 -1.95681,10.45645 -1.65889,2.10614 -4.43479,5.28527 -4.01,8.89963"
       style="fill:none;stroke:#1a1a1a;stroke-width:3;stroke-linecap:round;stroke-linejoin:round;stroke-miterlimit:4;stroke-opacity:1;stroke-dasharray:none" />
    <path
       style="fill:none;stroke:#1a1a1a;stroke-width:3;stroke-linecap:round;stroke-linejoin:round;stroke-miterlimit:4;stroke-opacity:1;stroke-dasharray:none"
       d="m 111.88805,681.98172 c -0.78879,1.15618 -5.07967,-1.16361 -6.64349,-2.301 -2.41942,-1.75969 0.48572,-5.55711 2.0306,-7.82154 1.48137,-2.17134 4.15376,-2.13433 5.53676,0.34329 1.40131,2.51033 -1.91395,5.84184 -0.97388,8.99577 0.98968,3.32036 4.91484,0.56479 6.95685,-2.105"
       id="path3989"
       inkscape:connector-curvature="0"
       sodipodi:nodetypes="cssssc" />
  </g>
  <g
     id="g3991"
     inkscape:groupmode="layer"
     inkscape:label="run2"
     style="display:inline"
     transform="translate(-88.957431,-649.02433)"
     sodipodi:insensitive="true">
    <path
       transform="translate(-30.50893,669.70775)"
       d="m 156.5,-11 c 0,4.6944204 -3.80558,8.5 -8.5,8.5 -4.69442,0 -8.5,-3.8055796 -8.5,-8.5 0,-4.69442 3.80558,-8.5 8.5,-8.5 4.69442,0 8.5,3.80558 8.5,8.5 z"
       sodipodi:ry="8.5"
       sodipodi:rx="8.5"
       sodipodi:cy="-11"
       sodipodi:cx="148"
       id="path3993"
       style="fill:#1a1a1a;fill-opacity:1;fill-rule:nonzero;stroke:#1a1a1a;stroke-width:1;stroke-linecap:round;stroke-linejoin:round;stroke-miterlimit:4;stroke-opacity:1;stroke-dasharray:none"
       sodipodi:type="arc" />
    <path
       sodipodi:nodetypes="cc"
       inkscape:connector-curvature="0"
       id="path3995"
       d="m 113.36607,666.44519 c 0,0 -2.79995,11.44119 -7.13909,15.78033"
       style="fill:none;stroke:#1a1a1a;stroke-width:3;stroke-linecap:round;stroke-linejoin:round;stroke-miterlimit:4;stroke-opacity:1;stroke-dasharray:none" />
    <path
       sodipodi:nodetypes="csssc"
       inkscape:connector-curvature="0"
       id="path3997"
       d="m 90.957431,683.40066 c 1.763064,4.69788 6.242328,8.65783 7.618117,6.32348 3.539502,-6.00559 4.286592,-7.7328 8.804882,-7.18089 1.17271,0.14325 7.54179,1.1943 8.59233,4.42821 0.82832,2.54982 4.40138,8.29987 7.64191,9.95611"
       style="fill:none;stroke:#1a1a1a;stroke-width:3;stroke-linecap:round;stroke-linejoin:round;stroke-miterlimit:4;stroke-opacity:1;stroke-dasharray:none" />
    <path
       style="fill:none;stroke:#1a1a1a;stroke-width:3;stroke-linecap:round;stroke-linejoin:round;stroke-miterlimit:4;stroke-opacity:1;stroke-dasharray:none"
       d="m 102.92152,676.43609 c -1.39961,0 -1.87091,-4.85124 -1.84331,-6.78475 0.0901,-6.31251 3.36428,-2.57725 6.10551,-1.48059 2.44048,0.97634 2.73596,-0.0582 5.44319,0.79161 2.74301,0.86099 5.37348,3.30946 8.22362,4.95499 3.00053,1.73235 3.95892,-2.96675 3.60806,-6.30958"
       id="path3999"
       inkscape:connector-curvature="0"
       sodipodi:nodetypes="cssssc" />
  </g>
  <g
     id="g4001"
     inkscape:groupmode="layer"
     inkscape:label="shoot0"
     style="display:inline"
     transform="translate(-88.957431,-649.02433)"
     sodipodi:insensitive="true">
    <path
       transform="translate(-37.25893,672.12196)"
       d="m 156.5,-11 a 8.5,8.5 0 1 1 -17,0 8.5,8.5 0 1 1 17,0 z"
       sodipodi:ry="8.5"
       sodipodi:rx="8.5"
       sodipodi:cy="-11"
       sodipodi:cx="148"
       id="path4003"
       style="fill:#1a1a1a;fill-opacity:1;fill-rule:nonzero;stroke:#1a1a1a;stroke-width:1;stroke-linecap:round;stroke-linejoin:round;stroke-miterlimit:4;stroke-opacity:1;stroke-dasharray:none"
       sodipodi:type="arc" />
    <path
       inkscape:connector-curvature="0"
       id="path4005"
       d="m 110.11607,666.44519 0,15.25"
       style="fill:#1a1a1a;fill-opacity:1;fill-rule:nonzero;stroke:#1a1a1a;stroke-width:3;stroke-linecap:round;stroke-linejoin:round;stroke-miterlimit:4;stroke-opacity:1;stroke-dasharray:none" />
    <path
       sodipodi:nodetypes="csssc"
       inkscape:connector-curvature="0"
       id="path4007"
       d="m 105.61607,702.44519 c 0.62271,-2.32399 -0.37241,-5.90861 0.3731,-9.48751 0.74551,-3.5789 3.29286,-11.49427 4.21968,-11.12154 0.74537,0.29975 4.26512,7.67588 5.19761,11.03579 0.93249,3.3599 0.45961,5.51136 0.45961,9.57326"
       style="fill:none;stroke:#1a1a1a;stroke-width:3;stroke-linecap:round;stroke-linejoin:round;stroke-miterlimit:4;stroke-opacity:1;stroke-dasharray:none" />
    <path
       style="fill:none;stroke:#1a1a1a;stroke-width:3;stroke-linecap:round;stroke-linejoin:round;stroke-miterlimit:4;stroke-opacity:1;stroke-dasharray:none"
       d="m 96.42857,684.52546 c 0,0 6.62445,-1.77555 6.70894,-4.89093 0.11488,-4.23582 1.25356,-6.61365 3.51588,-7.78403 2.4473,-1.26608 3.26629,-1.01021 5.97352,0.11153 2.60101,1.07773 3.48074,3.55303 3.66865,8.17947 0.10161,2.50055 7.68295,3.08218 7.68295,3.08218"
       id="path4009"
       inkscape:connector-curvature="0"
       sodipodi:nodetypes="cssssc" />
  </g>
  <g
     style="display:inline"
     inkscape:label="shoot1"
     inkscape:groupmode="layer"
     id="g4011"
     transform="translate(-88.957431,-649.02433)"
     sodipodi:insensitive="true">
    <path
       sodipodi:type="arc"
       style="fill:#1a1a1a;fill-opacity:1;fill-rule:nonzero;stroke:#1a1a1a;stroke-width:1;stroke-linecap:round;stroke-linejoin:round;stroke-miterlimit:4;stroke-opacity:1;stroke-dasharray:none"
       id="path4013"
       sodipodi:cx="148"
       sodipodi:cy="-11"
       sodipodi:rx="8.5"
       sodipodi:ry="8.5"
       d="m 156.5,-11 a 8.5,8.5 0 1 1 -17,0 8.5,8.5 0 1 1 17,0 z"
       transform="translate(-37.25893,673.80134)" />
    <path
       style="fill:#1a1a1a;fill-opacity:1;fill-rule:nonzero;stroke:#1a1a1a;stroke-width:3;stroke-linecap:round;stroke-linejoin:round;stroke-miterlimit:4;stroke-opacity:1;stroke-dasharray:none"
       d="m 110.11607,668.12457 0,15.25"
       id="path4015"
       inkscape:connector-curvature="0" />
    <path
       style="fill:none;stroke:#1a1a1a;stroke-width:3;stroke-linecap:round;stroke-linejoin:round;stroke-miterlimit:4;stroke-opacity:1;stroke-dasharray:none"
       d="m 105.61607,702.44519 c 0.62271,-2.32399 -1.70338,-5.7319 -0.77595,-10.18415 0.92744,-4.45226 4.44191,-8.85309 5.36873,-8.48036 0.74537,0.29975 5.18661,4.19385 6.34666,8.37368 1.16004,4.17982 -0.68944,6.22893 -0.68944,10.29083"
       id="path4017"
       inkscape:connector-curvature="0"
       sodipodi:nodetypes="csssc" />
    <path
       sodipodi:nodetypes="cssssc"
       inkscape:connector-curvature="0"
       id="path4019"
       d="m 91.920764,675.45071 c 0,0 3.945968,5.24448 7.062494,5.24448 2.631142,0 5.407812,-5.99493 7.670132,-7.16531 2.4473,-1.26608 3.26629,-1.01021 5.97352,0.11153 2.60101,1.07773 5.31156,6.94203 7.0274,6.94203 2.24183,0 7.15262,-6.25773 7.15262,-6.25773"
       style="fill:none;stroke:#1a1a1a;stroke-width:3;stroke-linecap:round;stroke-linejoin:round;stroke-miterlimit:4;stroke-opacity:1;stroke-dasharray:none" />
  </g>
  <g
     id="g4021"
     inkscape:groupmode="layer"
     inkscape:label="shoot2"
     style="display:inline"
     transform="translate(-88.957431,-649.02433)"
     sodipodi:insensitive="true">
    <path
       transform="translate(-37.25893,675.30394)"
       d="m 156.5,-11 a 8.5,8.5 0 1 1 -17,0 8.5,8.5 0 1 1 17,0 z"
       sodipodi:ry="8.5"
       sodipodi:rx="8.5"
       sodipodi:cy="-11"
       sodipodi:cx="148"
       id="path4023"
       style="fill:#1a1a1a;fill-opacity:1;fill-rule:nonzero;stroke:#1a1a1a;stroke-width:1;stroke-linecap:round;stroke-linejoin:round;stroke-miterlimit:4;stroke-opacity:1;stroke-dasharray:none"
       sodipodi:type="arc" />
    <path
       inkscape:connector-curvature="0"
       id="path4025"
       d="m 110.11607,668.12457 0,15.25"
       style="fill:#1a1a1a;fill-opacity:1;fill-rule:nonzero;stroke:#1a1a1a;stroke-width:3;stroke-linecap:round;stroke-linejoin:round;stroke-miterlimit:4;stroke-opacity:1;stroke-dasharray:none" />
    <path
       sodipodi:nodetypes="csssc"
       inkscape:connector-curvature="0"
       id="path4027"
       d="m 105.61607,699.79354 c 0.62271,-2.32399 -2.52244,-2.53636 -1.48306,-7.52606 1.0394,-4.98971 5.14902,-8.85953 6.07584,-8.4868 0.74537,0.29975 5.75368,3.68285 7.05377,8.36724 1.30007,4.68438 -1.39655,3.58372 -1.39655,7.64562"
       style="fill:none;stroke:#1a1a1a;stroke-width:3;stroke-linecap:round;stroke-linejoin:round;stroke-miterlimit:4;stroke-opacity:1;stroke-dasharray:none" />
    <path
       style="fill:none;stroke:#1a1a1a;stroke-width:3;stroke-linecap:round;stroke-linejoin:round;stroke-miterlimit:4;stroke-opacity:1;stroke-dasharray:none"
       d="m 92.386837,668.40342 c 0,0 1.525726,6.38337 4.38343,7.62686 2.412631,1.04982 7.350663,-3.33936 9.892083,-3.50988 2.74922,-0.18446 3.12038,0.52466 6.03166,0.19023 2.79706,-0.32132 8.01481,3.48816 9.51465,2.65474 1.95961,-1.08891 3.21267,-8.94416 3.21267,-8.94416"
       id="path4029"
       inkscape:connector-curvature="0"
       sodipodi:nodetypes="cssssc" />
  </g>
  <g
     style="display:inline"
     inkscape:label="shoot3"
     inkscape:groupmode="layer"
     id="g4031"
     transform="translate(-88.957431,-649.02433)">
    <path
       sodipodi:type="arc"
       style="fill:#1a1a1a;fill-opacity:1;fill-rule:nonzero;stroke:#1a1a1a;stroke-width:1;stroke-linecap:round;stroke-linejoin:round;stroke-miterlimit:4;stroke-opacity:1;stroke-dasharray:none"
       id="path4033"
       sodipodi:cx="148"
       sodipodi:cy="-11"
       sodipodi:rx="8.5"
       sodipodi:ry="8.5"
       d="m 156.5,-11 a 8.5,8.5 0 1 1 -17,0 8.5,8.5 0 1 1 17,0 z"
       transform="translate(-37.25893,677.77881)" />
    <path
       style="fill:#1a1a1a;fill-opacity:1;fill-rule:nonzero;stroke:#1a1a1a;stroke-width:3;stroke-linecap:round;stroke-linejoin:round;stroke-miterlimit:4;stroke-opacity:1;stroke-dasharray:none"
       d="m 110.11607,668.12457 0,15.25"
       id="path4035"
       inkscape:connector-curvature="0" />
    <path
       style="fill:none;stroke:#1a1a1a;stroke-width:3;stroke-linecap:round;stroke-linejoin:round;stroke-miterlimit:4;stroke-opacity:1;stroke-dasharray:none"
       d="m 105.61607,698.37933 c 0.62271,-2.32399 -3.54627,-0.44229 -2.36694,-6.1038 1.17934,-5.66152 6.0329,-8.86758 6.95972,-8.49485 0.74537,0.29975 6.46252,3.0441 7.93765,8.35919 1.47511,5.31508 -2.28043,2.17756 -2.28043,6.23946"
       id="path4037"
       inkscape:connector-curvature="0"
       sodipodi:nodetypes="csssc" />
    <path
       sodipodi:nodetypes="cssssc"
       inkscape:connector-curvature="0"
       id="path4039"
       d="m 101.0489,666.45888 c 0,0 -9.964764,6.29498 -7.10706,7.53847 2.412631,1.04982 10.17909,-1.30643 12.72051,-1.47695 2.74922,-0.18446 3.12038,0.52466 6.03166,0.19023 2.79706,-0.32132 10.57807,2.51589 12.07791,1.68247 1.95961,-1.08891 -4.83067,-7.97189 -4.83067,-7.97189"
       style="fill:none;stroke:#1a1a1a;stroke-width:3;stroke-linecap:round;stroke-linejoin:round;stroke-miterlimit:4;stroke-opacity:1;stroke-dasharray:none" />
  </g>
  <g
     transform="translate(-88.957431,-649.02433)"
     id="g3239"
     inkscape:groupmode="layer"
     inkscape:label="jump0"
     style="display:inline"
     sodipodi:insensitive="true">
    <path
       transform="translate(-36.7286,670.35419)"
       d="m 156.5,-11 c 0,4.6944204 -3.80558,8.5 -8.5,8.5 -4.69442,0 -8.5,-3.8055796 -8.5,-8.5 0,-4.69442 3.80558,-8.5 8.5,-8.5 4.69442,0 8.5,3.80558 8.5,8.5 z"
       sodipodi:ry="8.5"
       sodipodi:rx="8.5"
       sodipodi:cy="-11"
       sodipodi:cx="148"
       id="path3241"
       style="fill:#1a1a1a;fill-opacity:1;fill-rule:nonzero;stroke:#1a1a1a;stroke-width:1;stroke-linecap:round;stroke-linejoin:round;stroke-miterlimit:4;stroke-opacity:1;stroke-dasharray:none"
       sodipodi:type="arc" />
    <path
       inkscape:connector-curvature="0"
       id="path3243"
       d="m 112.36179,668.2758 c 4.10747,2.30856 2.00301,9.87887 -2.04461,15.11231"
       style="fill:none;stroke:#1a1a1a;stroke-width:3;stroke-linecap:round;stroke-linejoin:round;stroke-miterlimit:4;stroke-opacity:1;stroke-dasharray:none"
       inkscape:transform-center-y="-9.042615"
       inkscape:transform-center-x="-1.223415"
       sodipodi:nodetypes="cc" />
    <path
       sodipodi:nodetypes="csssc"
       inkscape:connector-curvature="0"
       id="path3245"
       d="m 98.368225,700.8542 c 0.62271,-2.32399 3.701575,-2.91716 4.880905,-8.57867 1.17934,-5.66152 6.0329,-8.86758 6.95972,-8.49485 0.74537,0.29975 3.90979,1.52544 3.82296,7.04075 -0.0868,5.51529 -4.92412,1.798 -6.07186,5.69437"
       style="fill:none;stroke:#1a1a1a;stroke-width:3;stroke-linecap:round;stroke-linejoin:round;stroke-miterlimit:4;stroke-opacity:1;stroke-dasharray:none" />
    <path
       style="fill:none;stroke:#1a1a1a;stroke-width:3;stroke-linecap:round;stroke-linejoin:round;stroke-miterlimit:4;stroke-opacity:1;stroke-dasharray:none"
       d="m 99.372964,685.73699 c 0,0 5.086876,-4.60208 5.768896,-8.05344 0.51007,-2.58122 1.79188,-4.11935 3.64181,-5.87026 2.74922,-2.60207 2.21848,-1.57754 6.56199,-1.57754 2.81546,0 0.2858,8.39999 2.00164,8.39999 3.18771,0 5.2456,-7.26479 5.2456,-7.26479"
       id="path3247"
       inkscape:connector-curvature="0"
       sodipodi:nodetypes="cssssc" />
  </g>
  <g
     transform="translate(-88.957431,-649.02433)"
     id="g3249"
     inkscape:groupmode="layer"
     inkscape:label="jump1"
     style="display:inline"
     sodipodi:insensitive="true">
    <path
       transform="translate(-37.25893,677.77881)"
       d="m 156.5,-11 a 8.5,8.5 0 1 1 -17,0 8.5,8.5 0 1 1 17,0 z"
       sodipodi:ry="8.5"
       sodipodi:rx="8.5"
       sodipodi:cy="-11"
       sodipodi:cx="148"
       id="path3251"
       style="fill:#1a1a1a;fill-opacity:1;fill-rule:nonzero;stroke:#1a1a1a;stroke-width:1;stroke-linecap:round;stroke-linejoin:round;stroke-miterlimit:4;stroke-opacity:1;stroke-dasharray:none"
       sodipodi:type="arc" />
    <path
       inkscape:connector-curvature="0"
       id="path3253"
       d="m 110.11607,668.12457 0,15.25"
       style="fill:#1a1a1a;fill-opacity:1;fill-rule:nonzero;stroke:#1a1a1a;stroke-width:3;stroke-linecap:round;stroke-linejoin:round;stroke-miterlimit:4;stroke-opacity:1;stroke-dasharray:none" />
    <path
       sodipodi:nodetypes="csssc"
       inkscape:connector-curvature="0"
       id="path3255"
       d="m 103.67153,702.97552 c 0.62271,-2.32399 -0.0107,-5.03848 1.16859,-10.69999 1.17934,-5.66152 4.44191,-8.86758 5.36873,-8.49485 0.74537,0.29975 6.46252,3.0441 7.93765,8.35919 1.47511,5.31508 -2.28043,2.17756 -2.28043,6.23946"
       style="fill:none;stroke:#1a1a1a;stroke-width:3;stroke-linecap:round;stroke-linejoin:round;stroke-miterlimit:4;stroke-opacity:1;stroke-dasharray:none" />
    <path
       style="fill:none;stroke:#1a1a1a;stroke-width:3;stroke-linecap:round;stroke-linejoin:round;stroke-miterlimit:4;stroke-opacity:1;stroke-dasharray:none"
       d="m 96.629483,655.49873 c 0,0 -0.533595,7.84468 1.024668,10.54367 1.550364,2.68531 6.466779,6.64852 9.008199,6.478 2.74922,-0.18446 3.12038,0.52466 6.03166,0.19023 2.79706,-0.32132 9.33572,-5.14544 9.77981,-6.80281 0.76262,-2.84615 -1.47192,-10.44676 -1.47192,-10.44676"
       id="path3257"
       inkscape:connector-curvature="0"
       sodipodi:nodetypes="cssssc" />
  </g>
</svg>
