<?xml version="1.0" encoding="UTF-8" standalone="no"?>
<!-- Created with Inkscape (http://www.inkscape.org/) -->

<svg
   xmlns:dc="http://purl.org/dc/elements/1.1/"
   xmlns:cc="http://creativecommons.org/ns#"
   xmlns:rdf="http://www.w3.org/1999/02/22-rdf-syntax-ns#"
   xmlns:svg="http://www.w3.org/2000/svg"
   xmlns="http://www.w3.org/2000/svg"
   xmlns:sodipodi="http://sodipodi.sourceforge.net/DTD/sodipodi-0.dtd"
   xmlns:inkscape="http://www.inkscape.org/namespaces/inkscape"
   width="15"
   height="15"
   id="svg2"
   version="1.1"
   inkscape:version="0.48.5 r10040"
   sodipodi:docname="shot.svg"
   inkscape:export-filename="/home/vg/Project/teaching/videogame/gdf/the-game/assets/psychic/shot.png"
   inkscape:export-xdpi="90.055107"
   inkscape:export-ydpi="90.055107">
  <defs
     id="defs4" />
  <sodipodi:namedview
     id="base"
     pagecolor="#ffffff"
     bordercolor="#666666"
     borderopacity="1.0"
     inkscape:pageopacity="0.0"
     inkscape:pageshadow="2"
     inkscape:zoom="8"
     inkscape:cx="13.631117"
     inkscape:cy="10.940138"
     inkscape:document-units="px"
     inkscape:current-layer="layer1"
     showgrid="false"
     inkscape:window-width="1366"
     inkscape:window-height="715"
     inkscape:window-x="0"
     inkscape:window-y="0"
     inkscape:window-maximized="1" />
  <metadata
     id="metadata7">
    <rdf:RDF>
      <cc:Work
         rdf:about="">
        <dc:format>image/svg+xml</dc:format>
        <dc:type
           rdf:resource="http://purl.org/dc/dcmitype/StillImage" />
        <dc:title></dc:title>
      </cc:Work>
    </rdf:RDF>
  </metadata>
  <g
     inkscape:label="Layer 1"
     inkscape:groupmode="layer"
     id="layer1"
     transform="translate(0,-1037.3622)">
    <g
       id="g3776"
       transform="matrix(1.0406395,0,0,1.0406395,-0.43487655,-42.332592)"
       style="fill:#00ffff">
      <path
         sodipodi:type="arc"
         style="fill:#00ffff;fill-opacity:0.66081871999999997;stroke:none"
         id="path2987"
         sodipodi:cx="7.625"
         sodipodi:cy="7.375"
         sodipodi:rx="6.5"
         sodipodi:ry="6.5"
         d="m 14.125,7.375 c 0,3.589851 -2.910149,6.5 -6.5,6.5 -3.5898509,0 -6.5,-2.910149 -6.5,-6.5 0,-3.5898509 2.9101491,-6.5 6.5,-6.5 3.589851,0 6.5,2.9101491 6.5,6.5 z"
         transform="matrix(1.1087857,0,0,1.1087857,-0.82949061,1036.5599)" />
      <path
         transform="matrix(0.59703843,0,0,0.59703843,3.072582,1040.334)"
         d="m 14.125,7.375 c 0,3.589851 -2.910149,6.5 -6.5,6.5 -3.5898509,0 -6.5,-2.910149 -6.5,-6.5 0,-3.5898509 2.9101491,-6.5 6.5,-6.5 3.589851,0 6.5,2.9101491 6.5,6.5 z"
         sodipodi:ry="6.5"
         sodipodi:rx="6.5"
         sodipodi:cy="7.375"
         sodipodi:cx="7.625"
         id="path2985"
         style="fill:#00ffff;fill-opacity:1;stroke:none"
         sodipodi:type="arc" />
    </g>
  </g>
</svg>
