<?xml version="1.0" encoding="UTF-8" standalone="no"?>
<!-- Created with Inkscape (http://www.inkscape.org/) -->

<svg
   xmlns:dc="http://purl.org/dc/elements/1.1/"
   xmlns:cc="http://creativecommons.org/ns#"
   xmlns:rdf="http://www.w3.org/1999/02/22-rdf-syntax-ns#"
   xmlns:svg="http://www.w3.org/2000/svg"
   xmlns="http://www.w3.org/2000/svg"
   xmlns:sodipodi="http://sodipodi.sourceforge.net/DTD/sodipodi-0.dtd"
   xmlns:inkscape="http://www.inkscape.org/namespaces/inkscape"
   width="2000"
   height="960"
   id="svg6675"
   version="1.1"
   inkscape:version="0.48.5 r10040"
   sodipodi:docname="sky.svg"
   inkscape:export-filename="/home/vg/Project/litoral/noninheritance/assets/sky.png"
   inkscape:export-xdpi="90.055107"
   inkscape:export-ydpi="90.055107">
  <defs
     id="defs6677" />
  <sodipodi:namedview
     id="base"
     pagecolor="#ffffff"
     bordercolor="#666666"
     borderopacity="1.0"
     inkscape:pageopacity="0.0"
     inkscape:pageshadow="2"
     inkscape:zoom="0.25"
     inkscape:cx="1036.4763"
     inkscape:cy="392.73371"
     inkscape:document-units="px"
     inkscape:current-layer="layer1"
     showgrid="false"
     showguides="true"
     inkscape:guide-bbox="true"
     borderlayer="true"
     inkscape:showpageshadow="false"
     inkscape:window-width="1366"
     inkscape:window-height="715"
     inkscape:window-x="0"
     inkscape:window-y="0"
     inkscape:window-maximized="1">
    <sodipodi:guide
       orientation="0,1"
       position="1204.91,1383.1009"
       id="guide7206" />
  </sodipodi:namedview>
  <metadata
     id="metadata6680">
    <rdf:RDF>
      <cc:Work
         rdf:about="">
        <dc:format>image/svg+xml</dc:format>
        <dc:type
           rdf:resource="http://purl.org/dc/dcmitype/StillImage" />
        <dc:title></dc:title>
      </cc:Work>
    </rdf:RDF>
  </metadata>
  <g
     inkscape:label="Layer 1"
     inkscape:groupmode="layer"
     id="layer1"
     transform="translate(0,-92.362183)">
    <rect
       style="fill:#8888ab;fill-opacity:1;stroke:none"
       id="rect6685"
       width="2000"
       height="960"
       x="1.0899134e-06"
       y="92.362183" />
    <rect
       style="fill:#ceceda;fill-opacity:0.29487185;stroke:none"
       id="rect7382"
       width="2000"
       height="387.86121"
       x="1.0899134e-06"
       y="664.50098" />
    <path
       inkscape:connector-curvature="0"
       id="path7328"
       d="m 2353.4738,391.7295 c -25.7233,0 -46.566,20.8637 -46.566,46.58709 0,16.73861 8.8405,31.40342 22.0963,39.61373 -0.7559,2.68096 -1.3222,5.45006 -1.6803,8.27561 -1.3868,-0.2415 -2.8079,-0.35707 -4.2639,-0.35707 -13.6491,0 -24.7008,11.05168 -24.7008,24.70082 0,10.39543 6.411,19.28574 15.5011,22.93648 -0.8122,1.50302 -1.2603,3.05976 -1.2603,4.6419 0,14.17411 34.0585,25.64601 76.0558,25.64601 41.9974,0 76.0349,-11.4719 76.0349,-25.64601 0,-1.27663 -0.2648,-2.53307 -0.7982,-3.75973 15.0137,-2.96419 24.5748,-7.43112 24.5748,-12.41342 0,-3.67483 -5.2166,-7.05223 -13.9677,-9.76691 9.2718,-7.03045 14.9129,-16.24204 14.9129,-26.33914 0,-16.46525 -14.9496,-30.61109 -36.2951,-36.71516 -1.7237,-17.28507 -16.3087,-30.79201 -34.0476,-30.79201 -7.8439,0 -15.0646,2.66062 -20.8361,7.09939 -5.5867,-19.45987 -23.5037,-33.71158 -44.7598,-33.71158 z"
       style="opacity:0.5;fill:#ffffff;fill-opacity:1;stroke:none" />
    <path
       inkscape:connector-curvature="0"
       id="path7330"
       d="m 2126.4406,214.79097 c -106.2445,0 -194.138,17.33488 -208.8438,39.88679 -87.4703,7.72112 -145.7264,21.44882 -145.7264,37.11424 0,22.60336 121.2019,41.19113 276.6239,43.47848 0,0.0822 0,0.16964 0,0.25205 0,16.27398 37.0211,29.46875 82.6932,29.46875 45.6721,0 82.6932,-13.19477 82.6932,-29.46875 0,-1.43083 -0.2871,-2.8455 -0.8402,-4.22182 104.4482,-7.01339 176.6865,-22.05825 176.6865,-39.50871 0,-9.15525 -19.8923,-17.65656 -53.8756,-24.67982 1.047,-1.88063 1.5963,-3.79101 1.5963,-5.73412 0,-25.72338 -94.4644,-46.58709 -211.0071,-46.58709 z"
       style="opacity:0.5;fill:#ffffff;fill-opacity:1;stroke:none" />
    <g
       id="g7365">
      <path
         inkscape:connector-curvature="0"
         id="path6683"
         d="m 567.52849,335.42348 c -21.79352,0 -40.0787,17.04597 -45.10502,40.04457 -8.07332,-8.40631 -19.42768,-13.63318 -32.0033,-13.63318 -19.81091,0 -36.58717,12.98251 -42.28596,30.90572 -26.06159,6.60064 -44.33093,21.96271 -44.33093,39.85971 0,13.5658 10.50077,25.67975 26.9313,33.6208 4.34836,25.68426 35.56124,45.60182 73.42275,45.60182 37.78795,0 68.94406,-19.83966 73.38808,-45.45162 12.35463,-0.54114 22.2059,-10.71151 22.2059,-23.19951 0,-4.81298 -1.46867,-9.28874 -3.97442,-12.99773 11.08031,-9.65335 18.23149,-24.84758 18.23149,-41.93935 0,-29.16957 -20.81067,-52.81123 -46.47989,-52.81123 z"
         style="opacity:0.5;fill:#ffffff;stroke:none" />
      <path
         inkscape:connector-curvature="0"
         id="path7221"
         d="m 1114.2707,328.04534 c -8.9244,0 -16.1731,11.07268 -16.1731,24.72182 0,4.81683 0.9202,9.30616 2.4784,13.10656 -1.5932,2.14876 -2.4784,4.44469 -2.4784,6.84733 0,3.02584 1.3946,5.91007 3.8648,8.50666 -1.253,3.16954 -1.9534,6.72742 -1.9534,10.50205 0,0.97146 0.056,1.93664 0.1469,2.87756 -0.3634,-0.0128 -0.724,-0.021 -1.0922,-0.021 -3.366,0 -6.5509,0.54894 -9.3677,1.5123 -2.7894,-7.32249 -6.93,-11.97234 -11.5523,-11.97234 -2.1483,0 -4.1963,1.00656 -6.0492,2.81455 -2.6743,-6.81061 -7.4709,-11.36322 -12.9595,-11.36322 -7.6028,0 -13.9123,8.71464 -15.039,20.10093 -0.9946,-0.0937 -2.001,-0.14703 -3.0245,-0.14703 -10.5153,0 -19.6537,5.07511 -24.3018,12.53944 -3.2028,-1.91989 -6.9005,-3.02459 -10.8591,-3.02459 -12.0742,0 -21.8653,10.21124 -21.8653,22.81045 0,4.09475 1.0254,7.93613 2.8356,11.2582 -6.0252,2.54794 -9.4939,5.5214 -9.4939,8.6957 0,2.098 1.521,4.10781 4.2849,5.96516 -10.3958,2.78144 -16.6353,6.34083 -16.6353,10.20799 0,8.92445 33.197,16.15216 74.1445,16.15216 21.9377,0 41.6241,-2.07659 55.1988,-5.37705 5.0544,5.03309 12.5075,8.2336 20.836,8.2336 15.2241,0 27.5574,-10.65246 27.5574,-23.77664 0,-1.74002 -0.2183,-3.42833 -0.6301,-5.06198 2.8186,-4.61295 4.4319,-10.03549 4.4319,-15.83709 0,-11.83872 -6.7616,-22.11108 -16.6353,-27.1373 4.5289,-3.98028 7.5917,-10.35622 8.0235,-17.66445 1.5836,0.0795 3.1814,0.12603 4.81,0.12603 24.6735,0 44.6757,-9.37081 44.6757,-20.92008 0,-11.54928 -20.0022,-20.89908 -44.6757,-20.89908 -4.2901,0 -8.4234,0.26978 -12.3504,0.79815 -0.052,-13.58164 -7.2597,-24.57479 -16.1522,-24.57479 z"
         style="opacity:0.5;fill:#ffffff;fill-opacity:1;stroke:none" />
      <path
         inkscape:connector-curvature="0"
         id="path7204"
         d="m 743.91464,405.0671 c -42.6889,0 -77.29508,25.57849 -77.29508,57.13115 0,5.60033 1.0975,11.01685 3.12961,16.13115 -46.14976,3.32338 -81.09683,18.90125 -81.09683,37.63934 0,7.99971 6.3777,15.42731 17.26537,21.57121 -1.16862,2.65128 -1.80635,5.59123 -1.80635,8.67469 0,11.87865 9.62955,21.5082 21.5082,21.5082 0.30819,0 0.61914,-0.008 0.92418,-0.021 -0.0984,1.05773 -0.14703,2.12321 -0.14703,3.19262 0,27.33356 32.46732,51.00025 79.85758,62.57121 4.01006,13.66615 16.64773,23.65062 31.61117,23.65062 12.057,0 22.5956,-6.48587 28.33453,-16.15216 1.94117,0.0369 3.87915,0.063 5.83914,0.063 74.74535,0 136.34275,-27.11591 144.6972,-62.0251 3.96417,0.086 7.96375,0.14703 12.01435,0.14703 77.95362,0 141.14752,-16.24986 141.14752,-36.29508 0,-20.04523 -63.1939,-36.29508 -141.14752,-36.29508 -0.26045,0 -0.51694,-3.7e-4 -0.77712,0 1.38311,-2.83194 2.12138,-5.75129 2.12138,-8.73771 0,-24.43209 -48.43112,-44.50568 -110.37651,-46.81814 -7.04377,-26.18927 -38.30175,-45.93596 -75.80379,-45.93596 z"
         style="opacity:0.5;fill:#ffffff;fill-opacity:1;stroke:none" />
      <path
         inkscape:connector-curvature="0"
         id="path7248"
         d="m 1105.4738,391.7295 c -25.7233,0 -46.566,20.8637 -46.566,46.58709 0,16.73861 8.8405,31.40342 22.0963,39.61373 -0.7559,2.68096 -1.3222,5.45006 -1.6803,8.27561 -1.3868,-0.2415 -2.8079,-0.35707 -4.2639,-0.35707 -13.6491,0 -24.7008,11.05168 -24.7008,24.70082 0,10.39543 6.411,19.28574 15.5011,22.93648 -0.8122,1.50302 -1.2603,3.05976 -1.2603,4.6419 0,14.17411 34.0585,25.64601 76.0558,25.64601 41.9974,0 76.0349,-11.4719 76.0349,-25.64601 0,-1.27663 -0.2648,-2.53307 -0.7982,-3.75973 15.0137,-2.96419 24.5748,-7.43112 24.5748,-12.41342 0,-3.67483 -5.2166,-7.05223 -13.9677,-9.76691 9.2718,-7.03045 14.9129,-16.24204 14.9129,-26.33914 0,-16.46525 -14.9496,-30.61109 -36.2951,-36.71516 -1.7237,-17.28507 -16.3087,-30.79201 -34.0476,-30.79201 -7.8439,0 -15.0646,2.66062 -20.8361,7.09939 -5.5867,-19.45987 -23.5037,-33.71158 -44.7598,-33.71158 z"
         style="opacity:0.5;fill:#ffffff;fill-opacity:1;stroke:none" />
      <path
         inkscape:connector-curvature="0"
         id="path7263"
         d="m 1066.4406,214.79097 c -106.2445,0 -194.13798,17.33488 -208.84381,39.88679 -87.47027,7.72112 -145.72637,21.44882 -145.72637,37.11424 0,22.60336 121.20192,41.19113 276.62388,43.47848 0,0.0822 0,0.16964 0,0.25205 0,16.27398 37.0211,29.46875 82.6932,29.46875 45.6721,0 82.6932,-13.19477 82.6932,-29.46875 0,-1.43083 -0.2871,-2.8455 -0.8402,-4.22182 104.4482,-7.01339 176.6865,-22.05825 176.6865,-39.50871 0,-9.15525 -19.8923,-17.65656 -53.8756,-24.67982 1.047,-1.88063 1.5963,-3.79101 1.5963,-5.73412 0,-25.72338 -94.4644,-46.58709 -211.0071,-46.58709 z"
         style="opacity:0.5;fill:#ffffff;fill-opacity:1;stroke:none" />
      <path
         inkscape:connector-curvature="0"
         id="path7270"
         d="m 341.96721,438.00153 c -44.54493,0 -80.65573,36.1108 -80.65573,80.65574 0,6.21252 0.7077,12.25418 2.03739,18.06352 C 213.81909,548.77965 182,567.51585 182,588.55891 c 0,10.41431 7.79969,20.27263 21.67623,29.02766 C 97.7143,621.22301 18,636.93448 18,655.77202 c 0,21.53005 104.11949,38.98362 232.55738,38.98362 128.43789,0 232.55737,-17.45357 232.55737,-38.98362 0,-2.33267 -1.22774,-4.62738 -3.57069,-6.84734 74.90354,-10.17883 127.24283,-33.38002 127.24283,-60.36577 0,-6.26038 -2.82572,-12.32633 -8.08658,-18.06353 49.1459,-8.94152 82.021,-25.20046 82.021,-43.77254 0,-28.21179 -75.83268,-51.08197 -169.37705,-51.08197 -35.74026,0 -68.89201,3.3324 -96.21977,9.03176 -12.82519,-27.56002 -40.75612,-46.6711 -73.15728,-46.6711 z"
         style="opacity:0.5;fill:#ffffff;fill-opacity:1;stroke:none" />
      <path
         inkscape:connector-curvature="0"
         id="path7294"
         d="m 431.36066,187.96874 c -53.82513,0 -97.45902,20.46279 -97.45902,45.70492 0,11.88414 9.66637,22.70532 25.51998,30.83402 -53.77085,7.16407 -92.7331,28.26929 -92.7331,53.18237 0,30.81025 59.58283,55.78689 133.08197,55.78689 70.82591,0 128.73261,-23.19091 132.85092,-52.44724 8.1293,-0.0765 16.05829,-0.40362 23.71363,-0.94518 15.91974,12.64227 45.19001,21.13012 78.68135,21.13012 50.48426,0 91.40984,-19.2591 91.40984,-43.01639 0,-23.7573 -40.92558,-43.01639 -91.40984,-43.01639 -7.30506,0 -14.40439,0.41445 -21.21414,1.17623 -11.46519,-3.40984 -25.0881,-6.13083 -40.18084,-7.96056 -5.61286,-16.38205 -21.13976,-28.16649 -39.42469,-28.16649 -3.10182,0 -6.12325,0.34441 -9.03176,0.98719 -11.55731,-19.1927 -49.17996,-33.24949 -93.8043,-33.24949 z"
         style="opacity:0.5;fill:#ffffff;fill-opacity:1;stroke:none" />
      <path
         style="opacity:0.5;fill:#ffffff;stroke:none"
         d="m 1627.5285,335.42348 c -21.7935,0 -40.0787,17.04597 -45.105,40.04457 -8.0734,-8.40631 -19.4277,-13.63318 -32.0033,-13.63318 -19.8109,0 -36.5872,12.98251 -42.286,30.90572 -26.0616,6.60064 -44.3309,21.96271 -44.3309,39.85971 0,13.5658 10.5007,25.67975 26.9313,33.6208 4.3483,25.68426 35.5612,45.60182 73.4227,45.60182 37.788,0 68.9441,-19.83966 73.3881,-45.45162 12.3546,-0.54114 22.2059,-10.71151 22.2059,-23.19951 0,-4.81298 -1.4687,-9.28874 -3.9744,-12.99773 11.0803,-9.65335 18.2315,-24.84758 18.2315,-41.93935 0,-29.16957 -20.8107,-52.81123 -46.4799,-52.81123 z"
         id="path7322"
         inkscape:connector-curvature="0" />
      <path
         style="opacity:0.5;fill:#ffffff;fill-opacity:1;stroke:none"
         d="m 2174.2707,328.04534 c -8.9244,0 -16.1731,11.07268 -16.1731,24.72182 0,4.81683 0.9202,9.30616 2.4784,13.10656 -1.5932,2.14876 -2.4784,4.44469 -2.4784,6.84733 0,3.02584 1.3946,5.91007 3.8648,8.50666 -1.253,3.16954 -1.9534,6.72742 -1.9534,10.50205 0,0.97146 0.056,1.93664 0.1469,2.87756 -0.3634,-0.0128 -0.724,-0.021 -1.0922,-0.021 -3.366,0 -6.5509,0.54894 -9.3677,1.5123 -2.7894,-7.32249 -6.93,-11.97234 -11.5523,-11.97234 -2.1483,0 -4.1963,1.00656 -6.0492,2.81455 -2.6743,-6.81061 -7.4709,-11.36322 -12.9595,-11.36322 -7.6028,0 -13.9123,8.71464 -15.039,20.10093 -0.9946,-0.0937 -2.001,-0.14703 -3.0245,-0.14703 -10.5153,0 -19.6537,5.07511 -24.3018,12.53944 -3.2028,-1.91989 -6.9005,-3.02459 -10.8591,-3.02459 -12.0742,0 -21.8653,10.21124 -21.8653,22.81045 0,4.09475 1.0254,7.93613 2.8356,11.2582 -6.0252,2.54794 -9.4939,5.5214 -9.4939,8.6957 0,2.098 1.521,4.10781 4.2849,5.96516 -10.3958,2.78144 -16.6353,6.34083 -16.6353,10.20799 0,8.92445 33.197,16.15216 74.1445,16.15216 21.9377,0 41.6241,-2.07659 55.1988,-5.37705 5.0544,5.03309 12.5075,8.2336 20.836,8.2336 15.2241,0 27.5574,-10.65246 27.5574,-23.77664 0,-1.74002 -0.2183,-3.42833 -0.6301,-5.06198 2.8186,-4.61295 4.4319,-10.03549 4.4319,-15.83709 0,-11.83872 -6.7616,-22.11108 -16.6353,-27.1373 4.5289,-3.98028 7.5917,-10.35622 8.0235,-17.66445 1.5836,0.0795 3.1814,0.12603 4.81,0.12603 24.6735,0 44.6757,-9.37081 44.6757,-20.92008 0,-11.54928 -20.0022,-20.89908 -44.6757,-20.89908 -4.2901,0 -8.4234,0.26978 -12.3504,0.79815 -0.052,-13.58164 -7.2597,-24.57479 -16.1522,-24.57479 z"
         id="path7324"
         inkscape:connector-curvature="0" />
      <path
         style="opacity:0.5;fill:#ffffff;fill-opacity:1;stroke:none"
         d="m 1803.9146,405.0671 c -42.6889,0 -77.295,25.57849 -77.295,57.13115 0,5.60033 1.0975,11.01685 3.1296,16.13115 -46.1498,3.32338 -81.0969,18.90125 -81.0969,37.63934 0,7.99971 6.3777,15.42731 17.2654,21.57121 -1.1686,2.65128 -1.8063,5.59123 -1.8063,8.67469 0,11.87865 9.6295,21.5082 21.5082,21.5082 0.3081,0 0.6191,-0.008 0.9241,-0.021 -0.098,1.05773 -0.147,2.12321 -0.147,3.19262 0,27.33356 32.4673,51.00025 79.8576,62.57121 4.01,13.66615 16.6477,23.65062 31.6112,23.65062 12.057,0 22.5956,-6.48587 28.3345,-16.15216 1.9412,0.0369 3.8791,0.063 5.8391,0.063 74.7454,0 136.3428,-27.11591 144.6972,-62.0251 3.9642,0.086 7.9638,0.14703 12.0144,0.14703 77.9536,0 141.1475,-16.24986 141.1475,-36.29508 0,-20.04523 -63.1939,-36.29508 -141.1475,-36.29508 -0.2605,0 -0.517,-3.7e-4 -0.7771,0 1.3831,-2.83194 2.1213,-5.75129 2.1213,-8.73771 0,-24.43209 -48.4311,-44.50568 -110.3765,-46.81814 -7.0437,-26.18927 -38.3017,-45.93596 -75.8038,-45.93596 z"
         id="path7326"
         inkscape:connector-curvature="0" />
      <path
         style="opacity:0.5;fill:#ffffff;fill-opacity:1;stroke:none"
         d="m 1401.9672,438.00153 c -44.5449,0 -80.6557,36.1108 -80.6557,80.65574 0,6.21252 0.7077,12.25418 2.0374,18.06352 -49.5298,12.05886 -81.3489,30.79506 -81.3489,51.83812 0,10.41431 7.7997,20.27263 21.6762,29.02766 C 1157.7143,621.22301 1078,636.93448 1078,655.77202 c 0,21.53005 104.1195,38.98362 232.5574,38.98362 128.4379,0 232.5573,-17.45357 232.5573,-38.98362 0,-2.33267 -1.2277,-4.62738 -3.5706,-6.84734 74.9035,-10.17883 127.2428,-33.38002 127.2428,-60.36577 0,-6.26038 -2.8257,-12.32633 -8.0866,-18.06353 49.1459,-8.94152 82.021,-25.20046 82.021,-43.77254 0,-28.21179 -75.8327,-51.08197 -169.377,-51.08197 -35.7403,0 -68.8921,3.3324 -96.2198,9.03176 -12.8252,-27.56002 -40.7561,-46.6711 -73.1573,-46.6711 z"
         id="path7332"
         inkscape:connector-curvature="0" />
      <path
         style="opacity:0.5;fill:#ffffff;fill-opacity:1;stroke:none"
         d="m 1491.3607,187.96874 c -53.8252,0 -97.4591,20.46279 -97.4591,45.70492 0,11.88414 9.6664,22.70532 25.52,30.83402 -53.7708,7.16407 -92.7331,28.26929 -92.7331,53.18237 0,30.81025 59.5828,55.78689 133.082,55.78689 70.8259,0 128.7326,-23.19091 132.8509,-52.44724 8.1293,-0.0765 16.0583,-0.40362 23.7136,-0.94518 15.9198,12.64227 45.19,21.13012 78.6814,21.13012 50.4842,0 91.4098,-19.2591 91.4098,-43.01639 0,-23.7573 -40.9256,-43.01639 -91.4098,-43.01639 -7.3051,0 -14.4044,0.41445 -21.2142,1.17623 -11.4651,-3.40984 -25.0881,-6.13083 -40.1808,-7.96056 -5.6129,-16.38205 -21.1398,-28.16649 -39.4247,-28.16649 -3.1018,0 -6.1232,0.34441 -9.0317,0.98719 -11.5574,-19.1927 -49.18,-33.24949 -93.8043,-33.24949 z"
         id="path7334"
         inkscape:connector-curvature="0" />
      <path
         inkscape:connector-curvature="0"
         id="path7336"
         d="m 126.4375,214.79968 c -47.443699,0 -91.195499,3.4807 -126.4374989100866,9.3125 l 0,109.875 C 15.715001,334.58832 31.898201,335.0241 48.500001,335.26843 l 0,0.25 c 0,16.27398 37.0154,29.46875 82.687499,29.46875 45.6721,0 82.6875,-13.19477 82.6875,-29.46875 0,-1.43083 -0.2906,-2.84243 -0.8438,-4.21875 104.4483,-7.01339 176.6876,-22.04954 176.6876,-39.5 0,-9.15525 -19.8918,-17.66424 -53.875,-24.6875 1.047,-1.88063 1.5937,-3.77564 1.5937,-5.71875 0,-25.72338 -94.4573,-46.59375 -211,-46.59375 z M 1.0899134e-6,506.67468 l 0,72.34375 C 72.687601,577.54376 129.9062,561.93239 129.9062,542.86218 129.9062,523.79197 72.687601,508.1521 1.0899134e-6,506.67468 z"
         style="opacity:0.50000000000000000;fill:#ffffff;fill-opacity:1;stroke:none" />
    </g>
    <rect
       y="791.78021"
       x="1.0899134e-06"
       height="260.58197"
       width="2000"
       id="rect8670"
       style="fill:#ceceda;fill-opacity:0.29487185;stroke:none" />
    <rect
       style="fill:#ceceda;fill-opacity:0.29487185;stroke:none"
       id="rect8672"
       width="2000"
       height="119.16061"
       x="1.0899134e-06"
       y="933.20154" />
  </g>
</svg>
