<?xml version="1.0" encoding="UTF-8" standalone="no"?>
<!-- Created with Inkscape (http://www.inkscape.org/) -->

<svg
   xmlns:dc="http://purl.org/dc/elements/1.1/"
   xmlns:cc="http://creativecommons.org/ns#"
   xmlns:rdf="http://www.w3.org/1999/02/22-rdf-syntax-ns#"
   xmlns:svg="http://www.w3.org/2000/svg"
   xmlns="http://www.w3.org/2000/svg"
   xmlns:sodipodi="http://sodipodi.sourceforge.net/DTD/sodipodi-0.dtd"
   xmlns:inkscape="http://www.inkscape.org/namespaces/inkscape"
   width="250"
   height="250"
   id="svg4505"
   version="1.1"
   inkscape:version="0.48.3.1 r9886"
   sodipodi:docname="cover.svg"
   inkscape:export-filename="/home/vg/learning/gamming/web/phaser/training/another-mess/GGJW-2015.github.io/global-warming-game/img/cover.png"
   inkscape:export-xdpi="90"
   inkscape:export-ydpi="90">
  <defs
     id="defs4507" />
  <sodipodi:namedview
     id="base"
     pagecolor="#ffffff"
     bordercolor="#666666"
     borderopacity="1.0"
     inkscape:pageopacity="0.0"
     inkscape:pageshadow="2"
     inkscape:zoom="1.6433594"
     inkscape:cx="64.542902"
     inkscape:cy="101.80091"
     inkscape:document-units="px"
     inkscape:current-layer="layer1"
     showgrid="false"
     inkscape:window-width="1280"
     inkscape:window-height="761"
     inkscape:window-x="0"
     inkscape:window-y="0"
     inkscape:window-maximized="1" />
  <metadata
     id="metadata4510">
    <rdf:RDF>
      <cc:Work
         rdf:about="">
        <dc:format>image/svg+xml</dc:format>
        <dc:type
           rdf:resource="http://purl.org/dc/dcmitype/StillImage" />
        <dc:title></dc:title>
      </cc:Work>
    </rdf:RDF>
  </metadata>
  <g
     inkscape:label="Layer 1"
     inkscape:groupmode="layer"
     id="layer1"
     transform="translate(0,-802.36218)">
    <rect
       style="color:#000000;fill:#9999ff;fill-opacity:1;fill-rule:nonzero;stroke:none;stroke-width:1.65699995000000011;marker:none;visibility:visible;display:inline;overflow:visible;enable-background:accumulate"
       id="rect6170"
       width="265.9187"
       height="261.05063"
       x="-7.910625"
       y="-3.7485144"
       transform="translate(0,802.36218)" />
    <g
       id="g7235"
       transform="translate(-4.9319788,14.630078)">
      <g
         transform="translate(-6.6936059,0)"
         id="g7134">
        <path
           sodipodi:nodetypes="csc"
           inkscape:connector-curvature="0"
           id="path4220"
           d="m 119.78126,1019.1289 c 19.01108,-2.2833 22.35294,-8.5391 22.35294,-14.5058 0,-5.96661 -3.71549,-9.04242 -22.72623,-11.32581"
           style="color:#000000;fill:none;stroke:#5858e6;stroke-width:1.92190099;stroke-linecap:round;stroke-miterlimit:4;stroke-opacity:1;stroke-dasharray:none;marker:none;visibility:visible;display:inline;overflow:visible;enable-background:accumulate" />
        <path
           sodipodi:nodetypes="csc"
           inkscape:connector-curvature="0"
           id="path4222"
           d="m 113.31788,1013.1886 c 13.81364,-1.4421 23.05419,-1.2626 23.05419,-7.0692 0,-5.2459 -9.24399,-5.6281 -23.06186,-7.06998"
           style="color:#000000;fill:none;stroke:#5858e6;stroke-width:1.92190135;stroke-linecap:round;stroke-miterlimit:4;stroke-opacity:1;stroke-dasharray:none;marker:none;visibility:visible;display:inline;overflow:visible;enable-background:accumulate" />
        <path
           style="color:#000000;fill:none;stroke:#5858e6;stroke-width:1.92190099;stroke-linecap:round;stroke-miterlimit:4;stroke-opacity:1;stroke-dasharray:none;marker:none;visibility:visible;display:inline;overflow:visible;enable-background:accumulate"
           d="m 45.733354,1019.1289 c -19.011083,-2.2833 -22.352943,-8.5391 -22.352943,-14.5058 0,-5.96661 3.715497,-9.04242 22.726234,-11.32581"
           id="path3893-9-0-0"
           inkscape:connector-curvature="0"
           sodipodi:nodetypes="csc" />
        <path
           style="color:#000000;fill:none;stroke:#5858e6;stroke-width:1.92190135;stroke-linecap:round;stroke-miterlimit:4;stroke-opacity:1;stroke-dasharray:none;marker:none;visibility:visible;display:inline;overflow:visible;enable-background:accumulate"
           d="m 52.196727,1013.1886 c -13.813627,-1.4421 -23.054186,-1.2626 -23.054186,-7.0692 0,-5.2459 9.243999,-5.6281 23.061874,-7.06998"
           id="path3900-2-7-2"
           inkscape:connector-curvature="0"
           sodipodi:nodetypes="csc" />
        <g
           id="g3023-5-65-0-4"
           transform="matrix(2.2205235,0,0,2.2176754,31.427143,-1304.9723)"
           style="fill:#ffffff;fill-opacity:0.76969694;stroke:#5858e6;stroke-width:1.19894826;stroke-opacity:1;display:inline">
          <path
             sodipodi:nodetypes="zzzzzzzzzzzzzzzzzzzz"
             inkscape:connector-curvature="0"
             id="rect2985-6-0-7-1"
             d="m 19.453247,1011.1537 c -0.599394,1.4386 1.188909,2.0936 0.238318,3.0458 -0.950591,0.9522 -2.017482,0.5605 -2.921904,2.6147 -0.904421,2.0543 -0.697534,2.319 -1.912072,3.3386 -1.214537,1.0197 -2.881229,2.0128 -3.891828,4.3017 -1.0105985,2.289 0.241807,3.9739 -1.3557081,5.1795 -1.5975151,1.2055 -1.423151,2.1842 -3.3241928,3.4669 -1.9010418,1.2827 -2.7332861,8.0861 -1.6204903,9.0248 1.1127957,0.9387 7.7922382,-3.2794 12.4527992,0 4.660559,3.2795 11.406267,-0.7597 14.397571,0 2.991303,0.7597 9.46805,0.4289 10.118979,0 0.65093,-0.4286 1.221389,-6.5711 -0.203006,-7.8023 -1.424395,-1.2311 -1.679717,-1.6897 -2.649323,-2.5033 -0.969609,-0.8137 -0.806934,-2.4344 -2.049419,-3.4654 -1.242488,-1.031 -3.546692,0.2966 -3.982597,-1.6355 -0.435903,-1.9319 -1.595528,-1.7572 -2.786473,-2.9143 -1.190944,-1.1572 -0.934754,-2.3929 -1.852361,-3.3121 -0.917607,-0.9192 -1.006853,-1.244 -2.206707,-2.4459 -1.199853,-1.2021 0.05001,-7.9097 -1.950838,-8.7464 -2.000847,-0.8365 -3.901356,0.4146 -4.500748,1.8532 z"
             style="color:#000000;fill:#ffffff;fill-opacity:0.76969694;fill-rule:nonzero;stroke:#5858e6;stroke-width:1.29910922;stroke-linecap:round;stroke-linejoin:round;stroke-miterlimit:4;stroke-opacity:1;stroke-dasharray:none;stroke-dashoffset:0;marker:none;visibility:visible;display:inline;overflow:visible;enable-background:accumulate" />
          <path
             inkscape:connector-curvature="0"
             id="path3006-4-5-6-7"
             d="m 19.967124,1013.7257 c 1.060393,4.6759 -0.839825,5.0866 -0.148842,7.3429"
             style="color:#000000;fill:#ffffff;fill-opacity:0.76969694;fill-rule:nonzero;stroke:#5858e6;stroke-width:1.29910934;stroke-linecap:round;stroke-linejoin:round;stroke-miterlimit:4;stroke-opacity:1;stroke-dasharray:none;stroke-dashoffset:0;marker:none;visibility:visible;display:inline;overflow:visible;enable-background:accumulate"
             sodipodi:nodetypes="cc" />
          <path
             sodipodi:nodetypes="cc"
             inkscape:connector-curvature="0"
             id="path3010-4-0-7-7"
             d="m 37.731944,1034.6096 c -0.816366,1.7885 -0.959425,3.4732 1.123238,4.8149"
             style="color:#000000;fill:#ffffff;fill-opacity:0.76969694;fill-rule:nonzero;stroke:#5858e6;stroke-width:1.29910934;stroke-linecap:round;stroke-linejoin:round;stroke-miterlimit:4;stroke-opacity:1;stroke-dasharray:none;stroke-dashoffset:0;marker:none;visibility:visible;display:inline;overflow:visible;enable-background:accumulate" />
          <path
             style="color:#000000;fill:#ffffff;fill-opacity:0.76969694;fill-rule:nonzero;stroke:#5858e6;stroke-width:1.29910922;stroke-linecap:round;stroke-linejoin:round;stroke-miterlimit:4;stroke-opacity:1;stroke-dasharray:none;stroke-dashoffset:0;marker:none;visibility:visible;display:inline;overflow:visible;enable-background:accumulate"
             d="m 21.241112,1025.2577 c 0.808861,0.9013 2.570976,1.0213 1.094578,3.7956"
             id="path4218"
             inkscape:connector-curvature="0"
             sodipodi:nodetypes="cc" />
        </g>
        <g
           id="g3018-0-31-8-7"
           transform="matrix(2.8399154,0,0,2.8376056,38.981407,-1966.0253)"
           style="fill:none;stroke:#5858e6;stroke-width:0.93723482;stroke-opacity:1;display:inline">
          <g
             id="g3804-3-36-0-8"
             transform="translate(-0.13084659,0)"
             style="stroke:#5858e6;stroke-width:0.93723482;stroke-opacity:1">
            <path
               transform="matrix(0.68055019,0,0,0.6376421,-0.58891172,1028.0173)"
               style="color:#000000;fill:none;stroke:#5858e6;stroke-width:1.54161203;stroke-linecap:round;stroke-linejoin:round;stroke-miterlimit:4;stroke-dashoffset:0;marker:none;visibility:visible;display:inline;overflow:visible;enable-background:accumulate"
               d="m 15.136677,20.552412 c 0,1.449304 -1.174894,2.624198 -2.624198,2.624198 -1.449305,0 -3.45221,-1.476376 -2.6241979,-2.624198 0.3785179,-0.524715 2.0321119,-0.530307 2.6241979,-2.624198 0.419234,-1.482603 2.624198,1.174894 2.624198,2.624198 z"
               id="path3012-3-6-2-2"
               inkscape:connector-curvature="0"
               sodipodi:nodetypes="sssss" />
            <path
               sodipodi:nodetypes="sssss"
               inkscape:connector-curvature="0"
               id="path4106-1-0"
               d="m 21.184535,1041.1224 c 0,0.9241 0.799574,1.6733 1.785898,1.6733 0.986325,0 2.349403,-0.9414 1.785899,-1.6733 -0.257601,-0.3346 -1.382954,-0.3382 -1.785899,-1.6733 -0.285309,-0.9454 -1.785898,0.7491 -1.785898,1.6733 z"
               style="color:#000000;fill:none;stroke:#5858e6;stroke-width:1.01553214;stroke-linecap:round;stroke-linejoin:round;stroke-miterlimit:4;stroke-dashoffset:0;marker:none;visibility:visible;display:inline;overflow:visible;enable-background:accumulate" />
          </g>
          <path
             inkscape:connector-curvature="0"
             id="path3016-5-60-4-3"
             d="m 12.816733,1043.3106 c 1.622916,-2.4265 3.377222,-2.3864 5.248396,-0.1521"
             style="color:#000000;fill:none;stroke:#5858e6;stroke-width:1.01553214;stroke-linecap:round;stroke-linejoin:round;stroke-miterlimit:4;stroke-opacity:1;stroke-dasharray:none;stroke-dashoffset:0;marker:none;visibility:visible;display:inline;overflow:visible;enable-background:accumulate"
             sodipodi:nodetypes="cc" />
        </g>
      </g>
      <g
         transform="matrix(3.2719153,0,0,3.2719153,-385.38164,-2047.4723)"
         id="g7169">
        <path
           style="opacity:0.85142858;color:#000000;fill:#f3ec42;fill-opacity:0.79607843;fill-rule:nonzero;stroke:#ffffff;stroke-width:1;stroke-linecap:round;stroke-linejoin:round;stroke-miterlimit:4;stroke-dasharray:none;marker:none;visibility:visible;display:inline;overflow:visible;enable-background:accumulate"
           d="m 168.51665,872.41947 c -1.07382,4.06476 -7.04304,5.77069 -11.17816,9.82675 -0.11296,-0.95492 1.30295,-2.25924 1.41233,-3.90625 0.22891,-3.44715 -3.88476,-4.4375 -3.88476,-4.4375 0,0 2.74708,1.9519 2.67077,4.25 -0.0763,2.29809 -5.82334,4.36107 -5.82334,11.34375 l -2.5,-8.875 c 0.85113,9.93633 -3.95443,14.7415 -4,25.09375 -0.0456,10.35224 10.45354,16.25 23.34375,16.25 12.89022,0 23.34375,-6.40316 23.34375,-16.25 0,-9.84685 -1.51771,-13.5441 -0.71875,-22.78125 l -3.875,6.5625 c -0.0294,-0.0526 -0.064,-0.10374 -0.0937,-0.15625 -0.0639,-6.85227 -6.18452,-8.90735 -6.26023,-11.1875 -0.0763,-2.2981 0.70141,-4.25 0.70141,-4.25 0,0 -2.14431,0.99035 -1.9154,4.4375 0.0882,1.32774 1.31417,3.39587 1.09478,4.28477 -4.99662,-4.47654 -12.08848,-6.51221 -12.3174,-10.20527 z"
           id="path2994-1-5-3"
           inkscape:connector-curvature="0"
           sodipodi:nodetypes="ccscsccssscccscscc" />
        <path
           style="color:#000000;fill:#f19e22;fill-opacity:0.85098039;fill-rule:nonzero;stroke:none;stroke-width:1.5;marker:none;visibility:visible;display:inline;overflow:visible;enable-background:accumulate"
           d="m 168.55724,877.85094 c -1.20478,4.14145 -7.39421,4.2333 -10.8125,7.67653 -0.30541,-0.89759 -1.18775,-1.6793 -2.28125,-2.5625 1.90721,3.8144 -1.71652,4.88868 -2.09375,8.0625 -0.72519,1.11566 -1.40784,2.25435 -2,3.4375 -0.22044,-1.37863 -0.63611,-2.48527 -1.40625,-2.75 1.27509,1.12508 -1.10636,4.49042 -1.125,9.875 -7e-5,0.0211 0,0.0413 0,0.0625 -0.2547,1.28038 -0.40625,2.52683 -0.40625,3.75 0,11.1309 9.01544,14 20.125,14 11.10957,0 20.125,-2.8691 20.125,-14 0,-2.52521 -0.62248,-5.21327 -1.625,-7.875 -0.14884,-1.547 -0.14408,-3.61009 0.59375,-5 -0.50419,0.54397 -1.35825,0.82251 -2.0625,1.625 -0.52829,-1.02934 -1.12082,-2.02285 -1.75,-3 0.42874,-2.05578 0.70351,-5.53754 -1.40625,-8 0.71323,1.19786 -0.34594,2.15934 -1.96875,3.5625 -3.66927,-4.09456 -10.40026,-5.09907 -11.90625,-8.86403 z m 19.4375,14.17653 c -0.11295,0.14118 -0.22205,0.27425 -0.3125,0.4375 0.1161,-0.1354 0.24933,-0.25701 0.3125,-0.4375 z"
           id="path2992-1-6-4"
           inkscape:connector-curvature="0"
           sodipodi:nodetypes="ccccccscssscccccccccc" />
        <path
           style="color:#000000;fill:#2b0000;fill-opacity:0.97254902;fill-rule:nonzero;stroke:#ff0000;stroke-width:1.5;stroke-linecap:round;stroke-linejoin:round;stroke-miterlimit:4;stroke-opacity:1;stroke-dashoffset:0;marker:none;visibility:visible;display:inline;overflow:visible;enable-background:accumulate"
           d="m 184.04737,904.66463 c 0,8.555 -6.93517,10.7571 -15.49013,10.7571 -8.55496,0 -15.49012,-2.2021 -15.49012,-10.7571 0,-8.5549 6.93516,-15.4901 15.49012,-15.4901 8.55496,0 15.49013,6.9352 15.49013,15.4901 z"
           id="path2989-5-9-8"
           inkscape:connector-curvature="0"
           sodipodi:nodetypes="sssss" />
        <g
           style="display:inline"
           id="g3904"
           transform="translate(142.80957,872.43372)">
          <path
             sodipodi:nodetypes="ccccc"
             inkscape:connector-curvature="0"
             id="path3764-5-8-3"
             d="m 13.484654,26.848115 c 1.084065,2.914218 0.689757,3.083374 0,4.294724 1.936266,-0.901347 3.872531,-0.508998 5.808797,0 l 0,-0.825582 z"
             style="color:#000000;fill:#ff0000;fill-opacity:1;fill-rule:nonzero;stroke:none;stroke-width:1.5;marker:none;visibility:visible;display:inline;overflow:visible;enable-background:accumulate" />
          <path
             style="color:#000000;fill:#ff0000;fill-opacity:1;fill-rule:nonzero;stroke:none;stroke-width:1.5;marker:none;visibility:visible;display:inline;overflow:visible;enable-background:accumulate"
             d="m 38.010687,26.848124 c -1.084065,2.9142 -0.689757,3.083375 0,4.294675 -1.936266,-0.9013 -3.872531,-0.509 -5.808797,0 l 0,-0.825575 z"
             id="path3766-5-8-1"
             inkscape:connector-curvature="0"
             sodipodi:nodetypes="ccccc" />
          <path
             sodipodi:nodetypes="ccccc"
             inkscape:connector-curvature="0"
             id="rect3768-5-0-4"
             d="m 20.691865,33.544324 c 3.24078,-2.062392 6.66881,-2.103015 10.380537,0 -0.381323,-0.272498 -1.583348,0.928204 0,2.5817 -4.05803,-3.522584 -7.247984,-3.178278 -10.380537,0 0.568571,-1.209707 1.082328,-2.832547 0,-2.5817 z"
             style="color:#000000;fill:#ff0000;fill-opacity:1;fill-rule:nonzero;stroke:none;stroke-width:1.5;marker:none;visibility:visible;display:inline;overflow:visible;enable-background:accumulate" />
        </g>
      </g>
    </g>
  </g>
</svg>
