<?xml version="1.0" encoding="UTF-8" standalone="no"?>
<!-- Created with Inkscape (http://www.inkscape.org/) -->

<svg
   xmlns:dc="http://purl.org/dc/elements/1.1/"
   xmlns:cc="http://creativecommons.org/ns#"
   xmlns:rdf="http://www.w3.org/1999/02/22-rdf-syntax-ns#"
   xmlns:svg="http://www.w3.org/2000/svg"
   xmlns="http://www.w3.org/2000/svg"
   xmlns:sodipodi="http://sodipodi.sourceforge.net/DTD/sodipodi-0.dtd"
   xmlns:inkscape="http://www.inkscape.org/namespaces/inkscape"
   width="40"
   height="58"
   id="svg3764"
   version="1.1"
   inkscape:version="0.48.5 r10040"
   sodipodi:docname="psychic2.svg">
  <defs
     id="defs3766" />
  <sodipodi:namedview
     id="base"
     pagecolor="#ffffff"
     bordercolor="#666666"
     borderopacity="1.0"
     inkscape:pageopacity="0.0"
     inkscape:pageshadow="2"
     inkscape:zoom="4"
     inkscape:cx="-33.582097"
     inkscape:cy="32.384272"
     inkscape:document-units="px"
     inkscape:current-layer="g5344"
     showgrid="false"
     inkscape:window-width="1366"
     inkscape:window-height="716"
     inkscape:window-x="0"
     inkscape:window-y="0"
     inkscape:window-maximized="1" />
  <metadata
     id="metadata3769">
    <rdf:RDF>
      <cc:Work
         rdf:about="">
        <dc:format>image/svg+xml</dc:format>
        <dc:type
           rdf:resource="http://purl.org/dc/dcmitype/StillImage" />
        <dc:title></dc:title>
      </cc:Work>
    </rdf:RDF>
  </metadata>
  <g
     inkscape:label="stand0"
     inkscape:groupmode="layer"
     id="layer1"
     transform="translate(0,-994.36215)"
     style="display:inline"
     sodipodi:insensitive="true">
    <path
       style="fill:#1a1a1a;fill-opacity:1;stroke:none"
       d="M 20.46875,2.46875 C 16.622481,2.46875 13.5,5.5912311 13.5,9.4375 c 0,3.846269 3.122481,6.96875 6.96875,6.96875 3.846269,0 6.9375,-3.122481 6.9375,-6.96875 0,-3.8462689 -3.091231,-6.96875 -6.9375,-6.96875 z m -3.0625,7.625 c 0.634602,0 1.15625,0.521648 1.15625,1.15625 0,0.634602 -0.521648,1.15625 -1.15625,1.15625 -0.634602,0 -1.15625,-0.521648 -1.15625,-1.15625 0,-0.634602 0.521648,-1.15625 1.15625,-1.15625 z m 6.71875,0 c 0.634602,0 1.15625,0.521648 1.15625,1.15625 0,0.634602 -0.521648,1.15625 -1.15625,1.15625 -0.634602,0 -1.15625,-0.521648 -1.15625,-1.15625 0,-0.634602 0.521648,-1.15625 1.15625,-1.15625 z"
       transform="translate(0,994.36215)"
       id="path3772"
       inkscape:connector-curvature="0" />
    <path
       style="fill:none;stroke:#1a1a1a;stroke-width:2.17083216;stroke-linecap:round;stroke-linejoin:round;stroke-miterlimit:4;stroke-dasharray:none"
       d="m 20.455589,1009.7031 0,3.4959"
       id="path4542"
       inkscape:connector-curvature="0" />
    <path
       style="fill:none;stroke:#1a1a1a;stroke-width:2;stroke-linecap:round;stroke-linejoin:round;stroke-miterlimit:4;stroke-dasharray:none"
       d="m 18.435284,1012.7137 c -6.187184,0.505 -6.187184,21.2131 -6.187184,21.2131"
       id="path4565"
       inkscape:connector-curvature="0"
       sodipodi:nodetypes="cc" />
    <path
       inkscape:connector-curvature="0"
       id="path4567"
       d="m 22.349625,1012.7137 c 6.187184,0.505 6.187184,21.2131 6.187184,21.2131"
       style="fill:none;stroke:#1a1a1a;stroke-width:2;stroke-linecap:round;stroke-linejoin:round;stroke-miterlimit:4;stroke-dasharray:none"
       sodipodi:nodetypes="cc" />
    <path
       style="fill:none;stroke:#1a1a1a;stroke-width:3;stroke-linecap:round;stroke-linejoin:round;stroke-miterlimit:4;stroke-opacity:1;stroke-dasharray:none"
       d="M 17.425131,31.862303 15.783634,44.994286 14.773481,55.474619"
       id="path4571"
       inkscape:connector-curvature="0"
       transform="translate(0,994.36215)" />
    <path
       inkscape:connector-curvature="0"
       id="path4573"
       d="m 23.612316,1026.2245 1.641497,13.1319 1.010153,10.4804"
       style="fill:none;stroke:#1a1a1a;stroke-width:3;stroke-linecap:round;stroke-linejoin:round;stroke-miterlimit:4;stroke-opacity:1;stroke-dasharray:none" />
    <rect
       ry="4.5456867"
       rx="4.5456867"
       y="1011.8298"
       x="15.909903"
       height="18.119612"
       width="9.0913734"
       id="rect4772-1"
       style="fill:#1a1a1a;stroke:none" />
  </g>
  <g
     inkscape:groupmode="layer"
     id="layer2"
     inkscape:label="stand1"
     style="display:inline"
     sodipodi:insensitive="true">
    <path
       style="fill:none;stroke:#1a1a1a;stroke-width:2.17083216;stroke-linecap:round;stroke-linejoin:round;stroke-miterlimit:4;stroke-dasharray:none"
       d="m 20.455589,15.34095 0,3.4959"
       id="path4542-7"
       inkscape:connector-curvature="0" />
    <path
       inkscape:connector-curvature="0"
       style="fill:#1a1a1a;fill-opacity:1;stroke:none"
       d="m 20.46875,2.1593908 c -3.846269,0 -6.96875,3.1224811 -6.96875,6.96875 0,3.8462682 3.122481,6.9687492 6.96875,6.9687492 3.846269,0 6.9375,-3.122481 6.9375,-6.9687492 0,-3.8462689 -3.091231,-6.96875 -6.9375,-6.96875 z m -3.0625,7.3156408 c 0.634602,0 1.15625,0.5216477 1.15625,1.1562494 0,0.634602 -0.521648,1.15625 -1.15625,1.15625 -0.634602,0 -1.15625,-0.521648 -1.15625,-1.15625 0,-0.6346017 0.521648,-1.1562494 1.15625,-1.1562494 z m 6.71875,0 c 0.634602,0 1.15625,0.5216477 1.15625,1.1562494 0,0.634602 -0.521648,1.15625 -1.15625,1.15625 -0.634602,0 -1.15625,-0.521648 -1.15625,-1.15625 0,-0.6346017 0.521648,-1.1562494 1.15625,-1.1562494 z"
       id="path3772-6"
       sodipodi:nodetypes="sssssssssssssss" />
    <path
       style="fill:none;stroke:#1a1a1a;stroke-width:2;stroke-linecap:round;stroke-linejoin:round;stroke-miterlimit:4;stroke-dasharray:none"
       d="M 18.435284,18.35155 C 10.789692,18.105249 11.540993,39.211097 11.540993,39.211097"
       id="path4565-5"
       inkscape:connector-curvature="0"
       sodipodi:nodetypes="cc" />
    <path
       inkscape:connector-curvature="0"
       id="path4567-3"
       d="m 22.349625,18.35155 c 7.159456,-1.351155 6.894291,21.036323 6.894291,21.036323"
       style="fill:none;stroke:#1a1a1a;stroke-width:2;stroke-linecap:round;stroke-linejoin:round;stroke-miterlimit:4;stroke-dasharray:none"
       sodipodi:nodetypes="cc" />
    <path
       style="fill:none;stroke:#1a1a1a;stroke-width:3;stroke-linecap:round;stroke-linejoin:round;stroke-miterlimit:4;stroke-opacity:1;stroke-dasharray:none"
       d="M 17.425131,31.862303 15.783634,44.994286 14.773481,55.474619"
       id="path4571-6"
       inkscape:connector-curvature="0" />
    <path
       inkscape:connector-curvature="0"
       id="path4573-2"
       d="m 23.612316,31.86235 1.641497,13.1319 1.010153,10.4804"
       style="fill:none;stroke:#1a1a1a;stroke-width:3;stroke-linecap:round;stroke-linejoin:round;stroke-miterlimit:4;stroke-opacity:1;stroke-dasharray:none" />
    <rect
       ry="4.0153565"
       rx="4.0153565"
       y="17.114069"
       x="15.909903"
       height="18.119612"
       width="9.0913734"
       id="rect4772-9"
       style="fill:#1a1a1a;stroke:none" />
  </g>
  <g
     inkscape:label="stand2"
     id="g4768"
     inkscape:groupmode="layer"
     style="display:inline"
     sodipodi:insensitive="true">
    <path
       inkscape:connector-curvature="0"
       id="path4770"
       d="m 20.455589,15.34095 0,3.4959"
       style="fill:none;stroke:#1a1a1a;stroke-width:2.17083216;stroke-linecap:round;stroke-linejoin:round;stroke-miterlimit:4;stroke-dasharray:none" />
    <rect
       ry="3.7501917"
       rx="3.7501917"
       y="16.495352"
       x="15.909903"
       height="18.119612"
       width="9.0913734"
       id="rect4772"
       style="fill:#1a1a1a;stroke:none" />
    <path
       sodipodi:nodetypes="sssssssssssssss"
       id="path4774"
       d="m 20.46875,1.7174491 c -3.846269,0 -6.96875,3.1224811 -6.96875,6.96875 0,3.8462679 3.122481,6.9687489 6.96875,6.9687489 3.846269,0 6.9375,-3.122481 6.9375,-6.9687489 0,-3.8462689 -3.091231,-6.96875 -6.9375,-6.96875 z m -3.0625,6.8736991 c 0.634602,0 1.15625,0.5216477 1.15625,1.1562491 0,0.6346017 -0.521648,1.1562497 -1.15625,1.1562497 -0.634602,0 -1.15625,-0.521648 -1.15625,-1.1562497 0,-0.6346014 0.521648,-1.1562491 1.15625,-1.1562491 z m 6.71875,0 c 0.634602,0 1.15625,0.5216477 1.15625,1.1562491 0,0.6346017 -0.521648,1.1562497 -1.15625,1.1562497 -0.634602,0 -1.15625,-0.521648 -1.15625,-1.1562497 0,-0.6346014 0.521648,-1.1562491 1.15625,-1.1562491 z"
       style="fill:#1a1a1a;fill-opacity:1;stroke:none"
       inkscape:connector-curvature="0" />
    <path
       sodipodi:nodetypes="cc"
       inkscape:connector-curvature="0"
       id="path4776"
       d="M 18.700449,17.732832 C 10.87808,15.983929 10.215168,38.857543 10.215168,38.857543"
       style="fill:none;stroke:#1a1a1a;stroke-width:2;stroke-linecap:round;stroke-linejoin:round;stroke-miterlimit:4;stroke-dasharray:none" />
    <path
       sodipodi:nodetypes="cc"
       style="fill:none;stroke:#1a1a1a;stroke-width:2;stroke-linecap:round;stroke-linejoin:round;stroke-miterlimit:4;stroke-dasharray:none"
       d="m 22.438013,17.644443 c 7.51301,-2.058262 8.131728,21.389877 8.131728,21.389877"
       id="path4778"
       inkscape:connector-curvature="0" />
    <path
       inkscape:connector-curvature="0"
       id="path4782"
       d="M 17.425131,31.862303 15.783634,44.994286 14.773481,55.474619"
       style="fill:none;stroke:#1a1a1a;stroke-width:3;stroke-linecap:round;stroke-linejoin:round;stroke-miterlimit:4;stroke-opacity:1;stroke-dasharray:none" />
    <path
       style="fill:none;stroke:#1a1a1a;stroke-width:3;stroke-linecap:round;stroke-linejoin:round;stroke-miterlimit:4;stroke-opacity:1;stroke-dasharray:none"
       d="m 23.612316,31.86235 1.641497,13.1319 1.010153,10.4804"
       id="path4784"
       inkscape:connector-curvature="0" />
  </g>
  <g
     style="display:inline"
     inkscape:groupmode="layer"
     id="g4827"
     inkscape:label="stand3"
     sodipodi:insensitive="true">
    <path
       style="fill:none;stroke:#1a1a1a;stroke-width:2.17083216;stroke-linecap:round;stroke-linejoin:round;stroke-miterlimit:4;stroke-dasharray:none"
       d="m 20.455589,13.573183 0,3.4959"
       id="path4829"
       inkscape:connector-curvature="0" />
    <rect
       style="fill:#1a1a1a;stroke:none"
       id="rect4831"
       width="9.0913734"
       height="18.119612"
       x="15.909903"
       y="15.495352"
       rx="3.7501917"
       ry="3.7501917" />
    <path
       inkscape:connector-curvature="0"
       style="fill:#1a1a1a;fill-opacity:1;stroke:none"
       d="m 20.46875,0.6549491 c -3.846269,0 -6.96875,3.1224811 -6.96875,6.96875 0,3.8462679 3.122481,6.9687489 6.96875,6.9687489 3.846269,0 6.9375,-3.122481 6.9375,-6.9687489 0,-3.8462689 -3.091231,-6.96875 -6.9375,-6.96875 z m -3.0625,6.4986991 c 0.634602,0 1.15625,0.4652533 1.15625,1.0312491 0,0.5659961 -0.521648,1.0312497 -1.15625,1.0312497 -0.634602,0 -1.15625,-0.4652536 -1.15625,-1.0312497 0,-0.5659958 0.521648,-1.0312491 1.15625,-1.0312491 z m 6.71875,0 c 0.634602,0 1.15625,0.4652533 1.15625,1.0312491 0,0.5659961 -0.521648,1.0312497 -1.15625,1.0312497 -0.634602,0 -1.15625,-0.4652536 -1.15625,-1.0312497 0,-0.5659958 0.521648,-1.0312491 1.15625,-1.0312491 z"
       id="path4833"
       sodipodi:nodetypes="sssssssssssssss" />
    <path
       style="fill:none;stroke:#1a1a1a;stroke-width:2;stroke-linecap:round;stroke-linejoin:round;stroke-miterlimit:4;stroke-dasharray:none"
       d="M 18.700449,16.482832 C 9.19058,14.358929 8.090168,37.589088 8.090168,37.589088"
       id="path4835"
       inkscape:connector-curvature="0"
       sodipodi:nodetypes="cc" />
    <path
       inkscape:connector-curvature="0"
       id="path4837"
       d="m 22.438013,16.394443 c 9.26301,-1.995762 10.256728,21.408332 10.256728,21.408332"
       style="fill:none;stroke:#1a1a1a;stroke-width:2;stroke-linecap:round;stroke-linejoin:round;stroke-miterlimit:4;stroke-dasharray:none"
       sodipodi:nodetypes="cc" />
    <path
       style="fill:none;stroke:#1a1a1a;stroke-width:3;stroke-linecap:round;stroke-linejoin:round;stroke-miterlimit:4;stroke-opacity:1;stroke-dasharray:none"
       d="M 17.425131,30.299803 15.783634,44.994286 14.773481,55.474619"
       id="path4839"
       inkscape:connector-curvature="0"
       sodipodi:nodetypes="ccc" />
    <path
       inkscape:connector-curvature="0"
       id="path4841"
       d="m 23.612316,30.29985 1.641497,14.6944 1.010153,10.4804"
       style="fill:none;stroke:#1a1a1a;stroke-width:3;stroke-linecap:round;stroke-linejoin:round;stroke-miterlimit:4;stroke-opacity:1;stroke-dasharray:none"
       sodipodi:nodetypes="ccc" />
  </g>
  <g
     style="display:inline"
     inkscape:groupmode="layer"
     id="g4811"
     inkscape:label="stand2-blink"
     sodipodi:insensitive="true">
    <path
       style="fill:none;stroke:#1a1a1a;stroke-width:2.17083216;stroke-linecap:round;stroke-linejoin:round;stroke-miterlimit:4;stroke-dasharray:none"
       d="m 20.455589,15.34095 0,3.4959"
       id="path4813"
       inkscape:connector-curvature="0" />
    <rect
       style="fill:#1a1a1a;stroke:none"
       id="rect4815"
       width="9.0913734"
       height="18.119612"
       x="15.909903"
       y="16.495352"
       rx="3.7501917"
       ry="3.7501917" />
    <path
       inkscape:connector-curvature="0"
       style="fill:#1a1a1a;fill-opacity:1;stroke:none"
       d="m 20.46875,1.7174491 c -3.846269,0 -6.96875,3.1224811 -6.96875,6.96875 0,3.8462679 3.122481,6.9687489 6.96875,6.9687489 3.846269,0 6.9375,-3.122481 6.9375,-6.9687489 0,-3.8462689 -3.091231,-6.96875 -6.9375,-6.96875 z m -3.0625,7.4040292 c 0.634602,0 1.15625,-0.00868 1.15625,0.625919 0,0.6346017 -0.521648,0.09559 -1.15625,0.09559 -0.634602,0 -1.15625,0.5390117 -1.15625,-0.09559 0,-0.6346014 0.521648,-0.625919 1.15625,-0.625919 z m 6.71875,0 c 0.634602,0 1.15625,-0.00868 1.15625,0.625919 0,0.6346017 -0.521648,0.09559 -1.15625,0.09559 -0.634602,0 -1.15625,0.5390117 -1.15625,-0.09559 0,-0.6346014 0.521648,-0.625919 1.15625,-0.625919 z"
       id="path4817"
       sodipodi:nodetypes="sssssssssssssss" />
    <path
       style="fill:none;stroke:#1a1a1a;stroke-width:2;stroke-linecap:round;stroke-linejoin:round;stroke-miterlimit:4;stroke-dasharray:none"
       d="M 18.700449,17.732832 C 10.87808,15.983929 10.215168,38.857543 10.215168,38.857543"
       id="path4819"
       inkscape:connector-curvature="0"
       sodipodi:nodetypes="cc" />
    <path
       inkscape:connector-curvature="0"
       id="path4821"
       d="m 22.438013,17.644443 c 7.51301,-2.058262 8.131728,21.389877 8.131728,21.389877"
       style="fill:none;stroke:#1a1a1a;stroke-width:2;stroke-linecap:round;stroke-linejoin:round;stroke-miterlimit:4;stroke-dasharray:none"
       sodipodi:nodetypes="cc" />
    <path
       style="fill:none;stroke:#1a1a1a;stroke-width:3;stroke-linecap:round;stroke-linejoin:round;stroke-miterlimit:4;stroke-opacity:1;stroke-dasharray:none"
       d="M 17.425131,31.862303 15.783634,44.994286 14.773481,55.474619"
       id="path4823"
       inkscape:connector-curvature="0" />
    <path
       inkscape:connector-curvature="0"
       id="path4825"
       d="m 23.612316,31.86235 1.641497,13.1319 1.010153,10.4804"
       style="fill:none;stroke:#1a1a1a;stroke-width:3;stroke-linecap:round;stroke-linejoin:round;stroke-miterlimit:4;stroke-opacity:1;stroke-dasharray:none" />
  </g>
  <g
     style="display:inline"
     transform="translate(0,-994.36215)"
     id="g4847"
     inkscape:groupmode="layer"
     inkscape:label="run0"
     sodipodi:insensitive="true">
    <path
       inkscape:connector-curvature="0"
       id="path4849"
       d="m 25.09375,996.01136 c -3.846269,0 -6.96875,3.12248 -6.96875,6.96874 0,3.8463 3.122481,6.9688 6.96875,6.9688 3.846269,0 6.9375,-3.1225 6.9375,-6.9688 0,-3.84626 -3.091231,-6.96874 -6.9375,-6.96874 z m 0.706726,7.06254 c 0.634602,0 1.15625,0.5216 1.15625,1.1562 0,0.6347 -0.521648,1.1563 -1.15625,1.1563 -0.634602,0 -1.15625,-0.5216 -1.15625,-1.1563 0,-0.6346 0.521648,-1.1562 1.15625,-1.1562 z"
       style="fill:#1a1a1a;fill-opacity:1;stroke:none"
       sodipodi:nodetypes="ssssssssss" />
    <path
       inkscape:connector-curvature="0"
       id="path4851"
       d="m 23.205589,1008.3836 -1.5,3.9959"
       style="fill:none;stroke:#1a1a1a;stroke-width:2.17083216;stroke-linecap:round;stroke-linejoin:round;stroke-miterlimit:4;stroke-dasharray:none"
       sodipodi:nodetypes="cc" />
    <path
       sodipodi:nodetypes="czc"
       inkscape:connector-curvature="0"
       id="path4853"
       d="m 21.497784,1010.8317 c -2.944632,0.2403 -7.97948,1.9182 -10.196715,3.0623 -2.217235,1.1441 -5.802969,7.2758 -5.802969,7.2758"
       style="fill:none;stroke:#1a1a1a;stroke-width:2;stroke-linecap:round;stroke-linejoin:round;stroke-miterlimit:4;stroke-dasharray:none" />
    <path
       sodipodi:nodetypes="czc"
       style="fill:none;stroke:#1a1a1a;stroke-width:2;stroke-linecap:round;stroke-linejoin:round;stroke-miterlimit:4;stroke-dasharray:none"
       d="m 22.787125,1011.0192 c 3.054618,0.2493 6.971012,2.5039 9.071686,2.2229 2.100674,-0.2811 6.115498,-9.6973 6.115498,-9.6973"
       id="path4855"
       inkscape:connector-curvature="0" />
    <path
       inkscape:connector-curvature="0"
       id="path4857"
       d="m 17.425131,1024.405 -5.141497,9.3819 -10.635153,-2.5196"
       style="fill:none;stroke:#1a1a1a;stroke-width:3;stroke-linecap:round;stroke-linejoin:round;stroke-miterlimit:4;stroke-opacity:1;stroke-dasharray:none"
       sodipodi:nodetypes="ccc" />
    <path
       style="fill:none;stroke:#1a1a1a;stroke-width:3;stroke-linecap:round;stroke-linejoin:round;stroke-miterlimit:4;stroke-opacity:1;stroke-dasharray:none"
       d="m 22.987316,1025.03 9.266497,4.6319 3.38515,9.8554"
       id="path4859"
       inkscape:connector-curvature="0"
       sodipodi:nodetypes="ccc" />
    <rect
       style="fill:#1a1a1a;stroke:none"
       id="rect4861"
       width="8.0913734"
       height="18.119612"
       x="136.63477"
       y="1000.2741"
       rx="4.0456867"
       ry="4.5456867"
       inkscape:transform-center-y="8.9964923"
       transform="matrix(0.99301831,0.11796033,-0.11796033,0.99301831,0,0)"
       inkscape:transform-center-x="1.0686881" />
  </g>
  <g
     inkscape:label="run1"
     inkscape:groupmode="layer"
     id="g4883"
     transform="translate(0,-994.36215)"
     style="display:inline"
     sodipodi:insensitive="true">
    <path
       sodipodi:nodetypes="ssssssssss"
       style="fill:#1a1a1a;fill-opacity:1;stroke:none"
       d="m 26.209867,998.26136 c -3.846269,0 -6.96875,3.12244 -6.96875,6.96874 0,3.8463 3.122481,6.9688 6.96875,6.9688 3.846269,0 6.9375,-3.1225 6.9375,-6.9688 0,-3.8463 -3.091231,-6.96874 -6.9375,-6.96874 z m 2.43658,7.06254 c 0.634602,0 1.15625,0.5216 1.15625,1.1562 0,0.6347 -0.521648,1.1563 -1.15625,1.1563 -0.634602,0 -1.15625,-0.5216 -1.15625,-1.1563 0,-0.6346 0.521648,-1.1562 1.15625,-1.1562 z"
       id="path4885"
       inkscape:connector-curvature="0" />
    <path
       sodipodi:nodetypes="cc"
       style="fill:none;stroke:#1a1a1a;stroke-width:2.17083216;stroke-linecap:round;stroke-linejoin:round;stroke-miterlimit:4;stroke-dasharray:none"
       d="m 24.321706,1010.6336 -0.616117,3.9959"
       id="path4887"
       inkscape:connector-curvature="0" />
    <path
       style="fill:none;stroke:#1a1a1a;stroke-width:2;stroke-linecap:round;stroke-linejoin:round;stroke-miterlimit:4;stroke-dasharray:none"
       d="m 23.497784,1013.0817 c -2.944632,0.2403 -5.47948,4.6682 -7.321715,7.1873 -1.842235,2.5191 -0.302969,8.5258 -0.302969,8.5258"
       id="path4889"
       inkscape:connector-curvature="0"
       sodipodi:nodetypes="czc" />
    <path
       inkscape:connector-curvature="0"
       id="path4891"
       d="m 24.787125,1013.2692 c 3.054618,0.2493 4.346012,5.129 7.071686,6.7229 2.725674,1.5939 6.615498,-1.9473 6.615498,-1.9473"
       style="fill:none;stroke:#1a1a1a;stroke-width:2;stroke-linecap:round;stroke-linejoin:round;stroke-miterlimit:4;stroke-dasharray:none"
       sodipodi:nodetypes="czc" />
    <path
       sodipodi:nodetypes="ccc"
       style="fill:none;stroke:#1a1a1a;stroke-width:3;stroke-linecap:round;stroke-linejoin:round;stroke-miterlimit:4;stroke-opacity:1;stroke-dasharray:none"
       d="m 19.425131,1026.655 1.233503,9.7569 -11.385153,4.2304"
       id="path4893"
       inkscape:connector-curvature="0" />
    <path
       sodipodi:nodetypes="ccc"
       inkscape:connector-curvature="0"
       id="path4895"
       d="m 24.987316,1027.28 5.516497,9.6319 5.88515,11.9804"
       style="fill:none;stroke:#1a1a1a;stroke-width:3;stroke-linecap:round;stroke-linejoin:round;stroke-miterlimit:4;stroke-opacity:1;stroke-dasharray:none" />
    <rect
       inkscape:transform-center-x="1.0686881"
       transform="matrix(0.99301831,0.11796033,-0.11796033,0.99301831,0,0)"
       inkscape:transform-center-y="8.9964923"
       ry="4.5456867"
       rx="4.0456867"
       y="1002.2725"
       x="138.88622"
       height="18.119612"
       width="8.0913734"
       id="rect4897"
       style="fill:#1a1a1a;stroke:none" />
  </g>
  <g
     inkscape:label="run2"
     inkscape:groupmode="layer"
     id="g4863"
     transform="translate(0,-994.36215)"
     style="display:inline"
     sodipodi:insensitive="true">
    <path
       sodipodi:nodetypes="ssssssssss"
       style="fill:#1a1a1a;fill-opacity:1;stroke:none"
       d="m 29.717673,1000.0772 c -3.846269,0 -6.96875,3.1225 -6.96875,6.9687 0,3.8463 3.122481,6.9688 6.96875,6.9688 3.846269,0 6.9375,-3.1225 6.9375,-6.9688 0,-3.8462 -3.091231,-6.9687 -6.9375,-6.9687 z m 2.53125,8.3883 c 0.634602,0 1.15625,0.5216 1.15625,1.1562 0,0.6347 -0.521648,1.1563 -1.15625,1.1563 -0.634602,0 -1.15625,-0.5216 -1.15625,-1.1563 0,-0.6346 0.521648,-1.1562 1.15625,-1.1562 z"
       id="path4865"
       inkscape:connector-curvature="0" />
    <path
       sodipodi:nodetypes="cc"
       style="fill:none;stroke:#1a1a1a;stroke-width:2.17083216;stroke-linecap:round;stroke-linejoin:round;stroke-miterlimit:4;stroke-dasharray:none"
       d="m 27.829512,1010.8584 0.179378,3.4656"
       id="path4867"
       inkscape:connector-curvature="0" />
    <path
       style="fill:none;stroke:#1a1a1a;stroke-width:2;stroke-linecap:round;stroke-linejoin:round;stroke-miterlimit:4;stroke-dasharray:none"
       d="m 27.801085,1013.9012 c -2.944632,0.2403 -5.647373,7.6912 -6.273618,9.1888 -0.626245,1.4977 -0.180124,7.608 -0.180124,7.608"
       id="path4869"
       inkscape:connector-curvature="0"
       sodipodi:nodetypes="czc" />
    <path
       inkscape:connector-curvature="0"
       id="path4871"
       d="m 29.090426,1014.619 c 3.054618,0.2493 -1.739143,3.57 -1.909916,6.6387 -0.170773,3.0687 0.995702,7.836 0.995702,7.836"
       style="fill:none;stroke:#1a1a1a;stroke-width:2;stroke-linecap:round;stroke-linejoin:round;stroke-miterlimit:4;stroke-dasharray:none"
       sodipodi:nodetypes="czc" />
    <path
       sodipodi:nodetypes="ccc"
       style="fill:none;stroke:#1a1a1a;stroke-width:3;stroke-linecap:round;stroke-linejoin:round;stroke-miterlimit:4;stroke-opacity:1;stroke-dasharray:none"
       d="m 28.965869,1025.3495 -2.600759,12.8568 -3.137309,12.3296"
       id="path4873"
       inkscape:connector-curvature="0" />
    <path
       sodipodi:nodetypes="ccc"
       inkscape:connector-curvature="0"
       id="path4875"
       d="m 23.80318,1026.4871 7.436545,11.9833 -11.333887,4.0358"
       style="fill:none;stroke:#1a1a1a;stroke-width:3;stroke-linecap:round;stroke-linejoin:round;stroke-miterlimit:4;stroke-opacity:1;stroke-dasharray:none" />
    <rect
       inkscape:transform-center-x="1.0686881"
       transform="matrix(0.99301831,0.11796033,-0.11796033,0.99301831,0,0)"
       inkscape:transform-center-y="8.9964923"
       ry="4.5456867"
       rx="4.0456867"
       y="1002.5786"
       x="143.25615"
       height="18.119612"
       width="8.0913734"
       id="rect4877"
       style="fill:#1a1a1a;stroke:none" />
  </g>
  <g
     style="display:inline"
     transform="translate(0,-994.36215)"
     id="g4903"
     inkscape:groupmode="layer"
     inkscape:label="run1L"
     sodipodi:insensitive="true">
    <path
       inkscape:connector-curvature="0"
       id="path4905"
       d="m 26.209867,998.26136 c -3.846269,0 -6.96875,3.12244 -6.96875,6.96874 0,3.8463 3.122481,6.9688 6.96875,6.9688 3.846269,0 6.9375,-3.1225 6.9375,-6.9688 0,-3.8463 -3.091231,-6.96874 -6.9375,-6.96874 z m 4.381124,7.06254 c 0.634602,0 1.15625,0.5216 1.15625,1.1562 0,0.6347 -0.521648,1.1563 -1.15625,1.1563 -0.634602,0 -1.15625,-0.5216 -1.15625,-1.1563 0,-0.6346 0.521648,-1.1562 1.15625,-1.1562 z"
       style="fill:#1a1a1a;fill-opacity:1;stroke:none"
       sodipodi:nodetypes="ssssssssss" />
    <path
       inkscape:connector-curvature="0"
       id="path4907"
       d="m 24.321706,1010.6336 -0.616117,3.9959"
       style="fill:none;stroke:#1a1a1a;stroke-width:2.17083216;stroke-linecap:round;stroke-linejoin:round;stroke-miterlimit:4;stroke-dasharray:none"
       sodipodi:nodetypes="cc" />
    <path
       sodipodi:nodetypes="czc"
       inkscape:connector-curvature="0"
       id="path4909"
       d="m 25.265551,1013.9656 c -2.944632,0.2403 -5.47948,4.6682 -7.321715,7.1873 -1.842235,2.5191 -0.302969,8.5258 -0.302969,8.5258"
       style="fill:none;stroke:#1a1a1a;stroke-width:2;stroke-linecap:round;stroke-linejoin:round;stroke-miterlimit:4;stroke-dasharray:none" />
    <path
       sodipodi:nodetypes="czc"
       style="fill:none;stroke:#1a1a1a;stroke-width:2;stroke-linecap:round;stroke-linejoin:round;stroke-miterlimit:4;stroke-dasharray:none"
       d="m 22.135475,1013.2692 c 3.054618,0.2493 3.471012,6.629 4.196686,9.3479 0.725674,2.7189 5.365498,5.1777 5.365498,5.1777"
       id="path4911"
       inkscape:connector-curvature="0" />
    <path
       inkscape:connector-curvature="0"
       id="path4913"
       d="m 24.374878,1026.655 1.233503,9.7569 -8.760153,4.2304"
       style="fill:none;stroke:#1a1a1a;stroke-width:3;stroke-linecap:round;stroke-linejoin:round;stroke-miterlimit:4;stroke-opacity:1;stroke-dasharray:none"
       sodipodi:nodetypes="ccc" />
    <path
       style="fill:none;stroke:#1a1a1a;stroke-width:3;stroke-linecap:round;stroke-linejoin:round;stroke-miterlimit:4;stroke-opacity:1;stroke-dasharray:none"
       d="m 19.684015,1027.28 3.74873,9.6319 0.05152,11.9804"
       id="path4915"
       inkscape:connector-curvature="0"
       sodipodi:nodetypes="ccc" />
    <rect
       style="fill:#1a1a1a;stroke:none"
       id="rect4917"
       width="8.0913734"
       height="18.119612"
       x="138.88622"
       y="1002.2725"
       rx="4.0456867"
       ry="4.5456867"
       inkscape:transform-center-y="8.9964923"
       transform="matrix(0.99301831,0.11796033,-0.11796033,0.99301831,0,0)"
       inkscape:transform-center-x="1.0686881" />
  </g>
  <g
     inkscape:label="run0L"
     inkscape:groupmode="layer"
     id="g4923"
     transform="translate(0,-994.36215)"
     style="display:inline"
     sodipodi:insensitive="true">
    <path
       sodipodi:nodetypes="ssssssssss"
       style="fill:#1a1a1a;fill-opacity:1;stroke:none"
       d="m 25.09375,996.01136 c -3.846269,0 -6.96875,3.12248 -6.96875,6.96874 0,3.8463 3.122481,6.9688 6.96875,6.9688 3.846269,0 6.9375,-3.1225 6.9375,-6.9688 0,-3.84626 -3.091231,-6.96874 -6.9375,-6.96874 z m 5.568085,7.06254 c 0.634602,0 1.15625,0.5216 1.15625,1.1562 0,0.6347 -0.521648,1.1563 -1.15625,1.1563 -0.634602,0 -1.15625,-0.5216 -1.15625,-1.1563 0,-0.6346 0.521648,-1.1562 1.15625,-1.1562 z"
       id="path4925"
       inkscape:connector-curvature="0" />
    <path
       sodipodi:nodetypes="cc"
       style="fill:none;stroke:#1a1a1a;stroke-width:2.17083216;stroke-linecap:round;stroke-linejoin:round;stroke-miterlimit:4;stroke-dasharray:none"
       d="m 23.205589,1008.3836 -1.5,3.9959"
       id="path4927"
       inkscape:connector-curvature="0" />
    <path
       style="fill:none;stroke:#1a1a1a;stroke-width:2;stroke-linecap:round;stroke-linejoin:round;stroke-miterlimit:4;stroke-dasharray:none"
       d="m 23.442328,1012.0691 c -2.944632,0.2403 -6.72948,2.4182 -8.946715,4.1873 -2.217235,1.7691 -7.0529693,6.1508 -7.0529693,6.1508"
       id="path4929"
       inkscape:connector-curvature="0"
       sodipodi:nodetypes="czc" />
    <path
       inkscape:connector-curvature="0"
       id="path4931"
       d="m 19.428367,1012.6745 c 3.054618,0.2493 6.971012,2.5039 9.071686,2.2229 2.100674,-0.2811 5.865498,-7.1973 5.865498,-7.1973"
       style="fill:none;stroke:#1a1a1a;stroke-width:2;stroke-linecap:round;stroke-linejoin:round;stroke-miterlimit:4;stroke-dasharray:none"
       sodipodi:nodetypes="czc" />
    <path
       sodipodi:nodetypes="ccc"
       style="fill:none;stroke:#1a1a1a;stroke-width:3;stroke-linecap:round;stroke-linejoin:round;stroke-miterlimit:4;stroke-opacity:1;stroke-dasharray:none"
       d="m 22.374879,1024.405 -9.266497,7.3819 -7.7601535,2.7304"
       id="path4933"
       inkscape:connector-curvature="0" />
    <path
       sodipodi:nodetypes="ccc"
       inkscape:connector-curvature="0"
       id="path4935"
       d="m 17.684015,1025.03 9.266497,4.6319 8.26015,5.9804"
       style="fill:none;stroke:#1a1a1a;stroke-width:3;stroke-linecap:round;stroke-linejoin:round;stroke-miterlimit:4;stroke-opacity:1;stroke-dasharray:none" />
    <rect
       inkscape:transform-center-x="1.0686881"
       transform="matrix(0.99301831,0.11796033,-0.11796033,0.99301831,0,0)"
       inkscape:transform-center-y="8.9964923"
       ry="4.5456867"
       rx="4.0456867"
       y="1000.2741"
       x="136.63477"
       height="18.119612"
       width="8.0913734"
       id="rect4937"
       style="fill:#1a1a1a;stroke:none" />
  </g>
  <g
     inkscape:label="attack1"
     inkscape:groupmode="layer"
     id="g5000"
     transform="translate(0,-994.36215)"
     style="display:inline"
     sodipodi:insensitive="true">
    <path
       sodipodi:nodetypes="ssssssssssssssss"
       style="fill:#1a1a1a;fill-opacity:1;stroke:none"
       d="M 20.46875,2.46875 C 16.622481,2.46875 13.5,5.5912311 13.5,9.4375 c 0,3.846269 3.122481,6.96875 6.96875,6.96875 3.846269,0 6.9375,-3.122481 6.9375,-6.96875 0,-3.8462689 -3.091231,-6.96875 -6.9375,-6.96875 z m -3.64801,7.758273 c 1.023896,-0.02684 1.486281,0.366525 1.522868,1.357684 0.0283,0.766625 -0.493595,0.809457 -1.166735,0.809457 -0.673141,-10e-7 -1.003603,-0.680482 -1.003603,-1.070725 0,-0.390242 -0.189729,-1.074467 0.64747,-1.096416 z m 7.895368,-0.09375 c 0.890354,0 0.524455,0.832696 0.524455,1.247574 0,0.414878 -0.487905,1.138316 -1.203532,1.138316 -0.715634,0 -1.071814,-0.106237 -1.071814,-0.921814 0,-0.358893 -0.127032,-0.701729 0.43824,-1.1392 0.719301,-0.556663 0.814094,-0.324877 1.312651,-0.324876 z"
       transform="translate(0,994.36215)"
       id="path5002"
       inkscape:connector-curvature="0" />
    <path
       style="fill:none;stroke:#1a1a1a;stroke-width:2.17083216;stroke-linecap:round;stroke-linejoin:round;stroke-miterlimit:4;stroke-dasharray:none"
       d="m 20.455589,1009.7031 0,3.4959"
       id="path5004"
       inkscape:connector-curvature="0" />
    <path
       style="fill:none;stroke:#1a1a1a;stroke-width:2;stroke-linecap:round;stroke-linejoin:round;stroke-miterlimit:4;stroke-dasharray:none"
       d="m 18.435284,1013.2137 c -2.13145,0.174 -5.182433,6.2706 -6.71701,8.3483 -2.0313306,2.7504 -6.8163681,6.9002 -6.8163681,6.9002"
       id="path5006"
       inkscape:connector-curvature="0"
       sodipodi:nodetypes="csc" />
    <path
       inkscape:connector-curvature="0"
       id="path5008"
       d="m 22.349625,1013.2137 c 1.964334,0.1603 4.117022,6.5567 5.309529,7.6796 1.967121,1.8525 6.507857,5.0574 6.507857,5.0574"
       style="fill:none;stroke:#1a1a1a;stroke-width:2;stroke-linecap:round;stroke-linejoin:round;stroke-miterlimit:4;stroke-dasharray:none"
       sodipodi:nodetypes="csc" />
    <path
       sodipodi:nodetypes="ccc"
       style="fill:none;stroke:#1a1a1a;stroke-width:3;stroke-linecap:round;stroke-linejoin:round;stroke-miterlimit:4;stroke-opacity:1;stroke-dasharray:none"
       d="m 17.550131,1026.4859 -2.41142,9.4296 -0.289404,12.5645"
       id="path5010"
       inkscape:connector-curvature="0" />
    <path
       sodipodi:nodetypes="ccc"
       inkscape:connector-curvature="0"
       id="path5012"
       d="m 22.987316,1026.3609 2.792701,8.6037 0.438454,13.3967"
       style="fill:none;stroke:#1a1a1a;stroke-width:3;stroke-linecap:round;stroke-linejoin:round;stroke-miterlimit:4;stroke-opacity:1;stroke-dasharray:none" />
    <path
       sodipodi:nodetypes="ssscsssscss"
       inkscape:connector-curvature="0"
       id="path5014"
       d="m 18.705618,1011.8298 3.499943,0 c 1.548826,0 2.795715,1.2469 2.795715,2.7957 l -0.241117,6.1413 0.241117,5.6724 c 0.06577,1.5474 -1.246889,2.7957 -2.795715,2.7957 l -3.499943,0 c -1.548826,0 -3.000501,-1.2605 -2.795715,-2.7957 l 0.241117,-5.7908 -0.241117,-6.0229 c -0.06195,-1.5476 1.246889,-2.7957 2.795715,-2.7957 z"
       style="fill:#1a1a1a;stroke:none" />
  </g>
  <g
     style="display:inline"
     transform="translate(0,-994.36215)"
     id="g4984"
     inkscape:groupmode="layer"
     inkscape:label="attack2"
     sodipodi:insensitive="true">
    <path
       inkscape:connector-curvature="0"
       id="path4986"
       transform="translate(0,994.36215)"
       d="M 20.46875,2.46875 C 16.622481,2.46875 13.5,5.5912311 13.5,9.4375 c 0,3.846269 3.122481,6.96875 6.96875,6.96875 3.846269,0 6.9375,-3.122481 6.9375,-6.96875 0,-3.8462689 -3.091231,-6.96875 -6.9375,-6.96875 z m -3.507963,7.758273 c 0.482503,0 0.552988,-0.21147 1.308906,0.279499 0.839937,0.545533 0.543357,0.880749 0.543357,1.37185 0,0.933081 -0.600359,0.984542 -1.419099,0.984542 -0.81874,-10e-7 -1.220681,-0.827669 -1.220681,-1.302321 0,-0.474652 -0.231117,-1.33357 0.787517,-1.33357 z m 7.898509,-0.09375 c 1.018633,0 0.600017,0.952668 0.600017,1.42732 0,0.474652 -0.5582,1.30232 -1.376932,1.30232 -0.81874,0 -1.226237,-0.121543 -1.226237,-1.054625 0,-0.410601 -0.145334,-0.802832 0.50138,-1.303332 0.822935,-0.636865 0.931385,-0.371684 1.501772,-0.371683 z"
       style="fill:#1a1a1a;fill-opacity:1;stroke:none"
       sodipodi:nodetypes="sssssssssssssssss" />
    <path
       inkscape:connector-curvature="0"
       id="path4988"
       d="m 20.455589,1009.7031 0,3.4959"
       style="fill:none;stroke:#1a1a1a;stroke-width:2.17083216;stroke-linecap:round;stroke-linejoin:round;stroke-miterlimit:4;stroke-dasharray:none" />
    <path
       sodipodi:nodetypes="csc"
       inkscape:connector-curvature="0"
       id="path4990"
       d="m 18.435284,1013.2137 c -2.13145,0.174 -4.121773,2.4699 -6.540233,2.6031 -3.4139789,0.188 -9.0260771,-4.3252 -9.0260771,-4.3252"
       style="fill:none;stroke:#1a1a1a;stroke-width:2;stroke-linecap:round;stroke-linejoin:round;stroke-miterlimit:4;stroke-dasharray:none" />
    <path
       sodipodi:nodetypes="csc"
       style="fill:none;stroke:#1a1a1a;stroke-width:2;stroke-linecap:round;stroke-linejoin:round;stroke-miterlimit:4;stroke-dasharray:none"
       d="m 22.349625,1013.2137 c 1.964334,0.1603 5.52159,4.1651 6.988908,3.437 1.967121,-0.976 6.773022,-4.4002 6.773022,-4.4002"
       id="path4992"
       inkscape:connector-curvature="0" />
    <path
       inkscape:connector-curvature="0"
       id="path4994"
       d="m 17.550131,1026.4859 -3.383692,8.5457 0.682868,10.7967"
       style="fill:none;stroke:#1a1a1a;stroke-width:3;stroke-linecap:round;stroke-linejoin:round;stroke-miterlimit:4;stroke-opacity:1;stroke-dasharray:none"
       sodipodi:nodetypes="ccc" />
    <path
       style="fill:none;stroke:#1a1a1a;stroke-width:3;stroke-linecap:round;stroke-linejoin:round;stroke-miterlimit:4;stroke-opacity:1;stroke-dasharray:none"
       d="m 22.987316,1026.3609 4.383691,7.8082 -1.682866,12.4244"
       id="path4996"
       inkscape:connector-curvature="0"
       sodipodi:nodetypes="ccc" />
    <path
       style="fill:#1a1a1a;stroke:none"
       d="m 18.705618,1011.8298 3.499943,0 c 1.548826,0 2.795715,1.2469 2.795715,2.7957 l -0.771447,6.134 0.771447,4.619 c 0.25515,1.5277 -1.246889,2.7957 -2.795715,2.7957 l -3.499943,0 c -1.548826,0 -3.045413,-1.2671 -2.795715,-2.7957 l 0.771447,-4.7228 -0.771447,-6.0302 c -0.196539,-1.5363 1.246889,-2.7957 2.795715,-2.7957 z"
       id="path4998"
       inkscape:connector-curvature="0"
       sodipodi:nodetypes="ssscsssscss" />
  </g>
  <g
     inkscape:label="attack3"
     inkscape:groupmode="layer"
     id="g4960"
     transform="translate(0,-994.36215)"
     style="display:inline"
     sodipodi:insensitive="true">
    <path
       sodipodi:nodetypes="sssssssssssssssss"
       style="fill:#1a1a1a;fill-opacity:1;stroke:none"
       d="M 20.46875,2.46875 C 16.622481,2.46875 13.5,5.5912311 13.5,9.4375 c 0,3.846269 3.122481,6.96875 6.96875,6.96875 3.846269,0 6.9375,-3.122481 6.9375,-6.96875 0,-3.8462689 -3.091231,-6.96875 -6.9375,-6.96875 z m -4.664213,8.133273 c 0.482503,0 0.865488,-0.02397 1.621406,0.466999 0.839937,0.545533 0.949607,1.286999 0.949607,1.7781 0,0.933081 -0.694109,0.484542 -1.512849,0.484542 -0.81874,-10e-7 -1.501931,-0.827669 -1.501931,-1.302321 0,-0.474652 -0.574867,-1.42732 0.443767,-1.42732 z m 9.679759,0 c 1.018633,0 0.318767,0.952668 0.318767,1.42732 0,0.474652 -0.5582,1.30232 -1.376932,1.30232 -0.81874,0 -1.601237,0.315957 -1.601237,-0.617125 0,-0.410601 0.354666,-1.084082 1.00138,-1.584582 0.822935,-0.636865 1.087635,-0.527934 1.658022,-0.527933 z"
       transform="translate(0,994.36215)"
       id="path4962"
       inkscape:connector-curvature="0" />
    <path
       style="fill:none;stroke:#1a1a1a;stroke-width:2.17083216;stroke-linecap:round;stroke-linejoin:round;stroke-miterlimit:4;stroke-dasharray:none"
       d="m 20.455589,1009.7031 0,3.4959"
       id="path4964"
       inkscape:connector-curvature="0" />
    <path
       style="fill:none;stroke:#1a1a1a;stroke-width:2;stroke-linecap:round;stroke-linejoin:round;stroke-miterlimit:4;stroke-dasharray:none"
       d="m 18.435284,1013.2137 c -2.13145,0.174 -9.7786271,3.177 -10.6944849,1.6308 C 5.9981,1011.9028 9.4981,1003.8018 9.4981,1003.8018"
       id="path4966"
       inkscape:connector-curvature="0"
       sodipodi:nodetypes="csc" />
    <path
       inkscape:connector-curvature="0"
       id="path4968"
       d="m 22.349625,1013.2137 c 1.964334,0.1603 7.930022,3.4698 8.845063,2.1112 1.967121,-2.9206 -0.03288,-11.6481 -0.03288,-11.6481"
       style="fill:none;stroke:#1a1a1a;stroke-width:2;stroke-linecap:round;stroke-linejoin:round;stroke-miterlimit:4;stroke-dasharray:none"
       sodipodi:nodetypes="csc" />
    <path
       sodipodi:nodetypes="ccc"
       style="fill:none;stroke:#1a1a1a;stroke-width:3;stroke-linecap:round;stroke-linejoin:round;stroke-miterlimit:4;stroke-opacity:1;stroke-dasharray:none"
       d="m 17.550131,30.886352 -5.858565,6.070741 1.831915,10.266448"
       id="path4970"
       inkscape:connector-curvature="0"
       transform="translate(0,994.36215)" />
    <path
       sodipodi:nodetypes="ccc"
       inkscape:connector-curvature="0"
       id="path4972"
       d="m 22.987316,1025.1235 6.858565,7.0127 -2.831915,9.9495"
       style="fill:none;stroke:#1a1a1a;stroke-width:3;stroke-linecap:round;stroke-linejoin:round;stroke-miterlimit:4;stroke-opacity:1;stroke-dasharray:none" />
    <path
       sodipodi:nodetypes="ssscsssscss"
       inkscape:connector-curvature="0"
       id="path4974"
       d="m 18.705618,1011.8298 3.499943,0 c 1.548826,0 2.795715,1.2469 2.795715,2.7957 l -0.771447,5.2501 0.771447,4.619 c 0.255154,1.5277 -1.246889,2.7957 -2.795715,2.7957 l -3.499943,0 c -1.548826,0 -3.087404,-1.2745 -2.795715,-2.7957 l 0.771447,-4.7228 -0.771447,-5.1463 c -0.229604,-1.5317 1.246889,-2.7957 2.795715,-2.7957 z"
       style="fill:#1a1a1a;stroke:none" />
  </g>
  <g
     style="display:inline"
     transform="translate(0,-994.36215)"
     id="g4943"
     inkscape:groupmode="layer"
     inkscape:label="attack4"
     sodipodi:insensitive="true">
    <path
       inkscape:connector-curvature="0"
       id="path4945"
       transform="translate(0,994.36215)"
       d="M 20.46875,2.46875 C 16.622481,2.46875 13.5,5.5912311 13.5,9.4375 c 0,3.846269 3.122481,6.96875 6.96875,6.96875 3.846269,0 6.9375,-3.122481 6.9375,-6.96875 0,-3.8462689 -3.091231,-6.96875 -6.9375,-6.96875 z m -4.664213,9.017156 c 0.482503,0 -0.06259,0.10861 0.693328,0.599582 0.839937,0.545533 2.187044,1.596358 2.187044,2.087459 0,0.933081 -1.003468,0.0426 -1.822208,0.0426 -0.81874,-1e-6 -1.501931,-0.827669 -1.501931,-1.302321 0,-0.474652 -0.574867,-1.42732 0.443767,-1.42732 z m 9.679759,0 c 1.018633,0 0.318767,0.952668 0.318767,1.42732 0,0.474652 -0.5582,1.30232 -1.376932,1.30232 -0.81874,0 -1.822208,0.890482 -1.822208,-0.0426 0,-0.410601 1.23855,-1.305053 1.885264,-1.805553 0.822935,-0.636865 0.424722,-0.881488 0.995109,-0.881487 z"
       style="fill:#1a1a1a;fill-opacity:1;stroke:none"
       sodipodi:nodetypes="sssssssssssssssss" />
    <path
       inkscape:connector-curvature="0"
       id="path4947"
       d="m 20.455589,1009.7031 0,3.4959"
       style="fill:none;stroke:#1a1a1a;stroke-width:2.17083216;stroke-linecap:round;stroke-linejoin:round;stroke-miterlimit:4;stroke-dasharray:none" />
    <path
       sodipodi:nodetypes="csc"
       inkscape:connector-curvature="0"
       id="path4949"
       d="m 18.435284,1013.2137 c -2.13145,0.174 -10.0286271,0.052 -10.9444849,-1.4942 -1.7426991,-2.9417 6.6323009,-8.5427 6.6323009,-8.5427"
       style="fill:none;stroke:#1a1a1a;stroke-width:2;stroke-linecap:round;stroke-linejoin:round;stroke-miterlimit:4;stroke-dasharray:none" />
    <path
       sodipodi:nodetypes="csc"
       style="fill:none;stroke:#1a1a1a;stroke-width:2;stroke-linecap:round;stroke-linejoin:round;stroke-miterlimit:4;stroke-dasharray:none"
       d="m 22.349625,1013.2137 c 1.964334,0.1603 8.430022,0.2198 9.345063,-1.1388 1.967121,-2.9206 -4.782879,-9.6481 -4.782879,-9.6481"
       id="path4951"
       inkscape:connector-curvature="0" />
    <path
       transform="translate(0,994.36215)"
       inkscape:connector-curvature="0"
       id="path4953"
       d="m 17.550131,29.737303 -7.891497,5.006983 3.864847,8.855333"
       style="fill:none;stroke:#1a1a1a;stroke-width:3;stroke-linecap:round;stroke-linejoin:round;stroke-miterlimit:4;stroke-opacity:1;stroke-dasharray:none"
       sodipodi:nodetypes="ccc" />
    <path
       style="fill:none;stroke:#1a1a1a;stroke-width:3;stroke-linecap:round;stroke-linejoin:round;stroke-miterlimit:4;stroke-opacity:1;stroke-dasharray:none"
       d="m 22.987316,1023.9745 8.891497,6.1319 -4.864847,8.3554"
       id="path4955"
       inkscape:connector-curvature="0"
       sodipodi:nodetypes="ccc" />
    <path
       style="fill:#1a1a1a;stroke:none"
       d="m 18.705618,1011.8298 3.499943,0 c 1.548826,0 2.795715,1.2469 2.795715,2.7957 l -1.125,4.0962 1.125,4.1819 c 0.402372,1.4957 -1.246889,2.7957 -2.795715,2.7957 l -3.499943,0 c -1.548826,0 -2.795715,-1.2468 -2.795715,-2.7957 l 1.125,-4.276 -1.125,-4.0021 c -0.419125,-1.491 1.246889,-2.7957 2.795715,-2.7957 z"
       id="rect4957"
       inkscape:connector-curvature="0"
       sodipodi:nodetypes="ssscsssscss" />
  </g>
  <g
     style="display:inline"
     transform="translate(0,-994.36215)"
     id="g5328"
     inkscape:groupmode="layer"
     inkscape:label="up"
     sodipodi:insensitive="true">
    <path
       inkscape:connector-curvature="0"
       id="path5330"
       d="m 25.21875,995.13636 c -3.846269,0 -6.96875,3.12248 -6.96875,6.96874 0,3.8463 3.122481,6.9688 6.96875,6.9688 3.846269,0 6.9375,-3.1225 6.9375,-6.9688 0,-3.84626 -3.091231,-6.96874 -6.9375,-6.96874 z m 3.443085,4.18754 c 0.806116,0 1.46875,0.6626 1.46875,1.4687 0,0.8062 -0.662634,1.4688 -1.46875,1.4688 -0.806116,0 -1.46875,-0.6626 -1.46875,-1.4688 0,-0.8061 0.662634,-1.4687 1.46875,-1.4687 z"
       style="fill:#1a1a1a;fill-opacity:1;stroke:none"
       sodipodi:nodetypes="ssssssssss" />
    <path
       inkscape:connector-curvature="0"
       id="path5332"
       d="m 23.205589,1008.3836 -1.5,3.9959"
       style="fill:none;stroke:#1a1a1a;stroke-width:2.17083216;stroke-linecap:round;stroke-linejoin:round;stroke-miterlimit:4;stroke-dasharray:none"
       sodipodi:nodetypes="cc" />
    <path
       sodipodi:nodetypes="czc"
       inkscape:connector-curvature="0"
       id="path5334"
       d="m 20.260347,1010.8317 c -2.944632,0.2403 -8.132208,2.4208 -9.377171,4.8086 -1.244963,2.3878 -5.315532,9.2669 -5.315532,9.2669"
       style="fill:none;stroke:#1a1a1a;stroke-width:2;stroke-linecap:round;stroke-linejoin:round;stroke-miterlimit:4;stroke-dasharray:none" />
    <path
       sodipodi:nodetypes="czc"
       style="fill:none;stroke:#1a1a1a;stroke-width:2;stroke-linecap:round;stroke-linejoin:round;stroke-miterlimit:4;stroke-dasharray:none"
       d="m 22.345182,1011.879 c 3.054618,0.2493 8.208449,0.2059 10.309123,-1.6662 2.100674,-1.8721 3.390625,-10.0257 3.390625,-10.0257"
       id="path5336"
       inkscape:connector-curvature="0" />
    <path
       inkscape:connector-curvature="0"
       id="path5338"
       d="m 14.900005,1024.4934 -3.227283,10.7302 -6.787881,9.016"
       style="fill:none;stroke:#1a1a1a;stroke-width:3;stroke-linecap:round;stroke-linejoin:round;stroke-miterlimit:4;stroke-opacity:1;stroke-dasharray:none"
       sodipodi:nodetypes="ccc" />
    <path
       style="fill:none;stroke:#1a1a1a;stroke-width:3;stroke-linecap:round;stroke-linejoin:round;stroke-miterlimit:4;stroke-opacity:1;stroke-dasharray:none"
       d="m 18.934015,1025.53 8.394099,1.782 -11.188073,11.5411"
       id="path5340"
       inkscape:connector-curvature="0"
       sodipodi:nodetypes="ccc" />
    <rect
       style="fill:#1a1a1a;stroke:none"
       id="rect5342"
       width="8.0913734"
       height="18.119612"
       x="324.81015"
       y="955.08801"
       rx="4.0456867"
       ry="4.5456867"
       inkscape:transform-center-y="8.6275666"
       transform="matrix(0.95229822,0.30516896,-0.30516896,0.95229822,0,0)"
       inkscape:transform-center-x="2.7647505" />
  </g>
  <g
     inkscape:label="down"
     inkscape:groupmode="layer"
     id="g5344"
     transform="translate(0,-994.36215)"
     style="display:inline">
    <path
       style="fill:#1a1a1a;fill-opacity:1;stroke:none"
       d="m 21.859993,994.96662 c -3.846269,0 -6.96875,3.12249 -6.96875,6.96878 0,3.8463 3.122481,6.9687 6.96875,6.9687 3.846269,0 6.9375,-3.1224 6.9375,-6.9687 0,-3.84629 -3.091231,-6.96878 -6.9375,-6.96878 z m -2.5625,8.81248 c 0.806116,0 1.46875,0.6627 1.46875,1.4688 0,0.8062 -0.662634,1.4687 -1.46875,1.4687 -0.806116,0 -1.46875,-0.6625 -1.46875,-1.4687 0,-0.8061 0.662634,-1.4688 1.46875,-1.4688 z m 6.28125,0.5625 c 0.806116,0 1.46875,0.6627 1.46875,1.4688 0,0.8062 -0.662634,1.4687 -1.46875,1.4687 -0.806116,0 -1.46875,-0.6625 -1.46875,-1.4687 0,-0.8061 0.662634,-1.4688 1.46875,-1.4688 z"
       id="path5346"
       inkscape:connector-curvature="0" />
    <path
       sodipodi:nodetypes="cc"
       style="fill:none;stroke:#1a1a1a;stroke-width:2.17083216;stroke-linecap:round;stroke-linejoin:round;stroke-miterlimit:4;stroke-dasharray:none"
       d="m 21.435302,1008.32 1.103074,4.1231"
       id="path5348"
       inkscape:connector-curvature="0" />
    <path
       style="fill:none;stroke:#1a1a1a;stroke-width:2;stroke-linecap:round;stroke-linejoin:round;stroke-miterlimit:4;stroke-dasharray:none"
       d="m 20.260347,1011.7067 c -2.944632,0.2403 -5.382208,5.9208 -5.502171,8.4336 -0.119963,2.5128 0.80947,8.7669 0.80947,8.7669"
       id="path5350"
       inkscape:connector-curvature="0"
       sodipodi:nodetypes="czc" />
    <path
       inkscape:connector-curvature="0"
       id="path5352"
       d="m 23.845182,1010.879 c 3.054618,0.2493 4.458449,2.081 6.559123,4.4588 2.100674,2.3779 7.140625,1.7243 7.140625,1.7243"
       style="fill:none;stroke:#1a1a1a;stroke-width:2;stroke-linecap:round;stroke-linejoin:round;stroke-miterlimit:4;stroke-dasharray:none"
       sodipodi:nodetypes="czc" />
    <path
       sodipodi:nodetypes="ccc"
       style="fill:none;stroke:#1a1a1a;stroke-width:3;stroke-linecap:round;stroke-linejoin:round;stroke-miterlimit:4;stroke-opacity:1;stroke-dasharray:none"
       d="m 22.025005,1024.3684 -0.727283,9.7302 -3.912881,9.391"
       id="path5354"
       inkscape:connector-curvature="0" />
    <path
       sodipodi:nodetypes="ccc"
       inkscape:connector-curvature="0"
       id="path5356"
       d="m 26.434015,1024.03 7.644099,7.157 1.061927,12.0411"
       style="fill:none;stroke:#1a1a1a;stroke-width:3;stroke-linecap:round;stroke-linejoin:round;stroke-miterlimit:4;stroke-opacity:1;stroke-dasharray:none" />
    <rect
       inkscape:transform-center-x="-1.8620415"
       transform="matrix(0.97865084,-0.20552987,0.20552987,0.97865084,0,0)"
       inkscape:transform-center-y="8.8662919"
       ry="4.5456867"
       rx="4.0456867"
       y="992.78613"
       x="-190.36508"
       height="18.119612"
       width="8.0913734"
       id="rect5358"
       style="fill:#1a1a1a;stroke:none" />
  </g>
</svg>
