<?xml version="1.0" encoding="UTF-8" standalone="no"?>
<!-- Created with Inkscape (http://www.inkscape.org/) -->

<svg
   xmlns:dc="http://purl.org/dc/elements/1.1/"
   xmlns:cc="http://creativecommons.org/ns#"
   xmlns:rdf="http://www.w3.org/1999/02/22-rdf-syntax-ns#"
   xmlns:svg="http://www.w3.org/2000/svg"
   xmlns="http://www.w3.org/2000/svg"
   xmlns:sodipodi="http://sodipodi.sourceforge.net/DTD/sodipodi-0.dtd"
   xmlns:inkscape="http://www.inkscape.org/namespaces/inkscape"
   width="744.09448819"
   height="1052.3622047"
   id="svg2"
   version="1.1"
   inkscape:version="0.48.5 r10040"
   sodipodi:docname="New document 1">
  <defs
     id="defs4" />
  <sodipodi:namedview
     id="base"
     pagecolor="#ffffff"
     bordercolor="#666666"
     borderopacity="1.0"
     inkscape:pageopacity="0.0"
     inkscape:pageshadow="2"
     inkscape:zoom="0.70710678"
     inkscape:cx="339.49157"
     inkscape:cy="624.98267"
     inkscape:document-units="px"
     inkscape:current-layer="layer1"
     showgrid="false"
     inkscape:window-width="1366"
     inkscape:window-height="715"
     inkscape:window-x="0"
     inkscape:window-y="0"
     inkscape:window-maximized="1" />
  <metadata
     id="metadata7">
    <rdf:RDF>
      <cc:Work
         rdf:about="">
        <dc:format>image/svg+xml</dc:format>
        <dc:type
           rdf:resource="http://purl.org/dc/dcmitype/StillImage" />
        <dc:title></dc:title>
      </cc:Work>
    </rdf:RDF>
  </metadata>
  <g
     inkscape:label="Layer 1"
     inkscape:groupmode="layer"
     id="layer1">
    <g
       id="g3827"
       transform="matrix(-1.327439,0,0,-1.3258274,474.14763,655.56872)"
       style="stroke:#000000;stroke-width:3;stroke-miterlimit:4;stroke-dasharray:none">
      <path
         style="fill:none;stroke:#000000;stroke-width:5.04100895;stroke-miterlimit:4;stroke-dasharray:none"
         d="m 221.88089,228.36218 28.48261,7.63189 21.1365,4.15501"
         id="path3829"
         inkscape:connector-curvature="0"
         sodipodi:nodetypes="ccc" />
      <path
         inkscape:connector-curvature="0"
         id="path3831"
         d="m 207.75,228.36218 -28.48261,7.63189 -21.1365,4.15501"
         style="fill:none;stroke:#000000;stroke-width:5.04100895;stroke-miterlimit:4;stroke-dasharray:none"
         sodipodi:nodetypes="ccc" />
    </g>
    <g
       transform="matrix(-1.327439,0,0,-1.3258274,474.14763,635.01839)"
       id="g3821"
       style="stroke:#000000;stroke-width:3;stroke-miterlimit:4;stroke-dasharray:none">
      <path
         inkscape:connector-curvature="0"
         id="path3823"
         d="M 221.88089,228.36218 250.3635,235.99407 262,256.14908"
         style="fill:none;stroke:#000000;stroke-width:5.04100895;stroke-miterlimit:4;stroke-dasharray:none" />
      <path
         style="fill:none;stroke:#000000;stroke-width:5.04100895;stroke-miterlimit:4;stroke-dasharray:none"
         d="m 207.75,228.36218 -28.48261,7.63189 -11.6365,20.15501"
         id="path3825"
         inkscape:connector-curvature="0" />
    </g>
    <g
       id="g3817"
       transform="matrix(1.327439,0,0,1.3258274,-96.161183,59.262913)"
       style="stroke:#000000;stroke-width:3;stroke-miterlimit:4;stroke-dasharray:none">
      <path
         style="fill:none;stroke:#000000;stroke-width:5.04100895;stroke-miterlimit:4;stroke-dasharray:none"
         d="M 221.88089,228.36218 250.3635,235.99407 262,256.14908"
         id="path3815"
         inkscape:connector-curvature="0" />
      <path
         inkscape:connector-curvature="0"
         id="path3813"
         d="m 207.75,228.36218 -28.48261,7.63189 -11.6365,20.15501"
         style="fill:none;stroke:#000000;stroke-width:5.04100895;stroke-miterlimit:4;stroke-dasharray:none" />
    </g>
    <path
       sodipodi:type="arc"
       style="fill:#000000;fill-opacity:1;fill-rule:nonzero;stroke:#000000;stroke-width:3.17988133;stroke-linecap:round;stroke-linejoin:round;stroke-miterlimit:4;stroke-opacity:1;stroke-dasharray:none"
       id="path2985"
       sodipodi:cx="245.71428"
       sodipodi:cy="163.79076"
       sodipodi:rx="48.57143"
       sodipodi:ry="78.590225"
       d="m 294.28571,163.79076 a 48.57143,78.590225 0 1 1 -97.14286,0 48.57143,78.590225 0 1 1 97.14286,0 z"
       transform="matrix(0.74795521,0,0,0.65704721,5.2099496,221.3625)" />
    <path
       style="fill:#f02c2c;fill-opacity:1;fill-rule:nonzero;stroke:#000000;stroke-width:2.2291894;stroke-linecap:round;stroke-linejoin:round;stroke-miterlimit:4;stroke-opacity:1;stroke-dasharray:none"
       d="m 188.97912,273.57344 c -17.45455,0 -32.26515,15.77747 -37.86175,37.8867 l 75.7695,0 c -5.5966,-22.10923 -20.45319,-37.8867 -37.90775,-37.8867 z"
       id="rect2987"
       inkscape:connector-curvature="0"
       inkscape:transform-center-y="-19.679913" />
    <path
       style="fill:#f02c2c;fill-opacity:1;fill-rule:nonzero;stroke:#000000;stroke-width:2.2291894;stroke-linecap:round;stroke-linejoin:round;stroke-miterlimit:4;stroke-opacity:1;stroke-dasharray:none"
       d="m 150.71592,313.66981 c -1.09387,5.18234 -1.68943,10.68637 -1.68943,16.37508 0,27.33471 13.55683,50.15315 31.64262,55.60239 l 6.66641,-68.41965 -36.6196,-3.55782 z"
       id="rect2989"
       inkscape:connector-curvature="0"
       inkscape:transform-center-x="20.821097"
       inkscape:transform-center-y="31.798845" />
    <path
       style="fill:#f02c2c;fill-opacity:1;fill-rule:nonzero;stroke:#000000;stroke-width:2.2291894;stroke-linecap:round;stroke-linejoin:round;stroke-miterlimit:4;stroke-opacity:1;stroke-dasharray:none"
       d="m 227.2883,313.66981 -36.61959,3.55782 6.66642,68.41965 c 18.08285,-5.45237 31.64261,-28.27062 31.64261,-55.60239 0,-5.68797 -0.59582,-11.19331 -1.68944,-16.37508 z"
       id="rect2991"
       inkscape:connector-curvature="0"
       inkscape:transform-center-x="-20.821123"
       inkscape:transform-center-y="31.798845" />
    <path
       inkscape:transform-center-y="-9.2256272"
       inkscape:connector-curvature="0"
       id="path3811"
       d="m 188.98514,281.85986 c -12.88173,0 -23.81215,11.57303 -27.94255,27.79049 18.20971,-11.16556 36.82451,-11.81167 55.91906,0 -4.1304,-16.21746 -15.09478,-27.79049 -27.97651,-27.79049 z"
       style="fill:#f75a5a;fill-opacity:1;fill-rule:nonzero;stroke:none"
       sodipodi:nodetypes="sccs" />
    <path
       style="fill:#379737;fill-opacity:1;fill-rule:nonzero;stroke:#000000"
       d="m 156.44261,217.11628 c 4.56763,-13.43539 32.3549,-29.34493 32.3549,-29.34493 0,0 29.04785,16.5138 33.11818,29.34493 5.65432,17.82439 -15.20279,44.45405 -15.20279,44.45405 l -14.69417,14.63599 -2.51411,14.00183 -2.15477,-13.7685 -15.70445,-14.86932 c 0,0 -21.22182,-26.74949 -15.20279,-44.45405 z"
       id="rect4135"
       inkscape:connector-curvature="0"
       sodipodi:nodetypes="scscccccs" />
    <path
       style="fill:none;stroke:#000000;stroke-width:2.2291894;stroke-linecap:round;stroke-linejoin:round;stroke-miterlimit:4;stroke-opacity:1;stroke-dasharray:none"
       d="m 177.50555,285.53626 c 0,-6.86644 11.49656,-1.78262 11.49656,2.24915 0,-4.03177 11.49657,-8.64593 11.49657,-2.24915"
       id="path3012"
       inkscape:connector-curvature="0"
       sodipodi:nodetypes="ccc" />
    <g
       id="g3031"
       transform="matrix(1.327439,0,0,1.3258274,-104.34117,59.262913)"
       style="stroke:#000000">
      <g
         id="g3027"
         style="stroke:#000000">
        <path
           d="m 210,177.00504 c 0,2.56417 -2.07867,4.64285 -4.64285,4.64285 -2.56418,0 -4.64286,-2.07868 -4.64286,-4.64285 0,-2.56418 2.07868,-4.64286 4.64286,-4.64286 2.56418,0 4.64285,2.07868 4.64285,4.64286 z"
           sodipodi:ry="4.6428571"
           sodipodi:rx="4.6428571"
           sodipodi:cy="177.00504"
           sodipodi:cx="205.35715"
           id="path3010"
           style="fill:#000000;fill-opacity:1;fill-rule:nonzero;stroke:#000000;stroke-width:1.68033624;stroke-linecap:round;stroke-linejoin:round;stroke-miterlimit:4;stroke-opacity:1;stroke-dasharray:none"
           sodipodi:type="arc"
           transform="translate(30.714286,0)" />
        <path
           style="fill:#ffffff;fill-opacity:1;fill-rule:nonzero;stroke:#000000;stroke-width:1.68033624;stroke-linecap:round;stroke-linejoin:round;stroke-miterlimit:4;stroke-opacity:1;stroke-dasharray:none"
           d="m 236.0625,172.375 c -0.55033,0 -1.07265,0.1055 -1.5625,0.28125 -0.24561,0.56596 -0.40625,1.18748 -0.40625,1.84375 0,2.56418 2.09207,4.65625 4.65625,4.65625 0.54804,0 1.07437,-0.1069 1.5625,-0.28125 0.25257,-0.5726 0.40625,-1.20897 0.40625,-1.875 0,-2.56418 -2.09207,-4.625 -4.65625,-4.625 z"
           id="path3014"
           inkscape:connector-curvature="0" />
      </g>
      <g
         id="g3023"
         style="stroke:#000000">
        <path
           transform="translate(0.53571451,0)"
           sodipodi:type="arc"
           style="fill:#000000;fill-opacity:1;fill-rule:nonzero;stroke:#000000;stroke-width:1.68033624;stroke-linecap:round;stroke-linejoin:round;stroke-miterlimit:4;stroke-opacity:1;stroke-dasharray:none"
           id="path3019"
           sodipodi:cx="205.35715"
           sodipodi:cy="177.00504"
           sodipodi:rx="4.6428571"
           sodipodi:ry="4.6428571"
           d="m 210,177.00504 c 0,2.56417 -2.07867,4.64285 -4.64285,4.64285 -2.56418,0 -4.64286,-2.07868 -4.64286,-4.64285 0,-2.56418 2.07868,-4.64286 4.64286,-4.64286 2.56418,0 4.64285,2.07868 4.64285,4.64286 z" />
        <path
           id="path3021"
           d="m 205.88393,172.375 c -0.55033,0 -1.07265,0.1055 -1.5625,0.28125 -0.24561,0.56596 -0.40625,1.18748 -0.40625,1.84375 0,2.56418 2.09207,4.65625 4.65625,4.65625 0.54804,0 1.07437,-0.1069 1.5625,-0.28125 0.25257,-0.5726 0.40625,-1.20897 0.40625,-1.875 0,-2.56418 -2.09207,-4.625 -4.65625,-4.625 z"
           style="fill:#ffffff;fill-opacity:1;fill-rule:nonzero;stroke:#000000;stroke-width:1.68033624;stroke-linecap:round;stroke-linejoin:round;stroke-miterlimit:4;stroke-opacity:1;stroke-dasharray:none"
           inkscape:connector-curvature="0" />
      </g>
    </g>
    <path
       inkscape:transform-center-y="19.523605"
       inkscape:connector-curvature="0"
       id="path3039"
       d="m 223.84617,316.03736 c -6.92599,6.10306 -13.83991,12.21937 -29.40237,8.83383 l 5.35258,49.18036 c 14.51895,-4.39464 25.40625,-22.78626 25.40625,-44.81578 0,-4.58455 -0.47838,-9.02187 -1.35646,-13.19841 z"
       style="fill:#f75a5a;fill-opacity:1;fill-rule:nonzero;stroke:none"
       sodipodi:nodetypes="cccsc" />
    <path
       inkscape:transform-center-y="18.374413"
       inkscape:transform-center-x="-2.1978962"
       inkscape:connector-curvature="0"
       id="path3041"
       d="m 154.20468,316.57936 c -0.83389,3.96995 -1.28789,8.1863 -1.28789,12.54413 0,20.93972 10.33466,38.41981 24.12183,42.59419 l 5.08195,-46.44663 c -13.68461,1.47678 -22.17845,-2.23094 -27.91589,-8.69169 z"
       style="fill:#f75a5a;fill-opacity:1;fill-rule:nonzero;stroke:none"
       sodipodi:nodetypes="csccc" />
    <path
       sodipodi:type="arc"
       style="fill:#000000;stroke:#000000"
       id="path3833"
       sodipodi:cx="204.5"
       sodipodi:cy="202.36218"
       sodipodi:rx="4.5"
       sodipodi:ry="4.5"
       d="m 209,202.36218 a 4.5,4.5 0 1 1 -9,0 4.5,4.5 0 1 1 9,0 z"
       transform="matrix(1.327439,0,0,1.3258274,-104.46563,59.262913)" />
    <path
       d="m 209,202.36218 a 4.5,4.5 0 1 1 -9,0 4.5,4.5 0 1 1 9,0 z"
       sodipodi:ry="4.5"
       sodipodi:rx="4.5"
       sodipodi:cy="202.36218"
       sodipodi:cx="204.5"
       id="path3835"
       style="fill:#000000;stroke:#000000"
       sodipodi:type="arc"
       transform="matrix(1.327439,0,0,1.3258274,-110.4391,76.830128)" />
    <path
       transform="matrix(1.327439,0,0,1.3258274,-101.81075,95.060259)"
       sodipodi:type="arc"
       style="fill:#000000;stroke:#000000"
       id="path3837"
       sodipodi:cx="204.5"
       sodipodi:cy="202.36218"
       sodipodi:rx="4.5"
       sodipodi:ry="4.5"
       d="m 209,202.36218 a 4.5,4.5 0 1 1 -9,0 4.5,4.5 0 1 1 9,0 z" />
    <path
       transform="matrix(1.327439,0,0,1.3258274,-54.022953,76.830128)"
       sodipodi:type="arc"
       style="fill:#000000;stroke:#000000"
       id="path3839"
       sodipodi:cx="204.5"
       sodipodi:cy="202.36218"
       sodipodi:rx="4.5"
       sodipodi:ry="4.5"
       d="m 209,202.36218 a 4.5,4.5 0 1 1 -9,0 4.5,4.5 0 1 1 9,0 z" />
    <path
       d="m 209,202.36218 a 4.5,4.5 0 1 1 -9,0 4.5,4.5 0 1 1 9,0 z"
       sodipodi:ry="4.5"
       sodipodi:rx="4.5"
       sodipodi:cy="202.36218"
       sodipodi:cx="204.5"
       id="path3841"
       style="fill:#000000;stroke:#000000"
       sodipodi:type="arc"
       transform="matrix(1.327439,0,0,1.3258274,-61.655722,59.262913)" />
    <path
       transform="matrix(1.327439,0,0,1.3258274,-65.306175,95.391718)"
       sodipodi:type="arc"
       style="fill:#000000;stroke:#000000"
       id="path3843"
       sodipodi:cx="204.5"
       sodipodi:cy="202.36218"
       sodipodi:rx="4.5"
       sodipodi:ry="4.5"
       d="m 209,202.36218 a 4.5,4.5 0 1 1 -9,0 4.5,4.5 0 1 1 9,0 z" />
    <g
       id="g3859"
       transform="matrix(1.327439,0,0,1.3258274,-104.69377,59.262913)">
      <g
         id="g3849">
        <path
           style="fill:none;stroke:#000000;stroke-width:1.68033624"
           d="m 203.5,186.11218 -16.94046,4.53919"
           id="path3845"
           inkscape:connector-curvature="0" />
        <path
           sodipodi:type="arc"
           style="fill:#000000;stroke:none"
           id="path3847"
           sodipodi:cx="186.75"
           sodipodi:cy="189.86218"
           sodipodi:rx="3.25"
           sodipodi:ry="3.25"
           d="m 190,189.86218 c 0,1.79493 -1.45507,3.25 -3.25,3.25 -1.79493,0 -3.25,-1.45507 -3.25,-3.25 0,-1.79492 1.45507,-3.25 3.25,-3.25 1.79493,0 3.25,1.45508 3.25,3.25 z" />
      </g>
      <g
         transform="matrix(-1,0,0,1,442.5,0)"
         id="g3853">
        <path
           inkscape:connector-curvature="0"
           id="path3855"
           d="m 203.5,186.11218 -16.94046,4.53919"
           style="fill:none;stroke:#000000;stroke-width:1.68033624" />
        <path
           d="m 190,189.86218 c 0,1.79493 -1.45507,3.25 -3.25,3.25 -1.79493,0 -3.25,-1.45507 -3.25,-3.25 0,-1.79492 1.45507,-3.25 3.25,-3.25 1.79493,0 3.25,1.45508 3.25,3.25 z"
           sodipodi:ry="3.25"
           sodipodi:rx="3.25"
           sodipodi:cy="189.86218"
           sodipodi:cx="186.75"
           id="path3857"
           style="fill:#000000;stroke:none"
           sodipodi:type="arc" />
      </g>
    </g>
    <g
       style="stroke:#000000"
       transform="matrix(3.53192,-0.82935439,0.82935439,3.53192,-751.99739,546.48308)"
       id="g4132">
      <path
         style="fill:#bf7646;fill-opacity:1;stroke:#000000;stroke-width:1;stroke-linecap:square;stroke-linejoin:miter;stroke-miterlimit:4;stroke-opacity:1"
         inkscape:transform-center-x="26.574128"
         inkscape:transform-center-y="-0.61944783"
         d="m 321.388,10.717684 c -1.23288,-0.8605044 -2.74231,-1.3045874 -4.18608,-1.3269484 -1.44378,-0.02236 -9.58492,-2.7620093 -10.56595,-1.9484386 -1.74676,1.4486009 5.08782,2.471121 7.08034,4.156313 0.25644,0.216886 -1.39952,1.667248 -1.48336,2.024286 -0.24736,1.053429 0.895,2.219463 2.12788,3.079967 2.46575,1.721007 3.06703,-0.751545 5.00753,-2.404306 1.9405,-1.652762 4.4854,-1.859865 2.01964,-3.580873 z"
         id="path4480"
         inkscape:connector-curvature="0"
         sodipodi:nodetypes="ssssssss" />
      <path
         style="fill:#cc4646;fill-opacity:1;stroke:#000000;stroke-width:1;stroke-linecap:square;stroke-linejoin:miter;stroke-miterlimit:4;stroke-opacity:1"
         d="M 342.13198,17.656786 340.67987,13.1066 c -1.26828,2.659447 -11.58669,-0.943832 -20.52434,-3.2074193 -2.0104,2.8550843 -5.602,9.7867543 2.51966,10.4357513 6.59497,0.526998 9.95845,4.490624 19.45679,-2.678146 z"
         id="path4482"
         inkscape:connector-curvature="0"
         sodipodi:nodetypes="cccsc"
         inkscape:transform-center-x="11.676795"
         inkscape:transform-center-y="0.99471242" />
      <path
         style="fill:#cccccc;fill-opacity:1;stroke:#000000;stroke-width:1;stroke-linecap:square;stroke-linejoin:miter;stroke-miterlimit:4;stroke-opacity:1;stroke-dasharray:none"
         d="m 321.63667,64.885304 c 3.19508,0.7442 5.85033,0.989948 4.41659,7.09811 l -0.58467,2.490788 -17.77543,-4.140795 0.58467,-2.490792 c 0.74829,-3.187991 3.92299,-5.155469 7.11811,-4.411079 z"
         id="path4466"
         inkscape:connector-curvature="0"
         sodipodi:nodetypes="ssccsss"
         inkscape:transform-center-x="28.158157"
         inkscape:transform-center-y="85.312572" />
      <path
         inkscape:transform-center-y="2.8712329"
         inkscape:transform-center-x="5.4606338"
         sodipodi:nodetypes="ssccsss"
         inkscape:connector-curvature="0"
         id="rect4460"
         d="m 345.49247,72.373059 c 2.72053,0.789799 5.01122,1.076185 3.27501,7.112255 l -0.70797,2.461386 c -5.25154,-1.11532 -13.13169,2.215723 -15.13534,-4.393614 l 0.70796,-2.461395 c 0.90605,-3.150277 3.82582,-5.050888 6.54633,-4.261095 z"
         style="fill:#cccccc;fill-opacity:1;stroke:#000000;stroke-width:1;stroke-linecap:square;stroke-linejoin:miter;stroke-miterlimit:4;stroke-opacity:1;stroke-dasharray:none" />
      <path
         style="fill:#cc4646;fill-opacity:1;stroke:#000000;stroke-width:1;stroke-linecap:round;stroke-linejoin:round;stroke-miterlimit:4;stroke-opacity:1;stroke-dasharray:none"
         d="m 340.89114,15.89473 c -1.42198,2.3769 -5.43786,-0.078 -6.69962,2.0735 l -0.0448,-0.014 c -0.50443,1.2439 -0.2296,4.6226 -1.16488,7.26 l -7.53461,10.6427 c 1.32433,7.3048 17.18481,5.8191 18.43413,-0.4672 l -0.30586,-9.5989 c 0.93523,-2.6372 0.98704,-2.4172 1.51157,-4.2523 0.52446,-1.8349 -1.16913,-10.7037 -2.59107,-8.327 z"
         id="path4100"
         inkscape:connector-curvature="0"
         sodipodi:nodetypes="scccccccss" />
      <path
         inkscape:transform-center-y="40.205458"
         inkscape:transform-center-x="13.715216"
         style="fill:#597796;fill-opacity:1;stroke:#000000;stroke-width:1"
         d="m 334.86646,34.732363 -12.37071,14.214521 c -3.80869,3.195864 -3.86086,8.918871 -5.44259,13.887746 3.11322,0.554608 4.32606,8.067711 10.32664,8.237201 1.07155,-6.38351 3.63265,-15.135262 4.78609,-17.661067 6.73808,-0.791937 9.03036,-10.325329 13.28992,-13.464239 z"
         id="path4431"
         inkscape:connector-curvature="0"
         sodipodi:nodetypes="ccccccc" />
      <path
         inkscape:transform-center-y="19.507728"
         inkscape:transform-center-x="3.9592858"
         sodipodi:nodetypes="csccccccccsc"
         inkscape:connector-curvature="0"
         id="path3887"
         d="m 344.51836,31.555291 c 2.34271,1.046557 4.25928,2.725365 6.28941,5.221502 2.37515,2.920587 1.58932,6.275771 0.47895,8.427999 l -2.14346,13.402344 c 1.99932,5.569219 1.99013,7.352914 2.33799,18.247998 -5.11484,-1.494778 -6.21636,-3.090534 -12.19147,-6.296321 2.48919,-5.836584 -0.30821,-13.115452 -2.15822,-16.225737 l -0.22134,-10.520125 c -2.22928,-3.356638 -2.06351,-6.157742 -2.33911,-9.59099 l 1.20165,-3.991945 c 3.65652,-0.13843 6.40282,0.278921 8.74556,1.325277 z"
         style="fill:#597796;fill-opacity:1;stroke:#000000;stroke-width:1;stroke-linecap:round;stroke-linejoin:round;stroke-miterlimit:4;stroke-opacity:1;stroke-dasharray:none" />
      <path
         style="fill:#cccccc;fill-opacity:1;stroke:#000000;stroke-width:1;stroke-linecap:round;stroke-linejoin:round;stroke-miterlimit:4;stroke-opacity:1;stroke-dasharray:none"
         d="m 341.39232,13.35863 c -2.72604,0.5161 -5.21938,1.5242 -6.39322,3.638757 -1.17384,2.114557 -2.67406,6.050784 0.74464,7.805754 l -3.46123,7.432589 c 3.42379,6.5911 22.14191,4.749 21.47842,-1.6253 l -2.12804,-6.588 c 0.1145,-2.795 0.22902,-2.6 0.18805,-4.5079 -0.041,-1.9075 -2.21021,-7.7114 -4.93625,-7.1953 z"
         id="path3885"
         inkscape:connector-curvature="0"
         sodipodi:nodetypes="sscccccss" />
      <path
         style="fill:#cc4646;fill-opacity:1;stroke:#000000;stroke-width:1"
         d="m 343.44721,6.50133 c -3.19904,4.1274 -8.74151,7.5867 -8.83226,12.5999 l 11.32782,-7.2566 z"
         id="path3912"
         inkscape:connector-curvature="0"
         sodipodi:nodetypes="cccc" />
      <path
         sodipodi:nodetypes="scccccccss"
         inkscape:connector-curvature="0"
         id="path4098"
         d="m 346.14368,15.35423 c -0.65657,2.6894 -5.21938,1.5242 -5.78944,3.9511 l -0.0467,7e-4 c -0.11452,1.3369 1.14635,4.4847 1.03184,7.2798 l -4.05545,12.3852 c 3.42379,6.5911 18.14077,0.5083 17.47728,-5.866 l -3.12833,-9.0826 c 0.1145,-2.795 0.22902,-2.6 0.18804,-4.5079 -0.041,-1.9075 -4.27967,-9.8845 -4.93624,-7.1953 z"
         style="fill:#cc4646;fill-opacity:1;stroke:#000000;stroke-width:1;stroke-linecap:round;stroke-linejoin:round;stroke-miterlimit:4;stroke-opacity:1;stroke-dasharray:none" />
      <path
         sodipodi:nodetypes="ssccssssscscscss"
         inkscape:connector-curvature="0"
         id="path3877"
         d="m 342.77592,-14.90535 c 6.39091,0 11.55388,7.25404 11.55388,13.63148 0,3.8625 -1.92188,7.2496 -4.84076,9.3459 -0.48026,0.3449 -1.47686,0.6425 -2.74005,0.9117 0.0346,0.3828 0.0913,0.7837 0.0913,1.1854 0,1.6877 3.39043,4.5539 2.83295,5.6359 -0.70668,1.3716 -5.60487,0.5918 -6.48635,1.2938 -6.29834,5.016 -8.37891,1.2484 -5.34963,-1.9873 0.50977,-0.5445 1.34902,-1.0374 1.55508,-1.6439 0.35581,-1.0471 0.50359,-3.5301 0.50359,-3.5301 0,0 -3.96538,0.3229 -4.79219,0.3229 -4.59587,0 -3.61248,-2.33 -5.48011,-6.2035 -1.13715,-0.4741 -2.72852,-1.5163144 -2.52592,-1.8939227 0.74759,-1.39341458 2.5753,-2.3874773 3.41698,-3.7560773 -1.20843,-6.60618 0.44133,-13.31228 12.2612,-13.31228 z"
         style="fill:#bf7646;fill-opacity:1;stroke:#000000;stroke-width:1" />
      <path
         sodipodi:nodetypes="sssss"
         inkscape:connector-curvature="0"
         id="path3838"
         d="m 333.11141,-1.88577 c 0,2.0103 -0.34068,3.64 3.70625,3.64 2.04691,0 3.70626,-1.6297 3.70626,-3.64 0,-1.8745 -0.35363,-3.6402 -3.70626,-3.6402 -2.8745,0 -3.70625,1.6297 -3.70625,3.6402 z"
         style="fill:#000000;fill-opacity:1;stroke:none" />
      <path
         sodipodi:nodetypes="sssss"
         id="path3843-5"
         d="m 333.38752,-1.88577 c 0,1.5987 1.24386,2.8948 3.37008,2.8948 2.12622,0 3.84986,-1.2961 3.84986,-2.8948 0,-1.599 -1.72364,-2.8952 -3.84986,-2.8952 -2.12622,0 -3.37008,1.2962 -3.37008,2.8952 z"
         style="fill:#f9f9f9;fill-opacity:1;stroke:none"
         inkscape:connector-curvature="0" />
      <path
         inkscape:connector-curvature="0"
         style="fill:#000000;fill-opacity:1;stroke:none"
         d="m 332.8486,-1.5546128 c 0,1.46296181 0.71269,2.6488522 1.59183,2.6488522 0.87912,0 1.5918,-1.18589039 1.5918,-2.6488522 0,-1.4630511 -0.71268,-2.6488521 -1.5918,-2.6488521 -0.87914,0 -1.59183,1.185801 -1.59183,2.6488521 z"
         id="path3841-6" />
      <path
         sodipodi:nodetypes="sscscss"
         inkscape:connector-curvature="0"
         id="path3892"
         d="m 336.43675,-6.9732406 c 2.39452,-0.7395132 4.11342,-1.6050464 4.4578,-0.4833771 0.0399,0.129861 0.30514,0.6999854 0.29313,0.838513 -0.64801,-0.844728 -2.25003,0.1633279 -4.38891,0.8239178 -2.09519,0.6470821 -4.43599,1.9265934 -4.49959,2.4824086 -0.0356,-0.049638 -0.0699,-0.1045378 -0.0876,-0.161964 -0.18225,-0.5936203 1.83065,-2.7598913 4.22511,-3.4994596 z"
         style="fill:#000000;fill-opacity:1;stroke:none"
         inkscape:transform-center-x="7.8217971"
         inkscape:transform-center-y="-7.6953535" />
      <path
         sodipodi:nodetypes="scccs"
         inkscape:connector-curvature="0"
         id="path3897"
         d="m 334.53721,4.8128123 c 1.38102,0 2.83658,0.5099149 2.83658,1.6923149 -0.41114,0.7999 -1.57247,1.2653904 -2.51087,1.2011904 -1.50109,-0.098731 -2.66937,-1.4865026 -2.73081,-1.9241904 0,-1.1824 1.02409,-0.9693149 2.4051,-0.9693149 z"
         style="fill:#000000;fill-opacity:1;stroke:none" />
      <path
         inkscape:transform-center-y="19.050344"
         inkscape:transform-center-x="-16.60622"
         transform="matrix(-1.3581975,0.39455211,0.39552789,1.3548468,361.04726,-31.19196)"
         d="m 13.965359,47.726135 c 0,2.245515 -1.820349,4.065864 -4.0658639,4.065864 -2.2455147,0 -4.0658641,-1.820349 -4.0658641,-4.065864 0,-2.245514 1.8203494,-4.065864 4.0658641,-4.065864 2.2455149,0 4.0658639,1.82035 4.0658639,4.065864 z"
         sodipodi:ry="4.0658641"
         sodipodi:rx="4.0658641"
         sodipodi:cy="47.726135"
         sodipodi:cx="9.8994951"
         id="path4473"
         style="fill:#bf7646;fill-opacity:1;stroke:#000000;stroke-width:0.70777845;stroke-linecap:square;stroke-linejoin:miter;stroke-miterlimit:4;stroke-opacity:1;stroke-dasharray:none"
         sodipodi:type="arc" />
      <path
         inkscape:transform-center-y="6.954287"
         inkscape:transform-center-x="-8.8660269"
         sodipodi:nodetypes="cccsc"
         inkscape:connector-curvature="0"
         id="rect4468"
         d="m 349.00842,13.04993 -4.7327,3.7362 c 3.06685,-1.9927 16.07465,6.8663 18.15914,17.4796 3.22734,-1.3509 9.75489,4.0681 8.14532,-3.9039 -1.59253,-7.8876 -11.73524,-13.799 -21.57176,-17.3119 z"
         style="fill:#cc4646;fill-opacity:1;stroke:#000000;stroke-width:1;stroke-linecap:square;stroke-linejoin:miter;stroke-miterlimit:4;stroke-opacity:1" />
      <path
         sodipodi:nodetypes="cccc"
         inkscape:connector-curvature="0"
         id="path3910"
         d="m 350.92782,9.62793 -13.22537,10.9516 c 4.88622,-1.9799 13.15476,-4.9639 15.71193,-3.7907 z"
         style="fill:#cc4646;fill-opacity:1;stroke:#000000;stroke-width:1;stroke-linecap:square;stroke-linejoin:miter" />
      <path
         sodipodi:nodetypes="sssszzcsccccsscsscs"
         inkscape:connector-curvature="0"
         id="path3902"
         d="m 345.02388,-24.8161 c 0.94422,0.72573 6.97644,9.919021 8.12555,10.188853 3.22222,0.756631 6.92867,6.5253559 5.82627,11.220077 -1.78586,7.605322 -0.2349,19.7125 -0.2349,20.7104 0,0.8568 -2.61188,0.356904 -5.28243,-0.983655 -2.67055,-1.34056 -4.03774,0.878002 -8.04836,4.388039 -4.01062,3.510037 4.92793,-18.7109824 4.82026,-19.820784 5.16618,-5.8033 -1.11187,-5.2751 -1.99498,-4.0862 -0.21055,0.2835 -5.30476,17.649407 -5.30476,17.649407 l -1.65581,-0.3902 c 0,0 3.31451,-17.6609174 2.92147,-18.0186174 -0.14934,-4.7910342 -0.39601,-3.4105579 -3.71741,-6.4850916 -0.60491,0.111726 -1.48987,1.9134136 -2.11693,2.0598757 -0.82275,0.1921666 -3.7835,-3.1047767 -4.60541,-2.8623837 -4.36291,1.2866822 -7.4358,4.009246 -7.84355,5.74571 -0.10503,-3.3693102 3.49457,-11.640511 5.00875,-10.400031 0.6939,0.56846 -0.9369,-7.956649 -0.29254,-8.579829 1.82845,-1.767 3.51599,5.951996 7.58275,5.951996 4.06676,0 4.06965,-8.395366 6.81203,-6.287566 z"
         style="fill:#000000;fill-opacity:1;stroke:none" />
    </g>
    <path
       style="fill:none;stroke:#357535;stroke-width:3;stroke-linecap:round;stroke-linejoin:round;stroke-miterlimit:4;stroke-opacity:1;stroke-dasharray:none"
       d="m 189.50462,270.65563 0,-65.76093"
       id="path4138"
       inkscape:connector-curvature="0" />
    <path
       style="fill:none;stroke:#357535;stroke-width:3;stroke-linecap:round;stroke-linejoin:round;stroke-miterlimit:4;stroke-opacity:1;stroke-dasharray:none"
       d="m 192.6866,223.98659 c 3.30695,-4.84604 6.34479,-10.49942 12.38366,-7.14971"
       id="path4140"
       inkscape:connector-curvature="0"
       sodipodi:nodetypes="cc" />
    <path
       sodipodi:nodetypes="cc"
       inkscape:connector-curvature="0"
       id="path4142"
       d="m 192.6866,239.18938 c 3.30695,-4.84603 6.34479,-10.49942 12.38366,-7.14971"
       style="fill:none;stroke:#357535;stroke-width:3;stroke-linecap:round;stroke-linejoin:round;stroke-miterlimit:4;stroke-opacity:1;stroke-dasharray:none" />
    <path
       style="fill:none;stroke:#357535;stroke-width:3;stroke-linecap:round;stroke-linejoin:round;stroke-miterlimit:4;stroke-opacity:1;stroke-dasharray:none"
       d="m 192.6866,254.39218 c 3.30695,-4.84604 6.34479,-10.49942 12.38366,-7.14971"
       id="path4144"
       inkscape:connector-curvature="0"
       sodipodi:nodetypes="cc" />
    <path
       sodipodi:nodetypes="cc"
       inkscape:connector-curvature="0"
       id="path4158"
       d="m 185.62482,223.98659 c -3.30695,-4.84604 -6.34479,-10.49942 -12.38366,-7.14971"
       style="fill:none;stroke:#39bd39;stroke-width:3;stroke-linecap:round;stroke-linejoin:round;stroke-miterlimit:4;stroke-opacity:1;stroke-dasharray:none" />
    <path
       style="fill:none;stroke:#39bd39;stroke-width:3;stroke-linecap:round;stroke-linejoin:round;stroke-miterlimit:4;stroke-opacity:1;stroke-dasharray:none"
       d="m 185.62482,239.18938 c -3.30695,-4.84603 -6.34479,-10.49942 -12.38366,-7.14971"
       id="path4160"
       inkscape:connector-curvature="0"
       sodipodi:nodetypes="cc" />
    <path
       sodipodi:nodetypes="cc"
       inkscape:connector-curvature="0"
       id="path4162"
       d="m 185.62482,254.39218 c -3.30695,-4.84604 -6.34479,-10.49942 -12.38366,-7.14971"
       style="fill:none;stroke:#39bd39;stroke-width:3;stroke-linecap:round;stroke-linejoin:round;stroke-miterlimit:4;stroke-opacity:1;stroke-dasharray:none" />
    <text
       xml:space="preserve"
       style="font-size:9.85065556px;font-style:normal;font-variant:normal;font-weight:bold;font-stretch:normal;text-align:center;text-anchor:middle;fill:#000000;stroke:none;font-family:DejaVu Sans;-inkscape-font-specification:DejaVu Sans Bold"
       x="-231.26357"
       y="192.43137"
       id="text4164"
       transform="matrix(0,-1,1,0,0,0)"><tspan
         sodipodi:role="line"
         id="tspan4166"
         x="-231.26357"
         y="192.43137">propiedades</tspan></text>
  </g>
</svg>
