<svg width="85" height="48" viewBox="0 0 85 48" fill="none" xmlns="http://www.w3.org/2000/svg">
<g clip-path="url(#clip0_206_9114)">
<path d="M24.9317 0.398524L25.0172 20.7817C25.0172 20.7817 23.6696 24.4075 19.458 27.4068C15.2464 30.4062 12.7205 30.889 12.7205 30.889C12.7205 30.889 10.3637 30.04 6.15023 27.4068C3.60445 25.7914 1.58438 23.4587 0.340088 20.6974V0.348267L24.9317 0.398524Z" fill="#9E28B5"/>
<path d="M12.6937 31.2411L12.6064 31.2106C12.5085 31.1747 10.166 30.3131 5.97212 27.6979C1.71598 25.0342 0.0978955 20.9938 0.0249127 20.8233L0 20.6977V0.0057373L25.2663 0.057789L25.3535 20.8413L25.3321 20.9005C25.2752 21.0531 23.9081 24.6699 19.6519 27.6871C15.3958 30.7044 12.8877 31.2034 12.7827 31.2231L12.6937 31.2411ZM0.678205 20.6277C1.9075 23.2907 3.8675 25.543 6.32636 27.1181C10.0022 29.4139 12.2736 30.349 12.7346 30.5285C13.2117 30.41 15.5952 29.7262 19.2514 27.1181C23.0519 24.4114 24.4795 21.1644 24.6664 20.7049L24.5845 0.729094L0.669296 0.68063L0.678205 20.6277Z" fill="#9E28B5"/>
<path d="M24.9192 5.58397L20.3178 5.60012L20.3231 10.3549L15.2481 10.3513L15.2268 5.60012L9.93996 5.57858V10.3351H4.88635V5.57858H0.377441V0.342773L24.9317 0.398416L24.9192 5.58397Z" fill="#FF8300"/>
<path d="M20.663 10.6978H14.9116L14.8902 5.94484L10.2799 5.92689V10.6817H4.54627V5.9251H0.0373535V0.00183105L25.2698 0.0592701L25.2556 5.92869L20.6541 5.94305L20.663 10.6978ZM15.5827 10.0122H19.9812V5.25918L24.5845 5.24302L24.597 0.737753L0.720904 0.683905V5.23764H5.22982V9.9942H9.60522V5.23764L15.5667 5.26097L15.5827 10.0122Z" fill="#9E28B5"/>
<path d="M27.9968 12.8104V5.02403H29.7609C30.4295 5.01254 31.0983 5.0419 31.7634 5.11198C32.1404 5.15806 32.5093 5.25589 32.86 5.40276C33.1969 5.5528 33.4891 5.78919 33.7073 6.08842C33.9056 6.36902 34.0104 6.70595 34.0063 7.05051C34.0139 7.26105 33.9732 7.47051 33.8873 7.66259C33.8015 7.85467 33.6729 8.0242 33.5115 8.15798C33.1822 8.43799 32.6873 8.62287 32.0305 8.71441C32.7911 8.80774 33.3655 9.01117 33.7536 9.32468C33.9412 9.47372 34.0915 9.66501 34.1926 9.8832C34.2937 10.1014 34.3427 10.3404 34.3356 10.5811C34.3379 10.9584 34.2199 11.3265 33.9992 11.6312C33.7666 11.958 33.4486 12.2133 33.0807 12.3689C32.6905 12.537 32.2788 12.6494 31.8578 12.7027C31.0864 12.7863 30.3105 12.8204 29.5348 12.8051H27.9968V12.8104ZM30.0119 8.13464H30.4604C31.0692 8.13464 31.5012 8.06404 31.7563 7.92284C31.881 7.85225 31.983 7.7471 32.0502 7.61984C32.1174 7.49259 32.147 7.34858 32.1355 7.20487C32.1468 7.06682 32.1194 6.92833 32.0565 6.8052C31.9935 6.68208 31.8975 6.57925 31.7795 6.50844C31.5356 6.37023 31.1137 6.30202 30.5067 6.30202H30.019L30.0119 8.13464ZM30.0119 11.5109H30.8004C31.3095 11.5109 31.6905 11.4212 31.9539 11.2381C32.0831 11.1509 32.1874 11.0311 32.2564 10.8907C32.3254 10.7502 32.3568 10.594 32.3473 10.4375C32.3542 10.2884 32.3217 10.14 32.2532 10.0076C32.1847 9.87517 32.0827 9.76341 31.9575 9.68367C31.6143 9.48812 31.2223 9.39709 30.8289 9.42161H30.0119V11.5109Z" fill="#9E28B5"/>
<path d="M29.535 13.1515H27.657V4.683H29.761C30.4452 4.67056 31.1295 4.70113 31.8099 4.77454C32.2174 4.82418 32.6163 4.92987 32.9954 5.08865C33.3878 5.26569 33.7282 5.54209 33.9833 5.89098C34.2198 6.23021 34.3444 6.63589 34.3394 7.05051C34.3475 7.31128 34.2961 7.57044 34.189 7.80794C34.0819 8.04543 33.922 8.25487 33.7217 8.42004C33.5993 8.52284 33.4662 8.61191 33.3247 8.68569C33.5523 8.77948 33.7656 8.90516 33.9584 9.05903C34.1874 9.23965 34.3712 9.47196 34.4948 9.73728C34.6185 10.0026 34.6787 10.2935 34.6705 10.5865C34.6741 11.0375 34.5343 11.4779 34.2717 11.843C34.0033 12.219 33.6375 12.5133 33.2144 12.6938C32.7952 12.8747 32.353 12.9955 31.9007 13.0528C31.1149 13.1358 30.3248 13.1687 29.535 13.1515ZM28.3352 12.4676H29.535C30.2945 12.4823 31.0543 12.4499 31.8099 12.3707C32.1996 12.3209 32.5805 12.217 32.942 12.062C33.2546 11.932 33.5251 11.717 33.7235 11.4409C33.9024 11.1928 33.9979 10.8933 33.9958 10.5865C34.0032 10.396 33.9658 10.2064 33.8866 10.0333C33.8074 9.86011 33.6886 9.70833 33.5401 9.59033C33.2055 9.3193 32.6839 9.13801 31.9914 9.05185V8.37517C32.5842 8.29081 33.0239 8.12926 33.2998 7.89592C33.4235 7.79398 33.5219 7.66429 33.5872 7.5172C33.6524 7.3701 33.6826 7.20968 33.6754 7.04871C33.6802 6.77534 33.5971 6.50774 33.4386 6.28587C33.2559 6.03384 33.0102 5.83506 32.7266 5.7097C32.4075 5.5778 32.0722 5.48966 31.7298 5.44764C31.0793 5.3807 30.4254 5.35312 29.7717 5.36507H28.3476L28.3352 12.4676ZM30.8024 11.8537H29.672V9.08057H30.8273C31.2878 9.0537 31.7459 9.1642 32.1445 9.39828C32.3147 9.51055 32.4532 9.66519 32.5468 9.84725C32.6403 10.0293 32.6857 10.2326 32.6786 10.4375C32.6861 10.6478 32.6411 10.8566 32.5478 11.0447C32.4545 11.2329 32.3158 11.3944 32.1445 11.5145C31.8241 11.7442 31.3844 11.8537 30.8024 11.8537ZM30.3502 11.1699H30.8024C31.1357 11.194 31.4689 11.1204 31.7618 10.9581C31.845 10.9012 31.9117 10.823 31.9549 10.7315C31.998 10.64 32.0162 10.5385 32.0075 10.4375C32.0141 10.3449 31.9955 10.2521 31.9538 10.1693C31.9121 10.0864 31.8488 10.0166 31.7707 9.96727C31.4812 9.81204 31.1544 9.74177 30.8273 9.76444H30.3573L30.3502 11.1699ZM30.4606 8.47748H29.672V5.96458H30.5015C31.1815 5.96458 31.639 6.04355 31.938 6.21407C32.111 6.31216 32.2529 6.45758 32.3474 6.63353C32.4419 6.80949 32.4851 7.0088 32.4721 7.20846C32.4844 7.41252 32.4389 7.6159 32.3409 7.79485C32.2429 7.9738 32.0963 8.12092 31.9185 8.21901C31.6123 8.3967 31.1352 8.47748 30.4606 8.47748ZM30.3502 7.79361H30.4606C31.1441 7.79361 31.4521 7.70207 31.5909 7.62309C31.6626 7.58341 31.7206 7.52265 31.7572 7.44889C31.7938 7.37514 31.8072 7.29189 31.7956 7.21026C31.8069 7.13201 31.7947 7.05217 31.7608 6.9809C31.7269 6.90962 31.6727 6.85013 31.6052 6.80999C31.4752 6.7364 31.178 6.64844 30.5015 6.64844H30.3573L30.3502 7.79361Z" fill="#9E28B5"/>
<path d="M42.6789 12.8104H40.3648L37.887 9.17204V12.8104H35.8755V5.02576H38.7574C39.9014 5.02576 40.7594 5.20824 41.3314 5.57321C41.6079 5.74693 41.833 5.99231 41.9833 6.28374C42.1336 6.57516 42.2036 6.90194 42.1858 7.22993C42.189 7.4874 42.1386 7.74269 42.0377 7.97923C41.9368 8.21578 41.7877 8.42831 41.6002 8.60305C41.1873 8.99323 40.6535 9.2278 40.0889 9.26718L42.6789 12.8104ZM37.8727 8.34279H38.1753C38.9888 8.34279 39.5282 8.26919 39.7899 8.1238C39.9204 8.04564 40.0264 7.93191 40.0957 7.79569C40.165 7.65946 40.1947 7.50629 40.1815 7.35378C40.1951 7.19153 40.1629 7.0287 40.0886 6.88416C40.0142 6.73961 39.9008 6.61927 39.7614 6.53709C39.4801 6.37554 38.9514 6.29477 38.1753 6.29477H37.8727V8.34279Z" fill="#9E28B5"/>
<path d="M43.3518 13.1515H40.1797L38.2217 10.2796V13.1515H35.5195V4.68298H38.7415C39.9644 4.68298 40.8651 4.88043 41.497 5.28608C42.1699 5.71866 42.5099 6.37201 42.5099 7.22999C42.5126 7.53274 42.4528 7.83275 42.3342 8.11089C42.2156 8.38903 42.0408 8.63919 41.821 8.84542C41.4973 9.1579 41.1005 9.38267 40.6675 9.49878L43.3518 13.1515ZM40.5375 12.4676H42.0097L39.457 8.98902L40.048 8.92799C40.5368 8.89309 40.9994 8.69183 41.3599 8.3572C41.5145 8.21421 41.6372 8.03982 41.72 7.84553C41.8029 7.65124 41.844 7.44145 41.8406 7.22999C41.8577 6.95951 41.8016 6.68941 41.6784 6.44853C41.5552 6.20765 41.3695 6.00502 41.141 5.86225C40.6301 5.53199 39.8255 5.36685 38.7504 5.36685H36.2066V12.4676H37.5435V5.95379H38.1843C39.028 5.95379 39.6083 6.04713 39.9377 6.23919C40.1299 6.3505 40.2874 6.51396 40.3922 6.71099C40.497 6.90803 40.5449 7.13074 40.5304 7.35384C40.5456 7.56712 40.5006 7.78037 40.4008 7.96901C40.301 8.15765 40.1503 8.314 39.9661 8.42003C39.6422 8.59952 39.0761 8.68388 38.1861 8.68388H37.9618L40.5375 12.4676ZM38.2235 6.63766V8.00001C39.1829 8.00001 39.5229 7.89052 39.6386 7.82052C39.7543 7.75052 39.8558 7.65718 39.8558 7.35025C39.8558 7.04332 39.7223 6.89793 39.6066 6.83151C39.4909 6.7651 39.1259 6.63946 38.2181 6.63766H38.2235Z" fill="#9E28B5"/>
<path d="M43.8501 12.8087V5.02405H49.395V6.42768H45.8634V8.02876H49.395V9.44316H45.8634V11.3925H49.395V12.8087H43.8501Z" fill="#9E28B5"/>
<path d="M49.7351 13.1515H43.5049V4.68298H49.7351V6.77049H46.1999V7.6877H49.7316V9.78597H46.1999V11.0424H49.7316L49.7351 13.1515ZM44.1902 12.4676H49.0569V11.7353H45.5253V9.1021H49.0569V8.37156H45.5253V6.08662H49.0569V5.36865H44.1902V12.4676Z" fill="#9E28B5"/>
<path d="M50.7676 11.8196L51.8872 10.7732C52.0351 11.0682 52.2745 11.3065 52.569 11.4517C52.895 11.6193 53.2569 11.7037 53.6228 11.6976C54.0154 11.7186 54.4055 11.6225 54.7442 11.4211C54.8711 11.3442 54.9758 11.2351 55.0479 11.1048C55.12 10.9744 55.1571 10.8273 55.1554 10.678C55.1554 10.3083 54.6986 9.94093 53.7848 9.57596C53.4875 9.45929 53.2508 9.36416 53.0834 9.29057C52.2611 8.93158 51.6902 8.58456 51.371 8.24951C51.0604 7.92548 50.8901 7.49033 50.8975 7.03973C50.8975 6.39953 51.2049 5.87242 51.8196 5.45839C52.4343 5.04436 53.233 4.83735 54.2156 4.83735C54.719 4.82656 55.2201 4.91057 55.693 5.08505C56.1123 5.25424 56.487 5.51903 56.7878 5.85866L55.5987 6.79921C55.4649 6.57859 55.2691 6.40304 55.0362 6.29483C54.77 6.17461 54.4804 6.11633 54.1889 6.12431C53.8501 6.10925 53.5145 6.19542 53.2241 6.37201C53.1145 6.43872 53.024 6.53306 52.9616 6.64573C52.8992 6.75841 52.8669 6.88554 52.8681 7.0146C52.8681 7.42623 53.3522 7.80137 54.3206 8.14002C54.5146 8.20823 54.6624 8.26207 54.7656 8.30156C55.5631 8.60311 56.1535 8.94295 56.5368 9.32108C56.7165 9.48555 56.8605 9.68576 56.9598 9.9091C57.0591 10.1324 57.1114 10.3741 57.1135 10.6188C57.1212 10.9635 57.0423 11.3045 56.8842 11.6101C56.7261 11.9158 56.4939 12.1762 56.2092 12.3671C55.6076 12.7997 54.7959 13.0168 53.7812 13.0168C53.1466 13.0315 52.515 12.9256 51.9193 12.7045C51.4514 12.5348 51.0484 12.2208 50.7676 11.8071" fill="#9E28B5"/>
<path d="M53.7722 13.3596C53.0981 13.374 52.4273 13.2607 51.7946 13.0258C51.2635 12.8331 50.8055 12.4779 50.4844 12.0098L50.3242 11.7675L51.9904 10.2113L52.1915 10.6224C52.3073 10.8521 52.495 11.0369 52.7255 11.1483C53.3112 11.457 54.1585 11.405 54.5572 11.1375C54.6378 11.0919 54.7046 11.0251 54.7504 10.9441C54.7962 10.8632 54.8192 10.7712 54.8171 10.678C54.8171 10.6439 54.7851 10.3424 53.6618 9.89362C53.361 9.77516 53.1278 9.68003 52.9498 9.60464C52.074 9.22591 51.4777 8.85975 51.1252 8.4846C50.7562 8.09977 50.5522 7.58395 50.5574 7.04866C50.5574 6.28582 50.9134 5.65759 51.6254 5.18014C52.293 4.73141 53.1634 4.50345 54.2083 4.50345C54.7544 4.49242 55.2978 4.58434 55.8104 4.77449C56.2786 4.96248 56.6972 5.25739 57.0333 5.63605L57.2789 5.90888L55.4989 7.30893L55.2995 6.98763C55.1991 6.82274 55.0531 6.69108 54.8794 6.6089C54.47 6.41325 53.7491 6.42941 53.3984 6.66275C53.3333 6.69671 53.2788 6.74828 53.2411 6.81168C53.2033 6.87508 53.1839 6.94781 53.1848 7.02174C53.1848 7.20123 53.507 7.50816 54.4113 7.82587L54.8634 7.98741C55.7018 8.30511 56.3373 8.67487 56.7538 9.08411C56.9655 9.28052 57.1348 9.51878 57.2512 9.78404C57.3675 10.0493 57.4285 10.3359 57.4302 10.626C57.4384 11.0252 57.3467 11.42 57.1638 11.7741C56.9809 12.1283 56.7126 12.4303 56.3836 12.6524C55.7392 13.1173 54.8563 13.3596 53.7722 13.3596ZM51.2267 11.8573C51.4553 12.0957 51.7339 12.2797 52.042 12.3958C52.596 12.5991 53.1828 12.6959 53.7722 12.6811C54.7121 12.6811 55.4615 12.4837 56.0026 12.0942C56.2434 11.9349 56.4399 11.7163 56.5735 11.4591C56.7072 11.2018 56.7735 10.9145 56.7663 10.6242C56.7639 10.4249 56.7204 10.2283 56.6386 10.0469C56.5568 9.86552 56.4384 9.70329 56.291 9.57053C55.9439 9.2277 55.3867 8.91 54.6373 8.6264C54.5359 8.58691 54.3899 8.53666 54.1994 8.46845C53.4785 8.21536 52.519 7.78997 52.519 7.01994C52.5193 6.83346 52.567 6.65017 52.6577 6.48766C52.7484 6.32516 52.8791 6.1889 53.037 6.09196C53.3827 5.87815 53.7835 5.77258 54.1887 5.78862C54.5307 5.78055 54.8701 5.84986 55.182 5.99145C55.3581 6.0736 55.518 6.18733 55.6537 6.3271L56.2732 5.83708C56.0612 5.65562 55.8205 5.51123 55.5612 5.40989C55.128 5.25091 54.6692 5.17482 54.2083 5.18552C53.2987 5.18552 52.5564 5.36502 51.9993 5.74734C51.4813 6.09555 51.2285 6.51916 51.2285 7.04686C51.2249 7.22638 51.2567 7.40483 51.3221 7.57184C51.3875 7.73885 51.4852 7.89109 51.6094 8.01972C51.8925 8.32306 52.43 8.64615 53.2115 8.9818C53.3806 9.0536 53.6102 9.14873 53.9039 9.2636C54.5857 9.53643 55.49 9.98158 55.49 10.6834C55.4919 10.8891 55.4412 11.0919 55.3426 11.2721C55.2441 11.4523 55.1011 11.6038 54.9275 11.7119C54.5339 11.9518 54.0784 12.068 53.6191 12.0457C53.1984 12.0511 52.7829 11.9525 52.4087 11.7586C52.1864 11.645 51.9876 11.4896 51.823 11.3008L51.2267 11.8573Z" fill="#9E28B5"/>
<path d="M58.7512 12.8087V5.02405H60.7645V8.54929L63.9045 5.02405H66.2328L62.8614 8.57083L66.3557 12.8087H63.9294L60.7645 8.73596V12.8087H58.7512Z" fill="#9E28B5"/>
<path d="M67.0782 13.1515H63.7655L61.1043 9.72674V13.1515H58.4128V4.68298H61.1043V7.65898L63.753 4.68298H67.0266L63.3169 8.58695L67.0782 13.1515ZM64.0966 12.4676H65.6346L62.4091 8.55465L65.4352 5.36685H64.0521L61.1274 8.65157L64.0966 12.4676ZM59.0911 12.4676H60.4261V5.36685H59.0911V12.4676Z" fill="#9E28B5"/>
<path d="M76.461 8.93511C76.4623 9.48449 76.3329 10.0262 76.0836 10.5147C75.8214 11.0249 75.4513 11.471 74.9996 11.8214C74.5047 12.2158 73.945 12.5196 73.3459 12.7188C72.7315 12.9242 72.0884 13.0284 71.4412 13.0276C70.8696 13.0279 70.3008 12.9463 69.7519 12.7852C69.2159 12.6308 68.7054 12.3974 68.2371 12.0924C67.6816 11.7391 67.2159 11.2596 66.8771 10.6923C66.5658 10.1633 66.4022 9.55924 66.4036 8.94409C66.4006 8.39551 66.5288 7.85429 66.7774 7.36635C67.0432 6.85482 67.4161 6.40772 67.8704 6.05605C68.363 5.66289 68.9212 5.36141 69.5187 5.16576C70.1396 4.9561 70.79 4.84942 71.4448 4.84986C72.0954 4.84918 72.7418 4.95589 73.3583 5.16576C73.9532 5.36103 74.5098 5.65926 75.0031 6.04707C75.4554 6.40034 75.8259 6.84869 76.089 7.36096C76.3368 7.84783 76.4645 8.38785 76.461 8.93511ZM71.4412 11.536C72.2132 11.5653 72.9677 11.2999 73.5541 10.7929C73.8221 10.5657 74.0364 10.281 74.1811 9.95953C74.3259 9.63809 74.3975 9.28808 74.3908 8.93511C74.3958 8.58137 74.3228 8.23092 74.1772 7.90905C74.0316 7.58717 73.817 7.30189 73.5488 7.07377C72.9675 6.56262 72.2157 6.2926 71.4448 6.31811C70.668 6.29101 69.9097 6.56021 69.3211 7.07198C69.0524 7.29995 68.8373 7.58546 68.6917 7.90775C68.546 8.23003 68.4734 8.58099 68.4792 8.93511C68.471 9.28837 68.5413 9.639 68.6848 9.96135C68.8283 10.2837 69.0415 10.5696 69.3087 10.7983C69.8629 11.2901 70.5749 11.536 71.4448 11.536" fill="#9E28B5"/>
<path d="M71.4447 13.3597C70.8424 13.3585 70.2432 13.2721 69.6646 13.103C69.098 12.9383 68.5583 12.691 68.0626 12.3689C67.4636 11.9857 66.9614 11.467 66.5958 10.854C66.2532 10.273 66.073 9.60931 66.0742 8.93338C66.0725 8.33122 66.2134 7.73735 66.4854 7.20127C66.7738 6.64589 67.1783 6.16025 67.671 5.77789C68.1938 5.36297 68.7857 5.04511 69.419 4.83914C70.735 4.39655 72.1579 4.39655 73.474 4.83914C74.1058 5.04638 74.6968 5.36348 75.2202 5.7761C75.7122 6.1623 76.1144 6.65242 76.3986 7.21204C76.6708 7.74677 76.8118 8.33952 76.8098 8.94056C76.8112 9.54346 76.6696 10.1379 76.3968 10.6745C76.1108 11.2283 75.7094 11.7132 75.2202 12.096C74.693 12.5106 74.0986 12.83 73.4633 13.0402C72.8116 13.2543 72.1301 13.3622 71.4447 13.3597ZM71.4447 5.19095C70.8264 5.19028 70.2121 5.29029 69.6255 5.48711C69.0677 5.66804 68.5463 5.94763 68.0857 6.31278C67.6695 6.63433 67.327 7.04271 67.0818 7.51C66.8593 7.95085 66.744 8.43874 66.7453 8.93338C66.7444 9.48791 66.892 10.0324 67.1725 10.5093C67.4838 11.0295 67.9103 11.47 68.4186 11.7963C68.8593 12.0821 69.3391 12.3016 69.8426 12.4479C70.9543 12.7704 72.1366 12.7479 73.2354 12.3832C73.7959 12.199 74.3201 11.9171 74.7841 11.5504C75.1972 11.2304 75.5357 10.823 75.7756 10.3568C76.0008 9.91668 76.118 9.42857 76.1174 8.93338C76.1203 8.43949 76.0042 7.95228 75.7792 7.51359C75.5364 7.04568 75.1964 6.63609 74.7823 6.31278C74.3254 5.95056 73.8091 5.67174 73.2568 5.48891C72.6731 5.29009 72.0609 5.18943 71.4447 5.19095ZM71.4447 11.8771C70.4959 11.8771 69.702 11.6006 69.0861 11.0532C68.7829 10.7927 68.5409 10.4676 68.3775 10.1013C68.214 9.73503 68.1332 9.33674 68.1409 8.93517C68.1354 8.53263 68.2182 8.13383 68.3835 7.76735C68.5487 7.40087 68.7923 7.07578 69.0968 6.81536C69.7478 6.24949 70.5856 5.95039 71.4447 5.97713C72.2984 5.95124 73.1302 6.25198 73.773 6.81895C74.0776 7.07864 74.3213 7.40304 74.4869 7.76891C74.6525 8.13478 74.7357 8.53305 74.7307 8.93517C74.738 9.33538 74.6576 9.73227 74.4951 10.0975C74.3326 10.4627 74.0921 10.7872 73.7908 11.0478C73.1393 11.6106 72.3021 11.9065 71.4447 11.8771ZM71.4447 6.65741C70.7513 6.62796 70.0726 6.86463 69.5454 7.31974C69.3118 7.51672 69.1252 7.76424 68.9994 8.0439C68.8737 8.32357 68.8121 8.6282 68.8191 8.93517C68.8096 9.24111 68.8686 9.54528 68.9919 9.82499C69.1152 10.1047 69.2995 10.3527 69.5311 10.5506C70.026 10.9886 70.6526 11.2022 71.4429 11.2022C72.1322 11.232 72.8071 10.9972 73.3316 10.5452C73.5617 10.3489 73.7451 10.1029 73.8684 9.82545C73.9916 9.54803 74.0515 9.24623 74.0436 8.94235C74.0488 8.63703 73.9861 8.33442 73.8601 8.05674C73.7341 7.77905 73.548 7.53336 73.3156 7.33769C72.8007 6.87888 72.1315 6.63556 71.4447 6.65741Z" fill="#9E28B5"/>
<path d="M81.4488 6.43842V12.8086H79.4284V6.43842H77.125V5.02222H83.7522V6.43842H81.4488Z" fill="#9E28B5"/>
<path d="M81.7889 13.1514H79.0921V6.78122H76.7869V4.68115H84.0851V6.78122H81.7817L81.7889 13.1514ZM79.7703 12.4676H81.1106V6.09735H83.4141V5.36502H77.4651V6.09735H79.7792L79.7703 12.4676Z" fill="#9E28B5"/>
<path d="M27.8457 22.2176V15.3269H29.9266C31.0362 15.3269 31.8562 15.4992 32.3867 15.8438C32.9171 16.1885 33.1823 16.7222 33.1823 17.4449C33.1922 17.7535 33.1238 18.0596 32.9836 18.3341C32.8435 18.6086 32.6362 18.8425 32.3813 19.0137C31.8473 19.3918 31.1086 19.5815 30.1651 19.5827H29.6667V22.2176H27.8457ZM29.6667 18.4483H29.9266C30.4197 18.4483 30.7792 18.3657 30.9946 18.1988C31.111 18.103 31.2025 17.98 31.2612 17.8405C31.3198 17.701 31.3438 17.5492 31.3311 17.3983C31.3415 17.2564 31.3162 17.1141 31.2573 16.9848C31.1985 16.8555 31.1081 16.7433 30.9946 16.6587C30.7721 16.5044 30.4126 16.4254 29.9266 16.4254H29.6667V18.4483Z" fill="#9E28B5"/>
<path d="M34.2859 22.2177V14.9231H35.8986V17.515C35.8986 17.6586 35.8986 17.8022 35.8826 17.944C35.8666 18.0858 35.8506 18.2258 35.8292 18.3604C36.1254 18.0671 36.4715 17.83 36.851 17.6604C37.2129 17.5111 37.601 17.4372 37.992 17.4432C38.3707 17.4316 38.7482 17.4926 39.1045 17.6227C39.3882 17.7306 39.6327 17.9227 39.8059 18.1737C39.892 18.3065 39.9524 18.4545 39.9839 18.6099C40.0275 18.8605 40.046 19.1148 40.0391 19.3691V22.2177H38.3907V19.9309C38.3907 19.3637 38.3088 18.9886 38.1486 18.8073C37.9884 18.626 37.709 18.5345 37.3156 18.5345C37.1008 18.5328 36.8877 18.5717 36.6872 18.6494C36.5062 18.7203 36.3436 18.8321 36.2119 18.976C36.113 19.0844 36.0383 19.213 35.993 19.353C35.9434 19.564 35.9219 19.7807 35.9289 19.9974V22.2177H34.2859Z" fill="#9E28B5"/>
<path d="M47.2875 22.2176H45.6854L45.7104 21.5535C45.5014 21.8346 45.2235 22.056 44.904 22.1961C44.5404 22.34 44.1517 22.4084 43.7612 22.3971C43.4284 22.4117 43.0961 22.3588 42.784 22.2417C42.4718 22.1245 42.1861 21.9454 41.9437 21.7151C41.7121 21.48 41.5312 21.1993 41.4124 20.8904C41.2935 20.5815 41.2393 20.2512 41.2531 19.9201C41.2531 19.1411 41.4791 18.5356 41.9313 18.1037C42.3834 17.6717 43.013 17.4539 43.8199 17.4503C44.2011 17.442 44.5791 17.5211 44.9254 17.6818C45.2467 17.8375 45.5231 18.0736 45.7282 18.3675V17.6065H47.2875V22.2176ZM45.7851 19.904C45.7937 19.7218 45.7636 19.5398 45.697 19.3702C45.6304 19.2006 45.5288 19.0473 45.3989 18.9204C45.1129 18.6694 44.7413 18.5407 44.3629 18.5614C43.9783 18.54 43.6004 18.6685 43.3073 18.9204C43.1771 19.0474 43.0754 19.201 43.009 19.371C42.9427 19.541 42.9133 19.7233 42.9228 19.9058C42.913 20.0859 42.9418 20.266 43.0073 20.4338C43.0727 20.6017 43.1732 20.7534 43.3019 20.8786C43.5949 21.1248 43.9697 21.2493 44.3504 21.2268C44.7345 21.2506 45.1132 21.1261 45.4095 20.8786C45.5376 20.7531 45.6375 20.6012 45.7023 20.4334C45.7671 20.2655 45.7953 20.0856 45.7851 19.9058" fill="#9E28B5"/>
<path d="M50.4275 18.7839C50.5593 18.3838 50.8074 18.033 51.1395 17.7769C51.4796 17.5462 51.8834 17.4299 52.293 17.4449C52.4658 17.4501 52.6381 17.4651 52.8092 17.4898L52.9125 17.5041L52.665 18.9401C52.5436 18.8996 52.4192 18.869 52.293 18.8485C52.1617 18.8281 52.0289 18.8179 51.896 18.818C51.3941 18.818 51.0345 18.9221 50.8138 19.1303C50.593 19.3385 50.4845 19.6885 50.4845 20.1768V22.2176H48.8379V17.6046H50.4613L50.4275 18.7839Z" fill="#9E28B5"/>
<path d="M55.2782 22.2177H53.6299V17.6047H55.2782V18.3227C55.5175 18.042 55.8121 17.8146 56.1433 17.655C56.4713 17.5097 56.8265 17.4375 57.1847 17.4432C57.5811 17.4276 57.9755 17.5082 58.3346 17.6783C58.6243 17.8313 58.8475 18.0871 58.9612 18.3963C59.2027 18.0975 59.5066 17.856 59.8512 17.6891C60.1943 17.5275 60.5691 17.4459 60.9477 17.4504C61.2962 17.4405 61.6431 17.5016 61.9677 17.6299C62.2337 17.7383 62.4604 17.9262 62.6174 18.1683C62.7022 18.3063 62.7625 18.4582 62.7955 18.6171C62.8352 18.8675 62.8519 19.121 62.8453 19.3745V22.2177H61.2005V19.931C61.2005 19.3709 61.1299 18.9982 60.9887 18.8127C60.8481 18.6332 60.6042 18.5345 60.2517 18.5345C59.8281 18.5345 59.5201 18.6637 59.3314 18.9204C59.1428 19.1771 59.0431 19.5971 59.0431 20.1769V22.2177H57.3947V19.931C57.3947 19.3925 57.3306 19.0227 57.1989 18.8307C57.1191 18.73 57.0156 18.6511 56.8977 18.6012C56.7798 18.5513 56.6514 18.5321 56.5243 18.5453C56.0864 18.5453 55.7695 18.6727 55.5755 18.9312C55.3815 19.1896 55.28 19.6061 55.28 20.1876L55.2782 22.2177Z" fill="#9E28B5"/>
<path d="M70.1063 22.2176H68.5042L68.5273 21.5535C68.3191 21.8353 68.041 22.0569 67.721 22.1961C67.3566 22.3419 66.9665 22.4116 66.5746 22.4007C66.2416 22.4155 65.9089 22.3627 65.5964 22.2456C65.284 22.1284 64.998 21.9492 64.7554 21.7186C64.5241 21.4833 64.3435 21.2025 64.2246 20.8937C64.1058 20.5849 64.0514 20.2547 64.0647 19.9237C64.0647 19.1447 64.2914 18.5392 64.7447 18.1072C65.198 17.6752 65.827 17.4574 66.6316 17.4538C67.0133 17.4455 67.3919 17.5247 67.7388 17.6854C68.0596 17.8411 68.3354 18.0772 68.5398 18.3711V17.61H70.1009L70.1063 22.2176ZM68.6021 19.9039C68.6109 19.722 68.5813 19.5403 68.5153 19.3707C68.4494 19.2012 68.3485 19.0477 68.2194 18.9203C67.9321 18.6693 67.5594 18.5406 67.1798 18.5613C66.7954 18.5402 66.4175 18.6687 66.1243 18.9203C65.9947 19.0477 65.8935 19.2015 65.8275 19.3714C65.7615 19.5413 65.7322 19.7235 65.7415 19.9057C65.7318 20.0858 65.7606 20.2659 65.826 20.4338C65.8915 20.6017 65.992 20.7534 66.1207 20.8786C66.4135 21.1249 66.7885 21.2494 67.1692 21.2268C67.5532 21.2502 67.9318 21.1258 68.2283 20.8786C68.3561 20.7529 68.4556 20.601 68.5201 20.4331C68.5846 20.2653 68.6126 20.0854 68.6021 19.9057" fill="#9E28B5"/>
<path d="M5.34375 20.1445V13.4836H6.53462C6.98801 13.4733 7.4415 13.4985 7.89103 13.5589C8.14961 13.6002 8.39976 13.6839 8.63154 13.8066C8.86996 13.9481 9.06708 14.1506 9.20293 14.3936C9.3407 14.6457 9.41066 14.9297 9.40587 15.2175C9.42311 15.5661 9.3028 15.9075 9.07121 16.167C8.7973 16.4301 8.4464 16.5969 8.07081 16.6426C8.50449 16.6839 8.91281 16.8674 9.2332 17.165C9.3668 17.3089 9.47043 17.4783 9.538 17.6633C9.60557 17.8483 9.63569 18.045 9.62659 18.2419C9.63037 18.5559 9.55243 18.8653 9.40053 19.1394C9.25618 19.4045 9.04094 19.6234 8.77929 19.7712C8.52182 19.9124 8.24259 20.0089 7.95333 20.0566C7.43305 20.1268 6.90808 20.1556 6.38331 20.1428H5.34375V20.1445ZM6.70551 16.1454H7.0099C7.4211 16.1454 7.71302 16.0844 7.88213 15.9659C7.97247 15.8942 8.04346 15.8007 8.08857 15.6941C8.13367 15.5874 8.15144 15.4711 8.14024 15.3557C8.1511 15.2436 8.13436 15.1306 8.09151 15.0267C8.04866 14.9227 7.98102 14.831 7.89459 14.7598C7.73082 14.6401 7.44423 14.5803 7.03481 14.5803H6.70551V16.1454ZM6.70551 19.0335H7.23953C7.51887 19.0536 7.79595 18.9706 8.0192 18.8001C8.11032 18.7127 8.18117 18.6061 8.22671 18.4879C8.27225 18.3697 8.29135 18.2428 8.28264 18.1163C8.29037 17.9956 8.27083 17.8748 8.22551 17.7628C8.18018 17.6509 8.11025 17.5508 8.02098 17.4701C7.8012 17.3071 7.53135 17.2276 7.2591 17.2457H6.70551V19.0335Z" fill="white"/>
<path d="M10.6626 20.1445V13.4835H12.2273C13.058 13.4835 13.6745 13.6505 14.0768 13.9843C14.4737 14.3182 14.6749 14.8351 14.6749 15.5315C14.6897 15.8138 14.6435 16.0958 14.5396 16.3583C14.4358 16.6208 14.2766 16.8574 14.0732 17.0518C13.6733 17.418 13.1173 17.6011 12.4053 17.6011H12.0315V20.1445H10.6626ZM12.0315 16.4918H12.2273C12.518 16.5176 12.8075 16.431 13.0372 16.2495C13.1286 16.1447 13.1978 16.0222 13.2407 15.8895C13.2835 15.7568 13.2991 15.6167 13.2864 15.4777C13.2987 15.347 13.2828 15.2151 13.2398 15.0912C13.1968 14.9673 13.1277 14.8542 13.0372 14.7597C12.8028 14.5889 12.5154 14.5087 12.2273 14.5336H12.0315V16.4918Z" fill="white"/>
<path d="M15.5061 20.1445V13.094H16.7183V15.6069C16.7183 15.7451 16.7183 15.8851 16.7076 16.0233C16.697 16.1615 16.6845 16.2944 16.6667 16.4254C16.8775 16.1522 17.1378 15.922 17.4339 15.7469C17.6988 15.6063 17.9944 15.5347 18.2937 15.5387C18.5828 15.5301 18.8697 15.5917 19.1303 15.7182C19.3593 15.8376 19.5459 16.0258 19.6643 16.2567C19.7303 16.3889 19.7759 16.5306 19.7996 16.6767C19.8338 16.9198 19.8481 17.1653 19.8423 17.4108V20.1588H18.5963V17.9385C18.5963 17.3893 18.534 17.0267 18.4183 16.8508C18.3439 16.7577 18.2476 16.6848 18.1382 16.6387C18.0288 16.5926 17.9097 16.5748 17.7917 16.5869C17.6277 16.5853 17.4658 16.6242 17.32 16.7C17.1774 16.7735 17.0551 16.8814 16.964 17.0141C16.8881 17.1227 16.8326 17.2444 16.8002 17.3731C16.7605 17.5782 16.7438 17.7871 16.7504 17.9959V20.1391L15.5061 20.1445Z" fill="white"/>
<path d="M12.3235 46.3253L13.2794 46.2302C13.3108 46.5042 13.4369 46.7583 13.6354 46.9481C13.8375 47.1085 14.0907 47.1889 14.3474 47.1743C14.6007 47.193 14.8526 47.1219 15.0594 46.9733C15.1321 46.9184 15.1913 46.8475 15.2327 46.766C15.274 46.6845 15.2963 46.5945 15.298 46.503C15.3004 46.3955 15.2651 46.2906 15.1983 46.2068C15.0991 46.1073 14.9767 46.0345 14.8423 45.995C14.7301 45.9555 14.4667 45.8837 14.0626 45.7814C13.5375 45.6504 13.1726 45.4871 12.9608 45.2968C12.8193 45.1749 12.7061 45.0231 12.6292 44.8522C12.5523 44.6813 12.5136 44.4954 12.5157 44.3078C12.515 44.058 12.5881 43.8137 12.7258 43.606C12.8724 43.3825 13.0828 43.2092 13.3292 43.1088C13.6316 42.9888 13.9549 42.9314 14.2798 42.9401C14.8886 42.9401 15.346 43.0753 15.6522 43.3457C15.8047 43.4824 15.9267 43.6502 16.0098 43.8381C16.093 44.0259 16.1355 44.2295 16.1346 44.4352L15.1538 44.4693C15.133 44.2626 15.0373 44.0708 14.885 43.9309C14.7043 43.8066 14.4872 43.7477 14.2691 43.7639C14.0346 43.752 13.8023 43.8148 13.6051 43.9434C13.5564 43.9771 13.5167 44.0224 13.4897 44.0754C13.4626 44.1283 13.4491 44.1872 13.4503 44.2468C13.4505 44.3046 13.4638 44.3616 13.4891 44.4136C13.5144 44.4655 13.551 44.5109 13.5962 44.5465C13.7191 44.6524 14.0181 44.7601 14.4863 44.875C14.8506 44.9515 15.2044 45.072 15.5401 45.234C15.7599 45.3464 15.9447 45.5178 16.0741 45.7294C16.2104 45.966 16.2777 46.2367 16.2681 46.5102C16.2688 46.79 16.1883 47.0638 16.0367 47.2982C15.8783 47.5411 15.6496 47.7291 15.3816 47.8366C15.0448 47.9654 14.6862 48.0264 14.3261 48.0161C13.7113 48.0161 13.2402 47.8743 12.9127 47.5907C12.5631 47.2641 12.352 46.814 12.3235 46.3343" fill="#9E28B5"/>
<path d="M20.1984 46.1081L21.1472 46.4007C21.0443 46.8712 20.788 47.2934 20.4191 47.5997C20.046 47.8739 19.5917 48.0124 19.1303 47.9928C18.8336 48.0023 18.5383 47.9478 18.2642 47.833C17.9901 47.7181 17.7434 47.5456 17.5407 47.3268C17.1254 46.8841 16.9177 46.2768 16.9177 45.505C16.9177 44.6901 17.1272 44.0571 17.5461 43.606C17.7558 43.381 18.0111 43.2042 18.2946 43.0874C18.5781 42.9707 18.8831 42.9167 19.1891 42.9293C19.4539 42.9185 19.7181 42.9606 19.9668 43.053C20.2154 43.1454 20.4435 43.2863 20.6381 43.4677C20.88 43.7169 21.0515 44.0267 21.1347 44.3652L20.1646 44.5968C20.1193 44.361 19.9933 44.1488 19.8086 43.9972C19.6196 43.8478 19.3847 43.7697 19.1446 43.7765C18.9788 43.771 18.814 43.8034 18.6623 43.8711C18.5107 43.9389 18.3762 44.0403 18.2688 44.1678C18.0445 44.428 17.9324 44.848 17.9324 45.4242C17.9324 46.0435 18.0427 46.4814 18.2617 46.7453C18.3666 46.8725 18.4989 46.974 18.6484 47.0421C18.798 47.1102 18.961 47.1431 19.125 47.1384C19.3727 47.1422 19.6131 47.0533 19.7997 46.8889C20.0119 46.6749 20.1526 46.3994 20.202 46.1009" fill="#9E28B5"/>
<path d="M22.9416 43.0173H21.959V47.9103H22.9416V43.0173Z" fill="#9E28B5"/>
<path d="M23.8726 47.9103V43.0173H27.4647V43.8448H24.8534V44.9307H27.2796V45.7582H24.8534V47.0828H27.5591V47.9103H23.8726Z" fill="#9E28B5"/>
<path d="M28.385 47.9103V43.0173H29.3373L31.3328 46.2967V43.0173H32.2424V47.9103H31.2598L29.2928 44.6938V47.9103H28.385Z" fill="#9E28B5"/>
<path d="M36.3881 46.1082L37.3369 46.4008C37.2345 46.8711 36.9788 47.2932 36.6106 47.5998C36.2368 47.874 35.7819 48.0125 35.32 47.9929C35.0233 48.0024 34.728 47.9479 34.4539 47.8331C34.1798 47.7182 33.9331 47.5457 33.7304 47.3269C33.3163 46.8842 33.1086 46.2769 33.1074 45.5051C33.1074 44.6902 33.3163 44.0572 33.734 43.6061C33.9445 43.3811 34.2004 43.2043 34.4845 43.0876C34.7685 42.9708 35.0741 42.9169 35.3806 42.9294C35.9147 42.9084 36.4352 43.1021 36.8278 43.4679C37.069 43.7176 37.2403 44.0272 37.3244 44.3653L36.3543 44.5969C36.309 44.3611 36.183 44.1489 35.9982 43.9974C35.8094 43.8476 35.5744 43.7695 35.3343 43.7766C35.1685 43.7713 35.0037 43.8037 34.8521 43.8714C34.7005 43.9392 34.5659 44.0405 34.4585 44.1679C34.2342 44.4281 34.1221 44.8482 34.1221 45.4243C34.1221 46.0436 34.2306 46.4815 34.4514 46.7454C34.5563 46.8726 34.6886 46.9741 34.8381 47.0422C34.9877 47.1103 35.1507 47.1432 35.3147 47.1385C35.562 47.1429 35.802 47.0539 35.9876 46.889C36.2004 46.6752 36.3416 46.3997 36.3916 46.101" fill="#9E28B5"/>
<path d="M38.1824 47.9103V43.0173H41.7745V43.8448H39.1632V44.9307H41.5912V45.7582H39.1632V47.0828H41.8689V47.9103H38.1824Z" fill="#9E28B5"/>
<path d="M43.6099 46.9751H42.6807V47.9103H43.6099V46.9751Z" fill="#9E28B5"/>
<path d="M46.4812 47.9103V43.0586H47.462V47.0828H49.8972V47.9103H46.4812Z" fill="#9E28B5"/>
<path d="M51.5436 43.0173H50.5627V47.9103H51.5436V43.0173Z" fill="#9E28B5"/>
<path d="M52.4763 47.9103V43.0173H55.8122V43.8448H53.4589V45.0061H55.4935V45.8336H53.4589V47.9103H52.4763Z" fill="#9E28B5"/>
<path d="M56.6204 47.9103V43.0173H60.2125V43.8448H57.6012V44.9307H60.0292V45.7582H57.6012V47.0828H60.3069V47.9103H56.6204Z" fill="#9E28B5"/>
<path d="M62.0496 46.9751H61.1204V47.9103H62.0496V46.9751Z" fill="#9E28B5"/>
<path d="M64.8923 47.9103V43.0173H65.8749V44.9433H67.7867V43.0173H68.7693V47.9103H67.7867V45.7725H65.8749V47.9103H64.8923Z" fill="#9E28B5"/>
<path d="M69.5882 45.4943C69.5747 45.0644 69.6505 44.6364 69.8107 44.2378C69.9208 43.9883 70.0739 43.7604 70.2628 43.5647C70.4388 43.3754 70.6515 43.2245 70.8876 43.1214C71.2212 42.9883 71.5775 42.923 71.9361 42.9293C72.2531 42.9146 72.5697 42.9668 72.8656 43.0828C73.1614 43.1987 73.4299 43.3757 73.6539 43.6024C74.0823 44.0499 74.2971 44.6728 74.2983 45.4709C74.2994 46.2691 74.0864 46.8889 73.6592 47.3305C73.4365 47.5562 73.1694 47.7324 72.8751 47.8477C72.5808 47.9631 72.2658 48.0149 71.9504 48C71.6329 48.0156 71.3157 47.9643 71.019 47.8493C70.7223 47.7344 70.4526 47.5583 70.2272 47.3323C69.8 46.8883 69.587 46.2757 69.5882 45.4943ZM70.5975 45.462C70.5975 46.0184 70.7257 46.4366 70.9802 46.7184C71.1004 46.8575 71.2494 46.9682 71.4168 47.0426C71.5841 47.1171 71.7657 47.1535 71.9486 47.1492C72.1303 47.1543 72.3109 47.1188 72.4773 47.0453C72.6438 46.9717 72.7921 46.862 72.9116 46.7238C73.1626 46.4384 73.289 46.0148 73.289 45.444C73.289 44.8732 73.1679 44.464 72.9223 44.1876C72.8 44.0507 72.6494 43.9426 72.4812 43.871C72.3129 43.7993 72.1311 43.7659 71.9486 43.7729C71.7648 43.7657 71.5816 43.7997 71.4124 43.8723C71.2431 43.9449 71.0919 44.0544 70.9695 44.1929C70.7215 44.4706 70.5975 44.8924 70.5975 45.4584" fill="#9E28B5"/>
<path d="M75.0601 47.9102V43.019H76.639C77.0285 43.0025 77.4187 43.0271 77.8031 43.0926C78.0833 43.1661 78.3297 43.3347 78.5009 43.5701C78.6982 43.8469 78.7973 44.1826 78.7822 44.5232C78.7909 44.7858 78.7352 45.0466 78.6202 45.2824C78.5242 45.4748 78.383 45.6405 78.209 45.7653C78.057 45.8753 77.8854 45.9545 77.7035 45.9986C77.3673 46.0514 77.0272 46.0742 76.687 46.0668H76.0516V47.9102H75.0601ZM76.0427 43.8447V45.2394H76.5767C76.836 45.2546 77.0961 45.2286 77.3474 45.1622C77.4721 45.1156 77.5791 45.0308 77.6536 44.9199C77.7282 44.8074 77.7667 44.6746 77.764 44.5393C77.77 44.3776 77.7146 44.2197 77.6091 44.0978C77.5065 43.9818 77.3677 43.9046 77.2157 43.8788C76.9837 43.8499 76.7499 43.8385 76.5162 43.8447H76.0427Z" fill="#9E28B5"/>
<path d="M79.5725 47.9103V43.0173H83.1647V43.8448H80.5533V44.9307H82.9813V45.7582H80.5533V47.0828H83.259V47.9103H79.5725Z" fill="#9E28B5"/>
<path d="M85.0017 46.9751H84.0725V47.9103H85.0017V46.9751Z" fill="#9E28B5"/>
</g>
<defs>
<clipPath id="clip0_206_9114">
<rect width="85" height="48" fill="white"/>
</clipPath>
</defs>
</svg>
