<?xml version="1.0" encoding="UTF-8" standalone="no"?>
<!-- Created with Inkscape (http://www.inkscape.org/) -->

<svg
   xmlns:dc="http://purl.org/dc/elements/1.1/"
   xmlns:cc="http://creativecommons.org/ns#"
   xmlns:rdf="http://www.w3.org/1999/02/22-rdf-syntax-ns#"
   xmlns:svg="http://www.w3.org/2000/svg"
   xmlns="http://www.w3.org/2000/svg"
   xmlns:xlink="http://www.w3.org/1999/xlink"
   xmlns:sodipodi="http://sodipodi.sourceforge.net/DTD/sodipodi-0.dtd"
   xmlns:inkscape="http://www.inkscape.org/namespaces/inkscape"
   width="300"
   height="150"
   id="svg14264"
   version="1.1"
   inkscape:version="0.48.5 r10040"
   sodipodi:docname="floor.svg"
   inkscape:export-filename="/home/vg/Project/litoral/noninheritance/assets/floor.png"
   inkscape:export-xdpi="90.055107"
   inkscape:export-ydpi="90.055107">
  <defs
     id="defs14266">
    <linearGradient
       inkscape:collect="always"
       xlink:href="#linearGradient14153"
       id="linearGradient14161"
       x1="683.27295"
       y1="1041.5829"
       x2="683.27295"
       y2="1302.9337"
       gradientUnits="userSpaceOnUse" />
    <linearGradient
       id="linearGradient14153">
      <stop
         style="stop-color:#afa953;stop-opacity:1;"
         offset="0"
         id="stop14155" />
      <stop
         style="stop-color:#bdd24e;stop-opacity:1;"
         offset="1"
         id="stop14157" />
    </linearGradient>
    <linearGradient
       inkscape:collect="always"
       xlink:href="#linearGradient14153"
       id="linearGradient14369"
       gradientUnits="userSpaceOnUse"
       gradientTransform="matrix(0.76898824,0,0,1.3135512,89.45124,-689.21362)"
       x1="683.27295"
       y1="1041.5829"
       x2="683.27295"
       y2="1302.9337" />
    <linearGradient
       gradientUnits="userSpaceOnUse"
       y2="1302.9337"
       x2="683.27295"
       y1="1041.5829"
       x1="683.27295"
       id="linearGradient14161-6"
       xlink:href="#linearGradient14153-7"
       inkscape:collect="always" />
    <linearGradient
       id="linearGradient14153-7">
      <stop
         id="stop14155-1"
         offset="0"
         style="stop-color:#afa953;stop-opacity:1;" />
      <stop
         id="stop14157-6"
         offset="1"
         style="stop-color:#bdd24e;stop-opacity:1;" />
    </linearGradient>
  </defs>
  <sodipodi:namedview
     id="base"
     pagecolor="#ffffff"
     bordercolor="#666666"
     borderopacity="1.0"
     inkscape:pageopacity="0.0"
     inkscape:pageshadow="2"
     inkscape:zoom="1"
     inkscape:cx="165.4361"
     inkscape:cy="134.4609"
     inkscape:document-units="px"
     inkscape:current-layer="g14341"
     showgrid="false"
     borderlayer="true"
     inkscape:window-width="1366"
     inkscape:window-height="715"
     inkscape:window-x="0"
     inkscape:window-y="0"
     inkscape:window-maximized="1" />
  <metadata
     id="metadata14269">
    <rdf:RDF>
      <cc:Work
         rdf:about="">
        <dc:format>image/svg+xml</dc:format>
        <dc:type
           rdf:resource="http://purl.org/dc/dcmitype/StillImage" />
        <dc:title></dc:title>
      </cc:Work>
    </rdf:RDF>
  </metadata>
  <g
     inkscape:label="Layer 1"
     inkscape:groupmode="layer"
     id="layer1"
     transform="translate(0,-902.36215)">
    <g
       id="g14341"
       transform="matrix(0.3985418,0,0,0.3985418,-24.16847,642.27049)">
      <path
         style="fill:url(#linearGradient14369);fill-opacity:1;stroke:none"
         d="m 206.74508,670.17226 c -71.26187,-9.7e-4 -140.669869,0.40654 -143.171703,1.2078 -9.506748,3.04508 -48.392469,5.83113 -56.12856,10.78676 -7.18418751,4.60228 -4.3502809,13.64725 1.3593568,21.33483 -1.0471621,3.87208 -1.539061,7.65565 -1.2278129,10.84283 -11.0145727,13.20934 0.4124772,30.39112 14.8653031,45.66116 -0.576433,3.51716 -0.215915,6.47803 1.841719,8.45532 4.471936,4.29702 8.714122,9.33171 12.321976,14.60708 -4.35944,4.81628 -8.769342,9.52167 -12.321976,14.07326 -4.565375,5.8491 -6.537283,11.7074 -6.796817,17.57057 -1.899125,4.578 -1.635931,9.55399 -5.086658,13.97514 -5.242861,6.7171 -4.5822544,13.44565 -0.920855,20.18298 -3.6580922,6.73508 -4.3202221,13.46823 0.920855,20.18309 3.450727,4.42104 3.187533,9.38311 5.086658,13.96096 0.258434,5.86514 2.229905,11.73355 6.796817,17.58463 3.549428,4.54752 7.96635,9.24755 12.321976,14.05934 -3.608292,5.2764 -7.849171,10.3232 -12.321976,14.62114 -2.054891,1.97452 -2.414884,4.93029 -1.841719,8.44113 -14.4541027,15.27084 -25.8805525,32.46524 -14.8653031,45.67511 -0.3112633,3.18748 0.1806427,6.97101 1.2278129,10.84318 -5.7086306,7.68723 -8.54292145,16.73273 -1.3593568,21.33463 7.736091,4.9558 46.621812,7.7419 56.12856,10.7869 5.003645,1.6028 277.616893,1.5905 297.481343,0 10.83439,-0.8676 21.10847,-2.1331 31.35308,-3.4693 15.52363,1.1173 31.04469,2.3104 46.56918,3.5535 8.86959,0.7101 19.66349,1.0504 31.83539,1.1095 26.1115,0.126 58.57824,-1.0221 91.99828,-2.4439 48.98301,2.0836 95.90111,3.5676 123.7898,1.3344 15.52445,-1.2431 31.04551,-2.4362 46.5691,-3.5535 10.24466,1.3362 20.5188,2.6017 31.35312,3.4693 19.86438,1.5905 33.92411,1.6028 38.92769,0 9.50676,-3.045 48.39242,-5.8311 56.1286,-10.7869 7.18357,-4.6017 4.34931,-13.6474 -1.35935,-21.33463 1.04721,-3.87217 1.53898,-7.6557 1.22785,-10.84318 11.01521,-13.20987 -0.41156,-30.40427 -14.86524,-45.67511 0.57305,-3.51084 0.21324,-6.46661 -1.8418,-8.44113 -4.47274,-4.29794 -8.71363,-9.34474 -12.32203,-14.62114 4.35562,-4.81179 8.77261,-9.51182 12.32203,-14.05934 4.58163,-5.86986 6.54731,-11.7568 6.79685,-17.64085 1.87433,-4.56262 1.64979,-9.50145 5.08664,-13.90474 5.24057,-6.71421 4.58208,-13.44839 0.92086,-20.18309 3.66445,-6.73695 4.3214,-13.46667 -0.92086,-20.18298 -3.43685,-4.40329 -3.21231,-9.3563 -5.08664,-13.91892 -0.25261,-5.87933 -2.21891,-11.76154 -6.79685,-17.62679 -3.55265,-4.55159 -7.96249,-9.25698 -12.32203,-14.07326 3.60785,-5.27537 7.84997,-10.31006 12.32203,-14.60708 2.05766,-1.97729 2.41808,-4.93816 1.8418,-8.45532 14.45275,-15.27004 25.87976,-32.45182 14.86524,-45.66116 0.31067,-3.18718 -0.18087,-6.97075 -1.22785,-10.84283 5.70966,-7.68758 8.54354,-16.73268 1.35935,-21.33483 -7.73618,-4.95563 -46.62184,-7.74168 -56.1286,-10.78676 -5.00358,-1.60265 -19.06331,-1.59058 -38.92769,0 -10.83432,0.8676 -21.10846,2.13294 -31.35312,3.46923 -15.52359,-1.11745 -31.04465,-2.31039 -46.5691,-3.55343 -27.88869,-2.23316 -74.80679,-0.74923 -123.7898,1.33432 -33.42004,-1.4218 -65.88678,-2.57075 -91.99828,-2.44388 -12.1719,0.0591 -22.9658,0.39933 -31.83539,1.10956 -15.52449,1.24304 -31.04555,2.43598 -46.56918,3.55343 -10.24461,-1.33629 -20.51869,-2.60163 -31.35308,-3.46923 -9.9322,-0.79522 -83.04784,-1.20636 -154.30964,-1.2078 z"
         id="path4248"
         inkscape:connector-curvature="0"
         sodipodi:nodetypes="scccccccscscscscscccssscsscscssscccccscscscscccccssscscsscss" />
      <path
         style="fill:#bdd24e;fill-opacity:1;stroke:none"
         d="m 570.65732,825.86261 0.22926,13.61229 2.14922,1.31831 -2.37848,-14.9306 z m 0.22926,13.61229 -17.85287,-10.84375 3.06622,15.29332 -16.39139,2.24118 17.05049,7.25119 -2.4931,0.9888 47.62675,0 -23.18294,-8.89912 14.75799,-15.42514 -22.40921,19.54505 -0.17194,-10.15153 z"
         id="path14182"
         inkscape:connector-curvature="0" />
      <path
         style="fill:#bdd24e;fill-opacity:1;stroke:none"
         d="m 530.40166,652.29146 -4.47539,53.62007 10.30394,-20.38596 z m -4.47539,53.62007 -13.14823,-47.68991 3.06623,32.75612 -16.3914,4.80057 17.0505,15.531 -2.49311,2.11786 47.62676,0 -23.18294,-19.06065 14.75799,-33.03873 -22.40923,41.86302 z"
         id="path14184"
         inkscape:connector-curvature="0"
         sodipodi:nodetypes="ccccccccccccccc" />
      <path
         style="fill:#bdd24e;fill-opacity:1;stroke:none"
         d="m 160.44901,791.44539 -7.10676,20.92924 -6.1611,-18.95166 2.20654,15.12841 -10.54552,0.32953 7.7372,7.02052 24.41515,0 15.61768,-19.05066 -22.58116,17.60042 -3.58203,-23.0058 z"
         id="path14186"
         inkscape:connector-curvature="0" />
      <path
         inkscape:connector-curvature="0"
         style="fill:#bdd24e;fill-opacity:1;stroke:none"
         d="m 381.70419,798.26794 -10.25894,17.30385 -10.48821,-15.42512 3.26682,9.29466 -12.3222,2.14234 17.07914,5.93262 -8.31032,2.60391 41.06445,0 6.18976,-3.16407 -24.73036,1.64793 16.42004,-9.85497 -16.93586,2.07658 -0.97432,-12.55773 z"
         id="path14188" />
      <path
         inkscape:connector-curvature="0"
         style="fill:#bdd24e;fill-opacity:1;stroke:none"
         d="m 260.11654,841.06207 -10.25895,15.95693 -10.4882,-14.22446 3.26681,8.57112 -12.3222,1.97557 17.07915,5.47102 -8.31032,2.40121 41.06445,0 6.18976,-2.91788 -24.73037,1.51965 16.42005,-9.08778 -16.93587,1.91477 -0.97431,-11.58015 z"
         id="path14190" />
      <path
         style="fill:#bdd24e;fill-opacity:1;stroke:none"
         d="m 231.9751,656.42781 -7.10676,19.30021 -6.1611,-17.47658 2.20653,13.95085 -10.54551,0.30399 7.7372,6.474 24.41516,0 15.61767,-17.56787 -22.58115,16.23052 -3.58204,-21.21512 z"
         id="path14192"
         inkscape:connector-curvature="0" />
      <path
         style="fill:#bdd24e;fill-opacity:1;stroke:none"
         d="m 468.04559,751.49843 0.22924,13.61218 2.14923,1.31842 -2.37847,-14.9306 z m 0.22924,13.61218 -17.85286,-10.84363 3.06622,15.29333 -16.3914,2.24118 17.05049,7.25106 -2.49309,0.98878 47.62674,0 -23.18293,-8.89899 14.75799,-15.42512 -22.40922,19.54503 -0.17194,-10.15164 z"
         id="path14194"
         inkscape:connector-curvature="0" />
      <path
         style="fill:#bdd24e;fill-opacity:1;stroke:none"
         d="m 368.86618,885.32104 -10.25895,22.15572 -10.4882,-19.75017 3.26681,11.90074 -12.3222,2.74302 17.07914,7.59621 -8.31031,3.33398 41.06445,0 6.18976,-4.05132 -24.73037,2.11007 16.42005,-12.61824 -16.93587,2.65873 -0.97431,-16.07874 z"
         id="path14196"
         inkscape:connector-curvature="0" />
      <path
         style="fill:#bdd24e;fill-opacity:1;stroke:none"
         d="m 148.92919,884.8569 0.22924,17.42904 2.14923,1.68805 -2.37847,-19.11709 z m 0.22924,17.42904 -17.85286,-13.88414 3.06622,19.58138 -16.3914,2.86969 17.0505,9.28427 -2.4931,1.26602 47.62675,0 -23.18294,-11.39432 14.75799,-19.75018 -22.40922,25.02527 -0.17194,-12.99799 z"
         id="path14198"
         inkscape:connector-curvature="0" />
      <path
         style="fill:#bdd24e;fill-opacity:1;stroke:none"
         d="m 487.30261,936.17361 0.22925,17.42903 2.14922,1.68806 -2.37847,-19.11709 z m 0.22925,17.42903 -17.85287,-13.88412 3.06622,19.58136 -16.39139,2.86973 17.05049,9.28427 -2.49309,1.26603 47.62674,0 -23.18294,-11.39433 14.75799,-19.75022 -22.40921,25.02531 -0.17194,-12.99803 z"
         id="path14200"
         inkscape:connector-curvature="0" />
      <path
         style="fill:#bdd24e;fill-opacity:1;stroke:none"
         d="m 567.59752,877.9359 -7.10676,26.79772 -6.1611,-24.26565 2.20653,19.37031 -10.5455,0.422 7.73719,8.98894 24.41515,0 15.61768,-24.39232 -22.58116,22.53546 -3.58203,-29.45646 z"
         id="path14202"
         inkscape:connector-curvature="0" />
      <path
         style="fill:#bdd24e;fill-opacity:1;stroke:none"
         d="m 619.51004,744.26599 -10.25895,17.30371 -10.4882,-15.42499 3.26681,9.29455 -12.3222,2.14234 17.07914,5.93273 -8.31032,2.60379 41.06446,0 6.18975,-3.16409 -24.73036,1.64796 16.42005,-9.85497 -16.93587,2.07657 -0.97431,-12.5576 z"
         id="path14204"
         inkscape:connector-curvature="0" />
      <path
         style="fill:#bdd24e;fill-opacity:1;stroke:none"
         d="m 700.04688,689.10813 0.22924,12.55274 2.14923,1.21567 -2.37847,-13.76841 z m 0.22924,12.55274 -17.85286,-9.99959 3.06622,14.10277 -16.3914,2.06685 17.05049,6.6867 -2.49309,0.91181 47.62674,0 -23.18293,-8.20634 14.75799,-14.22446 -22.40922,18.02365 -0.17194,-9.36139 z"
         id="path14206"
         inkscape:connector-curvature="0" />
      <path
         style="fill:#bdd24e;fill-opacity:1;stroke:none"
         d="m 473.1464,823.91831 -7.10676,26.79774 -6.1611,-24.26565 2.20653,19.3703 -10.54551,0.42201 7.7372,8.98892 24.41516,0 15.61767,-24.39231 -22.58115,22.53545 -3.58204,-29.45646 z"
         id="path14208"
         inkscape:connector-curvature="0" />
      <path
         style="fill:#bdd24e;fill-opacity:1;stroke:none"
         d="m 658.62028,806.41063 0.22925,13.6123 2.14922,1.3183 -2.37847,-14.9306 z m 0.22925,13.6123 -17.85286,-10.84362 3.06622,15.29317 -16.39139,2.2412 17.05048,7.25117 -2.49309,0.98881 47.62674,0 -23.18293,-8.89912 14.75798,-15.42513 -22.40921,19.54504 -0.17194,-10.15152 z"
         id="path14210"
         inkscape:connector-curvature="0" />
      <path
         inkscape:connector-curvature="0"
         id="path14212"
         d="m 247.04831,888.90823 0.22925,17.42904 2.14922,1.68805 -2.37847,-19.11709 z m 0.22925,17.42904 -17.85287,-13.88414 3.06622,19.58137 -16.39139,2.86968 17.05049,9.28429 -2.4931,1.26602 47.62675,0 -23.18294,-11.39434 14.75799,-19.75017 -22.40921,25.02526 -0.17194,-12.99797 z"
         style="fill:#bdd24e;fill-opacity:1;stroke:none" />
      <path
         style="fill:#bdd24e;fill-opacity:1;stroke:none"
         d="m 667.03483,921.31878 0.22925,17.42903 2.14922,1.68806 -2.37847,-19.11709 z m 0.22925,17.42903 -17.85287,-13.88412 3.06623,19.58136 -16.39139,2.86967 17.05048,9.28429 -2.49309,1.26604 47.62674,0 -23.18294,-11.39434 14.75799,-19.75018 -22.40921,25.02526 -0.17194,-12.99798 z"
         id="path14214"
         inkscape:connector-curvature="0" />
      <path
         style="fill:#bdd24e;fill-opacity:1;stroke:none"
         d="m 281.75107,784.6065 -10.25895,17.30384 -10.4882,-15.42511 3.26681,9.29452 -12.3222,2.14233 17.07914,5.93275 -8.31031,2.60392 41.06446,0 6.18976,-3.16421 -24.73038,1.64807 16.42005,-9.85496 -16.93587,2.07644 -0.97431,-12.55759 z"
         id="path14218"
         inkscape:connector-curvature="0" />
      <path
         id="path14220"
         d="m 381.98621,704.59285 -10.25895,15.95691 -10.4882,-14.22444 3.26681,8.5711 -12.3222,1.97556 17.07915,5.47104 -8.31032,2.40122 41.06445,0 6.18976,-2.91791 -24.73037,1.51965 16.42005,-9.08777 -16.93586,1.9148 -0.97432,-11.58016 z"
         style="fill:#bdd24e;fill-opacity:1;stroke:none"
         inkscape:connector-curvature="0" />
      <path
         inkscape:connector-curvature="0"
         id="path14222"
         d="m 215.72699,730.58891 -10.25895,17.30385 -10.4882,-15.42512 3.26681,9.29453 -12.3222,2.14234 17.07914,5.93276 -8.31031,2.60391 41.06445,0 6.18975,-3.16421 -24.73036,1.64808 16.42005,-9.85497 -16.93587,2.07643 -0.97431,-12.5576 z"
         style="fill:#bdd24e;fill-opacity:1;stroke:none" />
      <path
         inkscape:connector-curvature="0"
         id="path14224"
         d="m 151.279,653.60502 -7.10676,36.47866 -6.1611,-33.03188 0.63832,33.83195 -8.9773,-6.88936 7.7372,12.23628 24.41515,0 15.61768,-33.20442 -22.58116,30.67674 z"
         style="fill:#bdd24e;fill-opacity:1;stroke:none"
         sodipodi:nodetypes="cccccccccc" />
      <path
         inkscape:connector-curvature="0"
         id="path14331"
         d="m 712.75697,859.46176 -10.25895,17.30372 -10.4882,-15.42498 3.26681,9.29452 -12.3222,2.14234 17.07914,5.93275 -8.31031,2.60378 41.06446,0 6.18974,-3.16407 -24.73036,1.64793 16.42005,-9.85497 -16.93587,2.07656 -0.97431,-12.55758 z"
         style="fill:#bdd24e;fill-opacity:1;stroke:none" />
      <path
         inkscape:connector-curvature="0"
         id="path14335"
         d="m 460.41294,876.10173 -7.10675,26.79771 -6.16111,-24.26563 2.20653,19.37029 -10.54551,0.42202 7.7372,8.98892 24.41515,0 15.61767,-24.39231 -22.58114,22.53547 -3.58204,-29.45647 z"
         style="fill:#bdd24e;fill-opacity:1;stroke:none" />
      <path
         style="fill:#bdd24e;fill-opacity:1;stroke:none"
         d="m 756.78138,730.35808 -7.10675,48.27082 -6.16111,-43.70978 2.20654,34.89179 -10.54551,0.76016 7.73719,16.19181 24.41516,0 15.61767,-43.93798 -22.58115,40.59321 -3.58204,-53.06003 z"
         id="path14337"
         inkscape:connector-curvature="0" />
      <path
         inkscape:connector-curvature="0"
         id="path14339"
         d="m 758.73494,921.31878 0.22926,17.42903 2.14922,1.68806 -2.37848,-19.11709 z m 0.22926,17.42903 -17.85287,-13.88412 3.06622,19.58136 -16.39139,2.86967 17.05049,9.28429 -2.4931,1.26604 47.62675,0 -23.18294,-11.39434 14.75799,-19.75018 -22.40921,25.02526 -0.17194,-12.99798 z"
         style="fill:#bdd24e;fill-opacity:1;stroke:none" />
    </g>
  </g>
</svg>
