<?xml version="1.0" encoding="UTF-8" standalone="no"?>
<!-- Created with Inkscape (http://www.inkscape.org/) -->

<svg
   xmlns:dc="http://purl.org/dc/elements/1.1/"
   xmlns:cc="http://creativecommons.org/ns#"
   xmlns:rdf="http://www.w3.org/1999/02/22-rdf-syntax-ns#"
   xmlns:svg="http://www.w3.org/2000/svg"
   xmlns="http://www.w3.org/2000/svg"
   xmlns:sodipodi="http://sodipodi.sourceforge.net/DTD/sodipodi-0.dtd"
   xmlns:inkscape="http://www.inkscape.org/namespaces/inkscape"
   width="20"
   height="20"
   id="svg2"
   version="1.1"
   inkscape:version="0.48.5 r10040"
   sodipodi:docname="terrain.xcf"
   inkscape:dataloss="true">
  <defs
     id="defs4" />
  <sodipodi:namedview
     id="base"
     pagecolor="#ffffff"
     bordercolor="#666666"
     borderopacity="1.0"
     inkscape:pageopacity="0.0"
     inkscape:pageshadow="2"
     inkscape:zoom="1"
     inkscape:cx="-75.330021"
     inkscape:cy="71.590994"
     inkscape:document-units="px"
     inkscape:current-layer="g3198"
     showgrid="false"
     inkscape:window-width="1366"
     inkscape:window-height="715"
     inkscape:window-x="0"
     inkscape:window-y="0"
     inkscape:window-maximized="1" />
  <metadata
     id="metadata7">
    <rdf:RDF>
      <cc:Work
         rdf:about="">
        <dc:format>image/svg+xml</dc:format>
        <dc:type
           rdf:resource="http://purl.org/dc/dcmitype/StillImage" />
        <dc:title></dc:title>
      </cc:Work>
    </rdf:RDF>
  </metadata>
  <g
     style="display:inline"
     transform="translate(0,-1032.3622)"
     id="g3198"
     inkscape:groupmode="layer"
     inkscape:label="underfloor">
    <rect
       y="1032.3622"
       x="0"
       height="20"
       width="20"
       id="rect3200"
       style="fill:#543e2e;fill-opacity:1;stroke:none" />
  </g>
  <g
     inkscape:label="floor"
     inkscape:groupmode="layer"
     id="layer1"
     transform="translate(0,-1032.3622)"
     style="display:inline">
    <rect
       style="fill:#7a5943;fill-opacity:1;stroke:none"
       id="rect2985"
       width="20"
       height="20"
       x="0"
       y="1032.3622" />
  </g>
  <g
     inkscape:groupmode="layer"
     id="layer2"
     inkscape:label="sky"
     style="display:inline">
    <rect
       style="fill:#8296cc;fill-opacity:1;stroke:none"
       id="rect2985-9"
       width="20"
       height="20"
       x="0"
       y="-1.7e-05" />
  </g>
  <g
     inkscape:label="trinchera"
     id="g3793"
     inkscape:groupmode="layer"
     style="display:inline">
    <rect
       y="-1.7e-05"
       x="0"
       height="20"
       width="20"
       id="rect3795"
       style="fill:#1a1a1a;fill-opacity:1;stroke:none" />
    <path
       style="fill:#ddd6a2;fill-opacity:1;stroke:#1a1a1a;stroke-width:1"
       d="m 0.69588274,12.104234 c -0.59912865,-2.644182 6.36355416,-1.313508 8.97780336,0 2.9616979,1.488081 2.2685999,4.468054 0,5.75578 -2.5326773,1.437625 -10.7526926,2.172914 -8.97780336,0 0.48128376,-0.589213 0.48128376,-3.631692 0,-5.75578 z"
       id="rect3799"
       inkscape:connector-curvature="0"
       sodipodi:nodetypes="sssss" />
    <path
       sodipodi:nodetypes="sssss"
       inkscape:connector-curvature="0"
       id="path3802"
       d="M 18.077925,11.929868 C 15.29896,9.8408332 9.0689095,9.4219891 9.2384954,13.500043 c 0.025247,0.607116 4.1053626,-0.942807 1.4936866,4.120551 -1.7528106,3.398243 10.255581,2.096386 8.352401,-0.02366 -0.45159,-0.503048 1.889872,-3.489654 -1.006658,-5.667066 z"
       style="fill:#ddd6a2;fill-opacity:1;stroke:#1a1a1a;stroke-width:1" />
    <path
       sodipodi:nodetypes="sssss"
       inkscape:connector-curvature="0"
       id="path3804"
       d="m 2.1333827,6.291734 c 1.897566,-0.8019702 3.9927139,-0.7651339 7.5403034,-0.1875 3.2714379,0.5326696 3.0810999,5.655554 0.8124999,6.94328 C 7.9535088,14.485139 0.82547213,14.66269 0.69588274,11.860014 0.55324379,8.7751101 0.64268514,6.921749 2.1333827,6.291734 z"
       style="fill:#ddd6a2;fill-opacity:1;stroke:#1a1a1a;stroke-width:1" />
    <path
       style="fill:#ddd6a2;fill-opacity:1;stroke:#1a1a1a;stroke-width:1"
       d="M 18.077925,5.929868 C 15.29896,3.8408332 7.7488588,3.7000081 9.2384954,7.500043 c 0.56574,1.4431921 -2.2524402,1.3876309 1.4936866,4.120551 2.605705,1.900945 10.255581,2.096386 8.352401,-0.02366 -0.45159,-0.503048 1.889872,-3.489654 -1.006658,-5.667066 z"
       id="path3806"
       inkscape:connector-curvature="0"
       sodipodi:nodetypes="sssss" />
    <path
       style="fill:#ddd6a2;fill-opacity:1;stroke:#1a1a1a;stroke-width:1;stroke-linecap:round;stroke-linejoin:round;stroke-miterlimit:4;stroke-opacity:1;stroke-dasharray:none"
       d="m 15.192186,1.1161165 c -1.907899,0.8679637 -11.9552738,-1.69089471 -13.7831891,0 -0.9855849,0.9117053 -0.3937989,1.7285593 -0.9459051,2.75 -0.283483,0.5244662 1.464579,3.2200626 2.2971981,3.375 1.6035709,0.2983995 7.3872251,-3.0942705 11.2157321,0.125 4.210352,3.5403525 4.684801,0.082745 4.864655,-0.25 1.079042,-1.9963143 0.400193,-7.84187544 -3.648491,-6 z"
       id="path3812"
       inkscape:connector-curvature="0"
       sodipodi:nodetypes="sssssss" />
  </g>
  <g
     style="display:inline"
     inkscape:label="water"
     id="g3815"
     inkscape:groupmode="layer">
    <rect
       y="-1.7e-05"
       x="0"
       height="20"
       width="20"
       id="rect3817"
       style="fill:#485579;fill-opacity:1;stroke:none" />
    <path
       style="fill:#485579;fill-opacity:1;stroke:#f9f9f9;stroke-width:1;stroke-linecap:round;stroke-linejoin:round;stroke-miterlimit:4;stroke-opacity:1;stroke-dasharray:none"
       d="m 4.5,9.25 c 1.4333695,-7.9953516 11.625,8.375 11.625,0"
       id="path3821"
       inkscape:connector-curvature="0" />
  </g>
</svg>
