<?xml version="1.0" encoding="UTF-8" standalone="no"?>
<!-- Created with Inkscape (http://www.inkscape.org/) -->

<svg
   xmlns:dc="http://purl.org/dc/elements/1.1/"
   xmlns:cc="http://creativecommons.org/ns#"
   xmlns:rdf="http://www.w3.org/1999/02/22-rdf-syntax-ns#"
   xmlns:svg="http://www.w3.org/2000/svg"
   xmlns="http://www.w3.org/2000/svg"
   xmlns:sodipodi="http://sodipodi.sourceforge.net/DTD/sodipodi-0.dtd"
   xmlns:inkscape="http://www.inkscape.org/namespaces/inkscape"
   width="260"
   height="260"
   id="svg2"
   version="1.1"
   inkscape:version="0.48.5 r10040"
   sodipodi:docname="anarquia.svg"
   inkscape:export-filename="/home/vg/Drawings/about-section/frontend.png"
   inkscape:export-xdpi="90"
   inkscape:export-ydpi="90">
  <defs
     id="defs4" />
  <sodipodi:namedview
     id="base"
     pagecolor="#000000"
     bordercolor="#666666"
     borderopacity="1.0"
     inkscape:pageopacity="1"
     inkscape:pageshadow="2"
     inkscape:zoom="1"
     inkscape:cx="165.3224"
     inkscape:cy="97.466328"
     inkscape:document-units="px"
     inkscape:current-layer="layer1"
     showgrid="false"
     inkscape:window-width="1368"
     inkscape:window-height="716"
     inkscape:window-x="0"
     inkscape:window-y="0"
     inkscape:window-maximized="1" />
  <metadata
     id="metadata7">
    <rdf:RDF>
      <cc:Work
         rdf:about="">
        <dc:format>image/svg+xml</dc:format>
        <dc:type
           rdf:resource="http://purl.org/dc/dcmitype/StillImage" />
        <dc:title></dc:title>
      </cc:Work>
    </rdf:RDF>
  </metadata>
  <g
     inkscape:label="Layer 1"
     inkscape:groupmode="layer"
     id="layer1"
     transform="translate(0,-792.36214)">
    <g
       id="g4004"
       transform="matrix(1.1572454,0,0,1.1572454,8.9390708,-140.18509)">
      <path
         inkscape:connector-curvature="0"
         id="path3998"
         d="m 104.1456,846.30371 c -13.499621,45.25402 -24.919368,130.52886 -43.423639,170.69009 -2.604892,5.6535 4.436186,-22.93247 11.406915,-49.76399 7.912886,-30.45809 17.487627,-62.24414 24.134604,-92.89828 0.24036,-1.1085 4.73043,-36.97641 6.2608,-38.27845 1.08581,-0.92379 -8.522861,47.76554 -9.297382,51.19977 -7.615014,33.76496 -21.552793,69.19861 -27.821676,101.85024 -0.577993,3.01049 -3.30106,8.00759 -2.267567,9.03645 1.677975,1.6705 37.437225,-120.58125 41.101105,-134.47002 2.89871,-10.98824 6.845,-22.11784 9.7306,-32.83106 0.6581,-2.44327 0.85198,-9.38235 0.81841,-7.15743 -0.41656,27.60492 -21.918658,91.00055 -31.287217,119.65932 -4.599378,14.06968 -9.224973,28.0637 -13.777517,42.08918 -0.76234,2.3486 -2.50543,9.41244 -2.237924,7.07291 6.120459,-53.52701 38.527678,-128.70238 39.263858,-177.48875 0.0486,-3.22431 -6.96695,19.86169 -13.866403,47.9798 -9.913311,40.40082 -20.890536,81.31295 -29.897323,121.70737 -1.933772,8.67275 -6.028509,21.44044 -7.201989,30.03354 -0.297638,2.1796 -0.838895,8.5145 -0.808527,6.5029 0.04756,-3.1517 35.56717,-112.40296 40.312319,-129.27609 3.916093,-13.92512 6.617713,-31.46267 8.858553,-45.6575 0.38363,-2.43012 1.23705,-9.59726 0.81841,-7.15742 -5.76766,33.61351 -19.884811,76.1515 -29.379478,110.92897 -4.43567,16.24715 -9.340225,32.67971 -13.526338,48.98273 -0.508538,1.98051 -0.825786,7.64751 -0.798639,5.84841 0.477371,-31.63536 30.264703,-97.54615 38.592235,-132.98168 3.41193,-14.51851 9.10883,-29.57274 12.37775,-43.48269 0.74423,-3.1669 0.89133,-11.99059 0.84803,-9.12098 -0.23564,15.61521 -29.353118,108.81913 -35.674186,127.91451 -4.442134,13.41931 -8.801537,26.60697 -13.388068,39.81949 -0.918463,2.64589 -1.880288,9.458 -2.607614,8.03358 -2.150908,-4.21223 24.923335,-113.13453 28.916628,-127.33415 3.111657,-11.06463 7.03227,-40.10518 9.38066,-33.17943 5.19954,15.3341 -48.891996,156.45249 -49.210391,177.55175 -0.248326,16.4571 12.140223,-35.09225 17.494226,-53.00469 3.560822,-11.91313 35.137415,-120.92746 36.674625,-123.59679 0.5924,-1.02868 -7.0266,46.88481 -7.48841,49.01459 -4.405568,20.31734 -24.144548,122.62789 -36.822783,133.41449 -6.089808,5.1812 6.622712,-24.31871 10.139821,-36.40973 11.263142,-38.72015 22.47352,-75.15188 36.156782,-112.81839 0.0234,-0.0643 16.44571,-45.61249 12.01791,-43.17657 -16.74251,9.21077 -49.642737,118.04645 -59.032799,145.84957 -5.063401,14.99225 -8.63216,27.64873 -10.938458,42.25822 -0.321411,2.0359 -2.087635,7.7679 -1.158481,6.1545 13.7619,-23.8971 36.268651,-103.34814 45.02949,-135.87399 4.297238,-15.95409 9.839168,-38.23941 12.535758,-53.95495 0.42859,-2.49779 0.96635,-9.48817 1.17823,-7.46356 1.94452,18.58139 -38.771142,165.39592 -49.136984,196.2266"
         style="fill:none;stroke:#00ff00;stroke-width:0.8641209px;stroke-linecap:butt;stroke-linejoin:miter;stroke-opacity:1" />
      <path
         inkscape:connector-curvature="0"
         id="path4000"
         d="m 59.756633,819.12042 c 16.611239,19.08372 30.212326,43.89989 46.717997,62.24546 6.70531,7.45276 18.36842,21.65963 24.3671,29.58506 117.83266,155.68026 -72.575844,-92.25151 -67.813585,-95.856 1.336491,-1.01158 36.759134,51.74292 39.247285,55.50558 5.92019,8.95273 75.70749,112.95957 75.73279,113.10146 1.43548,8.05019 -18.25609,-26.78221 -25.5688,-39.52056 -11.905,-20.73792 -41.7571,-66.64764 -57.847488,-87.90623 -8.980947,-11.86559 16.487148,24.27163 23.834328,36.18551 17.31231,28.07292 37.13377,53.7567 58.87476,82.48087 3.23063,4.26827 -6.46136,-8.53676 -9.69208,-12.80517 C 154.75206,945.14992 141.9944,930.38147 129.32767,913.64622 109.60875,887.59364 79.215668,852.99838 58.706412,829.21111"
         style="fill:none;stroke:#00ff00;stroke-width:0.86412096px;stroke-linecap:butt;stroke-linejoin:miter;stroke-opacity:1" />
      <path
         inkscape:connector-curvature="0"
         id="path4002"
         d="m 62,926.19104 c 28.29595,2.08197 56.95557,2.07519 86,2.07519 3.91122,0 -79.89918,6.16884 -78,5.81056 67.26636,-12.69009 167.53807,-6.64063 11,-6.64063 -53.69899,0 77.50811,0.42176 79,1.66015 1.28142,1.06368 -133.28329,4.56544 -120,4.56544 22.40801,0 172,-1.42861 172,-0.83008 0,1.52809 -7.31821,-0.41504 -11,-0.41504 -18.66667,0 -37.33333,0 -56,0 -4.8373,0 -76,0.47829 -76,-0.41504 0,-8.28559 69.57393,-12.41117 82,-12.86623 11.97199,-0.43842 44.49837,-4.35723 36,-0.83007 -15.38389,6.38492 -120.75622,0.8404 -125,7.88575 -2.3459,3.89457 19.32759,0.41504 29,0.41504 32.58066,0 66.57233,-1.18754 99,0 7.09827,0.25994 27.37356,0.33751 21,1.66015 -14.07208,2.92024 -171,5.1302 -171,3.73536 0,-0.93229 110.54137,7.50505 106,3.73536 -2.74224,-2.27628 -16.86853,-1.6315 -22,-2.0752 -11.12114,-0.96161 -127,-4.06676 -127,-6.22559 0,-2.0752 10,0 15,0 26.66667,0 53.33333,0 80,0 26.66667,0 53.33333,0 80,0 8,0 24,-3.32032 24,0 0,7.33236 -35.33333,0 -53,0 -42.33333,0 -84.66667,0 -127,0 -35.07142,0 36.20414,0.76401 47,1.66015 13.15918,1.09232 25.86366,1.34826 39,2.0752"
         style="fill:none;stroke:#00ff00;stroke-width:0.86412096px;stroke-linecap:butt;stroke-linejoin:miter;stroke-opacity:1" />
    </g>
    <g
       id="g4023"
       transform="translate(-217,79)">
      <path
         transform="translate(0,792.36214)"
         inkscape:connector-curvature="0"
         id="path4009"
         d="m 355,-22 c -23.5649,-4.249654 -40.79549,1.393985 -54,19 -10.00886,13.34515 -10.04292,24.085843 -17,38 -43.92082,87.84164 130,140.11813 130,-9 0,-31.2126169 -34.32923,-44.916154 -59,-48 z"
         style="fill:none;stroke:#00ff00;stroke-width:1px;stroke-linecap:butt;stroke-linejoin:miter;stroke-opacity:1" />
      <path
         transform="translate(0,792.36214)"
         inkscape:connector-curvature="0"
         id="path4011"
         d="M 365,-25 C 289.01251,-65.503371 237.9753,98.991766 301,120 364.81258,141.27086 404.63076,107.29232 421,50 436.63804,-4.7331446 348.60536,-38.662197 365,-25 z"
         style="fill:none;stroke:#00ff00;stroke-width:1;stroke-linecap:square;stroke-linejoin:round;stroke-miterlimit:4;stroke-dasharray:none" />
      <path
         transform="translate(0,792.36214)"
         inkscape:connector-curvature="0"
         id="path4013"
         d="m 371,-28 c -27.23228,4.059865 -78.576,3.151993 -93,32 -11.89378,23.787557 -12.66073,107.66964 14,121 24.25748,12.12874 64.04975,3.98342 88,-4 85.20218,-28.400727 60.78388,-154 -54,-154"
         style="fill:none;stroke:#00ff00;stroke-width:1;stroke-linecap:square;stroke-linejoin:round;stroke-miterlimit:4;stroke-dasharray:none" />
      <path
         transform="translate(0,792.36214)"
         inkscape:connector-curvature="0"
         id="path4015"
         d="M 417,112 C 366.90523,166.48014 237.5707,95.287887 261,25 c 38.71814,-116.154421 160,-60.795387 160,46 0,20.975027 0.0301,39.72901 -2,58"
         style="fill:none;stroke:#00ff00;stroke-width:1;stroke-linecap:square;stroke-linejoin:round;stroke-miterlimit:4;stroke-dasharray:none" />
      <path
         transform="translate(0,792.36214)"
         inkscape:connector-curvature="0"
         id="path4017"
         d="M 410,-36 C 333.04188,-70.373441 214.59854,77.959125 293,125 343.24182,155.14509 449.11979,88.239577 418,26 402.70464,-4.5907298 385.04707,-29.934102 365,-58"
         style="fill:none;stroke:#00ff00;stroke-width:1;stroke-linecap:square;stroke-linejoin:round;stroke-miterlimit:4;stroke-dasharray:none" />
      <path
         transform="translate(0,792.36214)"
         inkscape:connector-curvature="0"
         id="path4019"
         d="m 254,-14 c 38.37285,5.2415703 131.05875,-30.882507 154,15 4.70506,9.410114 5.16585,26.748772 10,34 8.90136,13.352047 4.65023,55.699547 -2,69 -17.94178,35.88355 -84.6372,28.12093 -115,18 -14.76768,-4.92256 -30.76254,-42.525089 -37,-55 -13.15633,-26.312664 6,-75.6630199 6,-104"
         style="fill:none;stroke:#00ff00;stroke-width:1;stroke-linecap:square;stroke-linejoin:round;stroke-miterlimit:4;stroke-dasharray:none" />
      <path
         transform="translate(0,792.36214)"
         inkscape:connector-curvature="0"
         id="path4021"
         d="m 269,46 c 15.67603,-25.143022 37.05992,-67.529961 66,-82 36.48703,-18.243513 134.63989,109.240076 54,163 -6.43535,4.29023 -28.68536,1 -37,1 -118.3813,0 -96.76688,-133.7443725 -42,-152 10.39035,-3.46345 20.47322,4 29,4 17.75844,0 43.56724,0.37816 58,10 17.54869,11.6991299 40.32453,140 -46,140 -85.49475,0 -96.50141,-73.830985 -58,-138 9.20963,-15.349377 25.28558,-16 41,-16 9.43326,0 28.37543,-8.312287 39,-3 31.65505,15.827527 54.45303,86.093942 37,121 -13.66057,27.32114 -61.85746,37.75533 -86,55"
         style="fill:none;stroke:#00ff00;stroke-width:1;stroke-linecap:square;stroke-linejoin:round;stroke-miterlimit:4;stroke-dasharray:none" />
    </g>
  </g>
</svg>
