<?xml version="1.0" encoding="UTF-8" standalone="no"?>
<!-- Created with Inkscape (http://www.inkscape.org/) -->

<svg
   xmlns:dc="http://purl.org/dc/elements/1.1/"
   xmlns:cc="http://creativecommons.org/ns#"
   xmlns:rdf="http://www.w3.org/1999/02/22-rdf-syntax-ns#"
   xmlns:svg="http://www.w3.org/2000/svg"
   xmlns="http://www.w3.org/2000/svg"
   xmlns:sodipodi="http://sodipodi.sourceforge.net/DTD/sodipodi-0.dtd"
   xmlns:inkscape="http://www.inkscape.org/namespaces/inkscape"
   width="744.09448819"
   height="1052.3622047"
   id="svg2"
   version="1.1"
   inkscape:version="0.48.5 r10040">
  <sodipodi:namedview
     id="base"
     pagecolor="#ffffff"
     bordercolor="#666666"
     borderopacity="1.0"
     inkscape:pageopacity="0.0"
     inkscape:pageshadow="2"
     inkscape:zoom="2.56"
     inkscape:cx="476.06783"
     inkscape:cy="787.62387"
     inkscape:document-units="px"
     inkscape:current-layer="layer1"
     showgrid="true"
     inkscape:snap-global="false"
     inkscape:window-width="1368"
     inkscape:window-height="716"
     inkscape:window-x="0"
     inkscape:window-y="0"
     inkscape:window-maximized="1">
    <inkscape:grid
       gridanglez="20"
       gridanglex="20"
       snapvisiblegridlinesonly="true"
       enabled="true"
       visible="true"
       empspacing="5"
       units="mm"
       id="grid3793"
       type="axonomgrid" />
  </sodipodi:namedview>
  <defs
     id="defs4">
    <inkscape:perspective
       id="perspective3763"
       inkscape:persp3d-origin="-73.12382 : 563.93851 : 1"
       inkscape:vp_z="429.60038 : 573.32101 : 1"
       inkscape:vp_y="707.10678 : 707.10678 : 0"
       inkscape:vp_x="-212.17888 : 951.03771 : 1"
       sodipodi:type="inkscape:persp3d" />
  </defs>
  <metadata
     id="metadata7">
    <rdf:RDF>
      <cc:Work
         rdf:about="">
        <dc:format>image/svg+xml</dc:format>
        <dc:type
           rdf:resource="http://purl.org/dc/dcmitype/StillImage" />
        <dc:title />
      </cc:Work>
    </rdf:RDF>
  </metadata>
  <g
     id="layer1"
     inkscape:groupmode="layer"
     inkscape:label="Layer 1">
    <path
       inkscape:connector-curvature="0"
       id="path3795"
       d="M 326.43673,177.97156 219.04101,217.0604 326.43673,256.14924 433.83244,217.0604 z"
       style="fill:#ffffff;fill-opacity:1;stroke:#000000;stroke-width:5;stroke-linecap:round;stroke-linejoin:round;stroke-miterlimit:4;stroke-dasharray:none" />
    <path
       d="m 310.09589,244.48817 a 18.041201,11.150075 0 1 1 -36.0824,0 18.041201,11.150075 0 1 1 36.0824,0 z"
       sodipodi:ry="11.150075"
       sodipodi:rx="18.041201"
       sodipodi:cy="244.48817"
       sodipodi:cx="292.05469"
       id="path3864"
       style="fill:#ffffff;fill-opacity:1;stroke:#000000;stroke-width:2.44049001;stroke-linecap:round;stroke-linejoin:round;stroke-miterlimit:4;stroke-dasharray:none"
       sodipodi:type="arc"
       transform="matrix(2.0338462,0,0,2.0638014,-281.88837,-295.41662)" />
    <path
       inkscape:connector-curvature="0"
       id="path3797"
       d="m 219.04101,217.0604 0,52.11845 107.39572,39.08884 0,-52.11845 z"
       style="fill:#ffffff;fill-opacity:1;stroke:#000000;stroke-width:5;stroke-linecap:round;stroke-linejoin:round;stroke-miterlimit:4;stroke-dasharray:none" />
    <path
       inkscape:connector-curvature="0"
       id="path3799"
       d="m 326.43673,256.14924 0,52.11845 107.39571,-39.08884 0,-52.11845 z"
       style="fill:#ffffff;fill-opacity:1;stroke:#000000;stroke-width:5;stroke-linecap:round;stroke-linejoin:round;stroke-miterlimit:4;stroke-dasharray:none" />
    <path
       transform="matrix(1.5552565,0,0,1.5576018,-141.13114,-174.1392)"
       sodipodi:type="arc"
       style="fill:#ffffff;fill-opacity:1;stroke:#000000;stroke-width:1.60624135;stroke-linecap:round;stroke-linejoin:round;stroke-miterlimit:4;stroke-dasharray:none"
       id="path3837"
       sodipodi:cx="292.05469"
       sodipodi:cy="244.48817"
       sodipodi:rx="18.041201"
       sodipodi:ry="11.150075"
       d="m 310.09589,244.48817 a 18.041201,11.150075 0 1 1 -36.0824,0 18.041201,11.150075 0 1 1 36.0824,0 z" />
    <path
       d="m 310.09589,244.48817 a 18.041201,11.150075 0 1 1 -36.0824,0 18.041201,11.150075 0 1 1 36.0824,0 z"
       sodipodi:ry="11.150075"
       sodipodi:rx="18.041201"
       sodipodi:cy="244.48817"
       sodipodi:cx="292.05469"
       id="path3835"
       style="fill:#ffffff;fill-opacity:1;stroke:#000000;stroke-width:1.83103967;stroke-linecap:round;stroke-linejoin:round;stroke-miterlimit:4;stroke-dasharray:none"
       sodipodi:type="arc"
       transform="matrix(1.3663151,0,0,1.3643748,-85.852841,-133.35021)" />
    <path
       transform="matrix(1.166684,0,0,1.1596215,-27.354164,-88.828906)"
       sodipodi:type="arc"
       style="fill:#ffffff;fill-opacity:1;stroke:#000000;stroke-width:2.14934063;stroke-linecap:round;stroke-linejoin:round;stroke-miterlimit:4;stroke-dasharray:none"
       id="path3807"
       sodipodi:cx="292.05469"
       sodipodi:cy="244.48817"
       sodipodi:rx="18.041201"
       sodipodi:ry="11.150075"
       d="m 310.09589,244.48817 a 18.041201,11.150075 0 1 1 -36.0824,0 18.041201,11.150075 0 1 1 36.0824,0 z" />
    <path
       inkscape:connector-curvature="0"
       id="path3755"
       d="m 313.40155,75.41858 0,118.08934"
       style="fill:none;stroke:#000000;stroke-width:10;stroke-linecap:round;stroke-linejoin:round;stroke-miterlimit:4;stroke-opacity:1;stroke-dasharray:none"
       sodipodi:nodetypes="cc" />
    <path
       d="m 303.04576,134.13351 a 26.263966,26.263966 0 1 1 -52.52793,0 26.263966,26.263966 0 1 1 52.52793,0 z"
       sodipodi:ry="26.263966"
       sodipodi:rx="26.263966"
       sodipodi:cy="134.13351"
       sodipodi:cx="276.7818"
       id="path2985"
       style="fill:#ffffff;fill-opacity:1;fill-rule:evenodd;stroke:#000000;stroke-width:3.39928269;stroke-linecap:butt;stroke-linejoin:miter;stroke-miterlimit:4;stroke-opacity:1;stroke-dasharray:none"
       sodipodi:type="arc"
       transform="matrix(1.4708986,0,0,1.4708986,-93.716427,-104.96266)" />
    <g
       transform="translate(2.7426384e-6,8.0614745e-7)"
       id="g3826">
      <path
         style="fill:#ffffff;fill-opacity:1;stroke:#000000;stroke-width:2.5;stroke-linecap:round;stroke-linejoin:round;stroke-miterlimit:4;stroke-dasharray:none"
         d="m 360.20078,212.5984 24.33789,8.85827 19.47031,-7.08661 -14.60273,-5.31496 -4.86758,1.77165 -9.73516,-3.54331 z"
         id="path3820"
         inkscape:connector-curvature="0" />
      <path
         style="fill:#ffffff;fill-opacity:1;stroke:#000000;stroke-width:2.5;stroke-linecap:round;stroke-linejoin:round;stroke-miterlimit:4;stroke-dasharray:none"
         d="m 360.20078,212.5984 0,7.08662 24.33789,8.85826 0,-7.08661 z"
         id="path3822"
         inkscape:connector-curvature="0" />
      <path
         style="fill:#ffffff;fill-opacity:1;stroke:#000000;stroke-width:2.5;stroke-linecap:round;stroke-linejoin:round;stroke-miterlimit:4;stroke-dasharray:none"
         d="m 384.53867,221.45667 0,7.08661 19.47031,-7.08661 0,-7.08661 z"
         id="path3824"
         inkscape:connector-curvature="0" />
    </g>
    <g
       id="g3866">
      <path
         style="fill:#ffffff;fill-opacity:1;stroke:#000000;stroke-width:2.5;stroke-linecap:round;stroke-linejoin:round;stroke-miterlimit:4;stroke-dasharray:none"
         d="m 330.9953,230.31495 0,-7.08661 24.3379,8.85825 0,7.08662 z"
         id="path3814"
         inkscape:connector-curvature="0"
         sodipodi:nodetypes="ccccc" />
      <path
         style="fill:#ffffff;fill-opacity:1;stroke:#000000;stroke-width:2.5;stroke-linecap:round;stroke-linejoin:round;stroke-miterlimit:4;stroke-dasharray:none"
         d="m 355.3332,232.08659 24.33789,-8.85827 0,7.08661 -24.33789,8.85828 z"
         id="path3816"
         inkscape:connector-curvature="0"
         sodipodi:nodetypes="ccccc" />
      <path
         style="fill:#ffffff;fill-opacity:1;stroke:#000000;stroke-width:2.5;stroke-linecap:round;stroke-linejoin:round;stroke-miterlimit:4;stroke-dasharray:none"
         d="m 330.9953,223.22834 24.3379,-8.85828 24.33789,8.85826 -24.33789,8.85827 z"
         id="path3818"
         inkscape:connector-curvature="0"
         sodipodi:nodetypes="ccccc" />
    </g>
    <path
       d="m 310.09589,244.48817 a 18.041201,11.150075 0 1 1 -36.0824,0 18.041201,11.150075 0 1 1 36.0824,0 z"
       sodipodi:ry="11.150075"
       sodipodi:rx="18.041201"
       sodipodi:cy="244.48817"
       sodipodi:cx="292.05469"
       id="path3839"
       style="fill:#000000;fill-opacity:1;stroke:#000000;stroke-width:9.12542343;stroke-linecap:round;stroke-linejoin:round;stroke-miterlimit:4;stroke-dasharray:none"
       sodipodi:type="arc"
       transform="matrix(0.57234767,0,0,0.52453459,146.24471,66.030505)" />
    <g
       id="g3879">
      <path
         style="fill:#ffffff;fill-opacity:1;stroke:#000000;stroke-width:2.5;stroke-linecap:round;stroke-linejoin:round;stroke-miterlimit:4;stroke-dasharray:none"
         d="m 311.525,230.31494 0,7.08661 9.73515,3.54331 0,-7.08661 z"
         id="path3853"
         inkscape:connector-curvature="0" />
      <path
         style="fill:#ffffff;fill-opacity:1;stroke:#000000;stroke-width:2.5;stroke-linecap:round;stroke-linejoin:round;stroke-miterlimit:4;stroke-dasharray:none"
         d="m 326.12773,224.99998 24.33789,8.85827 -19.47031,7.08661 -14.60273,-5.31496 4.86757,-1.77165 -9.73515,-3.54331 z"
         id="path3849"
         inkscape:connector-curvature="0" />
      <path
         style="fill:#ffffff;fill-opacity:1;stroke:#000000;stroke-width:2.5;stroke-linecap:round;stroke-linejoin:round;stroke-miterlimit:4;stroke-dasharray:none"
         d="m 316.39258,235.6299 0,7.08661 14.60273,5.31496 0,-7.08661 z"
         id="path3851"
         inkscape:connector-curvature="0" />
      <path
         style="fill:#ffffff;fill-opacity:1;stroke:#000000;stroke-width:2.5;stroke-linecap:round;stroke-linejoin:round;stroke-miterlimit:4;stroke-dasharray:none"
         d="m 330.99531,240.94486 0,7.08661 19.47031,-7.08661 0,-7.08661 z"
         id="path3855"
         inkscape:connector-curvature="0" />
    </g>
    <path
       transform="translate(-13.035179,-5.3110133)"
       d="m 351.5625,89.080933 a 14.0625,14.0625 0 1 1 -28.125,0 14.0625,14.0625 0 1 1 28.125,0 z"
       sodipodi:ry="14.0625"
       sodipodi:rx="14.0625"
       sodipodi:cy="89.080933"
       sodipodi:cx="337.5"
       id="path3860"
       style="fill:#ffffff;fill-opacity:1;stroke:#000000;stroke-width:2.5;stroke-linecap:round;stroke-linejoin:round;stroke-miterlimit:4;stroke-dasharray:none"
       sodipodi:type="arc" />
    <path
       id="path3885"
       d="m 575,232.04968 c 0,15.10154 -22.56065,27.34375 -50.39063,27.34375 -27.82997,0 -50.39062,-12.24221 -50.39062,-27.34375"
       style="fill:#ffffff;fill-opacity:1;stroke:#000000;stroke-width:2.5;stroke-linecap:round;stroke-linejoin:round;stroke-miterlimit:4" />
    <rect
       y="202.36218"
       x="488.67188"
       height="8.59375"
       width="8.59375"
       id="rect3888"
       style="fill:#ffffff;fill-opacity:1;stroke:#000000;stroke-width:2.5;stroke-linecap:round;stroke-linejoin:round;stroke-miterlimit:4;stroke-dasharray:none" />
    <path
       style="fill:#ffffff;fill-opacity:1;stroke:#000000;stroke-width:2.5;stroke-linecap:round;stroke-linejoin:round;stroke-miterlimit:4;stroke-dasharray:none"
       id="path5500"
       d="M579.295317493 232.149845305C579.295317493 232.149845305 570.624097756 291.110723148 648.840495116 317.786780363C648.840495116 317.786780363 576.350695792 242.500648139 576.350695792 242.500648139C576.350695792 242.500648139 573.994841458 283.206113318 642.639613357 323.735399237C642.639613357 323.735399237 569.060097899 237.954570175 569.060097899 237.954570175C569.060097899 237.954570175 585.307277749 275.178323988 646.616668645 301.294690253C646.616668645 301.294690253 570.704682507 231.949514695 570.704682507 231.949514695C570.704682507 231.949514695 583.006200319 283.457919428 651.050586362 293.933905577C651.050586362 293.933905577 579.295317493 232.149845305 579.295317493 232.149845305" />
  </g>
</svg>
