<?xml version="1.0" encoding="UTF-8" standalone="no"?>
<!-- Created with Inkscape (http://www.inkscape.org/) -->

<svg
   xmlns:dc="http://purl.org/dc/elements/1.1/"
   xmlns:cc="http://creativecommons.org/ns#"
   xmlns:rdf="http://www.w3.org/1999/02/22-rdf-syntax-ns#"
   xmlns:svg="http://www.w3.org/2000/svg"
   xmlns="http://www.w3.org/2000/svg"
   xmlns:sodipodi="http://sodipodi.sourceforge.net/DTD/sodipodi-0.dtd"
   xmlns:inkscape="http://www.inkscape.org/namespaces/inkscape"
   width="25"
   height="25"
   id="svg4340"
   version="1.1"
   inkscape:version="0.48.3.1 r9886"
   sodipodi:docname="bone.svg">
  <defs
     id="defs4342" />
  <sodipodi:namedview
     id="base"
     pagecolor="#ffffff"
     bordercolor="#666666"
     borderopacity="1.0"
     inkscape:pageopacity="0.0"
     inkscape:pageshadow="2"
     inkscape:zoom="15.432172"
     inkscape:cx="4.7257516"
     inkscape:cy="11.092596"
     inkscape:document-units="px"
     inkscape:current-layer="layer14"
     showgrid="false"
     inkscape:window-width="1280"
     inkscape:window-height="761"
     inkscape:window-x="0"
     inkscape:window-y="0"
     inkscape:window-maximized="1" />
  <metadata
     id="metadata4345">
    <rdf:RDF>
      <cc:Work
         rdf:about="">
        <dc:format>image/svg+xml</dc:format>
        <dc:type
           rdf:resource="http://purl.org/dc/dcmitype/StillImage" />
        <dc:title />
      </cc:Work>
    </rdf:RDF>
  </metadata>
  <g
     inkscape:label="Layer 1"
     inkscape:groupmode="layer"
     id="layer1"
     transform="translate(0,-1027.3622)"
     style="display:inline">
    <path
       style="fill:#ffffff;stroke:#000000;stroke-width:1px;stroke-linecap:butt;stroke-linejoin:miter;stroke-opacity:1"
       d="m 16.757,1032.216 c -0.0259,-1.8995 1.80575,-4.3624 3.87188,-3.4921 1.48091,0.6424 1.0419,2.4318 0.79874,3.3931 2.03047,-1.0548 3.28529,1.6489 2.25803,3.1886 -0.89255,1.3885 -3.04481,1.7499 -4.40461,0.8481 -1.57476,-0.3541 -2.27566,1.4611 -3.32834,2.2493 -1.09682,1.5204 -2.3398,2.92 -3.57825,4.3271 -1.16556,1.5002 -1.81037,3.3795 -3.2226695,4.6963 0.71331,1.4741 -0.0588,3.6133 -1.8941997,3.6011 -1.91944,0.732 -3.82037,-1.2968 -2.65737,-3.1286 -0.73875,0.054 -3.40829,0.4519 -3.53214,-1.5194 -0.71991001,-2.0832 1.95632,-4.5588 3.8674,-3.1697 1.6267,1.1635 2.58121,-1.0892 3.37687,-2.1379 1.2319797,-1.215 2.3530292,-2.5565 3.4651792,-3.9019 1.35785,-1.7918 3.07461,-3.3203 4.6609,-4.8999 l 0.31858,-0.054 0,0 z"
       id="path4322"
       inkscape:connector-curvature="0" />
  </g>
  <g
     inkscape:groupmode="layer"
     id="layer14"
     inkscape:label="2">
    <path
       style="fill:#ffffff;stroke:#000000;stroke-width:1px;stroke-linecap:butt;stroke-linejoin:miter;stroke-opacity:1"
       d="M 4.7330941,19.944195 C 2.8893353,21.038479 0.62962931,19.395145 0.58399849,17.3909 0.22845473,15.138285 3.0664498,13.232792 4.9899881,14.529073 c 1.5152582,1.022842 3.3637806,0.550538 4.0343412,-1.16987 1.3020877,-1.146621 2.6677807,-2.227305 3.6465127,-3.6859401 1.386532,-1.1734649 2.718801,-2.4167145 2.869034,-4.3745736 0.96509,-1.5923985 0.527516,-4.2414345 2.786972,-4.86925026 2.130176,-0.58351667 3.824678,1.92524526 3.125528,3.78975346 0.03114,0.802491 -2.479188,2.0928928 -0.423151,1.6427522 2.101819,-0.4384266 3.207248,2.1236149 1.655324,3.4958113 -1.211991,1.689586 -3.224163,1.439183 -4.859276,0.666849 -1.679137,0.05956 -1.724131,2.427943 -3.066078,3.216458 -1.131568,1.166941 -2.33336,2.370399 -2.882857,3.938125 -1.187912,0.896846 -2.4890984,2.654934 -0.990704,3.905244 0.666699,1.978618 -1.6175727,2.913704 -3.1947677,3.02407 -1.6362599,0.480575 -3.3073248,-0.892272 -3.2384728,-2.570564 -0.017151,-0.543059 0.084,-1.088001 0.2807006,-1.593743 z"
       id="path4400"
       inkscape:connector-curvature="0" />
  </g>
</svg>
