<?xml version="1.0" encoding="UTF-8" standalone="no"?>
<!-- Created with Inkscape (http://www.inkscape.org/) -->

<svg
   xmlns:dc="http://purl.org/dc/elements/1.1/"
   xmlns:cc="http://creativecommons.org/ns#"
   xmlns:rdf="http://www.w3.org/1999/02/22-rdf-syntax-ns#"
   xmlns:svg="http://www.w3.org/2000/svg"
   xmlns="http://www.w3.org/2000/svg"
   xmlns:sodipodi="http://sodipodi.sourceforge.net/DTD/sodipodi-0.dtd"
   xmlns:inkscape="http://www.inkscape.org/namespaces/inkscape"
   width="250"
   height="250"
   id="svg7599"
   version="1.1"
   inkscape:version="0.48.3.1 r9886"
   sodipodi:docname="New document 75">
  <defs
     id="defs7601" />
  <sodipodi:namedview
     id="base"
     pagecolor="#ffffff"
     bordercolor="#666666"
     borderopacity="1.0"
     inkscape:pageopacity="0.0"
     inkscape:pageshadow="2"
     inkscape:zoom="1.6433594"
     inkscape:cx="107.19719"
     inkscape:cy="122.30512"
     inkscape:document-units="px"
     inkscape:current-layer="g7636"
     showgrid="false"
     inkscape:window-width="1280"
     inkscape:window-height="761"
     inkscape:window-x="0"
     inkscape:window-y="0"
     inkscape:window-maximized="1" />
  <metadata
     id="metadata7604">
    <rdf:RDF>
      <cc:Work
         rdf:about="">
        <dc:format>image/svg+xml</dc:format>
        <dc:type
           rdf:resource="http://purl.org/dc/dcmitype/StillImage" />
        <dc:title></dc:title>
      </cc:Work>
    </rdf:RDF>
  </metadata>
  <g
     inkscape:label="Layer 1"
     inkscape:groupmode="layer"
     id="layer1"
     transform="translate(0,-802.36218)">
    <g
       id="g7636"
       transform="matrix(4.1006189,0,0,4.1006189,-1571.7878,-2240.2673)">
      <path
         style="color:#000000;fill:#262626;fill-opacity:1;fill-rule:nonzero;stroke:none;stroke-width:1.65699995;marker:none;visibility:visible;display:inline;overflow:visible;enable-background:accumulate"
         d="m 409.63069,783.51672 c 0.41536,2.38389 0.25657,5.57663 -3.99153,6.3168 -4.24811,0.74017 -10.85717,-0.12614 -11.45358,-3.54917 -0.59641,-3.42303 2.7227,-5.17801 6.9708,-5.91818 7.2208,-1.25812 8.05896,0.76667 8.47431,3.15055 z"
         id="path4205"
         inkscape:connector-curvature="0"
         sodipodi:nodetypes="zsssz"
         inkscape:transform-center-x="-23.479376"
         inkscape:transform-center-y="-0.97308118" />
      <path
         style="color:#000000;fill:none;stroke:#262626;stroke-width:1.79223299;stroke-linecap:round;stroke-linejoin:round;stroke-miterlimit:4;stroke-opacity:1;stroke-dasharray:none;marker:none;visibility:visible;display:inline;overflow:visible;enable-background:accumulate"
         d="m 395.26213,784.20814 c -3.17881,-1.0811 -7.16561,-3.06684 -7.69657,-8.15238"
         id="path4207"
         inkscape:connector-curvature="0"
         sodipodi:nodetypes="cc"
         inkscape:transform-center-x="19.725644"
         inkscape:transform-center-y="-21.057105" />
      <path
         inkscape:transform-center-y="-24.14745"
         inkscape:transform-center-x="18.519334"
         style="color:#000000;fill:none;stroke:#262626;stroke-width:1.79223299;stroke-linecap:round;stroke-linejoin:round;stroke-miterlimit:4;stroke-opacity:1;stroke-dasharray:none;stroke-dashoffset:0;marker:none;visibility:visible;display:inline;overflow:visible;enable-background:accumulate"
         d="m 409.01713,769.94765 -6.066,-5.62782"
         id="path4209"
         inkscape:connector-curvature="0" />
      <path
         inkscape:transform-center-y="-29.572363"
         inkscape:transform-center-x="8.1789472"
         inkscape:connector-curvature="0"
         id="path4211"
         d="m 409.09749,769.90552 -1.18339,-8.18946"
         style="color:#000000;fill:none;stroke:#262626;stroke-width:1.79223299;stroke-linecap:round;stroke-linejoin:round;stroke-miterlimit:4;stroke-opacity:1;stroke-dasharray:none;stroke-dashoffset:0;marker:none;visibility:visible;display:inline;overflow:visible;enable-background:accumulate" />
      <path
         style="color:#000000;fill:none;stroke:#262626;stroke-width:1.79223299;stroke-linecap:round;stroke-linejoin:round;stroke-miterlimit:4;stroke-opacity:1;stroke-dasharray:none;stroke-dashoffset:0;marker:none;visibility:visible;display:inline;overflow:visible;enable-background:accumulate"
         d="m 410.40596,772.66069 c -2.7184,3.8426 -2.31239,6.945 -2.02048,10.0746"
         id="path4213"
         inkscape:connector-curvature="0"
         sodipodi:nodetypes="cc" />
      <path
         style="color:#000000;fill:none;stroke:#262626;stroke-width:1.79223299;stroke-linecap:round;stroke-linejoin:round;stroke-miterlimit:4;stroke-opacity:1;stroke-dasharray:none;stroke-dashoffset:0;marker:none;visibility:visible;display:inline;overflow:visible;enable-background:accumulate"
         d="m 395.90726,786.54211 0.82239,5.6085 -2.54988,3.8362 1.55962,4.5339"
         id="path4215"
         inkscape:connector-curvature="0"
         sodipodi:nodetypes="cccc" />
      <path
         sodipodi:nodetypes="cccc"
         inkscape:connector-curvature="0"
         id="path4217"
         d="m 399.48458,785.31841 0.82238,5.6084 -2.54987,3.8362 1.55962,4.5339"
         style="color:#000000;fill:none;stroke:#262626;stroke-width:1.79223299;stroke-linecap:round;stroke-linejoin:round;stroke-miterlimit:4;stroke-opacity:1;stroke-dasharray:none;stroke-dashoffset:0;marker:none;visibility:visible;display:inline;overflow:visible;enable-background:accumulate" />
      <path
         style="color:#000000;fill:none;stroke:#262626;stroke-width:1.79223299;stroke-linecap:round;stroke-linejoin:round;stroke-miterlimit:4;stroke-opacity:1;stroke-dasharray:none;stroke-dashoffset:0;marker:none;visibility:visible;display:inline;overflow:visible;enable-background:accumulate"
         d="m 405.86886,787.30921 -0.50237,6.59612 0.80869,6.25368"
         id="path4219"
         inkscape:connector-curvature="0"
         sodipodi:nodetypes="ccc" />
      <path
         sodipodi:nodetypes="ccc"
         inkscape:connector-curvature="0"
         id="path4221"
         d="m 408.77891,786.39141 -0.73592,7.71682 1.04224,5.13288"
         style="color:#000000;fill:none;stroke:#262626;stroke-width:1.79223299;stroke-linecap:round;stroke-linejoin:round;stroke-miterlimit:4;stroke-opacity:1;stroke-dasharray:none;stroke-dashoffset:0;marker:none;visibility:visible;display:inline;overflow:visible;enable-background:accumulate" />
      <path
         inkscape:transform-center-y="-16.147575"
         inkscape:transform-center-x="-10.519653"
         sodipodi:nodetypes="zsssz"
         inkscape:connector-curvature="0"
         id="path4223"
         d="m 419.86602,765.67953 c 1.03345,1.88476 1.51006,4.34847 -2.19273,6.29113 -3.70268,1.94283 -10.06159,3.10191 -11.62701,0.11822 -1.56533,-2.98351 0.50504,-7.33064 4.68168,-7.53036 7.16339,-0.34254 8.10468,-0.76367 9.13806,1.12101 z"
         style="color:#000000;fill:#262626;fill-opacity:1;fill-rule:nonzero;stroke:none;stroke-width:1.65699995;marker:none;visibility:visible;display:inline;overflow:visible;enable-background:accumulate"
         clip-path="none" />
      <path
         sodipodi:type="arc"
         style="color:#000000;fill:#ffffff;stroke:none;stroke-width:3;marker:none;visibility:visible;display:inline;overflow:visible;enable-background:accumulate"
         id="path4227"
         sodipodi:cx="49.365345"
         sodipodi:cy="16.070835"
         sodipodi:rx="1.5973377"
         sodipodi:ry="1.5973377"
         d="m 50.962683,16.070835 a 1.5973377,1.5973377 0 1 1 -3.194676,0 1.5973377,1.5973377 0 1 1 3.194676,0 z"
         transform="matrix(0.57940343,-0.3039896,0.3039896,0.57940343,378.68361,773.8842)"
         inkscape:transform-center-x="-6.8524129"
         inkscape:transform-center-y="-19.819634" />
      <g
         transform="matrix(0.76856787,0,0,0.76856787,423.11214,-45.55861)"
         id="layer1-9"
         inkscape:label="Layer 1"
         style="stroke-width:1.58649377;stroke-miterlimit:4;stroke-dasharray:none">
        <g
           transform="matrix(1.0115337,0,0,1.0115337,0.33957328,-12.389948)"
           id="g3069"
           style="stroke-width:1.56840426;stroke-miterlimit:4;stroke-dasharray:none">
          <path
             sodipodi:nodetypes="ccccc"
             style="fill:none;stroke:#000000;stroke-width:1.56840426;stroke-linecap:butt;stroke-linejoin:miter;stroke-opacity:1;stroke-miterlimit:4;stroke-dasharray:none"
             d="m -0.60914415,1053.1681 c 4.22142205,-3.704 8.06132465,-9.0367 12.05120715,-13.0266 0.902946,-0.903 2.657647,-1.3039 3.414204,-2.4388 0.800376,-1.2005 2.045657,-3.102 3.205172,-3.9717 2.586372,-1.9396 5.614467,-3.876 6.672615,-6.3449"
             id="path2985"
             inkscape:connector-curvature="0" />
          <path
             sodipodi:nodetypes="csccccc"
             style="fill:none;stroke:#000000;stroke-width:1.56840426;stroke-linecap:butt;stroke-linejoin:miter;stroke-opacity:1;stroke-miterlimit:4;stroke-dasharray:none"
             d="m -0.84328234,1027.6471 c 1.79392616,1.2247 4.21488104,4.074 5.87500104,5.5266 2.5176537,2.2029 5.3049983,4.0507 7.5948643,6.3406 2.247428,2.2476 4.628884,5.4454 6.340667,8.013 0.392627,0.5889 0.195476,1.5058 0.487744,2.0903 0.438262,0.8765 2.843084,1.4565 3.692915,1.8814 0.712135,0.356 0.897113,1.3194 1.741942,1.7418"
             id="path2989"
             inkscape:connector-curvature="0" />
          <path
             style="fill:none;stroke:#000000;stroke-width:1.56840426;stroke-linecap:butt;stroke-linejoin:miter;stroke-opacity:1;stroke-miterlimit:4;stroke-dasharray:none"
             d="m 0.78138197,1029.202 c 7.51443313,-0.4372 15.47795903,-0.4181 23.34201403,-0.4181"
             id="path2991"
             inkscape:connector-curvature="0" />
          <path
             style="fill:none;stroke:#000000;stroke-width:1.56840426;stroke-linecap:butt;stroke-linejoin:miter;stroke-opacity:1;stroke-miterlimit:4;stroke-dasharray:none"
             d="m 23.635651,1028.7143 c -0.386246,7.6286 0,15.3334 0,22.9936 -1.712596,1.8782 -9.129411,-0.8004 -10.312291,-0.2089 -1.921646,0.9608 -4.7629594,1.172 -6.8284106,0.1393 -1.3496392,-0.6748 -4.2780611,0.3543 -5.78324508,0.1393 -1.39286771,-3.4331 1.08381828,-9.1512 0.0696776,-12.1936 -0.36121403,-1.0836 -0.76687881,-2.2284 -0.34838826,-3.4838 0.40430681,-1.213 0.74361374,-3.645 0.41806591,-4.9472 -0.2185502,-0.8742 -0.48774357,-1.2888 -0.48774357,-2.2994"
             id="path2993"
             inkscape:connector-curvature="0"
             sodipodi:nodetypes="ccsscsssc" />
        </g>
      </g>
    </g>
  </g>
</svg>
