<?xml version="1.0" encoding="UTF-8" standalone="no"?>
<!-- Created with Inkscape (http://www.inkscape.org/) -->

<svg
   xmlns:dc="http://purl.org/dc/elements/1.1/"
   xmlns:cc="http://creativecommons.org/ns#"
   xmlns:rdf="http://www.w3.org/1999/02/22-rdf-syntax-ns#"
   xmlns:svg="http://www.w3.org/2000/svg"
   xmlns="http://www.w3.org/2000/svg"
   xmlns:sodipodi="http://sodipodi.sourceforge.net/DTD/sodipodi-0.dtd"
   xmlns:inkscape="http://www.inkscape.org/namespaces/inkscape"
   width="35"
   height="140"
   id="svg4163"
   version="1.1"
   inkscape:version="0.48.5 r10040"
   sodipodi:docname="2hit.xcf">
  <defs
     id="defs4165" />
  <sodipodi:namedview
     id="base"
     pagecolor="#ffffff"
     bordercolor="#666666"
     borderopacity="1.0"
     inkscape:pageopacity="0.0"
     inkscape:pageshadow="2"
     inkscape:zoom="2.8"
     inkscape:cx="-45.428044"
     inkscape:cy="65.103458"
     inkscape:document-units="px"
     inkscape:current-layer="layer1"
     showgrid="false"
     inkscape:window-width="1366"
     inkscape:window-height="716"
     inkscape:window-x="0"
     inkscape:window-y="0"
     inkscape:window-maximized="1" />
  <metadata
     id="metadata4168">
    <rdf:RDF>
      <cc:Work
         rdf:about="">
        <dc:format>image/svg+xml</dc:format>
        <dc:type
           rdf:resource="http://purl.org/dc/dcmitype/StillImage" />
        <dc:title></dc:title>
      </cc:Work>
    </rdf:RDF>
  </metadata>
  <g
     transform="translate(0,-912.36218)"
     id="g4798"
     inkscape:groupmode="layer"
     inkscape:label="set">
    <path
       sodipodi:nodetypes="sszs"
       inkscape:connector-curvature="0"
       id="path4814"
       d="m 21.298062,1046.3255 c -1.542955,6.8779 -6.053169,6.8779 -7.596124,0 -2.997993,-13.3636 0.711968,-91.76379 3.798062,-91.76379 3.086094,0 6.796055,78.40019 3.798062,91.76379 z"
       inkscape:transform-center-y="-5.1995036"
       style="fill:#00ffe2;fill-opacity:0.50641025;fill-rule:nonzero;stroke:none" />
    <path
       style="fill:#00ffe2;fill-opacity:0.50641025;fill-rule:nonzero;stroke:none"
       inkscape:transform-center-y="-20.863511"
       d="m 20.048563,1046.9739 c -1.035349,4.6152 -4.061777,4.6152 -5.097126,0 -2.011703,-8.9673 -0.132186,-61.87651 2.548563,-61.87651 2.680749,0 4.560266,52.90921 2.548563,61.87651 z"
       id="path4816"
       inkscape:connector-curvature="0"
       sodipodi:nodetypes="ssss" />
  </g>
  <g
     inkscape:label="attack"
     inkscape:groupmode="layer"
     id="layer1"
     transform="translate(0,-912.36218)"
     style="display:inline">
    <path
       style="fill:#00ffe2;fill-opacity:0.50641025;fill-rule:nonzero;stroke:none"
       inkscape:transform-center-y="-5.1995036"
       d="m 21.662935,1046.2944 c -1.691185,7.5386 -6.634685,7.5386 -8.325869,0 C 10.051061,1031.6469 17.5,915.63315 17.5,915.63315 c 0,0 7.448939,116.01375 4.162935,130.66125 z"
       id="path4273"
       inkscape:connector-curvature="0"
       sodipodi:nodetypes="sscs" />
    <path
       sodipodi:nodetypes="sscs"
       inkscape:connector-curvature="0"
       id="path4784"
       d="m 20.293399,1047.005 c -1.134813,5.0586 -4.451985,5.0586 -5.586797,0 C 12.501638,1037.1763 17.5,935.09739 17.5,935.09739 c 0,0 4.998362,102.07891 2.793399,111.90761 z"
       inkscape:transform-center-y="-20.863511"
       style="fill:#00ffe2;fill-opacity:0.50641025;fill-rule:nonzero;stroke:none" />
  </g>
</svg>
