<?xml version="1.0" encoding="UTF-8" standalone="no"?>
<!-- Created with Inkscape (http://www.inkscape.org/) -->

<svg
   xmlns:dc="http://purl.org/dc/elements/1.1/"
   xmlns:cc="http://creativecommons.org/ns#"
   xmlns:rdf="http://www.w3.org/1999/02/22-rdf-syntax-ns#"
   xmlns:svg="http://www.w3.org/2000/svg"
   xmlns="http://www.w3.org/2000/svg"
   xmlns:sodipodi="http://sodipodi.sourceforge.net/DTD/sodipodi-0.dtd"
   xmlns:inkscape="http://www.inkscape.org/namespaces/inkscape"
   width="35"
   height="35"
   id="svg4951"
   version="1.1"
   inkscape:version="0.48.5 r10040"
   sodipodi:docname="fear.xcf">
  <defs
     id="defs4953">
    <filter
       inkscape:collect="always"
       id="filter5007">
      <feGaussianBlur
         inkscape:collect="always"
         stdDeviation="0.8625"
         id="feGaussianBlur5009" />
    </filter>
    <filter
       color-interpolation-filters="sRGB"
       inkscape:collect="always"
       id="filter5007-3">
      <feGaussianBlur
         inkscape:collect="always"
         stdDeviation="0.8625"
         id="feGaussianBlur5009-5" />
    </filter>
  </defs>
  <sodipodi:namedview
     id="base"
     pagecolor="#ffffff"
     bordercolor="#666666"
     borderopacity="1.0"
     inkscape:pageopacity="0.0"
     inkscape:pageshadow="2"
     inkscape:zoom="8"
     inkscape:cx="29.245581"
     inkscape:cy="10.71142"
     inkscape:document-units="px"
     inkscape:current-layer="layer3"
     showgrid="false"
     inkscape:window-width="1366"
     inkscape:window-height="715"
     inkscape:window-x="0"
     inkscape:window-y="0"
     inkscape:window-maximized="1" />
  <metadata
     id="metadata4956">
    <rdf:RDF>
      <cc:Work
         rdf:about="">
        <dc:format>image/svg+xml</dc:format>
        <dc:type
           rdf:resource="http://purl.org/dc/dcmitype/StillImage" />
        <dc:title></dc:title>
      </cc:Work>
    </rdf:RDF>
  </metadata>
  <g
     inkscape:label="0"
     inkscape:groupmode="layer"
     id="layer1"
     transform="translate(0,-1017.3622)"
     style="display:inline"
     sodipodi:insensitive="true">
    <path
       sodipodi:type="arc"
       style="fill:#ff0000;fill-opacity:1;fill-rule:nonzero;stroke:none;display:inline;filter:url(#filter5007-3)"
       id="path4049-7"
       sodipodi:cx="16.25"
       sodipodi:cy="19.25"
       sodipodi:rx="14.375"
       sodipodi:ry="14.375"
       d="m 30.625,19.25 a 14.375,14.375 0 1 1 -28.75,0 14.375,14.375 0 1 1 28.75,0 z"
       transform="matrix(1.0434783,0,0,1.0434783,0.54347762,1014.7752)" />
    <path
       style="fill:#1a1a1a;fill-opacity:1;fill-rule:nonzero;stroke:none"
       d="M 4.59375,0 8.6875,10.03125 1.125,7.25 4.40625,13.8125 0,20.4375 5.3125,19.28125 3.21875,29.9375 8.90625,24.6875 9.625,35 l 7.40625,-10.25 6.84375,7.8125 2,-7.03125 6.65625,2.3125 L 27.0625,15.8125 35,11.96875 26.65625,9.875 33.625,2.625 24.40625,5.59375 18.6875,1.90625 12.21875,4.59375 4.59375,0 z m 5.875,11 1.125,0.6875 0.96875,-0.40625 0.84375,0.5625 1.375,-0.4375 -1.03125,1.0625 1.21875,0.3125 -1.1875,0.59375 0.8125,1.78125 -0.96875,-0.34375 -0.3125,1.03125 -1,-1.15625 -1.09375,1.53125 -0.125,-1.53125 -0.84375,0.78125 0.3125,-1.59375 -0.78125,0.1875 0.65625,-1 -0.5,-0.96875 L 11.0625,12.5 10.46875,11 z m 12,0 1.125,0.6875 0.96875,-0.40625 0.84375,0.5625 1.375,-0.4375 -1.03125,1.0625 1.21875,0.3125 -1.1875,0.59375 0.8125,1.78125 -0.96875,-0.34375 -0.3125,1.03125 -1,-1.15625 -1.09375,1.53125 -0.125,-1.53125 -0.84375,0.78125 0.3125,-1.59375 -0.78125,0.1875 0.65625,-1 -0.5,-0.96875 L 23.0625,12.5 22.46875,11 z m -8.1875,5.5 2.5,0.6875 2.09375,-0.40625 1.875,0.5625 3.03125,-0.4375 -2.28125,1.0625 2.71875,0.3125 L 21.625,18.875 23.40625,20.65625 21.25,20.3125 l -0.65625,1.03125 -2.25,-1.15625 -2.4375,1.53125 -0.21875,-1.53125 -1.875,0.78125 0.6875,-1.59375 -1.71875,0.1875 1.4375,-1 L 13.125,17.59375 15.625,18 14.28125,16.5 z"
       transform="translate(0,1017.3622)"
       id="path4959"
       inkscape:connector-curvature="0" />
  </g>
  <g
     inkscape:groupmode="layer"
     id="layer3"
     inkscape:label="1"
     style="display:inline">
    <path
       sodipodi:type="arc"
       style="fill:#ff0000;fill-opacity:1;fill-rule:nonzero;stroke:none;filter:url(#filter5007)"
       id="path4049"
       sodipodi:cx="16.25"
       sodipodi:cy="19.25"
       sodipodi:rx="14.375"
       sodipodi:ry="14.375"
       d="m 30.625,19.25 a 14.375,14.375 0 1 1 -28.75,0 14.375,14.375 0 1 1 28.75,0 z"
       transform="matrix(0.94466407,0,0,0.94466407,2.1492088,-0.68478339)" />
    <path
       style="fill:#1a1a1a;fill-opacity:1;fill-rule:nonzero;stroke:none;display:inline"
       d="M 9.6640625,6.875 1.8199146,9.0306967 7.5580357,11.276786 0.53124999,13.213879 6.875,19.283482 1.7475,20.553319 8.8292411,25.051339 0.82056033,33.203242 12.71875,28.125 17.054905,29.689661 21.370536,26.645089 32.820557,31.082386 26.626116,23.780134 34.9375,13.756881 28.125,14.141741 30.810606,11.5 27.290179,8.46875 31.829698,0.55874999 18.220982,8.0323661 15.005127,1.5133355 z m 2.9296875,3.25 0.625,1.875 1.15625,-0.5625 0,0.59375 0.59375,0.46875 -1.40625,1.59375 0.8125,0.96875 -1.3125,-1 0.40625,1.21875 -1.5625,-0.1875 L 11.9375,16.25 10.71875,14.9375 10.15625,14.65625 10.6875,13.8125 9.5,13.34375 9.90625,12.75 9.5,12.375 l 0.84375,-0.21875 0.71875,-1.09375 0.40625,0.78125 z m 11.875,0 0.5625,1.625 1.21875,-0.3125 -0.1875,1.125 0.78125,-0.0625 -1.0625,0.40625 0.46875,2.15625 -0.34375,-0.875 -0.5625,1.09375 L 24.75,14.59375 23.8125,16.25 23.25,14.59375 l -1.21875,0.0625 0.15625,-0.375 -0.8125,-0.9375 1.0625,-0.40625 -1.0625,-0.5625 1.5,-0.71875 0.0625,-0.59375 0.53125,0.1875 z m -5.53125,5.53125 1.625,1.90625 2.5,-0.59375 -1.84375,0.5625 3.25,0.5 -3.28125,0.65625 1.90625,1.90625 -2.6875,-0.5625 L 21,20.8125 l -1.84375,-0.5 -1.75,1.46875 -0.625,-1.84375 -3.53125,0.28125 0.28125,-0.375 -1.8125,-0.96875 2,-0.78125 -2.03125,-0.1875 4.25,-0.53125 -0.59375,-0.78125 3,-0.125 z"
       id="path4959-7"
       inkscape:connector-curvature="0"
       sodipodi:nodetypes="cccccccccccccccccccccccccccccccccccccccccccccccccccccccccccccccccccccccccccccccccccc" />
  </g>
</svg>
