<?xml version="1.0" encoding="UTF-8" standalone="no"?>
<!-- Created with Inkscape (http://www.inkscape.org/) -->

<svg
   xmlns:dc="http://purl.org/dc/elements/1.1/"
   xmlns:cc="http://creativecommons.org/ns#"
   xmlns:rdf="http://www.w3.org/1999/02/22-rdf-syntax-ns#"
   xmlns:svg="http://www.w3.org/2000/svg"
   xmlns="http://www.w3.org/2000/svg"
   xmlns:sodipodi="http://sodipodi.sourceforge.net/DTD/sodipodi-0.dtd"
   xmlns:inkscape="http://www.inkscape.org/namespaces/inkscape"
   width="35"
   height="35"
   id="svg2"
   version="1.1"
   inkscape:version="0.48.5 r10040"
   sodipodi:docname="you.svg"
   inkscape:export-filename="/home/vg/Project/teaching/videogame/gdf/the-game/assets/you.png"
   inkscape:export-xdpi="90.055107"
   inkscape:export-ydpi="90.055107">
  <defs
     id="defs4" />
  <sodipodi:namedview
     id="base"
     pagecolor="#ffffff"
     bordercolor="#666666"
     borderopacity="1.0"
     inkscape:pageopacity="0.0"
     inkscape:pageshadow="2"
     inkscape:zoom="2.8284271"
     inkscape:cx="124.05899"
     inkscape:cy="10.908932"
     inkscape:document-units="px"
     inkscape:current-layer="layer1"
     showgrid="false"
     fit-margin-top="0"
     fit-margin-left="0"
     fit-margin-right="0"
     fit-margin-bottom="0"
     inkscape:window-width="1366"
     inkscape:window-height="715"
     inkscape:window-x="0"
     inkscape:window-y="0"
     inkscape:window-maximized="1" />
  <metadata
     id="metadata7">
    <rdf:RDF>
      <cc:Work
         rdf:about="">
        <dc:format>image/svg+xml</dc:format>
        <dc:type
           rdf:resource="http://purl.org/dc/dcmitype/StillImage" />
        <dc:title />
      </cc:Work>
    </rdf:RDF>
  </metadata>
  <g
     inkscape:label="Layer 1"
     inkscape:groupmode="layer"
     id="layer1"
     transform="translate(-2.7157292,-3.4375615)">
    <path
       style="fill:none;stroke:#1a1a1a;stroke-width:1;stroke-linecap:round;stroke-linejoin:round;stroke-miterlimit:4;stroke-opacity:1"
       inkscape:transform-center-y="-0.84432851"
       d="m 118.68124,7.8366362 0.44997,6.6569618 -5.84968,-1e-6 z"
       id="path3897"
       inkscape:connector-curvature="0"
       sodipodi:nodetypes="cccc" />
    <path
       sodipodi:nodetypes="cccc"
       inkscape:connector-curvature="0"
       id="path3900"
       d="m 112.67084,7.8366362 -0.44997,6.6569618 5.84968,-1e-6 z"
       inkscape:transform-center-y="-0.84432826"
       style="fill:none;stroke:#1a1a1a;stroke-width:1;stroke-linecap:round;stroke-linejoin:round;stroke-miterlimit:4;stroke-opacity:1" />
    <path
       transform="matrix(0.96592583,0.08051631,-0.25881905,0.30049097,12.906056,10.232363)"
       style="fill:#de8787;stroke:#1a1a1a;stroke-width:1.79290044;stroke-linecap:round;stroke-linejoin:round;stroke-miterlimit:4;stroke-opacity:1;stroke-dasharray:none"
       inkscape:transform-center-x="2.1941854"
       d="m 95.231421,44.667746 c -4.069845,-6.442723 -3.916028,-17.899256 -0.74805,-13.457779 2.516,3.527408 2.909735,-0.642609 0.400495,-4.898349 -3.393257,-5.755059 1.839023,-8.279505 2.670362,-14.108215 1.311501,4.894594 2.623002,9.789187 3.934502,14.683781 -1.499017,0.123003 -6.111332,-4.162487 -3.595386,3.492153 2.316136,7.046723 -0.07564,8.313712 -1.888381,5.875084 -2.674058,-3.597324 -4.507163,-1.25425 -0.773542,8.413325 z"
       id="path3115"
       inkscape:connector-curvature="0"
       sodipodi:nodetypes="cssccssc" />
    <path
       style="fill:none;stroke:#1a1a1a;stroke-width:1;stroke-linecap:round;stroke-linejoin:round;stroke-miterlimit:4;stroke-opacity:1"
       inkscape:transform-center-y="1.0680005"
       d="m 105.43564,26.932396 4.92445,-1e-6 -6.52809,7.998993 z"
       id="path3118"
       inkscape:connector-curvature="0"
       sodipodi:nodetypes="cccc" />
    <path
       sodipodi:nodetypes="cccc"
       inkscape:connector-curvature="0"
       id="path3889"
       d="m 117.24173,26.932396 -4.92445,-1e-6 6.52809,7.998993 z"
       inkscape:transform-center-y="1.0680002"
       style="fill:none;stroke:#1a1a1a;stroke-width:1;stroke-linecap:round;stroke-linejoin:round;stroke-miterlimit:4;stroke-opacity:1" />
    <path
       style="fill:none;stroke:#1a1a1a;stroke-width:1;stroke-linecap:round;stroke-linejoin:round;stroke-miterlimit:4;stroke-opacity:1"
       inkscape:transform-center-y="1.0680002"
       d="m 114.59008,27.816279 -4.92445,-1e-6 6.52809,7.998993 z"
       id="path3891"
       inkscape:connector-curvature="0"
       sodipodi:nodetypes="cccc" />
    <path
       sodipodi:nodetypes="cccc"
       inkscape:connector-curvature="0"
       id="path3893"
       d="m 108.26407,27.639503 4.92445,-1e-6 -6.52809,7.998993 z"
       inkscape:transform-center-y="1.0680005"
       style="fill:none;stroke:#1a1a1a;stroke-width:1;stroke-linecap:round;stroke-linejoin:round;stroke-miterlimit:4;stroke-opacity:1" />
    <rect
       style="fill:none;stroke:#1a1a1a;stroke-width:1;stroke-linecap:round;stroke-linejoin:round;stroke-miterlimit:4;stroke-opacity:1;stroke-dasharray:none"
       id="rect3895"
       width="4.5961943"
       height="4.9497471"
       x="117.73328"
       y="17.852661"
       transform="translate(2.7157292,3.4375615)" />
    <path
       sodipodi:type="arc"
       style="fill:#54a5dc;fill-opacity:1;stroke:#1a1a1a;stroke-width:2.17422915;stroke-linecap:round;stroke-linejoin:round;stroke-miterlimit:4;stroke-opacity:1;stroke-dasharray:none"
       id="path3756"
       sodipodi:cx="51.5"
       sodipodi:cy="28.362183"
       sodipodi:rx="19.5"
       sodipodi:ry="16.5"
       d="m 71,28.362183 c 0,9.112698 -8.730447,16.5 -19.5,16.5 -10.769553,0 -19.5,-7.387302 -19.5,-16.5 0,-9.112699 8.730447,-16.5 19.5,-16.5 10.769553,0 19.5,7.387301 19.5,16.5 z"
       transform="matrix(0.84615385,0,0,1,-23.361194,-7.4246212)" />
    <path
       sodipodi:type="arc"
       style="fill:#1a1a1a;fill-opacity:1;stroke:none"
       id="path3758"
       sodipodi:cx="57"
       sodipodi:cy="29.862183"
       sodipodi:rx="3.5"
       sodipodi:ry="3.5"
       d="m 60.5,29.862183 c 0,1.932996 -1.567003,3.5 -3.5,3.5 -1.932997,0 -3.5,-1.567004 -3.5,-3.5 0,-1.932997 1.567003,-3.5 3.5,-3.5 1.932997,0 3.5,1.567003 3.5,3.5 z"
       transform="matrix(1.1428571,0,0,1.1428571,-44.028527,-11.690647)" />
    <path
       transform="matrix(1.1428571,0,0,1.1428571,-32.007711,-11.690647)"
       d="m 60.5,29.862183 c 0,1.932996 -1.567003,3.5 -3.5,3.5 -1.932997,0 -3.5,-1.567004 -3.5,-3.5 0,-1.932997 1.567003,-3.5 3.5,-3.5 1.932997,0 3.5,1.567003 3.5,3.5 z"
       sodipodi:ry="3.5"
       sodipodi:rx="3.5"
       sodipodi:cy="29.862183"
       sodipodi:cx="57"
       id="path3760"
       style="fill:#1a1a1a;fill-opacity:1;stroke:none"
       sodipodi:type="arc" />
    <path
       sodipodi:type="arc"
       style="fill:#1a1a1a;fill-opacity:1;fill-rule:nonzero;stroke:#1a1a1a;stroke-width:1;stroke-linecap:round;stroke-linejoin:round;stroke-miterlimit:4;stroke-opacity:1;stroke-dasharray:none"
       id="path3096"
       sodipodi:cx="68.875"
       sodipodi:cy="-0.75000036"
       sodipodi:rx="12.25"
       sodipodi:ry="12.25"
       d="m 81.125,-0.75000036 a 12.25,12.25 0 1 1 -24.5,0 12.25,12.25 0 1 1 24.5,0 z"
       transform="matrix(0.80392157,0,0,0.80392157,16.211748,-5.4594975)" />
    <path
       style="fill:#1a1a1a;fill-opacity:1;fill-rule:nonzero;stroke:#1a1a1a;stroke-width:0.83299315;stroke-linecap:round;stroke-linejoin:round;stroke-miterlimit:4;stroke-opacity:1"
       d="m 80.081846,32.062562 c 0,3.382744 -4.405182,2.585876 -5.239593,1.974558 -0.834411,-0.611318 -0.913197,-14.208315 -3.260407,-14.208315 -2.34721,0 -2.425997,13.596997 -3.260408,14.208315 -0.834411,0.611318 -5.239592,1.408186 -5.239592,-1.974558 0,-6.765488 3.80558,-25.5000001 8.5,-25.5000001 4.69442,0 8.5,18.7345121 8.5,25.5000001 z"
       id="path3098"
       inkscape:connector-curvature="0"
       sodipodi:nodetypes="sssssss" />
    <path
       sodipodi:nodetypes="sszsszs"
       inkscape:connector-curvature="0"
       id="path3103"
       d="m 85.200483,19.253918 c 0,4.114786 -1.841742,3.736694 -4.241548,2.401862 -2.399806,-1.334832 0.681104,-10.798149 -9.377089,-10.798149 -10.058193,0 -6.977284,9.463317 -9.37709,10.798149 -2.399806,1.334832 -4.241547,1.712924 -4.241547,-2.401862 0,-8.229571 5.497336,-15.8163561 13.618637,-15.8163561 8.121301,0 13.618637,7.5867851 13.618637,15.8163561 z"
       style="fill:#1a1a1a;fill-opacity:1;fill-rule:nonzero;stroke:#1a1a1a;stroke-width:0.93031031;stroke-linecap:round;stroke-linejoin:round;stroke-miterlimit:4;stroke-opacity:1" />
    <path
       transform="matrix(0.80392157,0,0,0.80392157,56.516835,21.94089)"
       d="m 81.125,-0.75000036 a 12.25,12.25 0 1 1 -24.5,0 12.25,12.25 0 1 1 24.5,0 z"
       sodipodi:ry="12.25"
       sodipodi:rx="12.25"
       sodipodi:cy="-0.75000036"
       sodipodi:cx="68.875"
       id="path3105"
       style="fill:#de8787;fill-opacity:1;fill-rule:nonzero;stroke:#1a1a1a;stroke-width:1;stroke-linecap:round;stroke-linejoin:round;stroke-miterlimit:4;stroke-opacity:1;stroke-dasharray:none"
       sodipodi:type="arc" />
    <path
       sodipodi:type="arc"
       style="fill:#1a1a1a;fill-opacity:1;fill-rule:nonzero;stroke:none"
       id="path3107"
       sodipodi:cx="112.2532"
       sodipodi:cy="19.090097"
       sodipodi:rx="3.5355339"
       sodipodi:ry="3.5355339"
       d="m 115.78873,19.090097 a 3.5355339,3.5355339 0 1 1 -7.07107,0 3.5355339,3.5355339 0 1 1 7.07107,0 z"
       transform="matrix(0.5,0,0,0.5,62.024307,10.684513)" />
    <path
       sodipodi:type="arc"
       style="fill:#1a1a1a;fill-opacity:1;fill-rule:nonzero;stroke:#1a1a1a;stroke-width:1;stroke-linecap:round;stroke-linejoin:round;stroke-miterlimit:4;stroke-opacity:1;stroke-dasharray:none"
       id="path3905"
       sodipodi:cx="148"
       sodipodi:cy="-11"
       sodipodi:rx="8.5"
       sodipodi:ry="8.5"
       d="m 156.5,-11 a 8.5,8.5 0 1 1 -17,0 8.5,8.5 0 1 1 17,0 z"
       transform="translate(4.5907292,2.7001246)" />
    <path
       style="fill:#1a1a1a;fill-opacity:1;fill-rule:nonzero;stroke:#1a1a1a;stroke-width:3;stroke-linecap:round;stroke-linejoin:round;stroke-miterlimit:4;stroke-opacity:1;stroke-dasharray:none"
       d="M 147,-5.25 147,10"
       id="path3907"
       inkscape:connector-curvature="0"
       transform="translate(2.7157292,3.4375615)" />
    <path
       style="fill:none;stroke:#1a1a1a;stroke-width:3;stroke-linecap:round;stroke-linejoin:round;stroke-miterlimit:4;stroke-opacity:1;stroke-dasharray:none"
       d="m 145.21573,34.187561 c 1.36784,-13.332344 2.73914,-21.354497 4.59278,-20.609048 1.49074,0.599509 3.29345,6.869726 5.65722,20.609048"
       id="path3909"
       inkscape:connector-curvature="0"
       sodipodi:nodetypes="csc" />
    <path
       sodipodi:nodetypes="cssc"
       inkscape:connector-curvature="0"
       id="path3911"
       d="m 142.96573,19.187561 c 1.40859,-7.115025 -0.6389,-14.5812737 3.28732,-16.6124572 2.4473,-1.266087 3.26629,-1.0102046 5.97352,0.1115328 4.00683,1.6602226 1.9117,8.0172524 3.6016,15.3241474"
       style="fill:none;stroke:#1a1a1a;stroke-width:3;stroke-linecap:round;stroke-linejoin:round;stroke-miterlimit:4;stroke-opacity:1;stroke-dasharray:none" />
  </g>
</svg>
