<?xml version="1.0" encoding="UTF-8" standalone="no"?>
<!-- Created with Inkscape (http://www.inkscape.org/) -->

<svg
   xmlns:dc="http://purl.org/dc/elements/1.1/"
   xmlns:cc="http://creativecommons.org/ns#"
   xmlns:rdf="http://www.w3.org/1999/02/22-rdf-syntax-ns#"
   xmlns:svg="http://www.w3.org/2000/svg"
   xmlns="http://www.w3.org/2000/svg"
   xmlns:sodipodi="http://sodipodi.sourceforge.net/DTD/sodipodi-0.dtd"
   xmlns:inkscape="http://www.inkscape.org/namespaces/inkscape"
   width="20.008114"
   height="20.0056"
   id="svg2"
   version="1.1"
   inkscape:version="0.48.5 r10040"
   inkscape:export-filename="/home/vg/Learning/umsa/inf281/perfil/retail/indispensable.png"
   inkscape:export-xdpi="90.148224"
   inkscape:export-ydpi="90.148224"
   sodipodi:docname="New document 1">
  <defs
     id="defs4">
    <filter
       inkscape:collect="always"
       id="filter3888"
       x="-0.43551633"
       width="1.8710327"
       y="-0.12645853"
       height="1.2529171"
       color-interpolation-filters="sRGB">
      <feGaussianBlur
         inkscape:collect="always"
         stdDeviation="0.89359929"
         id="feGaussianBlur3890" />
    </filter>
  </defs>
  <sodipodi:namedview
     id="base"
     pagecolor="#ffffff"
     bordercolor="#666666"
     borderopacity="1.0"
     inkscape:pageopacity="0.0"
     inkscape:pageshadow="2"
     inkscape:zoom="1"
     inkscape:cx="32.266414"
     inkscape:cy="-7.6405919"
     inkscape:document-units="px"
     inkscape:current-layer="layer1"
     showgrid="false"
     fit-margin-top="0"
     fit-margin-left="0"
     fit-margin-right="0"
     fit-margin-bottom="0"
     inkscape:window-width="1366"
     inkscape:window-height="715"
     inkscape:window-x="0"
     inkscape:window-y="0"
     inkscape:window-maximized="1" />
  <metadata
     id="metadata7">
    <rdf:RDF>
      <cc:Work
         rdf:about="">
        <dc:format>image/svg+xml</dc:format>
        <dc:type
           rdf:resource="http://purl.org/dc/dcmitype/StillImage" />
        <dc:title></dc:title>
      </cc:Work>
    </rdf:RDF>
  </metadata>
  <g
     inkscape:label="Layer 1"
     inkscape:groupmode="layer"
     id="layer1"
     transform="translate(-20.7299,-33.954273)">
    <rect
       style="fill:#782121;fill-opacity:1;stroke:none"
       id="rect3762"
       width="20"
       height="20"
       x="20.738014"
       y="33.954273" />
    <path
       id="path3798"
       d="m 40.7299,53.959873 0,-18.8125 c 0,10.422125 -8.390375,18.8125 -18.8125,18.8125 l 18.8125,0 z m -18.8125,0 c -0.399316,0 -0.794506,-0.03822 -1.1875,-0.0625 l 0,0.0625 1.1875,0 z m 18.8125,-19.1875 0,-0.8125 -0.03125,0 c 0.0114,0.270127 0.03125,0.53947 0.03125,0.8125 z"
       style="fill:#501616;fill-opacity:1;stroke:none"
       inkscape:connector-curvature="0" />
    <path
       style="fill:#a02c2c;fill-opacity:1;stroke:none"
       d="m -3.21875,0 0,18.8125 C -3.21875,8.390375 5.171625,0 15.59375,0 l -18.8125,0 z m 18.8125,0 c 0.399316,0 0.794506,0.03822374 1.1875,0.0625 l 0,-0.0625 -1.1875,0 z m -18.8125,19.1875 0,0.8125 0.03125,0 c -0.011402,-0.270127 -0.03125,-0.53947 -0.03125,-0.8125 z"
       transform="translate(23.94865,33.959873)"
       id="rect3793"
       inkscape:connector-curvature="0" />
    <path
       style="fill:#c83737;fill-opacity:1;stroke:none"
       d="m -3.21875,0 0,4.875 C -3.21875,2.17425 -1.0445,0 1.65625,0 l -4.875,0 z m 15.125,0 c 2.70075,0 4.875,2.17425 4.875,4.875 l 0,-4.875 -4.875,0 z"
       transform="translate(23.94865,33.959873)"
       id="rect3769"
       inkscape:connector-curvature="0" />
    <path
       style="fill:#280b0b;fill-opacity:1;stroke:none"
       d="m -3.21875,15.125 0,4.875 4.875,0 c -2.70075,0 -4.875,-2.17425 -4.875,-4.875 z m 20,0 c 0,2.70075 -2.17425,4.875 -4.875,4.875 l 4.875,0 0,-4.875 z"
       transform="translate(23.94865,33.959873)"
       id="path3772"
       inkscape:connector-curvature="0" />
    <g
       id="g3800"
       style="font-size:21.69949341px;font-style:normal;font-weight:normal;line-height:125%;letter-spacing:0px;word-spacing:0px;fill:#ffffff;fill-opacity:1;stroke:none;filter:url(#filter3888);font-family:Sans"
       transform="matrix(1.101333,0,0,0.73037386,-1.0332878,11.833639)">
      <path
         sodipodi:nodetypes="cccccccccccc"
         inkscape:connector-curvature="0"
         id="path3802"
         style="font-weight:bold;fill:#ffffff;-inkscape-font-specification:Sans Bold"
         d="m 26.385864,35.498735 4.924358,0 0,6.071196 -1.465363,4.4289 -1.993632,0 -1.465363,-4.4289 0,-6.071196 m 0.554997,13.187241 3.814364,0 0,3.771982 -3.814364,0 0,-3.771982" />
    </g>
    <g
       transform="matrix(1.0135181,0,0,0.67213742,1.5000003,14.394781)"
       style="font-size:21.69949341px;font-style:normal;font-weight:normal;line-height:125%;letter-spacing:0px;word-spacing:0px;fill:#ffffff;fill-opacity:1;stroke:none;font-family:Sans"
       id="text3755">
      <path
         d="m 26.385864,35.498735 4.924358,0 0,6.071196 -1.465363,4.4289 -1.993632,0 -1.465363,-4.4289 0,-6.071196 m 0.554997,13.187241 3.814364,0 0,3.771982 -3.814364,0 0,-3.771982"
         style="font-weight:bold;fill:#ffffff;-inkscape-font-specification:Sans Bold"
         id="path3765"
         inkscape:connector-curvature="0"
         sodipodi:nodetypes="cccccccccccc" />
    </g>
  </g>
</svg>
