<?xml version="1.0" encoding="UTF-8" standalone="no"?>
<!-- Created with Inkscape (http://www.inkscape.org/) -->

<svg
   xmlns:dc="http://purl.org/dc/elements/1.1/"
   xmlns:cc="http://creativecommons.org/ns#"
   xmlns:rdf="http://www.w3.org/1999/02/22-rdf-syntax-ns#"
   xmlns:svg="http://www.w3.org/2000/svg"
   xmlns="http://www.w3.org/2000/svg"
   xmlns:sodipodi="http://sodipodi.sourceforge.net/DTD/sodipodi-0.dtd"
   xmlns:inkscape="http://www.inkscape.org/namespaces/inkscape"
   width="20.008104"
   height="20.005606"
   id="svg3917"
   version="1.1"
   inkscape:version="0.48.5 r10040"
   sodipodi:docname="si-es-posible.svg"
   inkscape:export-filename="/home/vg/Learning/umsa/inf281/perfil/retail/si-es-posible.png"
   inkscape:export-xdpi="90.148224"
   inkscape:export-ydpi="90.148224">
  <defs
     id="defs3919" />
  <sodipodi:namedview
     id="base"
     pagecolor="#ffffff"
     bordercolor="#666666"
     borderopacity="1.0"
     inkscape:pageopacity="0.0"
     inkscape:pageshadow="2"
     inkscape:zoom="1"
     inkscape:cx="19.382571"
     inkscape:cy="13.584533"
     inkscape:document-units="px"
     inkscape:current-layer="layer1"
     showgrid="false"
     fit-margin-top="0"
     fit-margin-left="0"
     fit-margin-right="0"
     fit-margin-bottom="0"
     inkscape:window-width="1366"
     inkscape:window-height="715"
     inkscape:window-x="0"
     inkscape:window-y="0"
     inkscape:window-maximized="1" />
  <metadata
     id="metadata3922">
    <rdf:RDF>
      <cc:Work
         rdf:about="">
        <dc:format>image/svg+xml</dc:format>
        <dc:type
           rdf:resource="http://purl.org/dc/dcmitype/StillImage" />
        <dc:title></dc:title>
      </cc:Work>
    </rdf:RDF>
  </metadata>
  <g
     inkscape:label="Layer 1"
     inkscape:groupmode="layer"
     id="layer1"
     transform="translate(-244.28166,-622.35938)">
    <rect
       y="622.35938"
       x="244.28976"
       height="20"
       width="20"
       id="rect3892"
       style="fill:#2ca02c;fill-opacity:1;stroke:none" />
    <path
       inkscape:connector-curvature="0"
       style="fill:#217821;fill-opacity:1;stroke:none"
       d="m 264.28166,642.36498 0,-18.8125 c 0,10.42213 -8.39038,18.8125 -18.8125,18.8125 l 18.8125,0 z m -18.8125,0 c -0.39932,0 -0.79451,-0.0382 -1.1875,-0.0625 l 0,0.0625 1.1875,0 z m 18.8125,-19.1875 0,-0.8125 -0.0312,0 c 0.0114,0.27013 0.0312,0.53947 0.0312,0.8125 z"
       id="path3894" />
    <path
       id="path3896"
       d="m 244.28166,622.36498 0,18.8125 c 0,-10.42212 8.39037,-18.8125 18.8125,-18.8125 l -18.8125,0 z m 18.8125,0 c 0.39931,0 0.7945,0.0382 1.1875,0.0625 l 0,-0.0625 -1.1875,0 z m -18.8125,19.1875 0,0.8125 0.0312,0 c -0.0114,-0.27012 -0.0312,-0.53947 -0.0312,-0.8125 z"
       style="fill:#37c837;fill-opacity:1;stroke:none"
       inkscape:connector-curvature="0" />
    <path
       id="path3898"
       d="m 244.28166,622.36498 0,4.875 c 0,-2.70075 2.17425,-4.875 4.875,-4.875 l -4.875,0 z m 15.125,0 c 2.70075,0 4.875,2.17425 4.875,4.875 l 0,-4.875 -4.875,0 z"
       style="fill:#5fd35f;fill-opacity:1;stroke:none"
       inkscape:connector-curvature="0" />
    <path
       id="path3900"
       d="m 244.28166,637.48998 0,4.875 4.875,0 c -2.70075,0 -4.875,-2.17425 -4.875,-4.875 z m 20,0 c 0,2.70075 -2.17425,4.875 -4.875,4.875 l 4.875,0 0,-4.875 z"
       style="fill:#165016;fill-opacity:1;stroke:none"
       inkscape:connector-curvature="0" />
    <text
       xml:space="preserve"
       style="font-size:17.74166298000000097px;font-style:normal;font-weight:normal;line-height:125%;letter-spacing:0px;word-spacing:0px;fill:#1a1a1a;fill-opacity:1;stroke:none;font-family:Sans"
       x="249.9689"
       y="638.70471"
       id="text3940"
       sodipodi:linespacing="125%"><tspan
         sodipodi:role="line"
         id="tspan3942"
         x="249.9689"
         y="638.70471"
         style="font-weight:bold;fill:#1a1a1a;-inkscape-font-specification:Sans Bold">?</tspan></text>
  </g>
</svg>
