<?xml version="1.0" encoding="UTF-8" standalone="no"?>
<!-- Created with Inkscape (http://www.inkscape.org/) -->

<svg
   xmlns:dc="http://purl.org/dc/elements/1.1/"
   xmlns:cc="http://creativecommons.org/ns#"
   xmlns:rdf="http://www.w3.org/1999/02/22-rdf-syntax-ns#"
   xmlns:svg="http://www.w3.org/2000/svg"
   xmlns="http://www.w3.org/2000/svg"
   xmlns:sodipodi="http://sodipodi.sourceforge.net/DTD/sodipodi-0.dtd"
   xmlns:inkscape="http://www.inkscape.org/namespaces/inkscape"
   width="32"
   height="32"
   id="svg2"
   version="1.1"
   inkscape:version="0.48.3.1 r9886"
   sodipodi:docname="New document 1">
  <defs
     id="defs4" />
  <sodipodi:namedview
     id="base"
     pagecolor="#ffffff"
     bordercolor="#666666"
     borderopacity="1.0"
     inkscape:pageopacity="0.0"
     inkscape:pageshadow="2"
     inkscape:zoom="2.8284271"
     inkscape:cx="-3.4358739"
     inkscape:cy="-28.502153"
     inkscape:document-units="px"
     inkscape:current-layer="layer1"
     showgrid="false"
     fit-margin-top="0"
     fit-margin-left="0"
     fit-margin-right="0"
     fit-margin-bottom="0"
     inkscape:window-width="1280"
     inkscape:window-height="761"
     inkscape:window-x="0"
     inkscape:window-y="0"
     inkscape:window-maximized="1" />
  <metadata
     id="metadata7">
    <rdf:RDF>
      <cc:Work
         rdf:about="">
        <dc:format>image/svg+xml</dc:format>
        <dc:type
           rdf:resource="http://purl.org/dc/dcmitype/StillImage" />
        <dc:title></dc:title>
      </cc:Work>
    </rdf:RDF>
  </metadata>
  <g
     inkscape:label="0"
     inkscape:groupmode="layer"
     id="layer1"
     transform="translate(-43.596916,-89.923813)"
     sodipodi:insensitive="true"
     style="display:inline">
    <path
       sodipodi:type="arc"
       style="color:#000000;fill:#72ff00;fill-opacity:1;fill-rule:nonzero;stroke:#398000;stroke-width:9.46546745;stroke-linecap:round;stroke-linejoin:round;stroke-miterlimit:4;stroke-opacity:1;stroke-dasharray:none;stroke-dashoffset:0;marker:none;visibility:visible;display:inline;overflow:visible;enable-background:accumulate"
       id="path2985"
       sodipodi:cx="77.726051"
       sodipodi:cy="87.794678"
       sodipodi:rx="33.129135"
       sodipodi:ry="33.129135"
       d="m 110.85519,87.794678 a 33.129135,33.129135 0 1 1 -66.258274,0 33.129135,33.129135 0 1 1 66.258274,0 z"
       transform="matrix(0.42258875,0,0,0.42258875,26.750761,68.82277)" />
    <path
       style="color:#000000;fill:#ffffff;fill-opacity:1;fill-rule:nonzero;stroke:none;stroke-width:4;marker:none;visibility:visible;display:inline;overflow:visible;enable-background:accumulate"
       d="m 60.069284,95.419866 c -2.632944,0 -4.980902,1.09168 -6.722368,2.800987 0.173032,-0.0046 0.342968,-0.04309 0.517105,-0.04309 6.517869,0 12.27609,3.240767 15.771711,8.187497 0.05663,-0.42297 0.08618,-0.85429 0.08618,-1.29277 0,-5.330991 -4.321631,-9.652622 -9.652632,-9.652622 z"
       id="path3757"
       inkscape:connector-curvature="0" />
  </g>
  <g
     transform="translate(-43.596916,-89.923813)"
     id="g3760"
     inkscape:groupmode="layer"
     inkscape:label="1"
     style="display:inline"
     sodipodi:insensitive="true">
    <path
       transform="matrix(0.42258875,0,0,0.42258875,26.750761,68.82277)"
       d="m 110.85519,87.794678 a 33.129135,33.129135 0 1 1 -66.258274,0 33.129135,33.129135 0 1 1 66.258274,0 z"
       sodipodi:ry="33.129135"
       sodipodi:rx="33.129135"
       sodipodi:cy="87.794678"
       sodipodi:cx="77.726051"
       id="path3762"
       style="color:#000000;fill:#eaff00;fill-opacity:1;fill-rule:nonzero;stroke:#758000;stroke-width:9.46546745;stroke-linecap:round;stroke-linejoin:round;stroke-miterlimit:4;stroke-opacity:1;stroke-dasharray:none;stroke-dashoffset:0;marker:none;visibility:visible;display:inline;overflow:visible;enable-background:accumulate"
       sodipodi:type="arc" />
    <path
       inkscape:connector-curvature="0"
       id="path3764"
       d="m 60.069284,95.419866 c -2.632944,0 -4.980902,1.09168 -6.722368,2.800987 0.173032,-0.0046 0.342968,-0.04309 0.517105,-0.04309 6.517869,0 12.27609,3.240767 15.771711,8.187497 0.05663,-0.42297 0.08618,-0.85429 0.08618,-1.29277 0,-5.330991 -4.321631,-9.652622 -9.652632,-9.652622 z"
       style="color:#000000;fill:#ffffff;fill-opacity:1;fill-rule:nonzero;stroke:none;stroke-width:4;marker:none;visibility:visible;display:inline;overflow:visible;enable-background:accumulate" />
  </g>
  <g
     inkscape:groupmode="layer"
     id="layer2"
     inkscape:label="2"
     style="display:inline"
     sodipodi:insensitive="true">
    <path
       transform="matrix(0.42258875,0,0,0.42258875,-16.846155,-21.101043)"
       d="m 110.85519,87.794678 a 33.129135,33.129135 0 1 1 -66.258274,0 33.129135,33.129135 0 1 1 66.258274,0 z"
       sodipodi:ry="33.129135"
       sodipodi:rx="33.129135"
       sodipodi:cy="87.794678"
       sodipodi:cx="77.726051"
       id="path3762-1"
       style="color:#000000;fill:#ff9c00;fill-opacity:1;fill-rule:nonzero;stroke:#804f00;stroke-width:9.46546745;stroke-linecap:round;stroke-linejoin:round;stroke-miterlimit:4;stroke-opacity:1;stroke-dasharray:none;stroke-dashoffset:0;marker:none;visibility:visible;display:inline;overflow:visible;enable-background:accumulate"
       sodipodi:type="arc" />
    <path
       inkscape:connector-curvature="0"
       id="path3764-9"
       d="m 16.472368,5.4960524 c -2.632944,0 -4.980902,1.09168 -6.722368,2.800987 0.173032,-0.0046 0.342968,-0.04309 0.517105,-0.04309 6.517869,0 12.27609,3.2407676 15.771711,8.1874976 0.05663,-0.42297 0.08618,-0.85429 0.08618,-1.29277 0,-5.3309916 -4.321631,-9.6526226 -9.652632,-9.6526226 z"
       style="color:#000000;fill:#ffffff;fill-opacity:1;fill-rule:nonzero;stroke:none;stroke-width:4;marker:none;visibility:visible;display:inline;overflow:visible;enable-background:accumulate" />
  </g>
  <g
     inkscape:label="3"
     id="g3788"
     inkscape:groupmode="layer"
     sodipodi:insensitive="true"
     style="display:inline">
    <path
       sodipodi:type="arc"
       style="color:#000000;fill:#ff2400;fill-opacity:1;fill-rule:nonzero;stroke:#801200;stroke-width:9.46546745;stroke-linecap:round;stroke-linejoin:round;stroke-miterlimit:4;stroke-opacity:1;stroke-dasharray:none;stroke-dashoffset:0;marker:none;visibility:visible;display:inline;overflow:visible;enable-background:accumulate"
       id="path3790"
       sodipodi:cx="77.726051"
       sodipodi:cy="87.794678"
       sodipodi:rx="33.129135"
       sodipodi:ry="33.129135"
       d="m 110.85519,87.794678 a 33.129135,33.129135 0 1 1 -66.258274,0 33.129135,33.129135 0 1 1 66.258274,0 z"
       transform="matrix(0.42258875,0,0,0.42258875,-16.846155,-21.101043)" />
    <path
       style="color:#000000;fill:#ffffff;fill-opacity:1;fill-rule:nonzero;stroke:none;stroke-width:4;marker:none;visibility:visible;display:inline;overflow:visible;enable-background:accumulate"
       d="m 16.472368,5.4960524 c -2.632944,0 -4.980902,1.09168 -6.722368,2.800987 0.173032,-0.0046 0.342968,-0.04309 0.517105,-0.04309 6.517869,0 12.27609,3.2407676 15.771711,8.1874976 0.05663,-0.42297 0.08618,-0.85429 0.08618,-1.29277 0,-5.3309916 -4.321631,-9.6526226 -9.652632,-9.6526226 z"
       id="path3792"
       inkscape:connector-curvature="0" />
  </g>
  <g
     inkscape:groupmode="layer"
     id="g3794"
     inkscape:label="4"
     style="display:inline"
     sodipodi:insensitive="true">
    <path
       transform="matrix(0.42258875,0,0,0.42258875,-16.846155,-21.101043)"
       d="m 110.85519,87.794678 a 33.129135,33.129135 0 1 1 -66.258274,0 33.129135,33.129135 0 1 1 66.258274,0 z"
       sodipodi:ry="33.129135"
       sodipodi:rx="33.129135"
       sodipodi:cy="87.794678"
       sodipodi:cx="77.726051"
       id="path3796"
       style="color:#000000;fill:#353535;fill-opacity:1;fill-rule:nonzero;stroke:#000000;stroke-width:9.46546745;stroke-linecap:round;stroke-linejoin:round;stroke-miterlimit:4;stroke-opacity:1;stroke-dasharray:none;stroke-dashoffset:0;marker:none;visibility:visible;display:inline;overflow:visible;enable-background:accumulate"
       sodipodi:type="arc" />
    <path
       inkscape:connector-curvature="0"
       id="path3798"
       d="m 16.472368,5.4960524 c -2.632944,0 -4.980902,1.09168 -6.722368,2.800987 0.173032,-0.0046 0.342968,-0.04309 0.517105,-0.04309 6.517869,0 12.27609,3.2407676 15.771711,8.1874976 0.05663,-0.42297 0.08618,-0.85429 0.08618,-1.29277 0,-5.3309916 -4.321631,-9.6526226 -9.652632,-9.6526226 z"
       style="color:#000000;fill:#ffffff;fill-opacity:1;fill-rule:nonzero;stroke:none;stroke-width:4;marker:none;visibility:visible;display:inline;overflow:visible;enable-background:accumulate" />
  </g>
</svg>
