<?xml version="1.0" encoding="UTF-8" standalone="no"?>
<!-- Created with Inkscape (http://www.inkscape.org/) -->

<svg
   xmlns:dc="http://purl.org/dc/elements/1.1/"
   xmlns:cc="http://creativecommons.org/ns#"
   xmlns:rdf="http://www.w3.org/1999/02/22-rdf-syntax-ns#"
   xmlns:svg="http://www.w3.org/2000/svg"
   xmlns="http://www.w3.org/2000/svg"
   xmlns:sodipodi="http://sodipodi.sourceforge.net/DTD/sodipodi-0.dtd"
   xmlns:inkscape="http://www.inkscape.org/namespaces/inkscape"
   width="224"
   height="224"
   id="svg4251"
   version="1.1"
   inkscape:version="0.48.5 r10040"
   sodipodi:docname="terrain.svg"
   inkscape:export-filename="/home/vg/Project/guild/checkem/phaser/assets/terrain.png"
   inkscape:export-xdpi="90"
   inkscape:export-ydpi="90">
  <defs
     id="defs4253" />
  <sodipodi:namedview
     id="base"
     pagecolor="#ffffff"
     bordercolor="#666666"
     borderopacity="1.0"
     inkscape:pageopacity="0.0"
     inkscape:pageshadow="2"
     inkscape:zoom="2"
     inkscape:cx="125.21816"
     inkscape:cy="201.21205"
     inkscape:document-units="px"
     inkscape:current-layer="layer1"
     showgrid="true"
     inkscape:snap-global="false"
     showguides="true"
     inkscape:guide-bbox="true"
     inkscape:window-width="1366"
     inkscape:window-height="715"
     inkscape:window-x="0"
     inkscape:window-y="0"
     inkscape:window-maximized="1"
     fit-margin-top="0"
     fit-margin-left="0"
     fit-margin-right="0"
     fit-margin-bottom="0">
    <inkscape:grid
       type="xygrid"
       id="grid4259"
       empspacing="5"
       visible="true"
       enabled="true"
       snapvisiblegridlinesonly="true"
       spacingx="32px"
       spacingy="32px"
       originx="-160px"
       originy="-576.20225px" />
    <sodipodi:guide
       orientation="0,1"
       position="-6.830461,79.235173"
       id="guide4775" />
    <sodipodi:guide
       orientation="1,0"
       position="14.5,195.79775"
       id="guide4777" />
    <sodipodi:guide
       orientation="1,0"
       position="81.75,182.79775"
       id="guide4779" />
    <sodipodi:guide
       orientation="0,1"
       position="46.5,146.29775"
       id="guide4781" />
    <sodipodi:guide
       orientation="0,1"
       position="160.40029,19.131094"
       id="guide5153" />
    <sodipodi:guide
       orientation="1,0"
       position="144.2835,67.318434"
       id="guide5157" />
    <sodipodi:guide
       orientation="1,0"
       position="207.2835,65.818434"
       id="guide5159" />
  </sodipodi:namedview>
  <metadata
     id="metadata4256">
    <rdf:RDF>
      <cc:Work
         rdf:about="">
        <dc:format>image/svg+xml</dc:format>
        <dc:type
           rdf:resource="http://purl.org/dc/dcmitype/StillImage" />
        <dc:title></dc:title>
      </cc:Work>
    </rdf:RDF>
  </metadata>
  <g
     inkscape:label="Layer 1"
     inkscape:groupmode="layer"
     id="layer1"
     transform="translate(-160,-252.15992)">
    <path
       style="color:#000000;fill:#7b6745;fill-opacity:1;fill-rule:nonzero;stroke:none;stroke-width:0.93300009;marker:none;visibility:visible;display:inline;overflow:visible;enable-background:accumulate"
       d="m 160,252.36218 96,0 0,96 -96,0 z"
       id="rect4261"
       inkscape:connector-curvature="0"
       sodipodi:nodetypes="ccccc" />
    <path
       style="color:#000000;fill:#367136;fill-opacity:1;fill-rule:nonzero;stroke:#000000;stroke-width:0.93300003;stroke-linecap:round;stroke-linejoin:round;stroke-miterlimit:4;stroke-opacity:1;stroke-dasharray:none;marker:none;visibility:visible;display:inline;overflow:visible;enable-background:accumulate"
       d="m 174.25,271.36218 c -0.23956,-0.732 2.05116,-0.55116 2.25,-0.75 0.18659,-0.18659 1.65305,-1.63781 2,-0.25 0.13469,0.53877 -0.38627,2.43187 0.25,2.75 0.51004,0.25502 0.90017,-0.0998 1.25,0.25 0.16887,0.16888 -0.54513,5.45487 1.25,7.25 0.40657,0.40657 -0.3399,-7.45505 -0.25,-7.5 0.25726,-0.12863 1.63336,-0.38336 1.75,-0.5 0.57137,-0.57137 1.41352,-1.41352 2,-2 0.76945,-0.76945 0.9276,0.67761 1,0.75 0.0935,0.0935 2.1565,0.0935 2.25,0 0.93176,-0.93176 2.28553,-1.78553 3,-2.5 0.36061,-0.36061 1.77556,0.23722 2.25,0 0.70512,-0.35256 1.20245,-0.72622 1.75,-1 0.46722,-0.23361 0.74847,-0.49847 1,-0.75 0.52105,-0.52104 2.56443,0.34279 3.25,0 0.46164,-0.23082 1.0367,-1.0367 1.25,-1.25 0.16368,-0.16368 0.57774,-0.15547 0.75,-0.5 0.2808,-0.5616 1.0891,-2.54455 2,-3 0.0657,-0.0328 1.41106,-0.51682 1.5,-0.25 0.87915,2.63746 0.41074,9.92853 -0.75,12.25 -0.3622,0.72439 0.31228,0.56228 0.5,0.75 0.1245,0.1245 0.11925,2.51149 0,2.75 -0.57428,1.14856 -1.59316,2.09316 -2.25,2.75 -0.81934,0.81934 0.93516,1.28242 1.5,1 1.69296,-0.84648 1.24384,-1.99384 1.75,-2.5 0.69179,-0.69179 2.82602,-1.40205 3.5,-2.75 0.34145,-0.68291 0.62129,-2.12128 1,-2.5 0.79167,-0.79166 -0.79167,-3.95833 0,-4.75 0.50475,-0.50475 1.70326,-0.70326 2.25,-1.25 0.64466,-0.64466 -0.42418,-3.15165 0,-4 0.0312,-0.0625 0.62746,-0.74507 0.75,-0.5 0.40873,0.81746 -0.0479,2.40427 0.5,3.5 0.0459,0.0918 0.22719,0.97719 0.25,1 1.32539,1.32539 3.25,0.88757 3.25,3.5 0,0.91667 0,1.83334 0,2.75 0,0.25 0.25,0.75 0,0.75 -0.7509,0 1.9445,-3.63901 2,-3.75 0.29428,-0.58857 0.41444,-0.91444 0.75,-1.25 0.91909,-0.91908 -1.16466,-3.66767 1,-4.75 0.15517,-0.0776 0.69943,-0.75 0.75,-0.75 0.42492,0 -0.0505,0.94954 0.25,1.25 0.375,0.375 0.625,0.875 1,1.25 0.24658,0.24658 0.81781,0.31781 1,0.5 0.11785,0.11785 -0.11785,0.38215 0,0.5 0.48869,0.48869 2.24503,0.99503 2.5,1.25 0.1639,0.1639 0.37475,0.62475 0.5,0.75 0.16212,0.16212 1.44862,0.39724 1.5,0.5 0.46667,0.93334 -0.46667,2.56667 0,3.5 0.31273,0.62547 0.69142,1.13284 1,1.75 0.26362,0.52725 -0.40073,2.09927 0,2.5 0.72347,0.72347 1.58354,-3.41708 1.75,-3.75 0.29716,-0.59432 1.26303,-2.50651 1.75,-2.75 0.42149,-0.21074 0.95019,0.0498 1.25,-0.25 0.30173,-0.30173 0.94576,-0.97288 1.5,-1.25 0.68777,-0.34388 2.63207,0.61793 3,0.25 0.0222,-0.0222 0.61636,-1.26729 0.75,-1 0.14232,0.28463 0.16624,5.75129 0,6.25 -0.15124,0.45374 -1.1614,0.8307 -1.5,1 -0.51912,0.25956 -1.1929,1.44291 -1.5,1.75 -0.77375,0.77375 3.41239,-0.42522 4,0.75 0.7216,1.4432 -0.77094,3.72906 0.5,5 0.0974,0.0974 0,0.84744 0,1 0,3.81842 -3.65786,3.56573 -5,6.25 -0.30853,0.61706 -0.5967,1.34671 -1,1.75 -0.0956,0.0956 0,1.16232 0,1.25 0,0.28874 -0.0529,5.19713 0,5.25 0.32739,0.3274 0.25,-1.0478 0.25,-1.25 0,-0.97906 0.0396,-3.51982 1,-4 2.25695,-1.12847 4.5,1.05455 4.5,-3.5 0,-0.25 -0.25,-0.75 0,-0.75 0.25,0 -0.12862,0.53563 0,0.75 0.1819,0.30317 0.5,0.5 0.75,0.75 1.3502,1.3502 3.25,2.89172 3.25,4.75 0,0.33924 0.19982,1.55018 0,1.75 -0.92568,0.92569 -3.4947,0.48941 -4,1.5 -0.35845,0.71691 -0.46546,5.46547 -0.5,5.5 -0.98637,0.98637 -4.24164,1.24164 -5,2 -0.81631,0.81631 -0.5,2.19927 -0.5,3.75 0,0.41667 0.41667,1.25 0,1.25 -0.20836,0 0.48764,-1.23764 0.5,-1.25 0.15962,-0.15962 1.29969,0 1.5,0 0.58636,0 1.97834,-0.26083 2.5,0 0.37574,0.18787 0.30958,0.80958 0.5,1 0.24115,0.24115 1.25,0.0511 1.25,0.5 0,2.0521 0.4111,2.4111 1.5,3.5 0.0974,0.0974 0,0.84744 0,1 0,0.96961 0.42421,3.15159 0,4 -0.31911,0.63822 -1.42862,0.42863 -1.75,0.75 -0.12131,0.12132 -0.16836,3.08164 0,3.25 0.31829,0.31829 2.87336,0.12336 3.25,0.5 0.20183,0.20184 -0.0274,1.1387 -0.25,1.25 -1.52196,0.76098 -4.66281,-0.41859 -6,0.25 -0.53482,0.26741 -0.98975,0.5 -1.5,0.5 -0.27769,0 -1.57322,0.17678 -1.75,0 -0.25,-0.25 -0.5,-0.5 -0.75,-0.75 -0.59769,-0.59769 -1.43854,-2.37709 -2,-3.5 -0.0315,-0.0631 -0.61882,-1.51236 -0.75,-1.25 -1.00293,2.00587 1.59389,3.43778 2.25,4.75 0.34477,0.68954 0.25,1.6681 0.25,2.5 0,0.4384 -3.94549,2.05451 -4.75,1.25 -0.41667,-0.41666 -0.83333,-0.83333 -1.25,-1.25 -0.11785,-0.11785 0.11785,-0.38215 0,-0.5 -0.16726,-0.16726 -1.73199,-0.518 -2,-0.25 -0.16389,0.1639 -0.12475,0.87475 -0.25,1 -0.40454,0.40455 -2.28676,1.35662 -3.5,0.75 -1.31101,-0.6555 -1.07565,-3.07565 -2,-4 -0.39962,-0.39962 -0.87235,-0.93617 -1.5,-1.25 -0.15094,-0.0755 -0.63443,0.11557 -0.75,0 -0.47158,-0.47158 -0.78793,-1 -1.75,-1 -2.20588,0 0.0403,5.97986 -3,7.5 -0.0651,0.0325 -0.30457,0.44543 -0.5,0.25 -0.54167,-0.54166 0.54167,-2.70833 0,-3.25 -0.87002,-0.87001 -1.99996,-1.99996 -2.75,-2.75 -0.50898,-0.50898 -2.33296,0.58408 -2.75,-0.25 -0.14962,-0.29923 -0.0876,-0.67523 -0.25,-1 -0.45073,-0.90145 0,-3.21977 0,-4.25 0,-0.75 0,-1.5 0,-2.25 0,-0.16666 0.11785,-0.61785 0,-0.5 -0.91918,0.91918 -0.23567,4.73567 -1,5.5 -0.72667,0.72667 -2.88772,2.52544 -3.5,3.75 -0.34298,0.68597 0.36164,4.63836 0,5 -0.30572,0.30572 -1.10199,0.36733 -1.5,0.5 -0.49879,0.16626 -1.46684,0.5 -2,0.5 -0.31797,0 -1.79761,0.20239 -2,0 -0.95844,-0.95844 0.60639,-7.25 -0.75,-7.25 -0.30028,0 -0.98713,-0.13144 -1.25,0 -1.02811,0.51406 -0.53896,2.53896 -1.25,3.25 -0.27488,0.27489 -0.89844,0.89844 -1.25,1.25 -0.22953,0.22953 -3.66454,0.16773 -4,0 -0.81843,-0.40921 -2.3557,-0.6057 -3,-1.25 -0.49167,-0.49167 -0.182,-4.466 -0.25,-4.5 -0.26141,-0.13071 -1.94114,-0.15443 -2.25,0 -0.34453,0.17226 -0.33632,0.58632 -0.5,0.75 -0.14899,0.14899 -3.08482,1.16518 -3.25,1 -0.43177,-0.43177 0.42941,-5.57058 0,-6 -0.5,-0.5 -2.5,0.5 -3,0 -0.3364,-0.3364 -2.03253,-4.43494 -1.5,-5.5 0.74994,-1.49987 3.17796,-1.10592 4.25,-3.25 0.4332,-0.8664 0.5,-1.65488 0.5,-3 0,-0.01 -0.553,-0.8485 -0.25,-1 0.41081,-0.2054 3.46993,-1.03007 4,-0.5 0.77883,0.77883 1.70012,2.27494 3.25,1.5 0.65532,-0.32766 1.25,-1.5146 1.25,-2 0,-0.41666 -0.41667,-1.25 0,-1.25 0.14263,0 0.0357,0.96429 -0.5,1.5 -0.35498,0.35498 -2.94219,0 -3.5,0 -1.16108,0 -0.46938,-2.10969 -1.25,-2.5 -1.09942,-0.54971 -4.77002,0.72998 -5,0.5 -0.23337,-0.23337 0,-2.17931 0,-2.5 0,-0.478 -0.3042,-2.6958 0,-3 0.82859,-0.82859 5.06931,-0.15965 5.75,-0.5 0.77033,-0.38516 1.63186,-0.44093 2.25,-0.75 0.71141,-0.3557 1.65661,-2.06322 2,-2.75 0.52022,-1.04044 -0.0173,0.26726 0.5,-0.25 0.21246,-0.21246 0.71246,-0.96246 0.5,-0.75 -0.18209,0.18209 -2.84053,1.29527 -3.25,1.5 -0.46987,0.23494 -6.68049,0.53475 -7.25,0.25 -0.71881,-0.3594 -1.81875,-1.06874 -2.25,-1.5 -0.10232,-0.10232 -2.81603,-0.78301 -3.25,-1 -0.63506,-0.31753 -0.18024,-2.06976 0,-2.25 1.36035,-1.36034 3.33352,-0.0418 4.75,-0.75 0.75303,-0.37651 1.27623,-1.02622 1.75,-1.5 0.15097,-0.15097 1.26292,0 1.5,0 0.27769,0 1.57322,-0.17678 1.75,0 0.86724,0.86724 0.62174,4.13478 1.25,2.25 0.16516,-0.49548 0.25,-1.11013 0.25,-1.5 0,-0.6664 0.29156,-2.16688 0,-2.75 -0.17955,-0.3591 -4.71785,-0.78215 -5,-0.5 -0.17677,0.17678 -2.20176,1.04825 -2.75,0.5 -0.66667,-0.66666 0.41667,-3.08333 -0.25,-3.75 -0.94444,-0.94444 -1.75,-0.64503 -1.75,-2.25 0,-0.10294 -0.0662,-0.68382 0,-0.75 0.96519,-0.96519 3.75,1.55226 3.75,-1.25 0,-0.10294 0.0662,-0.68382 0,-0.75 -0.52444,-0.52444 -1.84166,-0.34166 -2.25,-0.75 -0.11557,-0.11556 0.0755,-0.59905 0,-0.75 -0.79778,-1.59557 -1.38207,-2.79482 -0.5,-5 z"
       id="path4783"
       inkscape:connector-curvature="0" />
    <path
       inkscape:connector-curvature="0"
       id="path4801"
       d="m 192.87039,285.71336 c -0.10741,-0.32804 0.91971,-0.247 1.00886,-0.33611 0.0837,-0.0836 0.7412,-0.73396 0.89677,-0.11203 0.0604,0.24144 -0.1732,1.08981 0.1121,1.23238 0.22869,0.11428 0.40362,-0.0447 0.56048,0.11203 0.0757,0.0757 -0.24443,2.44454 0.56047,3.249 0.1823,0.1822 -0.1524,-3.34089 -0.11209,-3.36103 0.11535,-0.0576 0.73237,-0.1718 0.78467,-0.22407 0.25619,-0.25605 0.6338,-0.63345 0.89677,-0.89628 0.34501,-0.34482 0.41592,0.30366 0.44838,0.33611 0.0419,0.0419 0.96694,0.0419 1.00886,0 0.41779,-0.41756 1.0248,-0.80017 1.34515,-1.12035 0.1617,-0.1616 0.79614,0.10631 1.00887,0 0.31616,-0.158 0.53916,-0.32545 0.78467,-0.44814 0.20949,-0.10469 0.3356,-0.22338 0.44838,-0.3361 0.23363,-0.2335 1.14985,0.15361 1.45725,0 0.20699,-0.10344 0.46484,-0.46459 0.56048,-0.56018 0.0734,-0.0734 0.25905,-0.0697 0.33629,-0.22406 0.1259,-0.25168 0.48833,-1.14031 0.89676,-1.34442 0.0295,-0.0147 0.6327,-0.23161 0.67258,-0.11203 0.39419,1.18194 0.18417,4.44935 -0.33629,5.48969 -0.1624,0.32463 0.14002,0.25198 0.22419,0.3361 0.0558,0.0558 0.0535,1.1255 0,1.23238 -0.2575,0.51472 -0.71434,0.93803 -1.00886,1.23238 -0.36738,0.36718 0.41931,0.57471 0.67257,0.44814 0.7591,-0.37934 0.55772,-0.89351 0.78468,-1.12034 0.31018,-0.31002 1.26714,-0.62832 1.56934,-1.23238 0.1531,-0.30604 0.27857,-0.95063 0.44838,-1.12035 0.35497,-0.35477 -0.35497,-1.77388 0,-2.12866 0.22632,-0.22619 0.76372,-0.31515 1.00886,-0.56017 0.28906,-0.2889 -0.19019,-1.41237 0,-1.79255 0.014,-0.028 0.28135,-0.3339 0.33629,-0.22407 0.18327,0.36633 -0.0215,1.07744 0.22419,1.56848 0.0206,0.0411 0.10187,0.43792 0.1121,0.44814 0.59428,0.59396 1.45725,0.39776 1.45725,1.56849 0,0.41079 0,0.82158 0,1.23238 0,0.11203 0.11209,0.3361 0,0.3361 -0.3367,0 0.87188,-1.63078 0.89676,-1.68052 0.13195,-0.26376 0.18583,-0.40979 0.33629,-0.56017 0.41211,-0.41188 -0.52221,-1.64363 0.44838,-2.12866 0.0696,-0.0348 0.31362,-0.3361 0.33629,-0.3361 0.19053,0 -0.0226,0.42552 0.1121,0.56017 0.16814,0.16805 0.28024,0.39212 0.44838,0.56017 0.11056,0.1105 0.36669,0.14243 0.44838,0.22407 0.0529,0.0528 -0.0528,0.17126 0,0.22407 0.21913,0.219 1.00664,0.44591 1.12096,0.56017 0.0735,0.0734 0.16804,0.27998 0.2242,0.33611 0.0727,0.0727 0.64953,0.17802 0.67257,0.22407 0.20925,0.41826 -0.20925,1.15022 0,1.56848 0.14022,0.2803 0.31002,0.50767 0.44838,0.78424 0.11821,0.23628 -0.17968,0.94077 0,1.12035 0.3244,0.32421 0.71004,-1.53133 0.78468,-1.68052 0.13324,-0.26634 0.56632,-1.12326 0.78467,-1.23238 0.18899,-0.0944 0.42605,0.0223 0.56048,-0.11203 0.13529,-0.13522 0.42406,-0.43599 0.67257,-0.56018 0.30839,-0.1541 1.18018,0.27692 1.34515,0.11204 0.01,-0.01 0.27637,-0.56792 0.33629,-0.44814 0.0638,0.12755 0.0745,2.57737 0,2.80086 -0.0678,0.20334 -0.52075,0.37227 -0.67258,0.44814 -0.23276,0.11632 -0.53487,0.64662 -0.67257,0.78424 -0.34694,0.34675 1.53006,-0.19055 1.79353,0.33611 0.32356,0.64675 -0.34567,1.67113 0.22419,2.24069 0.0437,0.0437 0,0.37977 0,0.44814 0,1.71118 -1.64012,1.59794 -2.24191,2.80086 -0.13834,0.27653 -0.26755,0.60351 -0.44839,0.78424 -0.0429,0.0428 0,0.52088 0,0.56018 0,0.12939 -0.0237,2.32903 0,2.35272 0.1468,0.14672 0.1121,-0.46956 0.1121,-0.56017 0,-0.43876 0.0178,-1.57737 0.44838,-1.79255 1.01198,-0.50572 2.01773,0.47258 2.01773,-1.56849 0,-0.11203 -0.1121,-0.3361 0,-0.3361 0.11209,0 -0.0577,0.24003 0,0.3361 0.0816,0.13586 0.22419,0.22407 0.33629,0.3361 0.6054,0.60508 1.45724,1.2959 1.45724,2.12866 0,0.15203 0.0896,0.6947 0,0.78424 -0.41506,0.41484 -1.56696,0.21933 -1.79353,0.67221 -0.16072,0.32128 -0.20871,2.44929 -0.22419,2.46476 -0.44227,0.44203 -1.90188,0.55643 -2.24192,0.89628 -0.36602,0.36582 -0.22419,0.98558 -0.22419,1.68052 0,0.18672 0.18683,0.56017 0,0.56017 -0.0934,0 0.21865,-0.55463 0.22419,-0.56017 0.0716,-0.0715 0.58276,0 0.67257,0 0.26292,0 0.88706,-0.11689 1.12096,0 0.16848,0.0842 0.13881,0.3628 0.2242,0.44813 0.10812,0.10807 0.56047,0.0229 0.56047,0.22407 0,0.91963 0.18434,1.08051 0.67258,1.56849 0.0437,0.0437 0,0.37977 0,0.44814 0,0.43452 0.19021,1.41234 0,1.79255 -0.14308,0.28601 -0.64057,0.19208 -0.78467,0.3361 -0.0544,0.0544 -0.0755,1.381 0,1.45645 0.14271,0.14264 1.28837,0.0553 1.45725,0.22407 0.0905,0.0904 -0.0123,0.5103 -0.1121,0.56017 -0.68242,0.34103 -2.09073,-0.18758 -2.6903,0.11204 -0.23981,0.11984 -0.44379,0.22407 -0.67258,0.22407 -0.12451,0 -0.7054,0.0792 -0.78467,0 -0.11209,-0.11204 -0.22419,-0.22407 -0.33629,-0.33611 -0.26799,-0.26784 -0.64501,-1.06526 -0.89676,-1.56848 -0.0141,-0.0283 -0.27747,-0.67775 -0.33629,-0.56017 -0.4497,0.8989 0.71467,1.5406 1.00886,2.12865 0.15459,0.30901 0.1121,0.74754 0.1121,1.12035 0,0.19646 -1.76909,0.9207 -2.12982,0.56017 -0.18683,-0.18672 -0.37365,-0.37344 -0.56048,-0.56017 -0.0528,-0.0528 0.0528,-0.17126 0,-0.22407 -0.075,-0.075 -0.7766,-0.23214 -0.89677,-0.11203 -0.0735,0.0734 -0.0559,0.392 -0.1121,0.44813 -0.18138,0.1813 -1.02534,0.60796 -1.56934,0.33611 -0.58783,-0.29376 -0.4823,-1.37832 -0.89677,-1.79256 -0.17918,-0.17908 -0.39114,-0.41953 -0.67257,-0.56017 -0.0677,-0.0338 -0.28447,0.0518 -0.33629,0 -0.21145,-0.21133 -0.35329,-0.44814 -0.78467,-0.44814 -0.98908,0 0.0181,2.67981 -1.34515,3.36104 -0.0292,0.0146 -0.13656,0.19962 -0.22419,0.11204 -0.24288,-0.24274 0.24287,-1.21371 0,-1.45645 -0.3901,-0.38989 -0.89675,-0.89626 -1.23306,-1.23238 -0.22821,-0.2281 -1.04606,0.26174 -1.23305,-0.11204 -0.0671,-0.1341 -0.0393,-0.3026 -0.1121,-0.44814 -0.2021,-0.40397 0,-1.4429 0,-1.90458 0,-0.33611 0,-0.67221 0,-1.00832 0,-0.0747 0.0529,-0.27688 0,-0.22406 -0.41214,0.41191 -0.10567,2.12223 -0.44838,2.46476 -0.32583,0.32564 -1.29481,1.13174 -1.56934,1.68051 -0.15379,0.30741 0.16215,2.07863 0,2.2407 -0.13708,0.137 -0.49412,0.16461 -0.67258,0.22406 -0.22365,0.0745 -0.65771,0.22407 -0.89677,0.22407 -0.14257,0 -0.80601,0.0907 -0.89676,0 -0.42975,-0.42951 0.27189,-3.249 -0.33629,-3.249 -0.13464,0 -0.44261,-0.0589 -0.56048,0 -0.46099,0.23037 -0.24166,1.13781 -0.56048,1.45645 -0.12325,0.12319 -0.40284,0.40263 -0.56048,0.56017 -0.10292,0.10286 -1.64312,0.0752 -1.79353,0 -0.36697,-0.18338 -1.05626,-0.27143 -1.34515,-0.56017 -0.22046,-0.22034 -0.0816,-2.00138 -0.1121,-2.01662 -0.11721,-0.0586 -0.87037,-0.0692 -1.00886,0 -0.15448,0.0772 -0.1508,0.26275 -0.22419,0.3361 -0.0668,0.0668 -1.38319,0.52216 -1.45725,0.44814 -0.1936,-0.19349 0.19254,-2.49639 0,-2.68883 -0.22419,-0.22407 -1.12096,0.22407 -1.34515,0 -0.15084,-0.15075 -0.91135,-1.98747 -0.67258,-2.46476 0.33626,-0.67215 1.42495,-0.4956 1.90563,-1.45645 0.19424,-0.38827 0.2242,-0.74161 0.2242,-1.34441 0,-0.004 -0.24796,-0.38025 -0.1121,-0.44814 0.1842,-0.0921 1.55586,-0.46162 1.79353,-0.22407 0.34922,0.34902 0.76231,1.01949 1.45725,0.67221 0.29384,-0.14684 0.56048,-0.67875 0.56048,-0.89628 0,-0.18672 -0.18683,-0.56017 0,-0.56017 0.064,0 0.016,0.43213 -0.22419,0.6722 -0.15917,0.15908 -1.31923,0 -1.56934,0 -0.52061,0 -0.21047,-0.94543 -0.56048,-1.12034 -0.49297,-0.24635 -2.1388,0.32713 -2.24192,0.22407 -0.10464,-0.10458 0,-0.97663 0,-1.12035 0,-0.21421 -0.1364,-1.20809 0,-1.34441 0.37153,-0.37133 2.27299,-0.0715 2.5782,-0.22407 0.34541,-0.17261 0.7317,-0.1976 1.00887,-0.33611 0.31898,-0.1594 0.74279,-0.9246 0.89676,-1.23238 0.23326,-0.46626 -0.008,0.11977 0.2242,-0.11203 0.0953,-0.0952 0.31945,-0.43132 0.22419,-0.3361 -0.0817,0.0816 -1.27365,0.58046 -1.45725,0.6722 -0.21068,0.10529 -2.99542,0.23965 -3.25078,0.11204 -0.3223,-0.16106 -0.8155,-0.47895 -1.00886,-0.67221 -0.0459,-0.0459 -1.26266,-0.3509 -1.45725,-0.44814 -0.28475,-0.1423 -0.0808,-0.92754 0,-1.00831 0.60996,-0.60962 1.4947,-0.0187 2.12982,-0.3361 0.33765,-0.16873 0.57224,-0.45989 0.78467,-0.67221 0.0677,-0.0677 0.56628,0 0.67258,0 0.12451,0 0.70541,-0.0792 0.78467,0 0.38886,0.38864 0.27878,1.85295 0.56048,1.00831 0.0741,-0.22204 0.1121,-0.49749 0.1121,-0.67221 0,-0.29864 0.13073,-0.97106 0,-1.23238 -0.0805,-0.16092 -2.11541,-0.35051 -2.24192,-0.22407 -0.0793,0.0792 -0.98723,0.46977 -1.23306,0.22407 -0.29892,-0.29875 0.18683,-1.38175 -0.11209,-1.68051 -0.42347,-0.42324 -0.78467,-0.28907 -0.78467,-1.00832 0,-0.0461 -0.0297,-0.30644 0,-0.3361 0.43277,-0.43254 1.68143,0.69563 1.68143,-0.56017 0,-0.0461 0.0297,-0.30645 0,-0.33611 -0.23515,-0.23502 -0.82577,-0.15311 -1.00886,-0.3361 -0.0518,-0.0518 0.0339,-0.26846 0,-0.3361 -0.35771,-0.71504 -0.6197,-1.25247 -0.22419,-2.24069 z"
       style="color:#000000;fill:#3d883d;fill-opacity:1;fill-rule:nonzero;stroke:none;stroke-width:0.93300003;marker:none;visibility:visible;display:inline;overflow:visible;enable-background:accumulate" />
    <g
       id="g4822" />
    <g
       id="g5063"
       style="fill:#7f5f4c;fill-opacity:1">
      <path
         transform="matrix(-0.3335628,0,0,-1,437.21176,542.04047)"
         style="color:#000000;fill:#7f5f4c;fill-opacity:1;fill-rule:nonzero;stroke:#000000;stroke-width:0.93300003;marker:none;visibility:visible;display:inline;overflow:visible;enable-background:accumulate"
         inkscape:transform-center-y="-3.3692042"
         d="m 338.35059,287.62207 -11.67128,-29.71525 23.34255,0 z"
         id="path4813"
         inkscape:connector-curvature="0"
         sodipodi:nodetypes="cccc" />
      <path
         sodipodi:nodetypes="cccc"
         inkscape:connector-curvature="0"
         id="path4816"
         d="m 330.35059,262.4184 3.8931,21.71525 -7.7862,0 z"
         inkscape:transform-center-y="-3.3692042"
         style="color:#000000;fill:#7f5f4c;fill-opacity:1;fill-rule:nonzero;stroke:#000000;stroke-width:0.53885317;marker:none;visibility:visible;display:inline;overflow:visible;enable-background:accumulate" />
      <path
         style="color:#000000;fill:#7f5f4c;fill-opacity:1;fill-rule:nonzero;stroke:#000000;stroke-width:0.53885317;marker:none;visibility:visible;display:inline;overflow:visible;enable-background:accumulate"
         inkscape:transform-center-y="-3.3692042"
         d="m 338.10059,271.6684 3.8931,12.46525 -7.7862,0 z"
         id="path4818"
         inkscape:connector-curvature="0"
         sodipodi:nodetypes="cccc" />
      <path
         sodipodi:nodetypes="cccc"
         inkscape:connector-curvature="0"
         id="path4820"
         d="m 350.85059,257.6684 -0.8569,26.46525 -7.7862,0 z"
         inkscape:transform-center-y="-3.3692042"
         style="color:#000000;fill:#7f5f4c;fill-opacity:1;fill-rule:nonzero;stroke:#000000;stroke-width:0.53885317;marker:none;visibility:visible;display:inline;overflow:visible;enable-background:accumulate" />
      <g
         transform="matrix(0,-1,1,0,35.628014,636.68006)"
         id="g4828"
         style="fill:#7f5f4c;fill-opacity:1">
        <path
           sodipodi:nodetypes="cccc"
           inkscape:connector-curvature="0"
           id="path4830"
           d="m 338.35059,287.62207 -11.67128,-29.71525 23.34255,0 z"
           inkscape:transform-center-y="-3.3692042"
           style="color:#000000;fill:#7f5f4c;fill-opacity:1;fill-rule:nonzero;stroke:#000000;stroke-width:0.93300003;marker:none;visibility:visible;display:inline;overflow:visible;enable-background:accumulate"
           transform="matrix(-0.3335628,0,0,-1,437.21176,542.04047)" />
        <path
           style="color:#000000;fill:#7f5f4c;fill-opacity:1;fill-rule:nonzero;stroke:#000000;stroke-width:0.53885317;marker:none;visibility:visible;display:inline;overflow:visible;enable-background:accumulate"
           inkscape:transform-center-y="-3.3692042"
           d="m 330.35059,262.4184 3.8931,21.71525 -7.7862,0 z"
           id="path4832"
           inkscape:connector-curvature="0"
           sodipodi:nodetypes="cccc" />
        <path
           sodipodi:nodetypes="cccc"
           inkscape:connector-curvature="0"
           id="path4834"
           d="m 338.10059,271.6684 3.8931,12.46525 -7.7862,0 z"
           inkscape:transform-center-y="-3.3692042"
           style="color:#000000;fill:#7f5f4c;fill-opacity:1;fill-rule:nonzero;stroke:#000000;stroke-width:0.53885317;marker:none;visibility:visible;display:inline;overflow:visible;enable-background:accumulate" />
        <path
           style="color:#000000;fill:#7f5f4c;fill-opacity:1;fill-rule:nonzero;stroke:#000000;stroke-width:0.53885317;marker:none;visibility:visible;display:inline;overflow:visible;enable-background:accumulate"
           inkscape:transform-center-y="-3.3692042"
           d="m 350.85059,257.6684 -0.8569,26.46525 -7.7862,0 z"
           id="path4836"
           inkscape:connector-curvature="0"
           sodipodi:nodetypes="cccc" />
      </g>
      <g
         id="g4838"
         transform="matrix(0,-1,-1,0,635.93006,636.68006)"
         style="fill:#7f5f4c;fill-opacity:1">
        <path
           transform="matrix(-0.3335628,0,0,-1,437.21176,542.04047)"
           style="color:#000000;fill:#7f5f4c;fill-opacity:1;fill-rule:nonzero;stroke:#000000;stroke-width:0.93300003;marker:none;visibility:visible;display:inline;overflow:visible;enable-background:accumulate"
           inkscape:transform-center-y="-3.3692042"
           d="m 338.35059,287.62207 -11.67128,-29.71525 23.34255,0 z"
           id="path4840"
           inkscape:connector-curvature="0"
           sodipodi:nodetypes="cccc" />
        <path
           sodipodi:nodetypes="cccc"
           inkscape:connector-curvature="0"
           id="path4842"
           d="m 330.35059,262.4184 3.8931,21.71525 -7.7862,0 z"
           inkscape:transform-center-y="-3.3692042"
           style="color:#000000;fill:#7f5f4c;fill-opacity:1;fill-rule:nonzero;stroke:#000000;stroke-width:0.53885317;marker:none;visibility:visible;display:inline;overflow:visible;enable-background:accumulate" />
        <path
           style="color:#000000;fill:#7f5f4c;fill-opacity:1;fill-rule:nonzero;stroke:#000000;stroke-width:0.53885317;marker:none;visibility:visible;display:inline;overflow:visible;enable-background:accumulate"
           inkscape:transform-center-y="-3.3692042"
           d="m 338.10059,271.6684 3.8931,12.46525 -7.7862,0 z"
           id="path4844"
           inkscape:connector-curvature="0"
           sodipodi:nodetypes="cccc" />
        <path
           sodipodi:nodetypes="cccc"
           inkscape:connector-curvature="0"
           id="path4846"
           d="m 350.85059,257.6684 -0.8569,26.46525 -7.7862,0 z"
           inkscape:transform-center-y="-3.3692042"
           style="color:#000000;fill:#7f5f4c;fill-opacity:1;fill-rule:nonzero;stroke:#000000;stroke-width:0.53885317;marker:none;visibility:visible;display:inline;overflow:visible;enable-background:accumulate" />
      </g>
      <g
         transform="matrix(1,0,0,-1,1.6960449e-6,600.55205)"
         id="g4848"
         style="fill:#7f5f4c;fill-opacity:1">
        <path
           sodipodi:nodetypes="cccc"
           inkscape:connector-curvature="0"
           id="path4850"
           d="m 338.35059,287.62207 -11.67128,-29.71525 23.34255,0 z"
           inkscape:transform-center-y="-3.3692042"
           style="color:#000000;fill:#7f5f4c;fill-opacity:1;fill-rule:nonzero;stroke:#000000;stroke-width:0.93300003;marker:none;visibility:visible;display:inline;overflow:visible;enable-background:accumulate"
           transform="matrix(-0.3335628,0,0,-1,437.21176,542.04047)" />
        <path
           style="color:#000000;fill:#7f5f4c;fill-opacity:1;fill-rule:nonzero;stroke:#000000;stroke-width:0.53885317;marker:none;visibility:visible;display:inline;overflow:visible;enable-background:accumulate"
           inkscape:transform-center-y="-3.3692042"
           d="m 330.35059,262.4184 3.8931,21.71525 -7.7862,0 z"
           id="path4852"
           inkscape:connector-curvature="0"
           sodipodi:nodetypes="cccc" />
        <path
           sodipodi:nodetypes="cccc"
           inkscape:connector-curvature="0"
           id="path4854"
           d="m 338.10059,271.6684 3.8931,12.46525 -7.7862,0 z"
           inkscape:transform-center-y="-3.3692042"
           style="color:#000000;fill:#7f5f4c;fill-opacity:1;fill-rule:nonzero;stroke:#000000;stroke-width:0.53885317;marker:none;visibility:visible;display:inline;overflow:visible;enable-background:accumulate" />
        <path
           style="color:#000000;fill:#7f5f4c;fill-opacity:1;fill-rule:nonzero;stroke:#000000;stroke-width:0.53885317;marker:none;visibility:visible;display:inline;overflow:visible;enable-background:accumulate"
           inkscape:transform-center-y="-3.3692042"
           d="m 350.85059,257.6684 -0.8569,26.46525 -7.7862,0 z"
           id="path4856"
           inkscape:connector-curvature="0"
           sodipodi:nodetypes="cccc" />
      </g>
      <path
         sodipodi:nodetypes="ccccccccccccccc"
         inkscape:connector-curvature="0"
         id="path4876"
         d="m 288.50112,253.06981 15.87182,19.06003 -15.25032,3.07435 19.88966,2.49691 -19.48027,5.85086 24.01451,-0.12942 4.94626,0.97981 1.14204,-0.11301 0.0574,-1.82107 -1.93952,-4.17329 0.89853,-24.57941 -7.06937,19.25797 -4.8231,-19.95244 0.24651,16.00581 z"
         inkscape:transform-center-y="0.0046908"
         style="color:#000000;fill:#7f5f4c;fill-opacity:1;fill-rule:nonzero;stroke:#000000;stroke-width:0.53885317;marker:none;visibility:visible;display:inline;overflow:visible;enable-background:accumulate"
         inkscape:transform-center-x="1.947605" />
      <path
         inkscape:transform-center-x="-1.947605"
         style="color:#000000;fill:#7f5f4c;fill-opacity:1;fill-rule:nonzero;stroke:#000000;stroke-width:0.53885317;marker:none;visibility:visible;display:inline;overflow:visible;enable-background:accumulate"
         inkscape:transform-center-y="0.0046908"
         d="m 383.44222,253.06981 -15.87182,19.06003 15.25032,3.07435 -19.88966,2.49691 19.48027,5.85086 -24.01451,-0.12942 -4.94626,0.97981 -1.14204,-0.11301 -0.0574,-1.82107 1.93952,-4.17329 -0.89853,-24.57941 7.06937,19.25797 4.8231,-19.95244 -0.24651,16.00581 z"
         id="path4880"
         inkscape:connector-curvature="0"
         sodipodi:nodetypes="ccccccccccccccc" />
      <path
         sodipodi:nodetypes="ccccccccccccccc"
         inkscape:connector-curvature="0"
         id="path4882"
         d="m 383.44222,348.10364 -15.87182,-19.06003 15.25032,-3.07435 -19.88966,-2.49691 19.48027,-5.85086 -24.01451,0.12942 -4.94626,-0.97981 -1.14204,0.11301 -0.0574,1.82107 1.93952,4.17329 -0.89853,24.57941 7.06937,-19.25797 4.8231,19.95244 -0.24651,-16.00581 z"
         inkscape:transform-center-y="-0.0046908"
         style="color:#000000;fill:#7f5f4c;fill-opacity:1;fill-rule:nonzero;stroke:#000000;stroke-width:0.53885317;marker:none;visibility:visible;display:inline;overflow:visible;enable-background:accumulate"
         inkscape:transform-center-x="-1.947605" />
      <path
         inkscape:transform-center-x="1.947605"
         style="color:#000000;fill:#7f5f4c;fill-opacity:1;fill-rule:nonzero;stroke:#000000;stroke-width:0.53885317;marker:none;visibility:visible;display:inline;overflow:visible;enable-background:accumulate"
         inkscape:transform-center-y="-0.0046908"
         d="m 288.50112,348.10364 15.87182,-19.06003 -15.25032,-3.07435 19.88966,-2.49691 -19.48027,-5.85086 24.01451,0.12942 4.94626,-0.97981 1.14204,0.11301 0.0574,1.82107 -1.93952,4.17329 0.89853,24.57941 -7.06937,-19.25797 -4.8231,19.95244 0.24651,-16.00581 z"
         id="path4884"
         inkscape:connector-curvature="0"
         sodipodi:nodetypes="ccccccccccccccc" />
    </g>
    <path
       style="color:#000000;fill:#a9654f;fill-opacity:1;fill-rule:nonzero;stroke:none;stroke-width:0.93300003;marker:none;visibility:visible;display:inline;overflow:visible;enable-background:accumulate"
       d="m 307.0625,255.4375 0.125,6.90625 c 0.0211,0.009 0.0406,0.009 0.0625,0.0312 0.72118,0.72118 -0.25758,4.12879 2,3 0.0441,-0.022 0.12,-0.0967 0.1875,-0.1875 l -2.375,-9.75 z m 11.25,0 -2.84375,7.78125 c 0.26881,0.4746 0.53322,0.90822 0.78125,1.15625 0.24658,0.24658 0.81781,0.31781 1,0.5 0.11557,0.11557 -0.0755,0.59906 0,0.75 0.17657,0.35315 0.41455,0.70555 0.65625,1.03125 l 0.40625,-11.21875 z m 35.3125,0 0.40625,11.1875 c 0.13497,0.005 0.65531,0.0635 0.71875,0 0.86301,-0.86301 1.13498,-2.55496 1.53125,-3.96875 L 353.625,255.4375 z m 11.25,0 -1.59375,6.5625 c 0.046,0.1452 0.11853,0.27478 0.21875,0.375 0.0497,0.0497 0.1606,0.73686 0.21875,1.3125 0.0123,-0.0179 0.0177,-0.0489 0.0312,-0.0625 0.26973,-0.26972 0.64163,-0.20136 1,-0.1875 l 0.125,-8 z m -73.90625,0.125 7.46875,8.96875 c -0.0373,-0.27855 -0.0581,-0.53562 0.0625,-0.65625 0.27501,-0.27501 1.20316,-0.16503 2.15625,0.0312 l -9.6875,-8.34375 z m 90,0 -7.65625,6.59375 c 0.0132,0.61245 0.12594,1.15719 0.4375,1.46875 0.0932,0.0932 0.18999,0.18339 0.3125,0.25 l 6.90625,-8.3125 z m -56.625,1.03125 -1.0625,8.15625 c 0.0912,0.0871 0.18187,0.19059 0.21875,0.375 0.23546,1.17732 -0.14512,4.60488 0.25,5 0.5317,0.5317 1.23832,-2.11324 1.90625,-3.6875 l -1.3125,-9.84375 z m 26.15625,2.96875 -2.875,8.84375 c 0.38978,0.18315 2.12235,0.4714 2.375,0.21875 0.15858,-0.15858 -0.10407,-0.79185 0,-1 0.0821,-0.16418 0.16347,-0.45059 0.25,-0.71875 l 0.25,-7.34375 z m -20.15625,4.3125 -1,5.5625 c 0.30611,-0.42776 0.60678,-0.71223 0.90625,-0.5625 0.48227,0.24114 0.0866,0.42313 0.25,0.75 0.457,0.91401 0.79559,1.84119 1.25,2.75 0.46667,0.93334 -0.46667,2.56667 0,3.5 0.19191,0.38383 0.50316,0.448 0.84375,0.46875 l -2.25,-12.46875 z m 7.75,8.6875 -0.84375,2.75 c 1.08494,1.32056 1.79084,4.69099 3.25,4.9375 l -2.40625,-7.6875 z m -38.90625,0.875 -8.375,1.71875 5.09375,0.625 c 0.0279,-0.0537 0.0534,-0.11585 0.0937,-0.15625 0.44622,-0.44622 3.50808,-0.87096 4.25,-0.5 0.15709,0.0785 0.7411,0.50891 1,0.25 0.039,-0.039 0.039,-0.96104 0,-1 -0.40834,-0.40834 -1.25072,-0.65556 -2.0625,-0.9375 z m 73.90625,0.0937 c -0.76383,0.36592 -1.46584,0.71584 -1.59375,0.84375 -0.45833,0.45834 -2.04167,-0.20833 -2.5,0.25 -0.2357,0.2357 -0.1849,0.72265 0,1 0.19393,0.2909 0.90817,0.54567 1.6875,0.8125 l 10.4375,-1.28125 -8,-1.625 -0.0312,0 z m -2.65625,6.6875 c 0.0353,0.42554 0.21698,1.07901 0.0625,1.15625 -0.592,0.296 -2.53663,-0.46337 -3,0 -0.11785,0.11785 0,0.33334 0,0.5 0,0.16803 -0.0738,0.60246 0,0.75 0.0619,0.12384 0.51333,0.34306 1.03125,0.59375 l 12.03125,0.0625 -10.125,-3.0625 z m -69.96875,0.3125 -9.09375,2.75 14.5,-0.0937 c -0.62142,-0.38492 -1.28399,-0.69883 -1.625,-0.8125 -0.23717,-0.0791 -0.52639,0.11181 -0.75,0 -0.71759,-0.35879 -2.78679,-0.28679 -3,-0.5 -0.11785,-0.11785 0,-0.33333 0,-0.5 0,-0.1206 -0.0539,-0.59397 -0.0312,-0.84375 z m -5.28125,5.65625 8.90625,2.90625 c 0.22213,-0.83571 4.56083,0.37667 5.40625,-0.46875 0.11785,-0.11785 0,-0.33333 0,-0.5 0,-1.68518 -3.48235,-1.23235 -3.75,-1.5 -0.0398,-0.0398 -0.0721,-0.061 -0.0937,-0.0937 l -10.4688,-0.34375 z m 81.15625,0 L 365.5,286.5312 c -0.94671,0.47673 -2.19623,0.84375 -3,0.84375 -0.27997,0 -1.72608,1.26196 -1.25,1.5 0.73158,0.36579 3.17158,-0.57842 3.75,0 0.39484,0.39485 0.20293,0.70538 -0.0937,1.03125 l 11.4375,-3.71875 z m -59,9.53125 -9.15625,2.875 2.8125,0.875 c -0.37759,-0.2623 -0.77749,-0.56626 -0.5,-0.84375 0.625,-0.625 3.125,0.625 3.75,0 0.4801,-0.4801 1.71707,-1.75 2.25,-1.75 0.7553,0 1.09591,-0.73579 0.84375,-1.15625 z m 41.5,1.46875 c -0.67749,0.84033 -1.1019,1.67935 -0.59375,2.1875 0.21068,0.21068 0.50558,0.36935 0.8125,0.53125 l 4.28125,-1.3125 -4.5,-1.40625 z m -45.59375,6.6875 -13.75,2.46875 6.84375,1.21875 c 0.35571,-0.33999 0.67202,-0.70327 0.90625,-0.9375 0.16667,-0.16666 -0.16667,-0.83333 0,-1 0.32089,-0.32089 1.79182,0.15273 2.25,0 0.47771,-0.15923 1.27067,-0.51033 1.75,-0.75 0.35929,-0.17964 2,-0.67717 2,-1 z m 53.09375,1.4375 c -0.0203,0.14281 -0.0407,0.25947 -0.0937,0.3125 -0.40887,0.40887 -2.00932,-0.24068 -2.5,0.25 -0.29701,0.29701 0.20634,1.15211 0.5,1.25 0.15556,0.0519 0.90261,0.18685 1.59375,0.3125 l 6.1875,-1.09375 -5.6875,-1.03125 z m -61.25,5.34375 -12.875,1.6875 8.40625,1.09375 c -0.30557,-0.46435 -0.53275,-0.90475 -0.375,-1.0625 0.20833,-0.20833 1.04167,0.20834 1.25,0 0.6667,-0.6667 3.00008,-0.75008 3.5,-1.25 0.20489,-0.20489 0.1963,-0.34011 0.0937,-0.46875 z m 61.84375,0.0625 c -0.8689,0.43653 -1.86745,0.9763 -1.4375,1.40625 0.4668,0.4668 6.03291,-0.46709 6.5,0 0.0974,0.0974 0,0.84744 0,1 0,0.0279 -0.004,0.13424 0,0.1875 l 7.3125,-0.96875 -12.375,-1.625 z m -75.53125,7.1875 8.15625,2.46875 c 0.0764,-0.90593 0.16952,-2.01798 -0.0625,-2.25 -0.0254,-0.0254 -0.17217,-0.0965 -0.34375,-0.1875 l -7.75,-0.0312 z m 89.125,0 -9.46875,0.0625 c -0.12297,0.0475 -0.24318,0.0869 -0.3125,0.15625 -0.0974,0.0974 0,0.84744 0,1 0,0.33886 -0.14093,0.96814 0,1.25 0.0906,0.18114 0.19352,0.28977 0.3125,0.375 l 9.46875,-2.84375 z m -43.34375,2.875 c -0.0816,0.0167 -0.14143,0.0477 -0.1875,0.0937 -0.12559,0.12559 -0.28817,1.24971 -0.75,1.15625 l 1.84375,5.9375 1.75,-5.53125 c -0.1683,-0.42861 -0.3645,-0.83325 -0.59375,-1.0625 -0.17678,-0.17678 -1.49139,-0.71031 -2.0625,-0.59375 z m -9.15625,0.6875 c -0.0104,0.0521 -0.0312,0.11458 -0.0312,0.15625 0,0.46364 -0.0505,0.83692 -0.125,1.1875 l 2.46875,13.84375 2.6875,-14.875 c -0.57635,1.20274 -0.82567,2.99096 -2.03125,3.59375 -1.66441,0.83221 -2.75,-2.08796 -2.75,-3.25 0,-0.17491 -0.11382,-0.43119 -0.21875,-0.65625 z m -4.65625,3.375 c -0.31318,0.15255 -0.77549,1.58223 -0.875,1.78125 -0.32966,0.65932 0,2.28742 0,3 0,0.0811 0.0182,0.36776 0.0312,0.53125 l 1.8125,13.78125 2.5,-19.0625 c -0.1158,0.16108 -0.20786,0.31881 -0.34375,0.5 -0.40723,0.54298 -0.69082,0.88165 -1,1.5 -0.22853,0.45706 -1.18225,2.06775 -2,1.25 -0.54167,-0.54166 0.54167,-2.70833 0,-3.25 -0.0371,-0.0371 -0.0803,-0.053 -0.125,-0.0312 z m -24.4375,0.1875 -8.125,1 7.8125,1.59375 0.21875,0.0312 c 0.0639,4.8e-4 0.12736,-0.002 0.15625,-0.0312 0.0507,-0.0507 0.0507,-1.19932 0,-1.25 -0.39469,-0.39469 -1.84418,-0.34418 -2,-0.5 -0.48476,-0.48476 1.0531,-0.6842 1.9375,-0.84375 z m 75.5,0.15625 c -1.07814,0.0473 -2.08827,0.0883 -2.1875,0.1875 -0.0662,0.0662 0,0.64706 0,0.75 0,0.15256 -0.0974,0.90259 0,1 0.57394,0.57394 1.59464,-0.0777 2.25,0.25 l 6.625,-1.34375 -6.6875,-0.84375 z m -24.53125,7.875 c -0.23113,0.013 -0.38025,0.0365 -0.40625,0.0625 -0.28735,0.28735 -0.67509,0.82664 -1.25,0.90625 l 2.25,6.9375 -0.25,-7.90625 c -0.11224,0.003 -0.24959,-0.005 -0.34375,0 z M 370.5625,335 c -0.27968,0.0154 -0.4801,0.0426 -0.5625,0.125 -0.0478,0.0478 -0.0752,0.43148 -0.0937,0.90625 L 381,345.59375 372.21875,335.0625 c -0.57804,-0.0485 -1.15871,-0.09 -1.65625,-0.0625 z m -72.03125,1.5 -7.59375,9.09375 7.875,-6.78125 c 0.0657,-1.02023 0.16481,-1.96014 -0.0625,-2.1875 -0.0636,-0.0636 -0.14085,-0.0992 -0.21875,-0.125 z m 8.65625,0.65625 -0.125,8.59375 1.0625,-4.3125 c -0.17723,0.002 -0.33091,-0.0184 -0.375,-0.0625 -0.40311,-0.40311 0.0914,-3.67071 -0.5625,-4.21875 z M 316.5,337.625 c -0.45,0.225 -0.67745,0.58033 -0.8125,1 l 2.625,7.125 -0.28125,-7.71875 c -0.75442,-0.24288 -1.40274,-0.4705 -1.53125,-0.40625 z m 39.25,0.25 c -0.36591,0 -1.13803,0.0648 -1.84375,0.125 l -0.28125,7.75 2.8125,-7.625 c -0.16692,-0.1518 -0.39024,-0.25 -0.6875,-0.25 z m 7.34375,0.5 1.78125,7.34375 -0.0625,-4.5625 c -0.17626,-0.15344 -0.35625,-0.325 -0.5625,-0.53125 -0.65869,-0.65869 0.68539,-2.19052 -1.15625,-2.25 z"
       id="path4888"
       inkscape:connector-curvature="0" />
    <path
       style="color:#000000;fill:#615848;fill-opacity:1;fill-rule:nonzero;stroke:none;stroke-width:0.93300003;marker:none;visibility:visible;display:inline;overflow:visible;enable-background:accumulate"
       d="m 325.1875,266.625 c 0,2.286 -1.09375,3.12962 -1.09375,5.46875 0,0.81704 0.37891,3.65625 -0.5625,3.65625 -0.12181,0 -0.25765,0.0861 -0.34375,0 -0.29728,-0.29731 -0.69992,-0.80602 -0.9375,-1.28125 -0.0552,-0.11032 0.0845,-0.478 0,-0.5625 -0.0296,-0.0296 -0.10419,-0.0386 -0.15625,-0.0625 l -1.3125,10 5.6875,0 1.78125,0 5.6875,0 -0.28125,-1.53125 c -0.31375,0.004 -0.61012,-10e-4 -0.78125,-0.34375 -0.34105,-0.68219 0.34106,-1.88031 0,-2.5625 -0.33209,-0.66426 -0.60351,-1.33194 -0.9375,-2 -0.11941,-0.23892 0.16496,-0.38625 -0.1875,-0.5625 -0.73031,-0.36519 -1.45937,2.75948 -2.375,1.84375 -0.77738,-0.77748 0.37421,-3.1577 -0.15625,-4.21875 -0.26113,-0.52232 -0.59838,-0.0129 -0.90625,0.75 l -0.53125,3.0625 0,0.0625 -0.0312,0.0937 -0.53125,-0.0312 -0.0937,-0.59375 c -0.0407,0.004 -0.0865,-0.024 -0.125,-0.0625 -0.16388,-0.1639 -0.14038,-1.02038 -0.125,-1.90625 L 326.59375,273.75 c -0.39575,-0.18014 -1.11259,0.32966 -1.375,0.65625 -0.0116,-0.0469 -0.0312,-0.0897 -0.0312,-0.125 l 0,-1.28125 0,-6.375 z m 36.90625,2.53125 c -0.23032,0.23035 -0.54191,0.72931 -0.8125,1.1875 l -0.25,1.03125 c 0.0363,0.22333 0.0564,0.44354 -0.0312,0.53125 -0.0257,0.0257 -0.0813,0.0165 -0.125,0.0312 l -0.25,1.09375 -0.1875,0.875 -0.3125,-0.84375 -0.40625,-1.125 c -0.30902,-0.037 -0.57968,-0.0776 -0.71875,-0.0312 -0.81865,0.27292 -0.98112,0.56864 -1.65625,0.90625 -0.32915,0.16462 -0.80088,-0.10539 -1.09375,0.1875 -0.0124,0.0124 -0.0204,0.0455 -0.0312,0.0625 -0.0427,-0.42057 -0.12014,-0.93264 -0.15625,-0.96875 -0.35944,-0.35948 -0.0928,-1.21776 -0.53125,-1.65625 -0.0552,-0.0552 -0.92768,-0.034 -1.34375,0 l 0.28125,7.84375 0,0.0625 -0.0312,0.0625 -1.90625,4.125 0.0625,1.5 0.875,0.0937 4.875,-0.9375 0.0312,-0.0312 0.0312,0 4.875,0.0312 c -0.64275,-0.49009 -2.85782,-0.91168 -3.1875,-1.40625 -0.13513,-0.20272 -0.17225,-0.54647 0,-0.71875 0.33496,-0.33499 1.47754,0.1475 1.8125,-0.1875 0.18696,-0.18699 2.09947,-1.04971 2.5625,-1.28125 0.32098,-0.16052 1.22772,0.24106 1.46875,0 0.33439,-0.33443 -1.25719,-0.27413 -1.71875,-1.25 l -1.25,-0.375 -0.0937,-0.0312 0.0312,-0.53125 1.28125,-0.15625 c 0.22123,-0.71309 0.88396,-1.19638 1.5625,-1.875 0.12181,-0.12181 0.59694,0.12183 0.71875,0 0.20466,-0.20467 -0.20642,-1.67515 -0.34375,-1.8125 -0.19985,-0.19987 -1.9242,0.0759 -2.5625,-0.5625 -0.70987,-0.70995 0.0676,-2.95849 -0.375,-3.84375 -0.0119,-0.0238 -1.05315,-0.0406 -1.09375,0 z m -57.15625,1.5625 c -0.0176,0.0178 -0.0312,0.0533 -0.0312,0.0937 0,0.79966 0.91787,2.38655 1.46875,2.9375 0.20145,0.20147 0.74194,0.36692 0.90625,0.53125 0.0763,0.0763 0.1502,1.59222 0.21875,2.9375 l 1.53125,0.1875 0.0312,0.53125 -0.0937,0.0312 -1.40625,0.40625 c 0.0278,0.40257 0.0626,0.7504 0.0937,0.84375 0.31087,0.93273 2.28573,1.03566 2.90625,1.65625 0.0285,0.0285 0.0285,0.69025 0,0.71875 -0.18922,0.18924 -0.60395,-0.1301 -0.71875,-0.1875 -0.54222,-0.27114 -2.79889,0.0489 -3.125,0.375 -0.24644,0.24647 -0.14539,0.8395 0.0312,1.40625 l 6.78125,-0.0312 0.0312,0 0.0312,0.0312 4.875,0.9375 0.875,-0.0937 0.0625,-1.5 -1.90625,-4.125 -0.0312,-0.0625 0,-0.0625 0.21875,-5.9375 c -0.06,0.0229 -0.12878,0.0663 -0.1875,0.125 -0.12989,0.12991 -0.86549,1.69836 -1.09375,1.8125 -1.6499,0.82505 -0.91044,-1.66038 -1.4375,-2.1875 -0.25562,-0.25565 -0.45505,0.7988 -0.5625,0.90625 -0.67225,0.67234 -1.28125,-0.87637 -1.28125,-1.09375 0,-0.21394 -0.27288,-0.5434 -0.53125,-0.875 l -0.53125,1.40625 c 0.0303,0.50939 0.0472,0.96802 -0.0312,1.125 -0.0223,0.0445 -0.17541,0.0336 -0.375,0 l -0.125,0.34375 -0.0937,-0.375 c -0.89758,-0.18705 -2.53651,-0.68228 -2.875,-0.34375 -0.27406,0.2741 0.27406,1.38216 0,1.65625 -0.52969,0.52976 -0.87426,-1.70198 -1.09375,-2.03125 -0.15683,-0.23528 -2.268,-2.36132 -2.53125,-2.09375 z m 42.4375,1.875 c -0.0288,0.004 -0.0722,0.041 -0.0937,0.0625 -0.33793,0.33797 -0.74768,2.58902 -1.09375,3.28125 -0.0761,0.15214 0.11589,0.60284 0,0.71875 -0.12686,0.12688 -0.75755,0.0603 -1.25,-0.0312 l -2.34375,7.21875 7.125,0 0.28125,-9.125 c -0.10054,0.18143 -0.20952,0.33451 -0.34375,0.46875 -0.0484,0.0484 -0.45605,0 -0.53125,0 -1.96154,0 0.007,-2.53125 -1.46875,-2.53125 -0.0913,0 -0.19492,-0.0746 -0.28125,-0.0625 z m -11.21875,8.28125 c -0.85561,0 -0.27761,0.96506 -0.75,1.4375 -0.0412,0.0412 -0.17305,0.0599 -0.34375,0.0625 l -0.46875,1.46875 3.46875,0 c -0.50881,-1.02145 -0.95021,-2.31882 -1.5625,-2.625 -0.35841,-0.17923 0.0356,-0.34375 -0.34375,-0.34375 z m 4.71875,0.53125 c -0.1759,0.70463 -0.39345,1.6528 -0.59375,2.4375 l 1.34375,0 -0.75,-2.4375 z M 312.84375,286.75 c 0.55068,0.20858 1.88254,0.95252 2.125,1.4375 0.83047,1.66116 -1.71374,1.00494 -1.09375,1.625 0.1956,0.19563 2.71875,-0.13797 2.71875,1.09375 0,0.12182 0.0861,0.2889 0,0.375 -0.69093,0.69101 -4.57529,-0.50168 -3.875,0.625 l 6.75,2.1875 0,-7.125 -6.625,-0.21875 z m 46.125,0 -6.90625,0.21875 0,7.125 4.71875,-1.53125 c 0.31596,-0.36102 0.79092,-0.67777 0.375,-1.09375 -0.42272,-0.42277 -2.21534,0.26737 -2.75,0 -0.34793,-0.17398 0.73289,-1.09375 0.9375,-1.09375 0.84064,0 2.35494,-0.54237 2.90625,-1.09375 0.24449,-0.24452 2.12188,-0.52966 2.5625,-0.75 1.02872,-0.51442 -1.67493,-1.34983 -1.8125,-1.625 -0.0151,-0.0302 -0.0295,-0.10193 -0.0312,-0.15625 z m -39.5,8.3125 -2.15625,0.6875 c 0.67011,0.21114 1.42804,0.21245 2.15625,0.1875 l 0,-0.875 z m 32.59375,0 0,3.65625 c -0.006,-0.98547 1.93361,-2.54042 2.375,-2.90625 l -2.375,-0.75 z m 0,3.65625 0,3.375 2.75,-0.84375 c -0.39265,-0.10439 -0.90977,-0.25349 -1.125,-0.46875 -0.12181,-0.12181 0.1218,-0.59693 0,-0.71875 -0.3064,-0.30643 -1.08585,-0.55456 -1.46875,-0.9375 -0.11465,-0.11466 -0.15539,-0.25173 -0.15625,-0.40625 z m -34.5,-0.25 c -0.0946,0.0196 -0.16165,0.0679 -0.21875,0.125 -0.32448,0.32452 0.62255,0.7138 0.71875,0.90625 0.1335,0.26704 0.52598,0.52066 0.71875,0.90625 0.14447,0.28897 -0.11789,1.06879 -0.0625,1.46875 l 0.75,0.21875 0,-3.375 c -0.6053,-0.0429 -1.44053,-0.34667 -1.90625,-0.25 z m 1.90625,4.28125 -0.96875,0.1875 c -0.24378,0.0933 -0.52839,0.17044 -0.625,0.21875 -0.35031,0.17518 -0.93213,0.44611 -1.28125,0.5625 -0.33485,0.11163 -1.39049,-0.23454 -1.625,0 -0.12181,0.12182 0.12181,0.59694 0,0.71875 -0.33202,0.33207 -0.87842,0.98606 -1.46875,1.28125 -0.37852,0.18929 -1.46875,0.1677 -1.46875,0.71875 0,0.66984 1.91688,0.64556 1.28125,1.28125 -0.30079,0.30082 -1.4977,0.39159 -2.1875,0.6875 l 2.78125,0.5 0.0625,0 0.0937,0.0312 -0.0312,0.53125 -3.53125,0.46875 c 0.16722,0.20566 0.37511,0.46885 0.4375,0.53125 0.0912,0.0912 0,0.76317 0,0.90625 0,1.38264 -1.54431,-0.0808 -2.1875,0.5625 -0.52533,0.52539 0.47055,0.84555 0.53125,0.90625 0.18054,0.18056 0.11896,1.08508 0.0625,1.75 l 10.125,1.3125 0,-5.6875 0,-7.46875 z m 32.59375,0 0,7.46875 0,5.6875 9.4375,-1.21875 c -0.0483,-0.0517 -0.085,-0.10747 -0.125,-0.1875 -0.10299,-0.20601 0,-0.68982 0,-0.9375 0,-0.11151 -0.0712,-0.64755 0,-0.71875 0.61425,-0.61432 4.43426,0.0875 3.65625,-1.46875 -0.32188,-0.64382 -3.52562,-0.0284 -4.21875,-0.375 -0.82448,-0.41228 1.23471,-0.67218 1.46875,-0.90625 l -4.78125,-0.625 -0.0312,-0.53125 0.0937,-0.0312 0.0625,0 2.5625,-0.46875 c -1.19519,0.0908 -2.46996,0.21756 -2.65625,0.0312 -0.49049,-0.49055 1.56223,-1.21846 1.8125,-1.46875 0.0942,-0.0942 0.0688,-1.51862 0,-1.65625 -0.0323,-0.0647 -2.43301,-0.43595 -2.71875,-0.53125 -0.21461,-0.0716 -0.59206,-0.72041 -0.375,-0.9375 0.29495,-0.29499 1.13729,-0.0322 1.59375,-0.0937 L 352.0625,302.75 z m -31.28125,13.9375 1.375,10.46875 c 0.75894,0.23624 2.28322,0.87406 3.03125,0.5 0.12181,-0.0609 0.5016,-0.44067 0.5625,-0.5625 0.27168,-0.54341 0,-1.96426 0,-2.5625 0,-0.78129 -4.3e-4,-0.74953 0.34375,-1.09375 0.22232,-0.22234 0,-1.83813 0,-2.1875 0,-0.52084 -0.24092,-1.70559 0,-2.1875 0.0831,-0.16624 0.53314,-1.49814 0.75,-1.28125 0.39587,0.39591 -0.39587,1.97909 0,2.375 0.59763,0.5977 1.27049,-0.57218 1.4375,-0.90625 0.22596,-0.45196 0.45239,-0.69688 0.75,-1.09375 0.43416,-0.57895 0.70258,-1.00784 0.875,-1.46875 l -1.65625,0 -7.46875,0 z m 9.6875,0 c 0.29571,0.90793 0.96117,1.9101 1.84375,1.46875 0.53157,-0.26581 0.80187,-0.85439 1.03125,-1.46875 l -2.875,0 z m 8.53125,0 c 0.11126,0.36728 0.20337,0.67212 0.25,0.71875 0.38279,0.38283 1.08582,1.1183 1.59375,1.78125 l 0.78125,-2.5 -2.625,0 z m 3.59375,0 2.5,7.6875 c 0.31556,-0.12718 0.57486,-0.38732 0.75,-0.5625 0.076,-0.076 1.7365,-0.076 1.8125,0 0.60902,0.6091 -0.60902,3.04716 0,3.65625 0.0439,0.0439 1.60176,-0.11688 2.40625,-0.15625 l -0.34375,-10.625 -7.125,0 z m -24.125,0.375 -4.875,0.9375 -0.0312,0.0312 -0.0312,0 -5.25,-0.0312 c -0.55005,0.10633 -1.06936,0.24311 -0.8125,0.5 0.11388,0.11389 1.1803,0.0865 1.46875,0.375 0.0371,0.037 0.0371,0.86915 0,0.90625 -0.0845,0.0845 -0.45218,-0.0552 -0.5625,0 -0.66449,0.33229 -1.77378,0.86748 -2.1875,1.28125 -0.11219,0.1122 -0.10883,0.65831 -0.0937,1.25 l 2.875,0.875 0.0937,0.0312 -0.0312,0.53125 -2.84375,0.34375 c 2.4e-4,0.004 0,0.0612 0,0.0625 0,0.44454 -0.11993,2.44256 0,2.5625 0.65843,0.6585 2.01184,-0.89447 2.5625,-0.34375 0.36141,0.36115 -0.39872,3.06993 0.34375,3.8125 0.21312,0.21314 1.04129,-0.0679 1.875,-0.46875 l 0.375,-1.59375 0.1875,-0.875 0.3125,0.84375 0.34375,0.96875 c 0.36976,-0.21991 0.64724,-0.39723 0.75,-0.5 0.39548,-0.39552 1.00908,-1.52013 1.65625,-1.84375 0.95232,-0.47622 0.37365,2.77986 0.71875,3.125 0.0912,0.0912 0.79444,0 0.9375,0 0.97789,0 1.21305,-0.29435 1.4375,-0.71875 l -0.21875,-6.25 0,-0.0625 0.0312,-0.0625 1.90625,-4.09375 -0.0625,-1.53125 -0.875,-0.0625 z m 35,0 -0.875,0.0625 -0.0625,1.53125 1.90625,4.09375 0.0312,0.0625 0,0.0625 -0.1875,5.4375 c 0.31418,-0.2832 0.5663,-0.53504 0.6875,-0.65625 0.0712,-0.0712 0.60726,0 0.71875,0 1.46941,0 0.44653,1.13397 0.9375,1.625 0.90292,0.90305 1.35155,1.06578 2.65625,1.09375 l 0.84375,-2.28125 0.3125,-0.84375 0.1875,0.875 0.5625,2.3125 c 0.1707,-0.003 0.30254,-0.0213 0.34375,-0.0625 0.0484,-0.0484 0,-0.45605 0,-0.53125 0,-1.06507 -0.18567,-1.31061 -0.71875,-1.84375 -0.11415,-0.11416 -0.11415,-2.60458 0,-2.71875 0.24087,-0.2409 1.9965,0 2.375,0 0.47047,0 1.27177,-0.0868 1.9375,-0.0625 0.0456,-0.36717 0.1674,-0.81455 0.1875,-1.15625 l -2.40625,-0.3125 -0.0312,-0.53125 0.0937,-0.0312 1.53125,-0.46875 c -0.0142,-0.12956 0.0312,-0.24999 0.15625,-0.375 0.17292,-0.17295 2.9151,-0.36604 2,-1.28125 -0.45191,-0.45196 -1.76304,-1.06897 -2.5625,-1.46875 -0.47895,-0.23953 -1.20555,0.232 -1.625,-0.1875 -0.0712,-0.0712 0,-0.60724 0,-0.71875 0,-0.0752 -0.0484,-0.48285 0,-0.53125 0.0908,-0.0908 1.17086,-0.0908 2.15625,-0.15625 l -6.21875,0.0312 -0.0312,0 -0.0312,-0.0312 -4.875,-0.9375 z m 11.65625,8.15625 c -0.0321,0.25869 -0.0508,0.48046 0.0625,0.59375 0.1016,0.10161 0.4359,0.30927 0.5625,0.5625 0.0257,0.0514 0.23298,0.48579 0.375,0.34375 0.0484,-0.0484 0,-0.45601 0,-0.53125 0,-0.11151 0.0712,-0.6788 0,-0.75 -0.16803,-0.16805 -0.56695,-0.20292 -1,-0.21875 z"
       id="path4886"
       inkscape:connector-curvature="0" />
    <rect
       ry="19.959999"
       rx="19.907227"
       y="381.05563"
       x="161"
       height="94.625183"
       width="94.375"
       id="rect5126"
       style="color:#000000;fill:#7b6745;fill-opacity:1;fill-rule:nonzero;stroke:#000000;stroke-width:0.93300009;stroke-linecap:round;stroke-linejoin:round;stroke-miterlimit:4;stroke-opacity:1;stroke-dasharray:none;marker:none;visibility:visible;display:inline;overflow:visible;enable-background:accumulate" />
    <path
       inkscape:connector-curvature="0"
       id="path5128"
       d="m 175.00879,399.78351 c -0.2355,-0.72152 2.01644,-0.54327 2.21191,-0.73926 0.18343,-0.18392 1.62508,-1.61435 1.96615,-0.24642 0.13241,0.53106 -0.37974,2.39704 0.24577,2.71062 0.5014,0.25137 0.88493,-0.0984 1.22884,0.24642 0.16601,0.16646 -0.53591,5.37675 1.22884,7.14617 0.39969,0.40075 -0.33414,-7.34829 -0.24577,-7.39259 0.25291,-0.12679 1.60572,-0.37787 1.72038,-0.49284 0.5617,-0.56319 1.38959,-1.39328 1.96615,-1.97136 0.75642,-0.75843 0.91189,0.66791 0.98307,0.73926 0.0919,0.0922 2.12,0.0922 2.21191,0 0.91599,-0.91842 2.24685,-1.75996 2.94922,-2.4642 0.35451,-0.35544 1.74551,0.23383 2.21192,0 0.69318,-0.34751 1.18209,-0.71582 1.72037,-0.98568 0.45931,-0.23026 0.7358,-0.49133 0.98307,-0.73926 0.51223,-0.51357 2.52103,0.33789 3.195,0 0.45382,-0.22751 1.01915,-1.02185 1.22883,-1.23209 0.16091,-0.16134 0.56797,-0.15325 0.7373,-0.49284 0.27606,-0.55356 1.07067,-2.50811 1.96615,-2.95704 0.0646,-0.0323 1.38718,-0.50942 1.47461,-0.24642 0.86427,2.59969 0.40379,9.78634 -0.7373,12.07457 -0.35607,0.71401 0.30699,0.55422 0.49154,0.73926 0.12239,0.12271 0.11723,2.47552 0,2.71061 -0.56457,1.13212 -1.5662,2.06319 -2.21192,2.71062 -0.80547,0.80761 0.91933,1.26406 1.47461,0.98568 1.66431,-0.83436 1.22278,-1.96529 1.72038,-2.4642 0.68008,-0.68188 2.77818,-1.38197 3.44075,-2.71061 0.33568,-0.67313 0.61077,-2.09091 0.98308,-2.4642 0.77826,-0.78032 -0.77828,-3.90164 0,-4.68198 0.4962,-0.49752 1.67442,-0.69319 2.21191,-1.2321 0.63374,-0.63542 -0.417,-3.10651 0,-3.94271 0.0307,-0.0616 0.61684,-0.7344 0.73731,-0.49284 0.40181,0.80575 -0.0471,2.36984 0.49153,3.44987 0.0451,0.0905 0.22334,0.9632 0.24576,0.98568 1.30297,1.30641 3.195,0.87486 3.195,3.44988 0,0.90354 0,1.80709 0,2.71062 0,0.24642 0.24577,0.73926 0,0.73926 -0.7382,0 1.91158,-3.5869 1.96614,-3.6963 0.2893,-0.58014 0.40743,-0.90134 0.7373,-1.2321 0.90354,-0.90592 -1.14494,-3.61514 0.98308,-4.68197 0.15254,-0.0765 0.68759,-0.73926 0.7373,-0.73926 0.41773,0 -0.0497,0.93594 0.24577,1.2321 0.36865,0.36963 0.61442,0.86247 0.98307,1.23209 0.24242,0.24305 0.80397,0.31326 0.98308,0.49284 0.11585,0.11617 -0.11586,0.37668 0,0.49284 0.48042,0.4817 2.20702,0.98078 2.45768,1.2321 0.16113,0.16156 0.3684,0.61581 0.49154,0.73926 0.15937,0.1598 1.4241,0.39155 1.4746,0.49284 0.45878,0.91997 -0.45877,2.52991 0,3.44988 0.30744,0.61651 0.67972,1.11661 0.98308,1.72494 0.25916,0.5197 -0.39395,2.0692 0,2.46419 0.71122,0.71311 1.55673,-3.36814 1.72038,-3.69629 0.29213,-0.58581 1.24165,-2.47062 1.72038,-2.71062 0.41435,-0.20772 0.9341,0.0491 1.22884,-0.24642 0.29661,-0.29741 0.92974,-0.95895 1.4746,-1.2321 0.67614,-0.33895 2.58752,0.60908 2.94922,0.24642 0.0219,-0.0219 0.60593,-1.24914 0.73731,-0.98568 0.13991,0.28056 0.16343,5.66893 0,6.1605 -0.14869,0.44724 -1.14174,0.8188 -1.47462,0.98568 -0.51033,0.25584 -1.1727,1.42224 -1.4746,1.72493 -0.76065,0.76267 3.35462,-0.41913 3.93229,0.73926 0.70939,1.42253 -0.75789,3.67566 0.49153,4.9284 0.0958,0.096 0,0.8353 0,0.98568 0,3.76373 -3.59593,3.51466 -4.91535,6.16049 -0.30332,0.60822 -0.58661,1.32742 -0.98308,1.72494 -0.094,0.0942 0,1.14567 0,1.2321 0,0.2846 -0.052,5.1227 0,5.17481 0.32184,0.32271 0.24577,-1.03279 0.24577,-1.2321 0,-0.96504 0.0389,-3.46941 0.98307,-3.94271 2.21874,-1.11231 4.42383,1.03944 4.42383,-3.44988 0,-0.24642 -0.24577,-0.73926 0,-0.73926 0.24576,0 -0.12644,0.52796 0,0.73926 0.17882,0.29883 0.49154,0.49284 0.73731,0.73926 1.32734,1.33086 3.19498,2.85031 3.19498,4.68198 0,0.33438 0.19644,1.52797 0,1.72493 -0.91001,0.91244 -3.43555,0.4824 -3.93229,1.47852 -0.35239,0.70664 -0.45758,5.3872 -0.49153,5.42124 -0.96968,0.97224 -4.16985,1.22385 -4.91537,1.97135 -0.8025,0.80462 -0.49154,2.16778 -0.49154,3.6963 0,0.4107 0.40962,1.2321 0,1.2321 -0.20483,0 0.47939,-1.21992 0.49154,-1.2321 0.15692,-0.15733 1.27769,0 1.4746,0 0.57644,0 1.94486,-0.25709 2.45769,0 0.36938,0.18518 0.30434,0.79799 0.49153,0.98568 0.23707,0.2377 1.22884,0.0504 1.22884,0.49284 0,2.02271 0.40415,2.37657 1.47462,3.44988 0.0958,0.096 0,0.8353 0,0.98567 0,0.95573 0.41703,3.10646 0,3.94272 -0.31372,0.62908 -1.40444,0.42249 -1.72038,0.73926 -0.11926,0.11958 -0.16551,3.03751 0,3.20346 0.3129,0.31373 2.82472,0.12159 3.19498,0.49284 0.19842,0.19895 -0.0269,1.12239 -0.24576,1.23209 -1.4962,0.75009 -4.58388,-0.41259 -5.89844,0.24642 -0.52577,0.26358 -0.97299,0.49284 -1.47461,0.49284 -0.27298,0 -1.54659,0.17425 -1.72038,0 -0.24576,-0.24642 -0.49153,-0.49284 -0.73731,-0.73926 -0.58757,-0.58913 -1.41418,-2.34304 -1.96614,-3.44987 -0.031,-0.0622 -0.60835,-1.4907 -0.7373,-1.2321 -0.98595,1.97714 1.56691,3.38855 2.21191,4.68197 0.33893,0.67967 0.24577,1.64422 0.24577,2.4642 0,0.43212 -3.8787,2.02509 -4.66959,1.2321 -0.40962,-0.41069 -0.81923,-0.8214 -1.22885,-1.2321 -0.11585,-0.11616 0.11586,-0.37668 0,-0.49284 -0.16443,-0.16486 -1.70267,-0.51058 -1.96615,-0.24642 -0.16111,0.16156 -0.12263,0.86223 -0.24576,0.98568 -0.39769,0.39876 -2.24805,1.33719 -3.44076,0.73926 -1.28882,-0.64611 -1.05744,-3.0316 -1.96614,-3.94271 -0.39286,-0.3939 -0.85759,-0.92277 -1.47461,-1.2321 -0.14838,-0.0744 -0.62369,0.11391 -0.7373,0 -0.4636,-0.46483 -0.7746,-0.98568 -1.72039,-0.98568 -2.16854,0 0.0396,5.89422 -2.94922,7.39259 -0.064,0.032 -0.2994,0.43905 -0.49153,0.24642 -0.5325,-0.5339 0.5325,-2.66954 0,-3.20346 -0.85529,-0.85755 -1.9661,-1.97132 -2.70345,-2.71061 -0.50037,-0.5017 -2.29347,0.57571 -2.70346,-0.24642 -0.14708,-0.29495 -0.0861,-0.66556 -0.24576,-0.98568 -0.4431,-0.88854 0,-3.17366 0,-4.18914 0,-0.73926 0,-1.47852 0,-2.21778 0,-0.16427 0.11586,-0.609 0,-0.49284 -0.90362,0.90602 -0.23168,4.66785 -0.98307,5.42124 -0.71438,0.71626 -2.83884,2.48927 -3.44076,3.69629 -0.33717,0.67615 0.35553,4.57194 0,4.9284 -0.30054,0.30134 -1.08334,0.36207 -1.4746,0.49284 -0.49036,0.16388 -1.44202,0.49284 -1.96615,0.49284 -0.31259,0 -1.76718,0.19949 -1.96614,0 -0.94222,-0.94472 0.59612,-7.14617 -0.73731,-7.14617 -0.2952,0 -0.97042,-0.12956 -1.22884,0 -1.01071,0.50669 -0.52984,2.5026 -1.22884,3.20345 -0.27023,0.27096 -0.88324,0.88558 -1.22885,1.2321 -0.22564,0.22624 -3.60251,0.16533 -3.93228,0 -0.80459,-0.40335 -2.31583,-0.59702 -2.94922,-1.2321 -0.48335,-0.48463 -0.17893,-4.40204 -0.24578,-4.43555 -0.25698,-0.12884 -1.90828,-0.15222 -2.21191,0 -0.33869,0.16979 -0.33063,0.57792 -0.49153,0.73926 -0.14647,0.14685 -3.03261,1.14849 -3.19499,0.98568 -0.42446,-0.42559 0.42214,-5.49081 0,-5.91408 -0.49154,-0.49284 -2.45769,0.49284 -2.94922,0 -0.3307,-0.33158 -1.99813,-4.37143 -1.47461,-5.42123 0.73724,-1.47839 3.12416,-1.09009 4.17806,-3.20346 0.42586,-0.85399 0.49154,-1.63118 0.49154,-2.95704 0,-0.01 -0.54364,-0.83635 -0.24577,-0.98568 0.40385,-0.20245 3.4112,-1.01531 3.93229,-0.49284 0.76564,0.76768 1.67135,2.24237 3.19499,1.47852 0.64422,-0.32296 1.22884,-1.49291 1.22884,-1.97135 0,-0.4107 -0.40962,-1.2321 0,-1.2321 0.14021,0 0.0351,0.95048 -0.49154,1.47851 -0.34897,0.3499 -2.89238,0 -3.44075,0 -1.14143,0 -0.46143,-2.07947 -1.22884,-2.46419 -1.08081,-0.54184 -4.68929,0.71952 -4.91537,0.49284 -0.22942,-0.23003 0,-2.1481 0,-2.4642 0,-0.47116 -0.29905,-2.65719 0,-2.95704 0.81457,-0.81672 4.98351,-0.15736 5.65267,-0.49284 0.75729,-0.37964 1.60424,-0.43461 2.21192,-0.73926 0.69937,-0.3506 1.62856,-2.03367 1.96614,-2.71061 0.51141,-1.02554 -0.017,0.26343 0.49154,-0.24642 0.20886,-0.20942 0.70039,-0.94868 0.49154,-0.73926 -0.17902,0.17948 -2.79245,1.27672 -3.195,1.47852 -0.46191,0.23157 -6.5674,0.52709 -7.12728,0.24642 -0.70664,-0.35426 -1.78795,-1.05344 -2.21191,-1.47852 -0.10058,-0.10086 -2.76836,-0.7718 -3.19499,-0.98568 -0.6243,-0.31298 -0.17718,-2.04012 0,-2.21778 1.33733,-1.34086 3.2771,-0.0412 4.6696,-0.73926 0.74029,-0.37112 1.25463,-1.01152 1.72038,-1.47852 0.14841,-0.14881 1.24154,0 1.47461,0 0.27299,0 1.54659,-0.17425 1.72038,0 0.85256,0.85482 0.61121,4.07557 1.22884,2.21778 0.16236,-0.48838 0.24577,-1.09423 0.24577,-1.47852 0,-0.65685 0.28662,-2.13585 0,-2.71062 -0.17651,-0.35395 -4.63799,-0.77094 -4.91537,-0.49283 -0.17378,0.17424 -2.16449,1.03323 -2.70344,0.49283 -0.65539,-0.65711 0.40961,-3.03917 -0.24578,-3.69629 -0.92845,-0.93092 -1.72037,-0.63579 -1.72037,-2.21778 0,-0.10146 -0.0651,-0.67403 0,-0.73926 0.94884,-0.95137 3.68652,1.53003 3.68652,-1.2321 0,-0.10146 0.0651,-0.67402 0,-0.73926 -0.51556,-0.51693 -1.81049,-0.33676 -2.21192,-0.73926 -0.11361,-0.1139 0.0742,-0.59047 0,-0.73925 -0.78428,-1.57272 -1.35867,-2.7548 -0.49153,-4.9284 z"
       style="color:#000000;fill:#7b6745;fill-opacity:1;fill-rule:nonzero;stroke:#000000;stroke-width:0.93300003;stroke-linecap:round;stroke-linejoin:round;stroke-miterlimit:4;stroke-opacity:1;stroke-dasharray:none;marker:none;visibility:visible;display:inline;overflow:visible;enable-background:accumulate" />
    <path
       inkscape:connector-curvature="0"
       id="path5130"
       d="M 179.89343,381.06825 C 169.34602,381.60086 161,390.31597 161,401.02825 l 0,54.70518 c 0,11.05784 8.87862,19.96 19.90722,19.96 l 54.56056,0 c 11.0286,0 19.90722,-8.90216 19.90722,-19.96 l 0,-54.70518 c 0,-11.05784 -8.87862,-19.96 -19.90722,-19.96 l -54.56056,0 c -0.34464,0 -0.67355,-0.0171 -1.01379,0 z m 24.85332,9.51796 c 0.13729,-0.008 0.22391,0.0266 0.24576,0.0924 0.86427,2.59969 0.40379,9.78634 -0.7373,12.07456 -0.35607,0.71402 0.30699,0.55423 0.49154,0.73926 0.12239,0.12272 0.11723,2.47553 0,2.71062 -0.56457,1.13211 -1.5662,2.06318 -2.21192,2.71062 -0.80547,0.8076 0.91933,1.26405 1.47461,0.98568 1.66431,-0.83436 1.22278,-1.96529 1.72038,-2.4642 0.68008,-0.68188 2.77818,-1.38197 3.44075,-2.71062 0.33568,-0.67313 0.61077,-2.0909 0.98308,-2.4642 0.77826,-0.78032 -0.77828,-3.90164 0,-4.68197 0.4962,-0.49752 1.67442,-0.69319 2.21191,-1.2321 0.63374,-0.63543 -0.417,-3.10651 0,-3.94271 0.0307,-0.0616 0.61684,-0.7344 0.73731,-0.49284 0.40181,0.80575 -0.0471,2.36983 0.49153,3.44987 0.0451,0.0905 0.22334,0.9632 0.24576,0.98568 1.30297,1.30641 3.195,0.87486 3.195,3.44988 l 0,2.71061 c 0,0.0332 0.0236,0.0829 0.0307,0.12321 0.45462,-1.02482 1.89497,-2.9991 1.93544,-3.08024 0.28929,-0.58014 0.40742,-0.90135 0.73729,-1.2321 0.90354,-0.90592 -1.14494,-3.61515 0.98308,-4.68198 0.15254,-0.0765 0.68759,-0.73926 0.7373,-0.73926 0.41773,0 -0.0497,0.93595 0.24577,1.2321 0.36865,0.36963 0.61442,0.86247 0.98307,1.2321 0.24242,0.24305 0.80398,0.31326 0.98308,0.49284 0.11585,0.11616 -0.11585,0.37668 0,0.49284 0.48042,0.48169 2.20702,0.98078 2.45768,1.2321 0.16113,0.16155 0.3684,0.6158 0.49154,0.73926 0.15937,0.1598 1.4241,0.39155 1.4746,0.49284 0.45878,0.91997 -0.45877,2.52991 0,3.44987 0.30744,0.61652 0.67972,1.11662 0.98308,1.72494 0.25916,0.5197 -0.39395,2.06921 0,2.4642 0.71122,0.71311 1.55673,-3.36814 1.72038,-3.6963 0.29213,-0.5858 1.24165,-2.47061 1.72038,-2.71061 0.41435,-0.20772 0.9341,0.0491 1.22884,-0.24642 0.29661,-0.29741 0.92974,-0.95895 1.4746,-1.2321 0.67614,-0.33896 2.58752,0.60908 2.94922,0.24642 0.0219,-0.0219 0.60593,-1.24914 0.73731,-0.98568 0.13991,0.28055 0.16343,5.66893 0,6.16049 -0.14869,0.44725 -1.14174,0.81881 -1.47462,0.98568 -0.51033,0.25584 -1.1727,1.42225 -1.4746,1.72494 -0.76065,0.76267 3.35462,-0.41913 3.93229,0.73926 0.70939,1.42253 -0.75789,3.67566 0.49153,4.92839 0.0958,0.096 0,0.83531 0,0.98568 0,3.76374 -3.59593,3.51467 -4.91535,6.1605 -0.30332,0.60822 -0.58661,1.32742 -0.98308,1.72494 -0.094,0.0942 0,1.14567 0,1.23209 0,0.28461 -0.052,5.12271 0,5.17482 0.32184,0.32271 0.24577,-1.0328 0.24577,-1.2321 0,-0.96504 0.0389,-3.46941 0.98307,-3.94272 2.21874,-1.1123 4.42383,1.03945 4.42383,-3.44987 0.17882,0.29883 0.49154,0.49284 0.73731,0.73926 1.32734,1.33086 3.19498,2.8503 3.19498,4.68197 0,0.33438 0.19644,1.52798 0,1.72494 -0.91001,0.91243 -3.43555,0.4824 -3.93229,1.47852 -0.35239,0.70664 -0.45758,5.3872 -0.49153,5.42123 -0.96968,0.97225 -4.16985,1.22386 -4.91537,1.97136 -0.8025,0.80462 -0.49154,2.16778 -0.49154,3.6963 0,0.18281 0.069,0.44075 0.12289,0.67765 0.15269,-0.32863 0.36209,-0.67108 0.36865,-0.67765 0.15692,-0.15734 1.27769,0 1.4746,0 0.57645,0 1.94486,-0.2571 2.45769,0 0.36938,0.18518 0.30434,0.79798 0.49153,0.98568 0.23707,0.23769 1.22884,0.0504 1.22884,0.49284 0,2.02271 0.40415,2.37657 1.47462,3.44987 0.0958,0.096 0,0.83531 0,0.98568 0,0.95573 0.41703,3.10646 0,3.94272 -0.31371,0.62908 -1.40444,0.42249 -1.72038,0.73926 -0.11926,0.11958 -0.16551,3.0375 0,3.20345 0.3129,0.31374 2.82472,0.1216 3.19498,0.49284 0.19842,0.19895 -0.0269,1.1224 -0.24576,1.2321 -1.4962,0.75008 -4.58388,-0.41259 -5.89844,0.24642 -0.52577,0.26358 -0.97299,0.49284 -1.47461,0.49284 -0.27298,0 -1.54659,0.17425 -1.72038,0 l -0.7373,-0.73926 c -0.58757,-0.58913 -1.41419,-2.34305 -1.96615,-3.44987 -0.031,-0.0622 -0.60835,-1.49071 -0.7373,-1.2321 -0.98595,1.97714 1.56691,3.38854 2.21191,4.68197 0.33893,0.67967 0.24577,1.64421 0.24577,2.4642 0,0.43212 -3.8787,2.02509 -4.66959,1.2321 l -1.22885,-1.2321 c -0.11585,-0.11616 0.11586,-0.37668 0,-0.49284 -0.16443,-0.16487 -1.70267,-0.51058 -1.96615,-0.24642 -0.16111,0.16155 -0.12263,0.86222 -0.24576,0.98568 -0.39769,0.39876 -2.24805,1.33719 -3.44076,0.73926 -1.28882,-0.64611 -1.05744,-3.03161 -1.96614,-3.94272 -0.39286,-0.39389 -0.85758,-0.92276 -1.47461,-1.2321 -0.14838,-0.0744 -0.62369,0.11392 -0.7373,0 -0.4636,-0.46482 -0.7746,-0.98568 -1.72038,-0.98568 -2.16855,0 0.0396,5.89423 -2.94922,7.3926 -0.064,0.032 -0.29941,0.43905 -0.49154,0.24642 -0.5325,-0.53391 0.5325,-2.66955 0,-3.20346 l -2.70345,-2.71062 c -0.50036,-0.50169 -2.29347,0.57572 -2.70345,-0.24642 -0.14709,-0.29494 -0.0861,-0.66556 -0.24577,-0.98568 -0.4431,-0.88854 0,-3.17366 0,-4.18913 l 0,-2.21778 c 0,-0.16427 0.11586,-0.609 0,-0.49284 -0.90362,0.90602 -0.23168,4.66785 -0.98307,5.42124 -0.71437,0.71626 -2.83884,2.48927 -3.44076,3.69629 -0.33717,0.67615 0.35553,4.57194 0,4.9284 -0.30054,0.30134 -1.08334,0.36207 -1.4746,0.49284 -0.49036,0.16388 -1.44201,0.49284 -1.96615,0.49284 -0.31259,0 -1.76718,0.19949 -1.96614,0 -0.94222,-0.94472 0.59612,-7.14618 -0.73731,-7.14618 -0.2952,0 -0.97042,-0.12955 -1.22884,0 -1.01071,0.5067 -0.52984,2.5026 -1.22884,3.20346 l -1.22885,1.2321 c -0.22564,0.22624 -3.60251,0.16533 -3.93228,0 -0.80459,-0.40335 -2.31583,-0.59703 -2.94922,-1.2321 -0.48335,-0.48463 -0.17893,-4.40204 -0.24578,-4.43556 -0.25698,-0.12883 -1.90828,-0.15221 -2.21191,0 -0.33869,0.1698 -0.33063,0.57793 -0.49153,0.73926 -0.14647,0.14686 -3.03261,1.1485 -3.19499,0.98568 -0.42446,-0.42558 0.42214,-5.4908 0,-5.91407 -0.49154,-0.49284 -2.45769,0.49284 -2.94922,0 -0.3307,-0.33158 -1.99813,-4.37143 -1.47461,-5.42124 0.73724,-1.47839 3.12416,-1.09008 4.17806,-3.20345 0.42586,-0.85399 0.49154,-1.63118 0.49154,-2.95704 0,-0.01 -0.54364,-0.83635 -0.24577,-0.98568 0.40385,-0.20246 3.4112,-1.01532 3.9323,-0.49284 0.76563,0.76768 1.67134,2.24236 3.19498,1.47852 0.64422,-0.32297 1.22884,-1.49291 1.22884,-1.97136 0,-0.13439 -0.0475,-0.31365 -0.0921,-0.49284 -0.0877,0.25228 -0.19467,0.53401 -0.39938,0.73926 -0.34897,0.3499 -2.89238,0 -3.44075,0 -1.14143,0 -0.46143,-2.07948 -1.22884,-2.4642 -1.08081,-0.54183 -4.68929,0.71953 -4.91537,0.49284 -0.22942,-0.23002 0,-2.1481 0,-2.46419 0,-0.47116 -0.29905,-2.6572 0,-2.95704 0.81457,-0.81672 4.98351,-0.15736 5.65267,-0.49284 0.75729,-0.37964 1.60424,-0.43462 2.21192,-0.73926 0.69937,-0.35061 1.62856,-2.03367 1.96614,-2.71062 0.51141,-1.02554 -0.017,0.26344 0.49154,-0.24642 0.15665,-0.15706 0.46234,-0.60987 0.52225,-0.73926 -0.005,0.005 -0.0241,-0.007 -0.0307,0 -0.17902,0.17949 -2.79245,1.27673 -3.195,1.47852 -0.46191,0.23158 -6.5674,0.5271 -7.12728,0.24642 -0.70664,-0.35425 -1.78795,-1.05343 -2.21191,-1.47852 -0.10058,-0.10085 -2.76836,-0.77179 -3.19499,-0.98567 -0.6243,-0.31299 -0.17718,-2.04012 0,-2.21778 1.33733,-1.34086 3.2771,-0.0412 4.6696,-0.73926 0.74028,-0.37112 1.25463,-1.01153 1.72038,-1.47852 0.14841,-0.14881 1.24154,0 1.47461,0 0.27299,0 1.54659,-0.17425 1.72038,0 0.85256,0.85482 0.61121,4.07557 1.22884,2.21778 0.16236,-0.48839 0.24577,-1.09423 0.24577,-1.47852 0,-0.65686 0.28662,-2.13585 0,-2.71062 -0.17651,-0.35396 -4.638,-0.77095 -4.91537,-0.49284 -0.17378,0.17425 -2.16449,1.03324 -2.70344,0.49284 -0.65539,-0.65711 0.4096,-3.03917 -0.24578,-3.69629 -0.92845,-0.93092 -1.72037,-0.6358 -1.72037,-2.21778 0,-0.10147 -0.0651,-0.67403 0,-0.73926 0.94884,-0.95137 3.68652,1.53003 3.68652,-1.2321 0,-0.10147 0.0651,-0.67403 0,-0.73926 -0.51556,-0.51693 -1.81049,-0.33677 -2.21192,-0.73926 -0.11361,-0.1139 0.0742,-0.59047 0,-0.73926 -0.78428,-1.57272 -1.35867,-2.75479 -0.49153,-4.92839 -0.2355,-0.72152 2.01644,-0.54327 2.21191,-0.73926 0.18343,-0.18392 1.62507,-1.61436 1.96615,-0.24642 0.13241,0.53105 -0.37974,2.39704 0.24577,2.71062 0.5014,0.25136 0.88493,-0.0984 1.22884,0.24642 0.16601,0.16646 -0.53591,5.37675 1.22884,7.14617 0.39969,0.40075 -0.33414,-7.34829 -0.24577,-7.39259 0.25291,-0.12679 1.60572,-0.37787 1.72038,-0.49284 l 1.96615,-1.97136 c 0.75642,-0.75843 0.91189,0.6679 0.98307,0.73926 0.0919,0.0922 2.12,0.0922 2.21191,0 0.91599,-0.91842 2.24684,-1.75996 2.94922,-2.4642 0.35451,-0.35545 1.74551,0.23382 2.21192,0 0.69318,-0.34751 1.18209,-0.71582 1.72037,-0.98568 0.45931,-0.23026 0.7358,-0.49133 0.98307,-0.73926 0.51223,-0.51358 2.52103,0.33788 3.19499,0 0.45383,-0.22751 1.01916,-1.02185 1.22884,-1.2321 0.16091,-0.16133 0.56797,-0.15324 0.7373,-0.49284 0.27606,-0.55355 1.07067,-2.50811 1.96615,-2.95703 0.0485,-0.0242 0.81695,-0.31409 1.22885,-0.33883 z m 35.32918,27.69142 c 0.0168,-0.014 0.0307,0 0.0615,0 0.18432,0 0.009,0.28601 -0.0307,0.52364 -0.0478,-0.20666 -0.1173,-0.45171 -0.0307,-0.52364 z"
       style="color:#000000;fill:#367136;fill-opacity:1;fill-rule:nonzero;stroke:#000000;stroke-width:0.93300009;stroke-linecap:round;stroke-linejoin:round;stroke-miterlimit:4;stroke-opacity:1;stroke-dasharray:none;marker:none;visibility:visible;display:inline;overflow:visible;enable-background:accumulate" />
    <path
       inkscape:connector-curvature="0"
       id="path5132"
       d="m 179.92415,381.53028 c -10.45895,0.24404 -19.25295,10.13963 -18.46333,20.56852 0.0167,18.21381 -0.0335,36.42846 0.0251,54.64175 0.23432,10.48009 10.09614,19.288 20.48895,18.49084 18.16566,-0.0168 36.33214,0.0335 54.49727,-0.0252 10.45239,-0.23494 19.23702,-10.1229 18.44196,-20.54327 -0.0167,-18.21381 0.0334,-36.42845 -0.0251,-54.64174 -0.23432,-10.4801 -10.09614,-19.288 -20.48895,-18.49085 -18.15863,0 -36.31726,0 -54.4759,0 z m 6.97368,3.60389 c 3.10058,0.17197 4.04652,3.93446 7.3116,0.70836 4.14318,-0.86686 8.00656,0.38231 11.72429,0.70389 3.75128,-0.40316 7.75579,0.84035 11.35686,-0.3237 2.88615,-1.78791 6.4124,-0.78792 8.68282,1.38713 3.21092,1.92422 6.47475,-1.96195 10.23163,-0.41201 4.56066,-2.3303 6.21715,1.96079 7.89436,5.39938 -0.67954,3.53836 5.16981,4.66768 3.52957,9.06423 0.16425,4.50841 -2.837,9.09504 1.1891,12.916 2.4402,5.07724 0.94256,10.85739 1.11937,16.26749 0.65467,3.39043 0.30772,6.67691 -3.70918,7.31593 -4.616,0.86365 -0.10934,6.4045 -0.18095,9.15549 3.00391,3.21475 3.29991,7.98739 1.12509,11.40481 0.47848,3.10244 -5.13089,1.17767 -3.33995,5.15034 1.44974,6.37271 -4.85622,4.36894 -8.39501,6.02263 -5.26358,2.08778 -11.75053,1.90944 -16.63206,-1.05964 -3.30145,-3.40266 -8.48362,0.1378 -11.92016,1.82175 -4.85154,3.24599 -10.56484,0.0694 -15.78693,1.0305 -4.12012,-1.22356 -7.85436,-5.88202 -12.28018,-2.27727 -3.89921,-0.92095 -7.88362,-4.47866 -9.27305,-8.27552 -0.53028,-4.21987 -2.82723,-8.09269 -1.48111,-12.45787 0.55474,-3.94295 -2.59525,-7.38561 -1.25766,-11.33198 -1.01078,-4.95607 -1.53913,-10.29773 -1.43986,-15.46877 0.4276,-5.05873 -0.84703,-10.60393 1.56278,-15.21049 1.92262,-3.59828 -0.0711,-7.85379 0.36856,-11.64318 3.48933,-0.82737 4.82668,-4.75318 6.05209,-6.74569 3.3271,-0.35503 6.05617,2.23279 9.08464,-1.09068 1.4767,-0.64649 2.81236,-1.92099 4.46334,-2.05113 z"
       style="color:#000000;fill:#3d883d;fill-opacity:1;fill-rule:nonzero;stroke:none;stroke-width:0.93300009;marker:none;visibility:visible;display:inline;overflow:visible;enable-background:accumulate" />
    <path
       style="color:#000000;fill:#68593f;fill-opacity:1;fill-rule:nonzero;stroke:none;stroke-width:0.93300003;marker:none;visibility:visible;display:inline;overflow:visible;enable-background:accumulate"
       d="m 193.31399,413.92917 c -0.10559,-0.32334 0.90414,-0.24346 0.99178,-0.3313 0.0823,-0.0824 0.72866,-0.72345 0.88159,-0.11042 0.0594,0.23798 -0.17027,1.0742 0.1102,1.21473 0.22482,0.11264 0.3968,-0.0441 0.55099,0.11042 0.0744,0.0746 -0.24028,2.40953 0.551,3.20247 0.17921,0.17959 -0.14983,-3.29304 -0.1102,-3.31289 0.11339,-0.0568 0.71997,-0.16934 0.77139,-0.22086 0.25185,-0.25239 0.62307,-0.62438 0.88159,-0.88345 0.33916,-0.33988 0.40888,0.29931 0.44079,0.3313 0.0412,0.0413 0.95057,0.0413 0.99178,0 0.41072,-0.41158 1.00745,-0.78871 1.32238,-1.10431 0.15896,-0.15928 0.78266,0.10479 0.9918,0 0.3108,-0.15573 0.53003,-0.32079 0.77138,-0.44172 0.20594,-0.10319 0.32992,-0.22018 0.44079,-0.33129 0.22968,-0.23015 1.13039,0.15141 1.43258,0 0.20349,-0.10196 0.45697,-0.45793 0.551,-0.55215 0.0721,-0.0724 0.25467,-0.0687 0.33059,-0.22086 0.12377,-0.24807 0.48007,-1.12398 0.88158,-1.32516 0.029,-0.0145 0.622,-0.2283 0.6612,-0.11043 0.38752,1.16502 0.18106,4.38563 -0.3306,5.41107 -0.15965,0.31999 0.13765,0.24838 0.2204,0.33129 0.0548,0.055 0.0526,1.10938 0,1.21473 -0.25315,0.50735 -0.70225,0.9246 -0.99179,1.21473 -0.36115,0.36192 0.41221,0.56648 0.66119,0.44173 0.74625,-0.37391 0.54828,-0.88072 0.7714,-1.1043 0.30493,-0.30558 1.24569,-0.61932 1.54277,-1.21473 0.15051,-0.30166 0.27386,-0.93702 0.44079,-1.10431 0.34897,-0.34969 -0.34896,-1.74847 0,-2.09817 0.2225,-0.22295 0.7508,-0.31064 0.99179,-0.55215 0.28416,-0.28476 -0.18697,-1.39214 0,-1.76688 0.0137,-0.0276 0.27658,-0.32912 0.33059,-0.22086 0.18017,0.36108 -0.0212,1.06201 0.2204,1.54602 0.0203,0.0405 0.10015,0.43165 0.1102,0.44172 0.58422,0.58545 1.43259,0.39206 1.43259,1.54603 0,0.4049 0,0.80981 0,1.21473 0,0.11042 0.11019,0.33129 0,0.33129 -0.331,0 0.85712,-1.60743 0.88158,-1.65646 0.12971,-0.25998 0.18268,-0.40392 0.33059,-0.55215 0.40514,-0.40598 -0.51337,-1.62009 0.44079,-2.09817 0.0685,-0.0343 0.30832,-0.33129 0.3306,-0.33129 0.18731,0 -0.0222,0.41943 0.1102,0.55215 0.1653,0.16564 0.2755,0.3865 0.44079,0.55215 0.10869,0.10892 0.36048,0.14039 0.44079,0.22086 0.052,0.052 -0.052,0.16881 0,0.22086 0.21542,0.21586 0.98961,0.43952 1.10199,0.55215 0.0722,0.0723 0.1652,0.27597 0.2204,0.33129 0.0714,0.0717 0.63854,0.17548 0.66119,0.22087 0.2057,0.41227 -0.20571,1.13374 0,1.54601 0.13784,0.27629 0.30477,0.5004 0.44079,0.77301 0.11621,0.2329 -0.17663,0.9273 0,1.10431 0.3189,0.31956 0.69802,-1.5094 0.7714,-1.65646 0.13098,-0.26252 0.55673,-1.10717 0.77139,-1.21473 0.18579,-0.093 0.41884,0.022 0.55099,-0.11042 0.133,-0.13329 0.41688,-0.42975 0.66118,-0.55216 0.30317,-0.15189 1.16021,0.27295 1.32238,0.11044 0.01,-0.01 0.27169,-0.55979 0.3306,-0.44173 0.0627,0.12573 0.0732,2.54046 0,2.76075 -0.0667,0.20043 -0.51194,0.36694 -0.6612,0.44172 -0.22881,0.11466 -0.52581,0.63736 -0.66118,0.77301 -0.34107,0.34179 1.50416,-0.18782 1.76318,0.3313 0.31808,0.63749 -0.33982,1.6472 0.22039,2.2086 0.043,0.0431 0,0.37433 0,0.44172 0,1.68668 -1.61236,1.57506 -2.20397,2.76075 -0.13599,0.27257 -0.26302,0.59487 -0.44079,0.77301 -0.0422,0.0422 0,0.51342 0,0.55216 0,0.12754 -0.0234,2.29567 0,2.31903 0.14431,0.14461 0.1102,-0.46284 0.1102,-0.55215 0,-0.43248 0.0175,-1.55478 0.44079,-1.76688 0.99485,-0.49848 1.98358,0.46581 1.98358,-1.54603 0,-0.11042 -0.1102,-0.33129 0,-0.33129 0.11019,0 -0.0567,0.2366 0,0.33129 0.0803,0.13392 0.22039,0.22086 0.3306,0.33129 0.59514,0.59641 1.43257,1.27734 1.43257,2.09817 0,0.14986 0.0881,0.68475 0,0.77301 -0.40804,0.4089 -1.54044,0.21619 -1.76317,0.66259 -0.15801,0.31667 -0.20519,2.41421 -0.2204,2.42946 -0.43479,0.4357 -1.86968,0.54846 -2.20397,0.88344 -0.35983,0.36058 -0.2204,0.97147 -0.2204,1.65646 0,0.18404 0.18367,0.55214 0,0.55214 -0.0918,0 0.21496,-0.54668 0.2204,-0.55214 0.0704,-0.0705 0.5729,0 0.66118,0 0.25847,0 0.87205,-0.11522 1.10198,0 0.16564,0.083 0.13647,0.3576 0.22041,0.44171 0.10629,0.10652 0.55099,0.0226 0.55099,0.22086 0,0.90646 0.18122,1.06503 0.6612,1.54603 0.0429,0.0431 0,0.37433 0,0.44172 0,0.4283 0.18698,1.39211 0,1.76688 -0.14066,0.28191 -0.62973,0.18933 -0.77139,0.33128 -0.0534,0.0536 -0.0742,1.36123 0,1.4356 0.14029,0.14059 1.26656,0.0545 1.43258,0.22086 0.089,0.0891 -0.0121,0.50299 -0.1102,0.55214 -0.67087,0.33615 -2.05534,-0.18489 -2.64477,0.11044 -0.23575,0.11812 -0.43628,0.22086 -0.66119,0.22086 -0.12241,0 -0.69347,0.0781 -0.77139,0 -0.11019,-0.11043 -0.22039,-0.22086 -0.3306,-0.3313 -0.26345,-0.264 -0.63409,-1.05 -0.88158,-1.54601 -0.0138,-0.0279 -0.27277,-0.66805 -0.33059,-0.55215 -0.44209,0.88603 0.70256,1.51854 0.99178,2.09816 0.15197,0.30459 0.1102,0.73684 0.1102,1.10431 0,0.19365 -1.73914,0.90752 -2.09376,0.55215 -0.18368,-0.18405 -0.36733,-0.36809 -0.551,-0.55215 -0.0519,-0.052 0.0519,-0.16881 0,-0.22086 -0.0737,-0.0739 -0.76346,-0.22882 -0.88159,-0.11043 -0.0722,0.0723 -0.0549,0.38639 -0.11021,0.44172 -0.17831,0.1787 -1.00798,0.59925 -1.54277,0.33129 -0.57788,-0.28955 -0.47413,-1.35858 -0.88159,-1.76689 -0.17615,-0.17651 -0.38452,-0.41352 -0.66118,-0.55214 -0.0666,-0.0333 -0.27966,0.051 -0.3306,0 -0.20788,-0.20831 -0.34731,-0.44173 -0.77139,-0.44173 -0.97234,0 0.0178,2.64144 -1.32238,3.31291 -0.0287,0.0144 -0.13425,0.19676 -0.2204,0.11044 -0.23877,-0.23927 0.23876,-1.19633 0,-1.4356 -0.38349,-0.3843 -0.88157,-0.88342 -1.21218,-1.21473 -0.22435,-0.22483 -1.02836,0.25799 -1.21218,-0.11043 -0.066,-0.13218 -0.0387,-0.29827 -0.1102,-0.44173 -0.19869,-0.39818 0,-1.42223 0,-1.8773 0,-0.3313 0,-0.66258 0,-0.99388 0,-0.0736 0.052,-0.27291 0,-0.22085 -0.40517,0.40601 -0.10389,2.09184 -0.44079,2.42946 -0.32032,0.32098 -1.27289,1.11553 -1.54278,1.65644 -0.15119,0.30301 0.15941,2.04887 0,2.20862 -0.13476,0.13503 -0.48576,0.16225 -0.6612,0.22085 -0.21986,0.0734 -0.64658,0.22086 -0.88159,0.22086 -0.14015,0 -0.79236,0.0894 -0.88157,0 -0.42248,-0.42336 0.26728,-3.20247 -0.3306,-3.20247 -0.13237,0 -0.43512,-0.0581 -0.55099,0 -0.45319,0.22707 -0.23758,1.12151 -0.55099,1.43559 -0.12117,0.12143 -0.39603,0.39686 -0.55101,0.55215 -0.10117,0.10138 -1.6153,0.0741 -1.76316,0 -0.36076,-0.18076 -1.03838,-0.26755 -1.32238,-0.55215 -0.21674,-0.21719 -0.0803,-1.97272 -0.1102,-1.98774 -0.11523,-0.0578 -0.85564,-0.0682 -0.99179,0 -0.15187,0.0761 -0.14824,0.25899 -0.22039,0.33129 -0.0657,0.0658 -1.35978,0.51468 -1.43259,0.44172 -0.19032,-0.19072 0.18928,-2.46064 0,-2.65032 -0.22039,-0.22087 -1.10198,0.22086 -1.32238,0 -0.14829,-0.1486 -0.89592,-1.95901 -0.66119,-2.42947 0.33057,-0.66252 1.40082,-0.4885 1.87337,-1.43559 0.19095,-0.38271 0.2204,-0.73099 0.2204,-1.32516 0,-0.004 -0.24376,-0.3748 -0.1102,-0.44172 0.18108,-0.0908 1.52952,-0.45501 1.76318,-0.22086 0.3433,0.34402 0.7494,1.00489 1.43258,0.66258 0.28887,-0.14473 0.55099,-0.66903 0.55099,-0.88344 0,-0.18405 -0.18366,-0.55215 0,-0.55215 0.0629,0 0.0157,0.42594 -0.2204,0.66258 -0.15647,0.1568 -1.29689,0 -1.54277,0 -0.5118,0 -0.20691,-0.9319 -0.55099,-1.1043 -0.48462,-0.24282 -2.1026,0.32244 -2.20398,0.22086 -0.10287,-0.10308 0,-0.96264 0,-1.1043 0,-0.21115 -0.13409,-1.19079 0,-1.32516 0.36524,-0.36601 2.23452,-0.0705 2.53457,-0.22086 0.33956,-0.17014 0.71931,-0.19477 0.99179,-0.3313 0.31358,-0.15712 0.73021,-0.91136 0.88158,-1.21473 0.22931,-0.45958 -0.008,0.11805 0.2204,-0.11043 0.0937,-0.0938 0.31404,-0.42514 0.2204,-0.33128 -0.0804,0.0804 -1.2521,0.57214 -1.43258,0.66257 -0.20712,0.10378 -2.94472,0.23622 -3.19576,0.11044 -0.31684,-0.15876 -0.8017,-0.47209 -0.99178,-0.66259 -0.0451,-0.0452 -1.24129,-0.34587 -1.43258,-0.44172 -0.27994,-0.14026 -0.0795,-0.91426 0,-0.99387 0.59963,-0.60089 1.4694,-0.0184 2.09376,-0.33129 0.33193,-0.16631 0.56256,-0.4533 0.77139,-0.66258 0.0666,-0.0667 0.5567,0 0.66119,0 0.1224,0 0.69347,-0.0781 0.7714,0 0.38227,0.38308 0.27405,1.82641 0.55099,0.99387 0.0728,-0.21886 0.1102,-0.49036 0.1102,-0.66258 0,-0.29437 0.12852,-0.95716 0,-1.21473 -0.0792,-0.15862 -2.0796,-0.34549 -2.20397,-0.22086 -0.078,0.0781 -0.97052,0.46304 -1.21219,0.22086 -0.29386,-0.29447 0.18366,-1.36197 -0.11019,-1.65645 -0.4163,-0.41718 -0.77139,-0.28493 -0.77139,-0.99388 0,-0.0454 -0.0292,-0.30205 0,-0.33128 0.42544,-0.42635 1.65297,0.68566 1.65297,-0.55215 0,-0.0454 0.0292,-0.30206 0,-0.3313 -0.23117,-0.23165 -0.81179,-0.15092 -0.99179,-0.33128 -0.051,-0.0511 0.0334,-0.26462 0,-0.33129 -0.35165,-0.7048 -0.60921,-1.23453 -0.22039,-2.2086 z"
       id="path5134"
       inkscape:connector-curvature="0" />
    <path
       style="color:#000000;fill:#68593f;fill-opacity:1;fill-rule:nonzero;stroke:#000000;stroke-width:0.93300002999999998;marker:none;visibility:visible;display:inline;overflow:visible;enable-background:accumulate"
       d="M 5.6568543,112.98424 216.37468,112.27713"
       id="path5163"
       inkscape:connector-curvature="0"
       transform="translate(160,252.15992)" />
    <path
       style="color:#000000;fill:#68593f;fill-opacity:1;fill-rule:nonzero;stroke:#000000;stroke-width:0.93300002999999998;marker:none;visibility:visible;display:inline;overflow:visible;enable-background:accumulate"
       d="m 112.42998,4.089791 0,208.596499"
       id="path5165"
       inkscape:connector-curvature="0"
       transform="translate(160,252.15992)" />
    <path
       style="color:#000000;fill:#68593f;fill-opacity:1;fill-rule:nonzero;stroke:#000000;stroke-width:0.93300003;stroke-linecap:round;stroke-linejoin:round;stroke-miterlimit:4;stroke-opacity:1;stroke-dasharray:none;marker:none;visibility:visible;display:inline;overflow:visible;enable-background:accumulate"
       d="m 185.61553,38.030916 -20.5061,21.036427"
       id="path5167"
       inkscape:connector-curvature="0"
       transform="translate(160,252.15992)" />
    <path
       style="color:#000000;fill:#68593f;fill-opacity:1;fill-rule:nonzero;stroke:#000000;stroke-width:0.93300003;stroke-linecap:round;stroke-linejoin:round;stroke-miterlimit:4;stroke-opacity:1;stroke-dasharray:none;marker:none;visibility:visible;display:inline;overflow:visible;enable-background:accumulate"
       d="m 167.93786,39.091576 13.96536,17.500893"
       id="path5169"
       inkscape:connector-curvature="0"
       transform="translate(160,252.15992)" />
  </g>
</svg>
