<?xml version="1.0" encoding="UTF-8" standalone="no"?>
<!-- Created with Inkscape (http://www.inkscape.org/) -->

<svg
   xmlns:dc="http://purl.org/dc/elements/1.1/"
   xmlns:cc="http://creativecommons.org/ns#"
   xmlns:rdf="http://www.w3.org/1999/02/22-rdf-syntax-ns#"
   xmlns:svg="http://www.w3.org/2000/svg"
   xmlns="http://www.w3.org/2000/svg"
   xmlns:sodipodi="http://sodipodi.sourceforge.net/DTD/sodipodi-0.dtd"
   xmlns:inkscape="http://www.inkscape.org/namespaces/inkscape"
   width="75"
   height="50"
   id="svg2"
   version="1.1"
   inkscape:version="0.48.3.1 r9886"
   sodipodi:docname="tutorial.xcf"
   inkscape:export-filename="/home/vg/learning/gamming/web/phaser/training/another-mess/GGJW-2015.github.io/spider-dog/img/map/tutorial.png"
   inkscape:export-xdpi="90"
   inkscape:export-ydpi="90">
  <defs
     id="defs4" />
  <sodipodi:namedview
     id="base"
     pagecolor="#ffffff"
     bordercolor="#666666"
     borderopacity="1.0"
     inkscape:pageopacity="0.0"
     inkscape:pageshadow="2"
     inkscape:zoom="7.7160858"
     inkscape:cx="25.156192"
     inkscape:cy="18.237696"
     inkscape:document-units="px"
     inkscape:current-layer="layer1"
     showgrid="false"
     inkscape:window-width="1280"
     inkscape:window-height="761"
     inkscape:window-x="0"
     inkscape:window-y="0"
     inkscape:window-maximized="1" />
  <metadata
     id="metadata7">
    <rdf:RDF>
      <cc:Work
         rdf:about="">
        <dc:format>image/svg+xml</dc:format>
        <dc:type
           rdf:resource="http://purl.org/dc/dcmitype/StillImage" />
        <dc:title></dc:title>
      </cc:Work>
    </rdf:RDF>
  </metadata>
  <g
     inkscape:label="Layer 1"
     inkscape:groupmode="layer"
     id="layer1"
     transform="translate(0,-1002.3622)"
     sodipodi:insensitive="true"
     style="display:inline">
    <path
       style="fill:none;stroke:#000000;stroke-width:1;stroke-linecap:round;stroke-linejoin:round;stroke-miterlimit:4;stroke-opacity:1;stroke-dasharray:none"
       d="m 40.989384,1021.1047 c 0.04381,4.5717 0.595552,9.1346 0.266914,13.7123 0.07456,1.9458 -0.396601,4.1544 0.07569,5.9449 2.775429,0.535 5.768711,-0.144 7.906474,-2.0305 2.407351,-1.4364 2.366019,-4.9984 2.088932,-7.5067 -0.01413,-2.4629 -0.479221,-5.4061 -1.816127,-7.2419 -2.457972,-1.5213 -5.496681,-2.4713 -8.163371,-2.7674 0.205942,-0.2102 -0.380314,-0.2622 -0.358515,-0.1107 z"
       id="path2987"
       inkscape:connector-curvature="0" />
    <g
       id="g3042"
       transform="matrix(0.34079675,0,0,0.33596847,-4.3219005,854.25708)"
       style="stroke-width:2.95530987;stroke-linecap:round;stroke-linejoin:round;stroke-miterlimit:4;stroke-dasharray:none">
      <path
         style="fill:none;stroke:#000000;stroke-width:2.95530987;stroke-linecap:round;stroke-linejoin:round;stroke-miterlimit:4;stroke-opacity:1;stroke-dasharray:none"
         d="m 182.86955,507.14115 c -0.55389,7.12699 1.39143,14.37679 -1.09549,21.35187 -0.74331,5.415 -2.4346,13.3437 3.24689,16.72802"
         id="path2989"
         inkscape:connector-curvature="0" />
      <path
         style="fill:#000000;stroke:#000000;stroke-width:2.95530987;stroke-linecap:round;stroke-linejoin:round;stroke-miterlimit:4;stroke-opacity:1;stroke-dasharray:none"
         d="m 179.38333,487.66404 c -6.45759,0.71922 0.97837,8.41642 2.22599,2.84632 l -1.05901,-1.47963 -1.16698,-1.36669 z"
         id="path2991"
         inkscape:connector-curvature="0" />
    </g>
    <path
       style="fill:none;stroke:#000000;stroke-width:1;stroke-linecap:round;stroke-linejoin:round;stroke-miterlimit:4;stroke-opacity:1;stroke-dasharray:none"
       d="m 72.076738,1020.8445 c -1.988614,-0.7541 -4.203201,-1.2307 -5.655579,0.9866 -2.32359,1.8165 -2.534417,5.096 -1.740164,7.722 1.367745,2.023 5.398912,3.4445 6.955829,0.6155 0.719032,-2.0017 -0.339759,-5.1413 0.293261,-7.5903 0.291116,-1.8712 0.116562,-1.9301 0.146644,-0.2622 0.165091,1.9372 0.248279,3.8605 0.1581,5.8306 -0.08842,2.6042 0.402576,5.2684 -0.156055,7.829 -1.270079,1.7451 -0.177824,4.5262 -3.095122,5.183 -2.559314,2.3808 -5.979967,-0.2345 -5.253877,-3.3495 -0.04175,-0.775 1.10235,-1.8954 1.674901,-1.9312"
       id="path2993"
       inkscape:connector-curvature="0" />
    <path
       style="fill:none;stroke:#000000;stroke-width:1;stroke-linecap:round;stroke-linejoin:round;stroke-miterlimit:4;stroke-opacity:1;stroke-dasharray:none"
       d="m 19.433529,1017.3939 c -2.10881,-0.197 -4.237707,0.531 -6.253794,0.9866 -1.942878,1.1906 -5.2529556,0.1226 -5.5365197,3.0538 -0.3952631,1.9288 -2.8770142,2.1129 -2.6272142,4.2778 -2.8505957,0.6664 -3.3138562,4.7357 -2.574114,7.2147 1.2919585,2.2256 2.3991955,4.4725 3.3499642,6.8228 1.5661825,1.7065 3.5330391,2.9846 5.9241817,2.9201 2.822249,-0.1738 4.812778,2.0485 7.535714,2.123 2.651226,0.172 4.821553,-1.6168 6.967665,-2.9152 2.207407,-1.7137 3.434111,-4.3645 3.951004,-7.0478 1.68378,-2.6057 1.013518,-5.6444 -0.840945,-7.9574 -0.368591,-2.3107 -1.444366,-4.6725 -3.302644,-6.1905 -2.181611,-0.8774 -4.426004,-1.8003 -6.039529,-3.3991 l -0.553769,0.1112 0,0 z"
       id="path2995"
       inkscape:connector-curvature="0" />
    <path
       style="fill:none;stroke:#000000;stroke-width:1;stroke-linecap:round;stroke-linejoin:round;stroke-miterlimit:4;stroke-opacity:1;stroke-dasharray:none"
       d="m 18.113783,1021.2435 c 0.235293,3.547 -0.428503,7.0842 -0.176569,10.6185 -0.896827,2.8666 -0.597582,5.9064 -1.158866,8.8182 l -0.130948,0.1513"
       id="path3000"
       inkscape:connector-curvature="0" />
    <path
       style="fill:none;stroke:#000000;stroke-width:1;stroke-linecap:round;stroke-linejoin:round;stroke-miterlimit:4;stroke-opacity:1;stroke-dasharray:none"
       d="m 13.348033,1031.4285 c 0.920824,2.2973 1.722191,4.9207 2.770083,7.2345 1.638534,2.0224 2.944554,-2.4397 4.195236,-3.476 0.829176,-0.8876 0.558941,-1.8251 1.099787,-2.8188"
       id="path3002"
       inkscape:connector-curvature="0" />
  </g>
  <g
     inkscape:groupmode="layer"
     id="layer2"
     inkscape:label="sniff">
    <path
       style="fill:none;stroke:#000000;stroke-width:1px;stroke-linecap:round;stroke-linejoin:round;stroke-opacity:1"
       d="m 18.921511,8.9169937 c -1.638603,0.4388965 -3.96095,-0.040555 -4.849641,1.7975133 -1.067252,1.599286 -3.336448,0.113353 -4.685016,1.597177 -1.6278224,0.911823 -3.5121309,1.61139 -4.721276,3.085279 -0.7394577,1.825115 -1.4319058,3.689525 -2.7258012,5.196858 -0.99075022,2.692297 -0.3023512,5.619277 -0.5747108,8.410721 -0.1048236,1.930911 0.3955705,4.000196 1.9813327,5.240381 0.4981309,1.416366 1.7523575,2.165976 3.0089674,2.837692 1.5425924,0.98184 2.2254844,2.915092 3.9248689,3.699915 1.767202,1.249646 4.046852,1.234167 6.109885,1.560472 1.775178,0.255322 3.588722,0.04317 5.19082,-0.790898 2.107703,-1.081515 4.527347,-1.26302 6.650842,-2.279929 2.16257,-1.428383 4.001614,-3.379217 5.447335,-5.523709 0.842855,-1.586671 -0.293856,-3.598833 1.188218,-5.033215 0.772941,-1.671856 0.467514,-3.631943 0.625083,-5.430462 0.260541,-1.733947 -0.266801,-3.330317 -1.476545,-4.59216 -1.11954,-1.463763 -2.101879,-3.0623 -3.388993,-4.38177 C 29.337816,13.928792 28.757236,13.039778 28.546923,11.845795 26.570127,10.222719 23.973104,9.5996874 21.523026,9.0523001 20.670613,8.9146569 19.781374,8.7472906 18.921511,8.9169937 z"
       id="path3906"
       inkscape:connector-curvature="0" />
    <path
       style="fill:none;stroke:#000000;stroke-width:1px;stroke-linecap:round;stroke-linejoin:round;stroke-opacity:1"
       d="m 12.571141,34.318474 c -0.02699,-2.924446 0.461295,-5.974695 1.911945,-8.546622 0.548414,-1.200721 0.855052,-2.557919 1.544181,-3.812855 -0.169078,-1.754821 1.101142,-2.894786 1.78735,-4.281837 0.222405,-1.503018 2.097733,-4.032025 3.348011,-1.855577 0.103885,1.768906 0.87682,3.271401 1.383238,4.935098 0.6128,2.688078 0.985262,5.462841 2.171964,7.97745 0.433572,1.92218 -0.01028,4.005123 0.81325,5.843542"
       id="path3908"
       inkscape:connector-curvature="0" />
    <path
       style="fill:none;stroke:#000000;stroke-width:1px;stroke-linecap:round;stroke-linejoin:round;stroke-opacity:1"
       d="m 12.311942,25.505715 c 4.304728,-0.06208 8.521899,-1.17086 12.830339,-1.166394"
       id="path3910"
       inkscape:connector-curvature="0" />
    <path
       style="fill:none;stroke:#000000;stroke-width:1px;stroke-linecap:round;stroke-linejoin:round;stroke-opacity:1"
       d="m 44.841388,16.174559 c 0.122772,-1.379523 -0.351595,-2.165986 -1.295994,-3.110385 -1.152091,-1.152091 -4.985695,-1.433356 -5.831972,0.259198 -0.23535,0.4707 -0.1296,1.562139 -0.1296,2.073591 0,0.546802 -0.171425,1.429715 0,1.943991 0.155945,0.467833 0.39019,0.365104 0.647997,0.777596 0.429902,0.687842 0.454418,1.750412 1.036795,2.332789 1.161506,1.161506 2.427282,3.201269 3.110386,4.795177 0.599245,1.398238 0.647997,3.150855 0.647997,4.665578 0,0.363359 0.258298,2.333689 0,2.591988 -1.376321,1.37632 -1.344184,3.691945 -1.814392,5.572774 -0.0426,0.17039 -1.840967,1.970566 -2.07359,2.203189 -0.460143,0.460143 -3.668689,0.219293 -4.017581,-0.129599 -0.411518,-0.411518 -0.518398,-1.715327 -0.518398,-2.332789 0,-0.388798 0,-1.555193 0,-1.166395 0,0.1296 0,0.259199 0,0.388799"
       id="path3919"
       inkscape:connector-curvature="0" />
    <path
       style="fill:none;stroke:#000000;stroke-width:1px;stroke-linecap:round;stroke-linejoin:round;stroke-opacity:1"
       d="m 45.878184,27.449706 c -0.115645,3.034147 0.388798,5.844804 0.388798,8.812758 0,0.105505 0.474431,1.814392 0.259199,1.814392 -0.1728,0 0,-0.345599 0,-0.518398 0,-0.734396 0,-1.468793 0,-2.203189 0,-0.742465 0.178948,-1.746595 0,-2.462389 -0.258655,-1.034617 -0.893269,-2.374571 -0.518398,-3.499183 0.165014,-0.495044 0.995097,-1.124697 1.295994,-1.425594 0.198816,-0.198815 0.130284,-0.90788 0.388798,-1.166394 0.05123,-0.05123 1.707356,-0.107035 1.814392,0 0.394304,0.394304 1.497337,0.921084 1.814391,1.555193 0.671524,1.343048 1.38045,6.051857 0.647997,7.516764 -0.242585,0.48517 0.164253,3.369584 -0.388798,3.369584"
       id="path3923"
       inkscape:connector-curvature="0" />
    <g
       id="g3953"
       transform="translate(0,-2.5919878)"
       style="stroke-linejoin:round;stroke-linecap:round">
      <path
         inkscape:connector-curvature="0"
         id="path3925"
         d="m 55.20934,28.356902 c 0.05187,-0.02434 0.560627,-0.367683 0.777596,-0.259199 0.776388,0.388194 0.724462,4.100518 0.518398,4.924777 -0.190243,0.760969 -0.657751,1.36427 -0.777597,2.20319 -0.04293,0.300493 0.132976,0.900442 0,1.166394 -0.218231,0.436462 -0.777596,0.910783 -0.777596,1.425593 0,0.552954 -0.216023,1.922403 0.259199,1.684792"
         style="fill:none;stroke:#000000;stroke-width:1px;stroke-linecap:round;stroke-linejoin:round;stroke-opacity:1" />
      <path
         inkscape:connector-curvature="0"
         id="path3927"
         d="m 55.338939,21.358535 c 0.139569,0.512163 -1.502602,1.478184 -0.907196,2.07359 0.230656,0.230656 1.817036,0.904551 2.20319,0.518398 0.100852,-0.100853 0.303597,-1.510794 0.129599,-1.684792 -0.328782,-0.328782 -0.991937,-0.47354 -1.425593,-0.907196 z"
         style="fill:none;stroke:#000000;stroke-width:1px;stroke-linecap:round;stroke-linejoin:round;stroke-opacity:1" />
    </g>
    <g
       id="g3949"
       transform="translate(0,-2.5919878)"
       style="stroke-linejoin:round;stroke-linecap:round">
      <path
         inkscape:connector-curvature="0"
         id="path3939"
         d="m 65.318092,48.056009 c -0.237674,-4.761991 0.259199,-9.589978 0.259199,-14.255933 0,-1.013801 0.299914,-4.685935 1.036795,-5.054376 1.261552,-0.630776 3.470993,-1.481975 4.27678,0.1296 0.410282,0.820564 -0.02551,2.022559 0.388798,2.851186"
         style="fill:none;stroke:#000000;stroke-width:1px;stroke-linecap:round;stroke-linejoin:round;stroke-opacity:1" />
      <path
         inkscape:connector-curvature="0"
         id="path3941"
         d="m 65.83649,37.558459 c 1.175591,-1.278063 2.131924,-0.907196 3.369584,-0.907196"
         style="fill:none;stroke:#000000;stroke-width:1px;stroke-linecap:round;stroke-linejoin:round;stroke-opacity:1" />
    </g>
    <g
       id="g3945"
       transform="translate(0,-2.5919878)"
       style="stroke-linejoin:round;stroke-linecap:round">
      <path
         inkscape:connector-curvature="0"
         id="path3937"
         d="m 59.097321,36.780862 c 0.820796,0 1.641593,0 2.462389,0"
         style="fill:none;stroke:#000000;stroke-width:1px;stroke-linecap:round;stroke-linejoin:round;stroke-opacity:1" />
      <path
         inkscape:connector-curvature="0"
         id="path3943"
         d="m 62.337307,30.689691 c 0,-0.954192 0,0.761814 0,-1.036795 0,-0.286953 0.07211,-1.094282 -0.1296,-1.295994 -0.205896,-0.205896 -1.520465,-0.600561 -1.943991,-0.388798 -0.07725,0.03863 0.04758,0.706222 0,0.777596 -0.09976,0.149639 -0.566663,0.437064 -0.647997,0.518398 -0.346983,0.346983 -0.259198,10.664004 -0.259198,12.052743 0,0.696385 0.207648,4.017581 -0.259199,4.017581 -0.793235,0 -0.728019,2.811176 -0.647997,2.851187"
         style="fill:none;stroke:#000000;stroke-width:1px;stroke-linecap:round;stroke-linejoin:round;stroke-opacity:1" />
    </g>
  </g>
</svg>
