<?xml version="1.0" encoding="UTF-8" standalone="no"?>
<!-- Created with Inkscape (http://www.inkscape.org/) -->

<svg
   xmlns:dc="http://purl.org/dc/elements/1.1/"
   xmlns:cc="http://creativecommons.org/ns#"
   xmlns:rdf="http://www.w3.org/1999/02/22-rdf-syntax-ns#"
   xmlns:svg="http://www.w3.org/2000/svg"
   xmlns="http://www.w3.org/2000/svg"
   xmlns:sodipodi="http://sodipodi.sourceforge.net/DTD/sodipodi-0.dtd"
   xmlns:inkscape="http://www.inkscape.org/namespaces/inkscape"
   sodipodi:docname="ink_ext_XXXXXX.svgI207KY"
   inkscape:version="0.48.5 r10040"
   version="1.1"
   id="svg2"
   height="260"
   width="260"
   inkscape:export-filename="/home/vg/Drawings/about-section/joystick.png"
   inkscape:export-xdpi="90">
  <sodipodi:namedview
     id="base"
     pagecolor="#ffffff"
     bordercolor="#666666"
     borderopacity="1.0"
     inkscape:pageopacity="0.0"
     inkscape:pageshadow="2"
     inkscape:zoom="1"
     inkscape:cx="-10.595001"
     inkscape:cy="145.79459"
     inkscape:document-units="px"
     inkscape:current-layer="g10369"
     showgrid="true"
     inkscape:snap-global="false"
     inkscape:window-width="1368"
     inkscape:window-height="716"
     inkscape:window-x="0"
     inkscape:window-y="0"
     inkscape:window-maximized="1"
     fit-margin-top="0"
     fit-margin-left="0"
     fit-margin-right="0"
     fit-margin-bottom="0">
    <inkscape:grid
       originy="-209.29335mm"
       originx="-61.10993mm"
       gridanglez="20"
       gridanglex="20"
       snapvisiblegridlinesonly="true"
       enabled="true"
       visible="true"
       empspacing="5"
       units="mm"
       id="grid3793"
       type="axonomgrid" />
  </sodipodi:namedview>
  <defs
     id="defs4">
    <inkscape:perspective
       id="perspective3763"
       inkscape:persp3d-origin="-73.12382 : 563.93851 : 1"
       inkscape:vp_z="429.60038 : 573.32101 : 1"
       inkscape:vp_y="707.10678 : 707.10678 : 0"
       inkscape:vp_x="-212.17888 : 951.03771 : 1"
       sodipodi:type="inkscape:persp3d" />
  </defs>
  <metadata
     id="metadata7">
    <rdf:RDF>
      <cc:Work
         rdf:about="">
        <dc:format>image/svg+xml</dc:format>
        <dc:type
           rdf:resource="http://purl.org/dc/dcmitype/StillImage" />
        <dc:title />
      </cc:Work>
    </rdf:RDF>
  </metadata>
  <g
     transform="translate(-216.53125,-50.771592)"
     id="layer1"
     inkscape:groupmode="layer"
     inkscape:label="Layer 1">
    <g
       id="g10401"
       transform="matrix(0.72177146,-0.26284575,0.26284575,0.72177146,-47.650479,229.81583)">
      <g
         transform="translate(-8.5937501,-21.484375)"
         id="g10369">
        <g
           transform="translate(24.675841,8.6903342)"
           id="g11160">
          <path
             transform="matrix(1.2232545,0.44546961,-0.44546961,1.2232545,169.25838,-238.41204)"
             style="fill:#ffffff;fill-opacity:1;stroke:#00;stroke-width:5;stroke-linecap:round;stroke-linejoin:round;stroke-miterlimit:4;stroke-dasharray:none"
             d="M 326.43673,177.97156 219.04101,217.0604 326.43673,256.14924 433.83244,217.0604 z"
             id="path3795"
             inkscape:connector-curvature="0" />
          <path
             transform="matrix(2.4879116,0.90601668,-0.91936081,2.5245544,-43.963715,-725.35446)"
             sodipodi:type="arc"
             style="fill:#ffffff;fill-opacity:1;stroke:#00;stroke-width:2.44049001;stroke-linecap:round;stroke-linejoin:round;stroke-miterlimit:4;stroke-dasharray:none"
             id="path3864"
             sodipodi:cx="292.05469"
             sodipodi:cy="244.48817"
             sodipodi:rx="18.041201"
             sodipodi:ry="11.150075"
             d="m 310.09589,244.48817 c 0,6.15802 -8.07732,11.15008 -18.0412,11.15008 -9.96388,0 -18.0412,-4.99206 -18.0412,-11.15008 0,-6.15801 8.07732,-11.15007 18.0412,-11.15007 9.96388,0 18.0412,4.99206 18.0412,11.15007 z" />
          <path
             transform="matrix(1.2232545,0.44546961,-0.44546961,1.2232545,169.25838,-238.41204)"
             style="fill:#ffffff;fill-opacity:1;stroke:#00;stroke-width:5;stroke-linecap:round;stroke-linejoin:round;stroke-miterlimit:4;stroke-dasharray:none"
             d="m 219.04101,217.0604 0,52.11845 107.39572,39.08884 0,-52.11845 z"
             id="path3797"
             inkscape:connector-curvature="0" />
          <path
             transform="matrix(1.2232545,0.44546961,-0.44546961,1.2232545,169.25838,-238.41204)"
             style="fill:#ffffff;fill-opacity:1;stroke:#00;stroke-width:5;stroke-linecap:round;stroke-linejoin:round;stroke-miterlimit:4;stroke-dasharray:none"
             d="m 326.43673,256.14924 0,52.11845 107.39571,-39.08884 0,-52.11845 z"
             id="path3799"
             inkscape:connector-curvature="0" />
          <path
             d="m 310.09589,244.48817 c 0,6.15802 -8.07732,11.15008 -18.0412,11.15008 -9.96388,0 -18.0412,-4.99206 -18.0412,-11.15008 0,-6.15801 8.07732,-11.15007 18.0412,-11.15007 9.96388,0 18.0412,4.99206 18.0412,11.15007 z"
             sodipodi:ry="11.150075"
             sodipodi:rx="18.041201"
             sodipodi:cy="244.48817"
             sodipodi:cx="292.05469"
             id="path3837"
             style="fill:#ffffff;fill-opacity:1;stroke:#00;stroke-width:1.60624135;stroke-linecap:round;stroke-linejoin:round;stroke-miterlimit:4;stroke-dasharray:none"
             sodipodi:type="arc"
             transform="matrix(1.9024746,0.69281951,-0.69386427,1.9053435,74.192799,-514.29824)" />
          <path
             transform="matrix(1.6713511,0.60865186,-0.60778751,1.6689776,123.64197,-439.77812)"
             sodipodi:type="arc"
             style="fill:#ffffff;fill-opacity:1;stroke:#00;stroke-width:1.83103967;stroke-linecap:round;stroke-linejoin:round;stroke-miterlimit:4;stroke-dasharray:none"
             id="path3835"
             sodipodi:cx="292.05469"
             sodipodi:cy="244.48817"
             sodipodi:rx="18.041201"
             sodipodi:ry="11.150075"
             d="m 310.09589,244.48817 c 0,6.15802 -8.07732,11.15008 -18.0412,11.15008 -9.96388,0 -18.0412,-4.99206 -18.0412,-11.15008 0,-6.15801 8.07732,-11.15007 18.0412,-11.15007 9.96388,0 18.0412,4.99206 18.0412,11.15007 z" />
          <path
             d="m 310.09589,244.48817 c 0,6.15802 -8.07732,11.15008 -18.0412,11.15008 -9.96388,0 -18.0412,-4.99206 -18.0412,-11.15008 0,-6.15801 8.07732,-11.15007 18.0412,-11.15007 9.96388,0 18.0412,4.99206 18.0412,11.15007 z"
             sodipodi:ry="11.150075"
             sodipodi:rx="18.041201"
             sodipodi:cy="244.48817"
             sodipodi:cx="292.05469"
             id="path3807"
             style="fill:#ffffff;fill-opacity:1;stroke:#00;stroke-width:2.14934063;stroke-linecap:round;stroke-linejoin:round;stroke-miterlimit:4;stroke-dasharray:none"
             sodipodi:type="arc"
             transform="matrix(1.4271515,0.51972227,-0.51657614,1.4185122,175.36786,-359.25785)" />
          <path
             transform="matrix(1.2232545,0.44546961,-0.44546961,1.2232545,169.25838,-238.41204)"
             sodipodi:nodetypes="cc"
             style="fill:none;stroke:#00;stroke-width:10;stroke-linecap:round;stroke-linejoin:round;stroke-miterlimit:4;stroke-opacity:1;stroke-dasharray:none"
             d="m 313.40155,75.41858 0,118.08934"
             id="path3755"
             inkscape:connector-curvature="0" />
          <path
             transform="matrix(1.7992834,0.65524063,-0.65524063,1.7992834,101.37701,-408.55591)"
             sodipodi:type="arc"
             style="fill:#ffffff;fill-opacity:1;fill-rule:evenodd;stroke:#00;stroke-width:3.39928269;stroke-linecap:butt;stroke-linejoin:miter;stroke-miterlimit:4;stroke-opacity:1;stroke-dasharray:none"
             id="path2985"
             sodipodi:cx="276.7818"
             sodipodi:cy="134.13351"
             sodipodi:rx="26.263966"
             sodipodi:ry="26.263966"
             d="m 303.04576,134.13351 c 0,14.50519 -11.75877,26.26397 -26.26396,26.26397 -14.50519,0 -26.26397,-11.75878 -26.26397,-26.26397 0,-14.50518 11.75878,-26.26396 26.26397,-26.26396 14.50519,0 26.26396,11.75878 26.26396,26.26396 z" />
          <g
             id="g3826"
             transform="matrix(1.2232545,0.44546961,-0.44546961,1.2232545,169.25838,-238.41204)">
            <path
               inkscape:connector-curvature="0"
               id="path3820"
               d="m 360.20078,212.5984 24.33789,8.85827 19.47031,-7.08661 -14.60273,-5.31496 -4.86758,1.77165 -9.73516,-3.54331 z"
               style="fill:#ffffff;fill-opacity:1;stroke:#00;stroke-width:2.5;stroke-linecap:round;stroke-linejoin:round;stroke-miterlimit:4;stroke-dasharray:none" />
            <path
               inkscape:connector-curvature="0"
               id="path3822"
               d="m 360.20078,212.5984 0,7.08662 24.33789,8.85826 0,-7.08661 z"
               style="fill:#ffffff;fill-opacity:1;stroke:#00;stroke-width:2.5;stroke-linecap:round;stroke-linejoin:round;stroke-miterlimit:4;stroke-dasharray:none" />
            <path
               inkscape:connector-curvature="0"
               id="path3824"
               d="m 384.53867,221.45667 0,7.08661 19.47031,-7.08661 0,-7.08661 z"
               style="fill:#ffffff;fill-opacity:1;stroke:#00;stroke-width:2.5;stroke-linecap:round;stroke-linejoin:round;stroke-miterlimit:4;stroke-dasharray:none" />
          </g>
          <g
             transform="matrix(1.2232545,0.44546961,-0.44546961,1.2232545,169.25838,-238.41204)"
             id="g3866">
            <path
               sodipodi:nodetypes="ccccc"
               inkscape:connector-curvature="0"
               id="path3814"
               d="m 330.9953,230.31495 0,-7.08661 24.3379,8.85825 0,7.08662 z"
               style="fill:#ffffff;fill-opacity:1;stroke:#00;stroke-width:2.5;stroke-linecap:round;stroke-linejoin:round;stroke-miterlimit:4;stroke-dasharray:none" />
            <path
               sodipodi:nodetypes="ccccc"
               inkscape:connector-curvature="0"
               id="path3816"
               d="m 355.3332,232.08659 24.33789,-8.85827 0,7.08661 -24.33789,8.85828 z"
               style="fill:#ffffff;fill-opacity:1;stroke:#00;stroke-width:2.5;stroke-linecap:round;stroke-linejoin:round;stroke-miterlimit:4;stroke-dasharray:none" />
            <path
               sodipodi:nodetypes="ccccc"
               inkscape:connector-curvature="0"
               id="path3818"
               d="m 330.9953,223.22834 24.3379,-8.85828 24.33789,8.85826 -24.33789,8.85827 z"
               style="fill:#ffffff;fill-opacity:1;stroke:#00;stroke-width:2.5;stroke-linecap:round;stroke-linejoin:round;stroke-miterlimit:4;stroke-dasharray:none" />
          </g>
          <path
             transform="matrix(0.70012688,0.2549635,-0.23366422,0.64163931,318.7383,-92.49235)"
             sodipodi:type="arc"
             style="fill:#00;fill-opacity:1;stroke:#00;stroke-width:9.12542343;stroke-linecap:round;stroke-linejoin:round;stroke-miterlimit:4;stroke-dasharray:none"
             id="path3839"
             sodipodi:cx="292.05469"
             sodipodi:cy="244.48817"
             sodipodi:rx="18.041201"
             sodipodi:ry="11.150075"
             d="m 310.09589,244.48817 c 0,6.15802 -8.07732,11.15008 -18.0412,11.15008 -9.96388,0 -18.0412,-4.99206 -18.0412,-11.15008 0,-6.15801 8.07732,-11.15007 18.0412,-11.15007 9.96388,0 18.0412,4.99206 18.0412,11.15007 z" />
          <g
             transform="matrix(1.2232545,0.44546961,-0.44546961,1.2232545,169.25838,-238.41204)"
             id="g3879">
            <path
               inkscape:connector-curvature="0"
               id="path3853"
               d="m 311.525,230.31494 0,7.08661 9.73515,3.54331 0,-7.08661 z"
               style="fill:#ffffff;fill-opacity:1;stroke:#00;stroke-width:2.5;stroke-linecap:round;stroke-linejoin:round;stroke-miterlimit:4;stroke-dasharray:none" />
            <path
               inkscape:connector-curvature="0"
               id="path3849"
               d="m 326.12773,224.99998 24.33789,8.85827 -19.47031,7.08661 -14.60273,-5.31496 4.86757,-1.77165 -9.73515,-3.54331 z"
               style="fill:#ffffff;fill-opacity:1;stroke:#00;stroke-width:2.5;stroke-linecap:round;stroke-linejoin:round;stroke-miterlimit:4;stroke-dasharray:none" />
            <path
               inkscape:connector-curvature="0"
               id="path3851"
               d="m 316.39258,235.6299 0,7.08661 14.60273,5.31496 0,-7.08661 z"
               style="fill:#ffffff;fill-opacity:1;stroke:#00;stroke-width:2.5;stroke-linecap:round;stroke-linejoin:round;stroke-miterlimit:4;stroke-dasharray:none" />
            <path
               inkscape:connector-curvature="0"
               id="path3855"
               d="m 330.99531,240.94486 0,7.08661 19.47031,-7.08661 0,-7.08661 z"
               style="fill:#ffffff;fill-opacity:1;stroke:#00;stroke-width:2.5;stroke-linecap:round;stroke-linejoin:round;stroke-miterlimit:4;stroke-dasharray:none" />
          </g>
          <path
             sodipodi:type="arc"
             style="fill:#ffffff;fill-opacity:1;stroke:#00;stroke-width:2.5;stroke-linecap:round;stroke-linejoin:round;stroke-miterlimit:4;stroke-dasharray:none"
             id="path3860"
             sodipodi:cx="337.5"
             sodipodi:cy="89.080933"
             sodipodi:rx="14.0625"
             sodipodi:ry="14.0625"
             d="m 351.5625,89.080933 c 0,7.766504 -6.296,14.062497 -14.0625,14.062497 -7.7665,0 -14.0625,-6.295993 -14.0625,-14.062497 0,-7.766505 6.296,-14.0625 14.0625,-14.0625 7.7665,0 14.0625,6.295995 14.0625,14.0625 z"
             transform="matrix(1.2232545,0.44546961,-0.44546961,1.2232545,155.67894,-250.71554)" />
          <path
             sodipodi:nodetypes="ccccc"
             id="path10406"
             transform="translate(8.5937501,21.484375)"
             d="m 559.2568,232.92795 5.58965,-14.26616 -91.72947,-0.10748 -4.97733,15.0227 z"
             style="fill:#00;fill-opacity:1;stroke:#00;stroke-width:3.2546072;stroke-linecap:round;stroke-linejoin:round;stroke-miterlimit:4;stroke-dasharray:none"
             inkscape:connector-curvature="0" />
          <path
             id="path10408"
             d="m 479.56344,251.13891 c 0.62944,0.54625 1.27138,1.07408 1.96876,1.59376 l -2.59376,3.40625 7.71875,4.68749 1.84375,-3.90624 c 3.17732,1.55983 6.72799,2.91666 10.5625,4 l -1.15625,4.12499 8.28125,1.90625 0.78125,-4.25 c 3.59682,0.62264 7.38398,1.01871 11.28126,1.1875 l -0.1875,4.3125 8.46875,0 -0.18751,-4.3125 c 3.89727,-0.1688 7.68444,-0.56486 11.28126,-1.1875 l 0.78125,4.25 8.28125,-1.90625 -1.15626,-4.125 c 3.83451,-1.08333 7.38519,-2.44017 10.5625,-3.99999 l 1.84376,3.90625 7.71874,-4.68751 -2.59374,-3.40625 c 0.69736,-0.51968 1.3393,-1.04749 1.96874,-1.59375 l -85.46875,0 z"
             style="fill:#ffffff;fill-opacity:1;stroke:#00;stroke-width:3.2546072;stroke-linecap:round;stroke-linejoin:round;stroke-miterlimit:4;stroke-dasharray:none"
             inkscape:connector-curvature="0" />
          <path
             d="m 528.65625,259.26563 -2.31156,4.62329 11.28126,-1.1875 2.31155,-4.62329 -11.28125,1.1875"
             id="path10937"
             style="fill:#ffffff;fill-opacity:1;stroke:#00;stroke-width:1.99963057;stroke-linecap:round;stroke-linejoin:round;stroke-miterlimit:4;stroke-opacity:1;stroke-dasharray:none"
             inkscape:connector-curvature="0" />
          <path
             d="m 547.84375,256.29688 -2.31156,4.62329 10.5625,-3.99999 2.31156,-4.6233 -10.5625,4"
             id="path10945"
             style="fill:#ffffff;fill-opacity:1;stroke:#00;stroke-width:1.99963057;stroke-linecap:round;stroke-linejoin:round;stroke-miterlimit:4;stroke-opacity:1;stroke-dasharray:none"
             inkscape:connector-curvature="0" />
          <path
             inkscape:connector-curvature="0"
             style="fill:#ffffff;fill-opacity:1;stroke:#00;stroke-width:3.2546072;stroke-linecap:round;stroke-linejoin:round;stroke-miterlimit:4;stroke-dasharray:none"
             d="m 473.28125,225.03125 c 0.62944,0.54625 1.27138,1.07407 1.96875,1.59375 l -2.59375,3.40625 7.71875,4.6875 1.84375,-3.90625 c 3.17731,1.55983 6.72799,2.91667 10.5625,4 l -1.15625,4.125 8.28125,1.90625 0.78125,-4.25 c 3.59682,0.62264 7.38398,1.0187 11.28125,1.1875 l -0.1875,4.3125 8.46875,0 -0.1875,-4.3125 c 3.89727,-0.1688 7.68443,-0.56486 11.28125,-1.1875 l 0.78125,4.25 8.28125,-1.90625 -1.15625,-4.125 c 3.83451,-1.08333 7.38519,-2.44017 10.5625,-4 l 1.84375,3.90625 7.71875,-4.6875 -2.59375,-3.40625 c 0.69737,-0.51968 1.33931,-1.0475 1.96875,-1.59375 l -85.46875,0 z"
             transform="translate(8.5937501,21.484375)"
             id="rect3888-3" />
          <path
             inkscape:connector-curvature="0"
             style="fill:none;stroke:#00;stroke-width:3.2546072;stroke-linecap:round;stroke-linejoin:round;stroke-miterlimit:4;stroke-dasharray:none"
             d="m 488.375,225.03125 c 7.19524,3.57892 16.9031,5.78125 27.625,5.78125 10.73433,0 20.48983,-2.19498 27.6875,-5.78125 l -55.3125,0 z"
             transform="translate(8.5937501,21.484375)"
             id="path9580" />
          <path
             d="m 481.875,246.51563 -2.31156,4.62329 1.96876,1.59376 2.31155,-4.6233 -1.96875,-1.59375"
             id="path10913"
             style="fill:#ffffff;fill-opacity:1;stroke:#00;stroke-width:1.99963057;stroke-linecap:round;stroke-linejoin:round;stroke-miterlimit:4;stroke-opacity:1;stroke-dasharray:none"
             inkscape:connector-curvature="0" />
          <path
             d="m 483.84375,248.10938 -2.31155,4.6233 -2.59376,3.40625 2.31156,-4.6233 2.59375,-3.40625"
             id="path10915"
             style="fill:#ffffff;fill-opacity:1;stroke:#00;stroke-width:1.99963057;stroke-linecap:round;stroke-linejoin:round;stroke-miterlimit:4;stroke-opacity:1;stroke-dasharray:none"
             inkscape:connector-curvature="0" />
          <path
             d="m 481.25,251.51563 -2.31156,4.6233 7.71875,4.68749 2.31156,-4.62329 -7.71875,-4.6875"
             id="path10917"
             style="fill:#ffffff;fill-opacity:1;stroke:#00;stroke-width:1.99963057;stroke-linecap:round;stroke-linejoin:round;stroke-miterlimit:4;stroke-opacity:1;stroke-dasharray:none"
             inkscape:connector-curvature="0" />
          <path
             d="m 488.96875,256.20313 -2.31156,4.62329 1.84375,-3.90624 2.31156,-4.6233 -1.84375,3.90625"
             id="path10919"
             style="fill:#ffffff;fill-opacity:1;stroke:#00;stroke-width:1.99963057;stroke-linecap:round;stroke-linejoin:round;stroke-miterlimit:4;stroke-opacity:1;stroke-dasharray:none"
             inkscape:connector-curvature="0" />
          <path
             d="m 490.8125,252.29688 -2.31156,4.6233 10.5625,4 2.31156,-4.6233 -10.5625,-4"
             id="path10921"
             style="fill:#ffffff;fill-opacity:1;stroke:#00;stroke-width:1.99963057;stroke-linecap:round;stroke-linejoin:round;stroke-miterlimit:4;stroke-opacity:1;stroke-dasharray:none"
             inkscape:connector-curvature="0" />
          <path
             d="m 501.375,256.29688 -2.31156,4.6233 -1.15625,4.12499 2.31156,-4.62329 1.15625,-4.125"
             id="path10923"
             style="fill:#ffffff;fill-opacity:1;stroke:#00;stroke-width:1.99963057;stroke-linecap:round;stroke-linejoin:round;stroke-miterlimit:4;stroke-opacity:1;stroke-dasharray:none"
             inkscape:connector-curvature="0" />
          <path
             d="m 500.21875,260.42188 -2.31156,4.62329 8.28125,1.90625 2.31156,-4.62329 -8.28125,-1.90625"
             id="path10925"
             style="fill:#ffffff;fill-opacity:1;stroke:#00;stroke-width:1.99963057;stroke-linecap:round;stroke-linejoin:round;stroke-miterlimit:4;stroke-opacity:1;stroke-dasharray:none"
             inkscape:connector-curvature="0" />
          <path
             d="m 508.5,262.32813 -2.31156,4.62329 0.78125,-4.25 2.31156,-4.62329 -0.78125,4.25"
             id="path10927"
             style="fill:#ffffff;fill-opacity:1;stroke:#00;stroke-width:1.99963057;stroke-linecap:round;stroke-linejoin:round;stroke-miterlimit:4;stroke-opacity:1;stroke-dasharray:none"
             inkscape:connector-curvature="0" />
          <path
             d="m 509.28125,258.07813 -2.31156,4.62329 11.28126,1.1875 2.31155,-4.62329 -11.28125,-1.1875"
             id="path10929"
             style="fill:#ffffff;fill-opacity:1;stroke:#00;stroke-width:1.99963057;stroke-linecap:round;stroke-linejoin:round;stroke-miterlimit:4;stroke-opacity:1;stroke-dasharray:none"
             inkscape:connector-curvature="0" />
          <path
             d="m 520.5625,259.26563 -2.31155,4.62329 -0.1875,4.3125 2.31155,-4.62329 0.1875,-4.3125"
             id="path10931"
             style="fill:#ffffff;fill-opacity:1;stroke:#00;stroke-width:1.99963057;stroke-linecap:round;stroke-linejoin:round;stroke-miterlimit:4;stroke-opacity:1;stroke-dasharray:none"
             inkscape:connector-curvature="0" />
          <path
             d="m 520.375,263.57813 -2.31155,4.62329 8.46875,0 2.31155,-4.62329 -8.46875,0"
             id="path10933"
             style="fill:#ffffff;fill-opacity:1;stroke:#00;stroke-width:1.99963057;stroke-linecap:round;stroke-linejoin:round;stroke-miterlimit:4;stroke-opacity:1;stroke-dasharray:none"
             inkscape:connector-curvature="0" />
          <path
             d="m 539.9375,258.07813 -2.31155,4.62329 0.78125,4.25 2.31155,-4.62329 -0.78125,-4.25"
             id="path10939"
             style="fill:#ffffff;fill-opacity:1;stroke:#00;stroke-width:1.99963057;stroke-linecap:round;stroke-linejoin:round;stroke-miterlimit:4;stroke-opacity:1;stroke-dasharray:none"
             inkscape:connector-curvature="0" />
          <path
             d="m 540.71875,262.32813 -2.31155,4.62329 8.28125,-1.90625 2.31155,-4.62329 -8.28125,1.90625"
             id="path10941"
             style="fill:#ffffff;fill-opacity:1;stroke:#00;stroke-width:1.99963057;stroke-linecap:round;stroke-linejoin:round;stroke-miterlimit:4;stroke-opacity:1;stroke-dasharray:none"
             inkscape:connector-curvature="0" />
          <path
             d="m 558.40625,252.29688 -2.31156,4.6233 1.84376,3.90625 2.31155,-4.6233 -1.84375,-3.90625"
             id="path10947"
             style="fill:#ffffff;fill-opacity:1;stroke:#00;stroke-width:1.99963057;stroke-linecap:round;stroke-linejoin:round;stroke-miterlimit:4;stroke-opacity:1;stroke-dasharray:none"
             inkscape:connector-curvature="0" />
          <path
             d="m 560.25,256.20313 -2.31155,4.6233 7.71874,-4.68751 2.31156,-4.62329 -7.71875,4.6875"
             id="path10949"
             style="fill:#ffffff;fill-opacity:1;stroke:#00;stroke-width:1.99963057;stroke-linecap:round;stroke-linejoin:round;stroke-miterlimit:4;stroke-opacity:1;stroke-dasharray:none"
             inkscape:connector-curvature="0" />
          <path
             d="m 481.875,246.51563 -2.31156,4.62329 0,0 2.31156,-4.62329 0,0"
             id="path10957"
             style="fill:#ffffff;fill-opacity:1;stroke:#00;stroke-width:1.99963057;stroke-linecap:round;stroke-linejoin:round;stroke-miterlimit:4;stroke-opacity:1;stroke-dasharray:none"
             inkscape:connector-curvature="0" />
          <path
             d="m 481.875,246.51563 -2.31156,4.62329 0,0 2.31156,-4.62329 0,0"
             id="path10959"
             style="fill:#ffffff;fill-opacity:1;stroke:#00;stroke-width:1.99963057;stroke-linecap:round;stroke-linejoin:round;stroke-miterlimit:4;stroke-opacity:1;stroke-dasharray:none"
             inkscape:connector-curvature="0" />
        </g>
      </g>
    </g>
    <g
       transform="translate(289.71692,-345.2067)"
       id="g10388">
      <path
         style="fill:#ffffff;fill-opacity:1;stroke:#000000;stroke-width:5;stroke-linecap:round;stroke-linejoin:round;stroke-miterlimit:4;stroke-dasharray:none"
         d="m 478.53125,232.0625 -0.0312,-0.125 -4.28125,0.125 -4.28125,0.0937 2.53125,9.65625 3.8125,-2 c 1.64657,3.02314 4.22431,5.82487 7.5625,8.3125 l -2.59375,3.40625 7.71875,4.6875 1.84375,-3.90625 c 3.17731,1.55983 6.72799,2.91667 10.5625,4 l -1.15625,4.125 8.28125,1.90625 0.78125,-4.25 c 3.59682,0.62264 7.38398,1.0187 11.28125,1.1875 l -0.1875,4.3125 8.46875,0 -0.1875,-4.3125 c 3.89727,-0.1688 7.68443,-0.56486 11.28125,-1.1875 l 0.78125,4.25 8.28125,-1.90625 -1.15625,-4.125 c 3.83451,-1.08333 7.38519,-2.44017 10.5625,-4 l 1.84375,3.90625 7.71875,-4.6875 -2.59375,-3.40625 c 3.33819,-2.48763 5.91593,-5.28936 7.5625,-8.3125 l 3.8125,2 2.53125,-9.65625 -4.28125,-0.0937 -4.28125,-0.125 -0.0312,0.125 z"
         id="path10390"
         inkscape:connector-curvature="0"
         sodipodi:nodetypes="ccccccccccccccccccccccccccccccccc" />
      <path
         inkscape:transform-center-y="12.25182"
         style="fill:none;stroke:#000000;stroke-width:2.5;stroke-linecap:round;stroke-linejoin:round;stroke-miterlimit:4;stroke-dasharray:none"
         d="m 564.71256,231.35904 c 0,11.56484 -17.95481,20.93999 -40.10319,20.93999 -22.14836,0 -40.10317,-9.37515 -40.10317,-20.93999"
         id="path10392"
         inkscape:connector-curvature="0"
         sodipodi:nodetypes="csc" />
    </g>
    <rect
       y="-174.48514"
       x="728.77942"
       height="75.78125"
       width="228.90625"
       id="rect10394"
       style="fill:none;stroke:#000000;stroke-width:2.5;stroke-miterlimit:4;stroke-dasharray:none" />
  </g>
</svg>
