<?xml version="1.0" encoding="UTF-8" standalone="no"?>
<!-- Created with Inkscape (http://www.inkscape.org/) -->

<svg
   xmlns:dc="http://purl.org/dc/elements/1.1/"
   xmlns:cc="http://creativecommons.org/ns#"
   xmlns:rdf="http://www.w3.org/1999/02/22-rdf-syntax-ns#"
   xmlns:svg="http://www.w3.org/2000/svg"
   xmlns="http://www.w3.org/2000/svg"
   xmlns:sodipodi="http://sodipodi.sourceforge.net/DTD/sodipodi-0.dtd"
   xmlns:inkscape="http://www.inkscape.org/namespaces/inkscape"
   width="260"
   height="260"
   id="svg2"
   version="1.1"
   inkscape:version="0.48.5 r10040"
   sodipodi:docname="silly-kid.svg"
   inkscape:export-filename="/home/vg/Drawings/about-section/silly-kid.png"
   inkscape:export-xdpi="90"
   inkscape:export-ydpi="90">
  <defs
     id="defs4" />
  <sodipodi:namedview
     id="base"
     pagecolor="#ffffff"
     bordercolor="#666666"
     borderopacity="1.0"
     inkscape:pageopacity="0.0"
     inkscape:pageshadow="2"
     inkscape:zoom="0.9899495"
     inkscape:cx="90.737739"
     inkscape:cy="149.56797"
     inkscape:document-units="px"
     inkscape:current-layer="g3933"
     showgrid="false"
     inkscape:window-width="1368"
     inkscape:window-height="716"
     inkscape:window-x="0"
     inkscape:window-y="0"
     inkscape:window-maximized="1"
     inkscape:snap-global="false"
     fit-margin-top="0"
     fit-margin-left="0"
     fit-margin-right="0"
     fit-margin-bottom="0" />
  <metadata
     id="metadata7">
    <rdf:RDF>
      <cc:Work
         rdf:about="">
        <dc:format>image/svg+xml</dc:format>
        <dc:type
           rdf:resource="http://purl.org/dc/dcmitype/StillImage" />
        <dc:title></dc:title>
      </cc:Work>
    </rdf:RDF>
  </metadata>
  <g
     inkscape:label="Layer 1"
     inkscape:groupmode="layer"
     id="layer1"
     transform="translate(-460.411,98.727569)">
    <path
       inkscape:connector-curvature="0"
       id="path3931"
       d="m 298.49687,118.21875 a 4.0004,4.0004 0 0 1 3.125,2.0625 l 6.3125,10.96875 a 4.0004,4.0004 0 0 1 0.53125,2.0625 l -0.125,8.71875 a 4.0004883,4.0004883 0 1 1 -8,-0.125 l 0.0937,-7.625 -5.75,-10.03125 a 4.0004,4.0004 0 0 1 3.8125,-6.03125 z"
       style="font-size:medium;font-style:normal;font-variant:normal;font-weight:normal;font-stretch:normal;text-indent:0;text-align:start;text-decoration:none;line-height:normal;letter-spacing:normal;word-spacing:normal;text-transform:none;direction:ltr;block-progression:tb;writing-mode:lr-tb;text-anchor:start;baseline-shift:baseline;color:#000000;fill:#ffffff;fill-opacity:1;stroke:#000000;stroke-width:1;stroke-miterlimit:4;stroke-dasharray:none;marker:none;visibility:visible;display:inline;overflow:visible;enable-background:accumulate;font-family:Sans;-inkscape-font-specification:Sans" />
    <path
       style="font-size:medium;font-style:normal;font-variant:normal;font-weight:normal;font-stretch:normal;text-indent:0;text-align:start;text-decoration:none;line-height:normal;letter-spacing:normal;word-spacing:normal;text-transform:none;direction:ltr;block-progression:tb;writing-mode:lr-tb;text-anchor:start;baseline-shift:baseline;color:#000000;fill:#ffffff;fill-opacity:1;stroke:#000000;stroke-width:1;stroke-miterlimit:4;stroke-dasharray:none;marker:none;visibility:visible;display:inline;overflow:visible;enable-background:accumulate;font-family:Sans;-inkscape-font-specification:Sans"
       d="m 267.21875,118.21875 a 4.0004,4.0004 0 0 0 -3.125,2.0625 l -6.3125,10.96875 a 4.0004,4.0004 0 0 0 -0.53125,2.0625 l 0.125,8.71875 a 4.0004883,4.0004883 0 1 0 8,-0.125 l -0.0937,-7.625 5.75,-10.03125 a 4.0004,4.0004 0 0 0 -3.8125,-6.03125 z"
       id="path3925"
       inkscape:connector-curvature="0" />
    <path
       style="fill:#ffffff;stroke:#000000;stroke-width:1px;stroke-linecap:butt;stroke-linejoin:miter;stroke-opacity:1"
       d="m 294.61432,117.79372 c 2.78045,-1.69602 7.11236,0.34249 9.68281,4.55649 0.5849,0.95885 1.18961,1.84483 1.71151,2.68642 -1.94344,3.55452 -6.12348,6.38515 -9.80589,6.79807 -0.63641,-0.98766 -1.25415,-2.15155 -1.97907,-3.33993 -2.57045,-4.21401 -2.38982,-9.00504 0.39063,-10.70104 z"
       id="path3902"
       inkscape:connector-curvature="0" />
    <path
       inkscape:connector-curvature="0"
       id="path3900"
       d="m 270.7653,117.79372 c -2.78045,-1.69602 -7.11236,0.34249 -9.68281,4.55649 -0.5849,0.95885 -1.18961,1.84483 -1.71151,2.68642 1.94344,3.55452 6.12348,6.38515 9.80589,6.79807 0.63641,-0.98766 1.25415,-2.15155 1.97907,-3.33993 2.57045,-4.21401 2.38982,-9.00504 -0.39063,-10.70104 z"
       style="fill:#ffffff;stroke:#000000;stroke-width:1px;stroke-linecap:butt;stroke-linejoin:miter;stroke-opacity:1" />
    <path
       style="fill:#ffffff;stroke:#000000;stroke-width:0.90361446;stroke-linecap:round;stroke-linejoin:round"
       d="m 296.25,119.50504 c 0,7.39667 2.55589,13.39286 -13.39285,13.39286 -15.94874,0 -13.39286,-5.99619 -13.39286,-13.39286 0,-7.39667 5.99619,-13.39285 13.39286,-13.39285 7.39667,0 13.39285,5.99618 13.39285,13.39285 z"
       id="path3869"
       inkscape:connector-curvature="0"
       sodipodi:nodetypes="szsss"
       transform="matrix(1.1066667,0,0,1.1066667,-30.171428,-3.4614899)" />
    <path
       style="fill:#ffffff;stroke:#000000;stroke-width:1px;stroke-linecap:butt;stroke-linejoin:miter;stroke-opacity:1"
       d="m 282.84854,113.96875 c -14.48553,0 -15.87217,7.03951 -15.87217,15.7349 0,1.97854 -0.1478,3.8657 -0.16743,5.61012 9.45326,3.56282 23.03362,3.98528 32.0792,1.22825 0.078,-2.06915 -0.13394,-4.38618 -0.13394,-6.83837 0,-8.69539 0.008,-15.7349 -15.90566,-15.7349 z"
       id="path3877"
       inkscape:connector-curvature="0"
       sodipodi:nodetypes="ssccss" />
    <g
       id="g3915"
       transform="translate(0.91742581,0)">
      <path
         sodipodi:nodetypes="sssss"
         inkscape:connector-curvature="0"
         id="path3002"
         d="m 299.28235,102.40446 c 2.32655,12.26792 -7.82189,17.47111 -17.47142,17.47335 -9.65529,0.002 -19.366,-7.01104 -17.47142,-17.47335 1.71956,-9.495798 7.82222,-17.473355 17.47142,-17.473355 9.6492,0 15.67334,7.992114 17.47142,17.473355 z"
         style="fill:#ffffff;stroke:#000000;stroke-width:1" />
      <path
         transform="matrix(0.83623889,0,0,0.83633136,44.586897,20.274426)"
         d="m 274.99999,100.75504 c 0,1.28209 -1.03934,2.32143 -2.32143,2.32143 -1.28209,0 -2.32143,-1.03934 -2.32143,-2.32143 0,-1.282087 1.03934,-2.321426 2.32143,-2.321426 1.28209,0 2.32143,1.039339 2.32143,2.321426 z"
         sodipodi:ry="2.3214285"
         sodipodi:rx="2.3214285"
         sodipodi:cy="100.75504"
         sodipodi:cx="272.67856"
         id="path3006"
         style="fill:#ffffff;stroke:#000000;stroke-width:1.19576442"
         sodipodi:type="arc" />
      <path
         sodipodi:type="arc"
         style="fill:#ffffff;stroke:#000000;stroke-width:1.19576442"
         id="path3009"
         sodipodi:cx="272.67856"
         sodipodi:cy="100.75504"
         sodipodi:rx="2.3214285"
         sodipodi:ry="2.3214285"
         d="m 274.99999,100.75504 c 0,1.28209 -1.03934,2.32143 -2.32143,2.32143 -1.28209,0 -2.32143,-1.03934 -2.32143,-2.32143 0,-1.282087 1.03934,-2.321426 2.32143,-2.321426 1.28209,0 2.32143,1.039339 2.32143,2.321426 z"
         transform="matrix(0.83623889,0,0,0.83633136,64.438025,20.274426)" />
      <path
         sodipodi:nodetypes="csc"
         inkscape:connector-curvature="0"
         id="path3011"
         d="m 273.614,109.48588 c 0,2.96439 5.64913,0 8.60568,0 2.95655,0 8.60567,2.59854 8.60567,0"
         style="fill:none;stroke:#000000;stroke-width:1px;stroke-linecap:butt;stroke-linejoin:miter;stroke-opacity:1" />
      <path
         inkscape:connector-curvature="0"
         id="path3013"
         d="m 284.17824,109.86625 c 0,0 0.16944,5.22974 1.93101,5.22974 1.76158,0 1.89882,-4.4029 1.89882,-4.4029"
         style="fill:none;stroke:#000000;stroke-width:1px;stroke-linecap:butt;stroke-linejoin:miter;stroke-opacity:1"
         sodipodi:nodetypes="csc" />
      <path
         transform="matrix(0.83623889,0,0,0.83633136,47.833824,20.380029)"
         d="m 279.91071,103.34432 c 0,0.34518 -0.27983,0.625 -0.625,0.625 -0.34518,0 -0.625,-0.27982 -0.625,-0.625 0,-0.34518 0.27982,-0.625 0.625,-0.625 0.34517,0 0.625,0.27982 0.625,0.625 z"
         sodipodi:ry="0.625"
         sodipodi:rx="0.625"
         sodipodi:cy="103.34432"
         sodipodi:cx="279.28571"
         id="path3015"
         style="fill:#000000;stroke:none"
         sodipodi:type="arc" />
      <path
         sodipodi:type="arc"
         style="fill:#000000;stroke:none"
         id="path3017"
         sodipodi:cx="279.28571"
         sodipodi:cy="103.34432"
         sodipodi:rx="0.625"
         sodipodi:ry="0.625"
         d="m 279.91071,103.34432 c 0,0.34518 -0.27983,0.625 -0.625,0.625 -0.34518,0 -0.625,-0.27982 -0.625,-0.625 0,-0.34518 0.27982,-0.625 0.625,-0.625 0.34517,0 0.625,0.27982 0.625,0.625 z"
         transform="matrix(0.83623889,0,0,0.83633136,49.602475,20.380029)" />
      <path
         sodipodi:nodetypes="ccsscscc"
         inkscape:connector-curvature="0"
         id="path3845"
         d="m 281.8072,84.176069 c -10.53166,-10.030939 -16.79493,7.937908 -19.21109,18.156001 1.60436,-0.058 5.72273,-0.20062 6.27552,-0.20062 4.36516,0 11.04663,0.45325 17.56958,0.56407 1.40839,0.0239 4.1781,-7.244609 4.1781,-7.244609 0,0 2.7909,7.201899 4.10735,7.125499 2.46123,-0.14284 4.70645,-0.40573 6.5567,-0.8462 -2.53628,-9.902764 -7.40419,-30.259997 -19.47616,-17.554141 z"
         style="fill:#ffffff;stroke:#000000;stroke-width:1px;stroke-linecap:butt;stroke-linejoin:miter;stroke-opacity:1" />
    </g>
    <path
       transform="translate(3.5714505,36.607144)"
       d="m 279.91071,103.34432 c 0,0.34518 -0.27983,0.625 -0.625,0.625 -0.34518,0 -0.625,-0.27982 -0.625,-0.625 0,-0.34518 0.27982,-0.625 0.625,-0.625 0.34517,0 0.625,0.27982 0.625,0.625 z"
       sodipodi:ry="0.625"
       sodipodi:rx="0.625"
       sodipodi:cy="103.34432"
       sodipodi:cx="279.28571"
       id="path3017-7"
       style="fill:#000000;stroke:none"
       sodipodi:type="arc" />
    <path
       sodipodi:nodetypes="sscscscss"
       inkscape:connector-curvature="0"
       id="path3904"
       d="m 282.84911,142.18303 c -13.51843,0 -14.81249,-8.01601 -14.81249,0.16964 0,1.86256 -2.45936,14.21722 -2.47768,15.85938 3.73532,1.42008 10.48254,2.1029 14.98523,2.22121 1.3675,0.0359 4.1066,-11.65073 4.1066,-11.65073 0,0 2.1331,11.47877 3.18206,11.37337 3.61295,-0.36302 11.58335,-1.04272 14.51431,-1.94385 0.0728,-1.94785 -4.65428,-13.55094 -4.65428,-15.85938 0,-8.18565 0.007,-0.16964 -14.84375,-0.16964 z"
       style="fill:#ffffff;stroke:#000000;stroke-width:1px;stroke-linecap:butt;stroke-linejoin:miter;stroke-opacity:1" />
    <path
       style="fill:#ffffff;stroke:#000000;stroke-width:1px;stroke-linecap:butt;stroke-linejoin:miter;stroke-opacity:1"
       d="m 267.89862,137.88393 c -0.49735,0.10615 -0.67479,0.74874 -0.72898,2.3125 16.00702,5.9858 25.32957,3.19606 31.37946,-0.15625 -0.0917,-5.28825 -1.21932,1.34375 -15.7063,1.34375 -9.85472,0 -13.57646,-3.79193 -14.94418,-3.5 z"
       id="path3906"
       inkscape:connector-curvature="0"
       sodipodi:nodetypes="cccsc" />
    <path
       sodipodi:type="arc"
       style="fill:#ffffff;stroke:#000000;stroke-linecap:round;stroke-linejoin:round"
       id="path3911"
       sodipodi:cx="273.92856"
       sodipodi:cy="157.54076"
       sodipodi:rx="7.6785712"
       sodipodi:ry="4.8214288"
       d="m 281.60713,157.54076 c 0,2.6628 -3.43781,4.82143 -7.67857,4.82143 -4.24076,0 -7.67857,-2.15863 -7.67857,-4.82143 0,-2.66281 3.43781,-4.82143 7.67857,-4.82143 4.24076,0 7.67857,2.15862 7.67857,4.82143 z"
       transform="translate(-1.25,4.4642857)" />
    <path
       transform="translate(21.964286,4.4642857)"
       d="m 281.60713,157.54076 c 0,2.6628 -3.43781,4.82143 -7.67857,4.82143 -4.24076,0 -7.67857,-2.15863 -7.67857,-4.82143 0,-2.66281 3.43781,-4.82143 7.67857,-4.82143 4.24076,0 7.67857,2.15862 7.67857,4.82143 z"
       sodipodi:ry="4.8214288"
       sodipodi:rx="7.6785712"
       sodipodi:cy="157.54076"
       sodipodi:cx="273.92856"
       id="path3913"
       style="fill:#ffffff;stroke:#000000;stroke-linecap:round;stroke-linejoin:round"
       sodipodi:type="arc" />
    <g
       transform="translate(210.019,9.3439111)"
       id="g3933">
      <g
         id="g3046"
         transform="translate(22.436016,-8.6148418)">
        <path
           sodipodi:nodetypes="sssss"
           inkscape:connector-curvature="0"
           id="path3935"
           d="m 418.795,-27.599788 c 8.18484,43.158756 -27.51755,61.463669 -61.46476,61.471549 -33.96748,0.007 -68.12993,-24.6649607 -61.46476,-61.471549 6.04944,-33.406379 27.51871,-61.471564 61.46476,-61.471564 33.94605,0 55.13908,28.116396 61.46476,61.471564 z"
           style="fill:#000000;stroke:#00ff00;stroke-width:3.51801729" />
        <g
           style="fill:#000000;stroke:#00ff00"
           transform="matrix(3.5180174,0,0,3.5180174,-634.08552,-387.86046)"
           id="g4243">
          <path
             sodipodi:type="arc"
             style="fill:#000000;stroke:#00ff00;stroke-width:1.19576442"
             id="path3937"
             sodipodi:cx="272.67856"
             sodipodi:cy="100.75504"
             sodipodi:rx="2.3214285"
             sodipodi:ry="2.3214285"
             d="m 274.99999,100.75504 c 0,1.28209 -1.03934,2.32143 -2.32143,2.32143 -1.28209,0 -2.32143,-1.03934 -2.32143,-2.32143 0,-1.282087 1.03934,-2.321426 2.32143,-2.321426 1.28209,0 2.32143,1.039339 2.32143,2.321426 z"
             transform="matrix(0.83623889,0,0,0.83633136,47.112278,13.708434)" />
          <path
             transform="matrix(0.83623889,0,0,0.83633136,66.963406,13.708434)"
             d="m 274.99999,100.75504 c 0,1.28209 -1.03934,2.32143 -2.32143,2.32143 -1.28209,0 -2.32143,-1.03934 -2.32143,-2.32143 0,-1.282087 1.03934,-2.321426 2.32143,-2.321426 1.28209,0 2.32143,1.039339 2.32143,2.321426 z"
             sodipodi:ry="2.3214285"
             sodipodi:rx="2.3214285"
             sodipodi:cy="100.75504"
             sodipodi:cx="272.67856"
             id="path3939"
             style="fill:#000000;stroke:#00ff00;stroke-width:1.19576442"
             sodipodi:type="arc" />
          <path
             style="fill:#000000;stroke:#00ff00;stroke-width:1px;stroke-linecap:butt;stroke-linejoin:miter;stroke-opacity:1"
             d="m 277.52834,102.91989 c 0,2.96439 5.64913,0 8.60568,0 2.95655,0 8.60567,2.59854 8.60567,0"
             id="path3941"
             inkscape:connector-curvature="0"
             sodipodi:nodetypes="csc" />
          <path
             sodipodi:type="arc"
             style="fill:#00ff00;stroke:none"
             id="path3945"
             sodipodi:cx="279.28571"
             sodipodi:cy="103.34432"
             sodipodi:rx="0.625"
             sodipodi:ry="0.625"
             d="m 279.91071,103.34432 c 0,0.34518 -0.27983,0.625 -0.625,0.625 -0.34518,0 -0.625,-0.27982 -0.625,-0.625 0,-0.34518 0.27982,-0.625 0.625,-0.625 0.34517,0 0.625,0.27982 0.625,0.625 z"
             transform="matrix(0.83623889,0,0,0.83633136,51.748165,13.814037)" />
          <path
             transform="matrix(0.83623889,0,0,0.83633136,53.516816,13.814037)"
             d="m 279.91071,103.34432 c 0,0.34518 -0.27983,0.625 -0.625,0.625 -0.34518,0 -0.625,-0.27982 -0.625,-0.625 0,-0.34518 0.27982,-0.625 0.625,-0.625 0.34517,0 0.625,0.27982 0.625,0.625 z"
             sodipodi:ry="0.625"
             sodipodi:rx="0.625"
             sodipodi:cy="103.34432"
             sodipodi:cx="279.28571"
             id="path3947"
             style="fill:#00ff00;stroke:none"
             sodipodi:type="arc" />
        </g>
        <path
           sodipodi:nodetypes="ccccccccccssscccccccccscccsccccsccccsccccscccsccccsccccscccsccsccsccccscccccc"
           inkscape:connector-curvature="0"
           id="path3958"
           d="m 447.34389,-2.5845425 c -1.40222,0.2107292 -2.67574,1.1446221 -3.29815,2.41863693 l -3.1882,6.04659237 -0.10976,-1.4291945 c -0.21917,-2.3067289 -2.5328,-4.19963331 -4.83727,-3.95776961 -2.30958,0.27053554 -4.15404,2.64210141 -3.84784,4.94721201 l 0.76957,7.9155393 c -0.41404,0.925801 -0.70564,1.93804 -0.8795,2.968327 l -46.5038,29.683272 c -0.0211,-0.01759 -0.0879,0.01759 -0.10976,0 -3.57606,-3.082839 -7.63779,-5.480192 -12.20312,-7.036035 -3.77821,-1.287594 -1.42958,-29.6798593 -12.09319,-29.6832718 -10.6636,-0.00345 -8.30762,28.3900488 -12.09318,29.6832718 -4.58915,1.567734 -8.72599,3.926143 -12.31306,7.036035 -0.0366,-2.46e-4 -0.0732,-2.46e-4 -0.10976,0 -0.18435,0.03166 -0.36771,0.06755 -0.54969,0.109762 l -57.05785,14.511822 c -0.0366,-2.47e-4 -0.0732,-2.47e-4 -0.10976,0 -0.37481,-0.156904 -0.70262,-0.318381 -1.09938,-0.439752 -1.6884,-0.517149 -3.41012,-0.638626 -5.05715,-0.439753 l -7.36585,-3.078265 c -0.54744,-0.266314 -1.15067,-0.417026 -1.75901,-0.439752 -2.14736,-0.224801 -4.33237,1.375228 -4.76624,3.490295 -0.43385,2.115068 0.94476,4.446141 3.00723,5.084872 l 1.20862,0.549866 -6.59629,1.209319 c -2.50324,0.09886 -4.59762,2.705707 -4.15506,5.171486 0.44261,2.465813 3.31278,4.181445 5.6942,3.403681 l 4.17764,-0.769566 c 0.0693,0.333508 0.12348,0.664272 0.21988,0.989442 l -4.28759,2.308699 c -2.01473,1.122494 -2.82651,3.976908 -1.70402,5.991606 1.12246,2.014734 3.97687,2.826551 5.99161,1.704057 l 5.38696,-3.078265 c 0.1365,0.08373 0.29939,0.141073 0.43975,0.219876 l -1.09938,2.748451 c -1.27032,2.149263 -0.23113,5.30999 2.06705,6.285853 2.298,0.975863 5.29409,-0.471168 5.95843,-2.877773 l 2.08882,-4.947212 c 3.40516,-0.880454 6.31762,-3.192988 7.91554,-6.486345 l 39.35782,-10.004362 c -0.43451,2.277916 -0.65963,4.63154 -0.65963,7.036035 0,7.81619 2.3785,15.113086 6.48635,21.108104 l -17.62133,33.571276 -13.13174,4.07665 c -4.63562,1.37051 -7.44866,7.06287 -5.72152,11.57776 1.72717,4.51488 7.62122,6.87635 11.98799,4.80301 l 16.31994,-5.28597 c 2.07335,-0.7544 3.83939,-2.31978 4.83728,-4.28758 l 17.07163,-32.4719 c 5.11351,2.6338 10.89235,4.17765 17.0404,4.17765 6.01071,0 11.68147,-1.4331 16.71058,-3.95777 l 14.40189,29.35345 c 1.18722,2.40232 3.52913,4.20059 6.15653,4.72734 l 17.0404,3.29814 c 4.61176,1.1073 9.80299,-2.2434 10.69315,-6.90196 0.89016,-4.65856 -2.69987,-9.68721 -7.39501,-10.35831 L 406.00718,125.2734 391.49536,95.919945 c 4.35042,-6.102564 6.9261,-13.592212 6.9261,-21.657795 0,-4.91562 -1.02121,-9.66431 -2.74845,-13.962132 l 46.72366,-29.793209 c 0.51898,0.06719 1.0019,0.109762 1.53914,0.109762 4.40462,0 8.28528,-2.337441 10.44411,-5.826717 l 5.38696,-0.54969 c 2.303,-0.229726 4.18926,-2.53445 3.95897,-4.837379 -0.23043,-2.302965 -2.53561,-4.188587 -4.83847,-3.957664 l -2.96833,0.329638 c -0.0317,-0.149868 -0.0725,-0.291995 -0.10976,-0.439752 l 4.50746,-4.287584 c 1.35285,-1.1909543 1.84678,-3.2609558 1.17738,-4.9344415 -0.66938,-1.6734505 -2.45467,-2.8317929 -4.25564,-2.7612215 -1.10814,0.044327 -2.19285,0.5264361 -2.96833,1.3192565 l -3.51802,3.4080794 c -0.2737,-0.1801225 -0.59103,-0.2814414 -0.8795,-0.4397522 l 1.97888,-3.7378935 c 1.59022,-2.8569819 -1.27528,-6.9804853 -4.50746,-6.4863445 z"
           style="fill:#000000;stroke:#00ff00;stroke-width:3.51801729;stroke-linecap:round;stroke-linejoin:round;stroke-miterlimit:4" />
        <rect
           style="fill:#000000;stroke:none"
           id="rect3963"
           width="42.090565"
           height="25.442804"
           x="340.93948"
           y="-0.0068197572" />
      </g>
    </g>
    <g
       id="g4132"
       transform="translate(-50.600357,129.04699)">
      <path
         sodipodi:nodetypes="sssss"
         inkscape:connector-curvature="0"
         id="path4134"
         d="m 299.28235,102.40446 c 2.32655,12.26792 -7.82189,17.47111 -17.47142,17.47335 -9.65529,0.002 -19.366,-7.01104 -17.47142,-17.47335 1.71956,-9.495798 7.82222,-17.473355 17.47142,-17.473355 9.6492,0 15.67334,7.992114 17.47142,17.473355 z"
         style="fill:#ffffff;stroke:#000000;stroke-width:1" />
      <g
         transform="translate(2.5253814,-6.5659916)"
         id="g4136">
        <path
           sodipodi:type="arc"
           style="fill:#ffffff;stroke:#000000;stroke-width:1.19576442"
           id="path4138"
           sodipodi:cx="272.67856"
           sodipodi:cy="100.75504"
           sodipodi:rx="2.3214285"
           sodipodi:ry="2.3214285"
           d="m 274.99999,100.75504 c 0,1.28209 -1.03934,2.32143 -2.32143,2.32143 -1.28209,0 -2.32143,-1.03934 -2.32143,-2.32143 0,-1.282087 1.03934,-2.321426 2.32143,-2.321426 1.28209,0 2.32143,1.039339 2.32143,2.321426 z"
           transform="matrix(0.83623889,0,0,0.83633136,44.586897,20.274426)" />
        <path
           transform="matrix(0.83623889,0,0,0.83633136,64.438025,20.274426)"
           d="m 274.99999,100.75504 c 0,1.28209 -1.03934,2.32143 -2.32143,2.32143 -1.28209,0 -2.32143,-1.03934 -2.32143,-2.32143 0,-1.282087 1.03934,-2.321426 2.32143,-2.321426 1.28209,0 2.32143,1.039339 2.32143,2.321426 z"
           sodipodi:ry="2.3214285"
           sodipodi:rx="2.3214285"
           sodipodi:cy="100.75504"
           sodipodi:cx="272.67856"
           id="path4140"
           style="fill:#ffffff;stroke:#000000;stroke-width:1.19576442"
           sodipodi:type="arc" />
        <path
           style="fill:none;stroke:#000000;stroke-width:1px;stroke-linecap:butt;stroke-linejoin:miter;stroke-opacity:1"
           d="m 275.00296,109.48588 c 0,2.96439 5.64913,0 8.60568,0 2.95655,0 8.60567,2.59854 8.60567,0"
           id="path4142"
           inkscape:connector-curvature="0"
           sodipodi:nodetypes="csc" />
        <path
           sodipodi:type="arc"
           style="fill:#000000;stroke:none"
           id="path4144"
           sodipodi:cx="279.28571"
           sodipodi:cy="103.34432"
           sodipodi:rx="0.625"
           sodipodi:ry="0.625"
           d="m 279.91071,103.34432 c 0,0.34518 -0.27983,0.625 -0.625,0.625 -0.34518,0 -0.625,-0.27982 -0.625,-0.625 0,-0.34518 0.27982,-0.625 0.625,-0.625 0.34517,0 0.625,0.27982 0.625,0.625 z"
           transform="matrix(0.83623889,0,0,0.83633136,49.222784,20.380029)" />
        <path
           transform="matrix(0.83623889,0,0,0.83633136,50.991435,20.380029)"
           d="m 279.91071,103.34432 c 0,0.34518 -0.27983,0.625 -0.625,0.625 -0.34518,0 -0.625,-0.27982 -0.625,-0.625 0,-0.34518 0.27982,-0.625 0.625,-0.625 0.34517,0 0.625,0.27982 0.625,0.625 z"
           sodipodi:ry="0.625"
           sodipodi:rx="0.625"
           sodipodi:cy="103.34432"
           sodipodi:cx="279.28571"
           id="path4146"
           style="fill:#000000;stroke:none"
           sodipodi:type="arc" />
        <path
           transform="translate(-217.40795,-2.7779195)"
           sodipodi:nodetypes="sssszss"
           inkscape:connector-curvature="0"
           id="path4148"
           d="m 507.34912,139.18428 c 0,5.85786 -4.74873,10.6066 -10.6066,10.6066 -5.85786,0 -10.6066,-4.74874 -10.6066,-10.6066 0,-4.65729 3.0017,-8.61351 7.176,-10.03953 1.07605,-0.3676 0.39946,-8.42519 3.4306,-8.42421 3.03114,9.7e-4 2.3493,8.0557 3.42326,8.4217 4.17812,1.42389 7.18334,5.38201 7.18334,10.04204 z"
           style="fill:#ffffff;stroke:#000000;stroke-width:1;stroke-linecap:round;stroke-linejoin:round;stroke-miterlimit:4" />
        <rect
           transform="translate(-212.54438,-2.7779195)"
           y="118.07647"
           x="486.16071"
           height="7.2321429"
           width="11.964286"
           id="rect4150"
           style="fill:#ffffff;stroke:none" />
        <path
           sodipodi:nodetypes="cc"
           transform="translate(-212.54438,-2.7779195)"
           inkscape:connector-curvature="0"
           id="path4152"
           d="m 499.28572,133.79075 14.82143,-9.46428"
           style="fill:none;stroke:#000000;stroke-width:5;stroke-linecap:round;stroke-linejoin:round;stroke-miterlimit:4;stroke-opacity:1;stroke-dasharray:none" />
        <path
           sodipodi:nodetypes="cc"
           style="fill:none;stroke:#000000;stroke-width:5;stroke-linecap:round;stroke-linejoin:round;stroke-miterlimit:4;stroke-opacity:1;stroke-dasharray:none"
           d="m 256.58139,134.94857 16.21275,-4.12147"
           id="path4154"
           inkscape:connector-curvature="0" />
        <path
           sodipodi:nodetypes="ccc"
           transform="translate(-212.54438,-2.7779195)"
           inkscape:connector-curvature="0"
           id="path4156"
           d="m 486.07143,144.86218 -5.27589,10.71166 -3.26862,1.25263"
           style="fill:none;stroke:#000000;stroke-width:5;stroke-linecap:round;stroke-linejoin:round;stroke-miterlimit:4;stroke-opacity:1;stroke-dasharray:none" />
        <path
           sodipodi:nodetypes="ccc"
           style="fill:none;stroke:#000000;stroke-width:5;stroke-linecap:round;stroke-linejoin:round;stroke-miterlimit:4;stroke-opacity:1;stroke-dasharray:none"
           d="m 284.95562,142.08426 5.43383,11.03232 4.83403,0.93197"
           id="path4158"
           inkscape:connector-curvature="0" />
        <g
           id="g4160">
          <path
             sodipodi:type="arc"
             style="fill:#000000;stroke:none"
             id="path4162"
             sodipodi:cx="515.625"
             sodipodi:cy="124.23718"
             sodipodi:rx="3.4821429"
             sodipodi:ry="3.4821429"
             d="m 519.10714,124.23718 c 0,1.92314 -1.55901,3.48215 -3.48214,3.48215 -1.92313,0 -3.48214,-1.55901 -3.48214,-3.48215 0,-1.92313 1.55901,-3.48214 3.48214,-3.48214 1.92313,0 3.48214,1.55901 3.48214,3.48214 z"
             transform="translate(-212.72295,-3.7154195)" />
          <path
             sodipodi:nodetypes="cc"
             transform="translate(-212.54438,-2.7779195)"
             inkscape:connector-curvature="0"
             id="path4164"
             d="m 513.59944,122.51676 -0.31567,-3.03046"
             style="fill:none;stroke:#000000;stroke-width:2.5;stroke-linecap:round;stroke-linejoin:round;stroke-miterlimit:4;stroke-opacity:1;stroke-dasharray:none" />
          <path
             transform="translate(-212.54438,-2.7779195)"
             inkscape:connector-curvature="0"
             id="path4166"
             d="m 514.79899,122.01169 1.76777,-3.40927"
             style="fill:none;stroke:#000000;stroke-width:2.5;stroke-linecap:round;stroke-linejoin:round;stroke-miterlimit:4;stroke-dasharray:none" />
          <path
             sodipodi:nodetypes="cc"
             transform="translate(-212.54438,-2.7779195)"
             inkscape:connector-curvature="0"
             id="path4168"
             d="m 519.21841,120.30706 -2.96733,2.84105"
             style="fill:none;stroke:#000000;stroke-width:2.5;stroke-linecap:round;stroke-linejoin:round;stroke-miterlimit:4;stroke-dasharray:none" />
          <path
             sodipodi:nodetypes="cc"
             transform="translate(-212.54438,-2.7779195)"
             inkscape:connector-curvature="0"
             id="path4170"
             d="m 516.69303,124.03199 3.09359,-0.31567"
             style="fill:none;stroke:#000000;stroke-width:2.5;stroke-linecap:round;stroke-linejoin:round;stroke-miterlimit:4;stroke-dasharray:none" />
        </g>
        <g
           transform="matrix(-0.2928606,0.95615515,0.95615515,0.2928606,228.08235,-189.17644)"
           id="g4172">
          <path
             transform="translate(-212.72295,-3.7154195)"
             d="m 519.10714,124.23718 c 0,1.92314 -1.55901,3.48215 -3.48214,3.48215 -1.92313,0 -3.48214,-1.55901 -3.48214,-3.48215 0,-1.92313 1.55901,-3.48214 3.48214,-3.48214 1.92313,0 3.48214,1.55901 3.48214,3.48214 z"
             sodipodi:ry="3.4821429"
             sodipodi:rx="3.4821429"
             sodipodi:cy="124.23718"
             sodipodi:cx="515.625"
             id="path4174"
             style="fill:#000000;stroke:none"
             sodipodi:type="arc" />
          <path
             style="fill:none;stroke:#000000;stroke-width:2.5;stroke-linecap:round;stroke-linejoin:round;stroke-miterlimit:4;stroke-opacity:1;stroke-dasharray:none"
             d="m 513.59944,122.51676 -0.31567,-3.03046"
             id="path4176"
             inkscape:connector-curvature="0"
             transform="translate(-212.54438,-2.7779195)"
             sodipodi:nodetypes="cc" />
          <path
             style="fill:none;stroke:#000000;stroke-width:2.5;stroke-linecap:round;stroke-linejoin:round;stroke-miterlimit:4;stroke-dasharray:none"
             d="m 514.79899,122.01169 1.76777,-3.40927"
             id="path4178"
             inkscape:connector-curvature="0"
             transform="translate(-212.54438,-2.7779195)" />
          <path
             style="fill:none;stroke:#000000;stroke-width:2.5;stroke-linecap:round;stroke-linejoin:round;stroke-miterlimit:4;stroke-dasharray:none"
             d="m 519.21841,120.30706 -2.96733,2.84105"
             id="path4180"
             inkscape:connector-curvature="0"
             transform="translate(-212.54438,-2.7779195)"
             sodipodi:nodetypes="cc" />
          <path
             style="fill:none;stroke:#000000;stroke-width:2.5;stroke-linecap:round;stroke-linejoin:round;stroke-miterlimit:4;stroke-dasharray:none"
             d="m 516.69303,124.03199 3.09359,-0.31567"
             id="path4182"
             inkscape:connector-curvature="0"
             transform="translate(-212.54438,-2.7779195)"
             sodipodi:nodetypes="cc" />
        </g>
      </g>
    </g>
  </g>
</svg>
